<?xml version="1.0" standalone="no"?>
<!DOCTYPE svg PUBLIC "-//W3C//DTD SVG 1.1//EN" "http://www.w3.org/Graphics/SVG/1.1/DTD/svg11.dtd" >
<svg>
<metadata>
Created by FontForge 20090914 at Sat Oct 10 06:37:40 2015
 By www-data
URW Software, Copyright 1994 by URW
</metadata>
<defs>
<font id="CircleD" horiz-adv-x="512" >
  <font-face 
    font-family="Circle"
    font-weight="400"
    font-stretch="normal"
    units-per-em="2048"
    panose-1="4 3 3 5 2 15 2 2 5 4"
    ascent="1697"
    descent="-351"
    x-height="1017"
    cap-height="1017"
    bbox="-407 -512 2132 2107"
    underline-thickness="41"
    underline-position="-171"
    unicode-range="U+0020-U+F002"
  />
<missing-glyph horiz-adv-x="1024" 
d="M64 0v2107h896v-2107h-896zM896 64v1979h-768v-1979h768z" />
    <glyph glyph-name=".notdef" horiz-adv-x="1024" 
d="M64 0v2107h896v-2107h-896zM896 64v1979h-768v-1979h768z" />
    <glyph glyph-name="space" unicode=" " 
 />
    <glyph glyph-name="exclam" unicode="!" horiz-adv-x="274" 
d="M137 157c22 0 40.666 -7.66797 55.999 -23.001s23 -34 23 -56c0 -21.333 -7.66699 -39.666 -23 -54.999s-33.666 -23 -54.999 -23c-22 0 -40.667 7.66699 -56 23s-23 34 -23 56c0 21.333 7.33301 39.333 22 54c8 8 16.333 14 25 18s19 6 31 6zM137.999 131.999
c-15.333 0 -28.167 -5.16504 -38.5 -15.498s-15.5 -22.833 -15.5 -37.5s5 -27.334 15 -38.001s23 -16 39 -16c13.333 0 25.5 5.16699 36.5 15.5s16.5 22.833 16.5 37.5c0 13.333 -4.83301 25.166 -14.5 35.499s-22.5 16.5 -38.5 18.5zM149.998 1252l-0.000976562 -987
c0 -10 -4 -15 -12 -15c-7.33301 0 -11.666 5 -12.999 15v987c0 10 4.33301 15 13 15c8 0 12 -5 12 -15z" />
    <glyph glyph-name="quotedbl" unicode="&#x22;" horiz-adv-x="328" 
d="M96 620l-0.000976562 382c0 10 4.33301 15 13 15c8 0 12 -5 12 -15v-382c0 -10 -4 -15 -12 -15c-7.33301 0 -11.666 5 -12.999 15zM207.999 620l-0.000976562 382c0 10 4.33301 15 13 15c8 0 12 -5 12 -15v-382c0 -10 -4 -15 -12 -15c-7.33301 0 -11.666 5 -12.999 15z
" />
    <glyph glyph-name="numbersign" unicode="#" horiz-adv-x="803" 
d="M240 725h382l39 279c0.666992 8 5 12.333 13 13c9.33301 0 13.333 -4 12 -12l-1 -4l-38 -276h127c8 0 12.333 -3.66699 13 -11c0 -9.33301 -5.66699 -14 -17 -14h-127l-52 -368h127c8.66699 0 13.334 -3.66699 14.001 -11c0 -9.33301 -6 -14 -18 -14h-126l-41 -294
c-0.666992 -8 -5 -12.333 -13 -13c-8 0 -12 4 -12 12l1 5l40 290h-382l-41 -294c-0.666992 -8 -5 -12.333 -13 -13c-8 0 -12 4 -12 12l1 5l40 290h-127c-8 0 -12.333 3.66699 -13 11c0 9.33301 5.66699 14 17 14h127l52 368h-127c-8.66699 0 -13.334 3.66699 -14.001 11
c0 9.33301 6 14 18 14h126l39 279c0.666992 8 5 12.333 13 13c8 0 12 -4 12 -12l-1 -4zM236 700l-52 -368h383l52 368h-383z" />
    <glyph glyph-name="dollar" unicode="$" horiz-adv-x="768" 
d="M388 1016l-0.00488281 -361.999h14c25.333 0 51.333 -4.33301 78 -13s53 -20.667 79 -36c51.333 -30 91.5 -71 120.5 -123s43.5 -107.667 43.5 -167c0 -97.333 -35.667 -179.666 -107 -246.999c-31.333 -29.333 -66 -52 -104 -68s-79.333 -24 -124 -24v-102
c0 -10 -4 -15 -12 -15c-7.33301 0 -11.666 5 -12.999 15v103l-13 1c-30 0 -59.167 5.83301 -87.5 17.5s-56.833 28.5 -85.5 50.5c-51.333 39.333 -88.666 90.333 -111.999 153c-13.333 36 -20 68.333 -20 97c0 7.33301 4 11.666 12 12.999c8.66699 0 13 -7 13 -21
c0 -70.667 29.667 -135 89 -193c55.333 -54.667 123.333 -86 204 -94v477c-30 0 -58.333 5.33301 -85 16c-46.667 17.333 -86.667 45.333 -120 84c-22 26 -38.667 54 -50 84s-17 62.667 -17 98c0 76 25.333 140.667 76 194c26.667 27.333 56.334 48.666 89.001 63.999
s68.334 23 107.001 23v76c0 10 4.33301 15 13 15c8 0 12 -5 12 -15v-76c46.667 0 88.5 -10.667 125.5 -32s70 -53.5 99 -96.5s43.5 -82.5 43.5 -118.5c0 -8 -3.66699 -12 -11 -12s-13 10.333 -17 31c-9.33301 54 -36.166 99.833 -80.499 137.5s-97.5 59.5 -159.5 65.5z
M362.995 1016l-14 -1.00195c-18.667 0 -37 -3.16699 -55 -9.5s-37.667 -16.166 -59 -29.499c-36.667 -24 -65.667 -55.5 -87 -94.5s-32 -79.5 -32 -121.5c0 -69.333 23.667 -128.666 71 -177.999c24.667 -25.333 51.5 -44.833 80.5 -58.5s60.833 -20.5 95.5 -20.5v513z
M387.995 0.999023h13.999c24.667 0 48.834 3.83301 72.501 11.5s48.167 19.167 73.5 34.5c45.333 28 81.666 66.167 108.999 114.5s41 99.5 41 153.5c0 73.333 -22.833 138.5 -68.5 195.5s-105.167 94.167 -178.5 111.5c-7.33301 2 -17.166 3.83301 -29.499 5.5
s-23.5 2.5 -33.5 2.5v-629z" />
    <glyph glyph-name="percent" unicode="%" horiz-adv-x="1140" 
d="M890 1016l-616 -1024c-2.66699 -4 -6.66699 -6.66699 -12 -8c-8 0 -12 4 -12 12l3 9l616 1024c2 4 6 6.66699 12 8c8 0 12 -4 12 -12zM295 1041c76.667 0 142 -29.334 196 -88.001c45.333 -50.667 68 -111.667 68 -183c0 -76 -29.333 -140.333 -88 -193
c-50 -46 -109.333 -69 -178 -69c-78 0 -144 29.333 -198 88c-45.333 50.667 -68 110.334 -68 179.001c0 77.333 29.333 143 88 197c50 46 110 69 180 69zM295 1016c-72 0 -132.333 -26.666 -181 -79.999c-41.333 -45.333 -62 -99.333 -62 -162
c0 -70.667 26.667 -130.334 80 -179.001c45.333 -41.333 99 -62 161 -62c72 0 131.667 26.667 179 80c41.333 46.667 62 99 62 157c0 74 -26.667 135.333 -80 184c-44.667 41.333 -97.667 62 -159 62zM848 509c76.667 0 142 -29.334 196 -88.001
c45.333 -50.667 68 -111.667 68 -183c0 -75.333 -29.333 -140 -88 -194c-50.667 -45.333 -110 -68 -178 -68c-78 0 -144 29.333 -198 88c-45.333 50.667 -68 110.334 -68 179.001c0 77.333 29.333 143 88 197c50 46 110 69 180 69zM848 483.999
c-72 0 -132.334 -26.667 -181.001 -80c-41.333 -46.667 -62 -100.667 -62 -162c0 -70.667 26.667 -130.334 80 -179.001c45.333 -41.333 99 -62 161 -62c70.667 0 130.334 26.667 179.001 80c41.333 46.667 62 99.334 62 158.001c0 72.667 -26.667 133.667 -80 183
c-44.667 41.333 -97.667 62 -159 62z" />
    <glyph glyph-name="ampersand" unicode="&#x26;" horiz-adv-x="944" 
d="M742 214l185.001 -199.999l5 -10c0 -8 -4 -12 -12 -12c-3.33301 0 -7 2 -11 6l-186 200l-134 -110c-92.667 -74.667 -180.334 -112 -263.001 -112c-64.667 0 -122 19 -172 57c-39.333 29.333 -70.333 66.166 -93 110.499s-34 91.166 -34 140.499c0 96 49 184 147 264
l129 105l-73 78c-22 24 -38.667 48.5 -50 73.5s-17 50.833 -17 77.5c0 42 16.667 77.667 50 107c17.333 14.667 36 25.667 56 33s42.667 11 68 11c48 0 88.333 -15.333 121 -46s49 -69 49 -115c0 -53.333 -29 -104.666 -87 -153.999l-82 -68l387 -418l183 151l10 4
c8 0 12 -4 12 -12c0 -3.33301 -2 -7 -6 -11zM707.001 216.001l-388 419l-138 -113c-86.667 -71.333 -130 -150.333 -130 -237c0 -78 27 -144.833 81 -200.5s119 -83.5 195 -83.5c76.667 0 160.667 37 252 111zM322.001 668.001l82 68c52 43.333 78 88.333 78 135
c0 40 -13.333 72.833 -40 98.5s-61.334 38.5 -104.001 38.5c-41.333 0 -76.666 -12.167 -105.999 -36.5s-44 -53.833 -44 -88.5c0 -46 20.333 -91.333 61 -136z" />
    <glyph glyph-name="quotesingle" unicode="'" horiz-adv-x="216" 
d="M96 620l-0.000976562 382c0 10 4.33301 15 13 15c8 0 12 -5 12 -15v-382c0 -10 -4 -15 -12 -15c-7.33301 0 -11.666 5 -12.999 15z" />
    <glyph glyph-name="parenleft" unicode="(" horiz-adv-x="549" 
d="M504 1482c8 0 11.998 -4.33398 11.998 -13.001c-2 -5.33301 -3.66699 -8.66602 -5 -9.99902c-48.667 -46.667 -94 -98.667 -136 -156c-160.667 -220 -241 -466.333 -241 -739c0 -173.333 31.667 -334.833 95 -484.5s157.333 -286.5 282 -410.5
c2.66699 -2.66699 4.33398 -6.33398 5.00098 -11.001c0 -8 -4 -12 -12 -12c-5.33301 0 -27.666 21 -66.999 63c-88 98.667 -160 209 -216 331c-74.667 166.667 -112 341.334 -112 524.001c0 109.333 12.333 213.333 37 312s63 196 115 292c60.667 113.333 132 210 214 290
l7 7c10 10 17.333 15.667 22 17z" />
    <glyph glyph-name="parenright" unicode=")" horiz-adv-x="549" 
d="M44 1482c4 0 11.3301 -5.66699 21.9971 -17l7 -7c58 -55.333 114.333 -126.333 169 -213c131.333 -208.667 197 -435.667 197 -681c0 -109.333 -12.333 -213.333 -37 -312s-63 -196 -115 -292c-61.333 -115.333 -132.666 -212 -213.999 -290l-7 -8
c-9.33301 -10 -16.666 -15.333 -21.999 -16c-8 0 -12 4 -12 12c0 4 4.33301 10.333 13 19c118 114 209 248.833 273 404.5s96 319.167 96 490.5c0 254.667 -73.333 488.667 -220 702c-50 73.333 -99.667 132.333 -149 177c-7.33301 7.33301 -11.666 13.333 -12.999 18
c0 8.66699 4 13 12 13z" />
    <glyph glyph-name="asterisk" unicode="*" horiz-adv-x="599" 
d="M312 1143l197.002 64.001l8 1c6 0 9.66699 -4 11 -12c0 -6 -3.66699 -10 -11 -12l-197 -64l121 -168l4 -10c0 -8 -4 -12 -12 -12c-4 0 -7.66699 2.66699 -11 8l-123 167l-121 -167c-3.33301 -4 -7.33301 -6.66699 -12 -8c-8 0 -12 4 -12 12
c1.33301 5.33301 2.66602 8.66602 3.99902 9.99902l121 168l-196 64c-6 2 -9.66699 6 -11 12c0 8 3.66699 12 11 12l7 -1l197 -64v207c0 10 4 15 12 15c7.33301 0 11.666 -5 12.999 -15v-207z" />
    <glyph glyph-name="plus" unicode="+" horiz-adv-x="765" 
d="M370 496l-328.001 -0.000976562c-10 0 -15 4.33301 -15 13c0 8 5 12 15 12h328v328c0 10 4.33301 15 13 15c8 0 12 -5 12 -15v-328h328c10 0 15 -4 15 -12c0 -7.33301 -5 -11.666 -15 -12.999h-328v-328c0 -10 -4 -15 -12 -15c-7.33301 0 -11.666 5 -12.999 15v328z" />
    <glyph glyph-name="comma" unicode="," horiz-adv-x="395" 
d="M318 147l-221.001 -312.002c-2.66699 -3.33301 -6.66699 -5.66602 -12 -6.99902c-8 0 -12 4 -12 12l4 10l221 311c3.33301 4 7.33301 6.66699 12 8c8 0 12 -4 12 -12c-1.33301 -5.33301 -2.66602 -8.66602 -3.99902 -9.99902z" />
    <glyph glyph-name="hyphen" unicode="-" horiz-adv-x="532" 
d="M449 546l-366 -0.000976562c-10 0 -15 4.33301 -15 13c0 8 5 12 15 12h366c10 0 15 -4 15 -12c0 -7.33301 -5 -11.666 -15 -12.999z" />
    <glyph glyph-name="period" unicode="." horiz-adv-x="437" 
d="M220 164c22 0 41 -8.16699 57 -24.5s24 -35.5 24 -57.5c0 -21.333 -8 -40.333 -24 -57s-35.333 -25 -58 -25c-21.333 0 -40.333 8 -57 24s-25 35.667 -25 59c0 22 8 41 24 57s35.667 24 59 24zM219 139c-16 0 -29.668 -5.66699 -41.001 -17
c-5.33301 -5.33301 -9.33301 -11 -12 -17s-4 -13.667 -4 -23c0 -16 5.83301 -29.5 17.5 -40.5s24.834 -16.5 39.501 -16.5c16 0 29.5 5.5 40.5 16.5s16.5 24.5 16.5 40.5s-5.66699 29.333 -17 40c-10 11.333 -23.333 17 -40 17z" />
    <glyph glyph-name="slash" unicode="/" horiz-adv-x="699" 
d="M746 1463l-704 -1683c-2.66699 -6 -7 -9.33301 -13 -10c-8 0 -12 3.66699 -12 11l2 8l704 1684c2 6 6.33301 9.33301 13 10c8 0 12 -4 12 -12z" />
    <glyph glyph-name="zero" unicode="0" horiz-adv-x="1120" 
d="M564 1041c154 0 284.334 -58.6689 391.001 -176.002c91.333 -101.333 137 -223 137 -365c0 -90 -23.833 -176 -71.5 -258s-112.667 -146.833 -195 -194.5s-170.833 -71.5 -265.5 -71.5c-96 0 -185 23.833 -267 71.5s-146.833 112.834 -194.5 195.501
s-71.5 171.334 -71.5 266.001c0 156 58.667 287.667 176 395c99.333 91.333 219.666 137 360.999 137zM564.001 1016c-152 0 -279.002 -56.001 -381.002 -168.001c-87.333 -96.667 -131 -209.667 -131 -339c0 -90.667 22.667 -175.167 68 -253.5s107.333 -140.333 186 -186
s163.334 -68.5 254.001 -68.5s174.834 22.667 252.501 68s139.5 107.333 185.5 186s69 160.334 69 245.001c0 153.333 -56 282 -168 386c-46.667 42.667 -97.667 75 -153 97s-116 33 -182 33z" />
    <glyph glyph-name="one" unicode="1" horiz-adv-x="398" 
d="M291 992l-317 0.000976562c-10 0 -15 4 -15 12c0 7.33301 5 11.666 15 12.999h317c16.667 0 25 -8.33301 25 -25v-977c0 -10 -4.33301 -15 -13 -15c-8 0 -12 5 -12 15v977z" />
    <glyph glyph-name="two" unicode="2" horiz-adv-x="686" 
d="M67 25l591.001 -0.000976562c10 0 15 -4 15 -12c0 -7.33301 -5 -11.666 -15 -12.999h-607c-12.667 -0 -19 5.33301 -19 16c0 3.33301 2 7.66602 6 12.999l440 521c71.333 84.667 107 159.667 107 225c0 56.667 -20.667 108.667 -62 156
c-49.333 56.667 -112.333 85 -189 85c-69.333 0 -128.333 -24.833 -177 -74.5s-73 -109.167 -73 -178.5l3 -43l1 -5c0 -8 -4.33301 -12 -13 -12c-10.667 0 -16 20.333 -16 61c0 50 12.167 95.667 36.5 137s58.166 75 101.499 101s89.333 39 138 39
c82.667 0 150.667 -30.667 204 -92c46.667 -52.667 70 -110 70 -172c0 -71.333 -34.333 -147.666 -103 -228.999z" />
    <glyph glyph-name="three" unicode="3" horiz-adv-x="721" 
d="M520 596c-52.667 -48.667 -110.668 -73.002 -174.001 -73.002c-10 0 -15 4 -15 12c0 6.66699 4.33301 10.334 13 11.001c56.667 0 109 21.333 157 64l-11 5c-26 12.667 -50 22 -72 28s-45.333 9 -70 9c-10 0 -15.667 4 -17 12c0 8 5.33301 12 16 12
c50.667 0 108.334 -16.333 173.001 -49c18 22 31.667 45.667 41 71s14 53.333 14 84c0 70 -25.667 127.667 -77 173c-46 40.667 -99.333 61 -160 61c-66 0 -121.667 -23.667 -167 -71c-22 -22.667 -37.667 -45.667 -47 -69c-3.33301 -10 -8 -15 -14 -15c-8 0 -12 4 -12 12
c0 10.667 10.167 31.334 30.5 62.001s49.833 56 88.5 76s79.334 30 122.001 30c78.667 0 143.667 -28.667 195 -86c44 -48 66 -105.667 66 -173c0 -56.667 -20.333 -112.334 -61 -167.001c98.667 -75.333 148 -171.333 148 -288c0 -104.667 -38.667 -191.667 -116 -261
c-66 -60 -143.333 -90 -232 -90c-104.667 0 -193 41 -265 123c-32 38 -54 77.333 -66 118l-2 7l-3 15c0 6 4 9.66699 12 11c5.33301 0 10 -5.33301 14 -16c8 -32 22.333 -62 43 -90c66 -95.333 154.667 -143 266 -143c95.333 0 175.666 36 240.999 108
c55.333 61.333 83 134 83 218c0 112.667 -47.333 202.334 -142 269.001z" />
    <glyph glyph-name="four" unicode="4" horiz-adv-x="1027" 
d="M706 278h-655c-12.667 0 -19 4.66699 -19 14c0 4 2.33301 8.33301 7 13l665 711c4 4 8.33301 6.33301 13 7c9.33301 0 14 -5.66699 14 -17v-704h267c10 0 15 -4 15 -12s-5 -12 -15 -12h-267v-263c0 -10 -4.33301 -15 -13 -15c-8 0 -12 5 -12 15v263zM706 302v612l3 74
l-50 -55l-543 -581l-52 -53l74 3h568z" />
    <glyph glyph-name="five" unicode="5" horiz-adv-x="800" 
d="M183 992l0.00292969 -311.001l10 6c53.333 34 117.666 51 192.999 51c112 0 206 -42 282 -126c65.333 -72.667 98 -157.667 98 -255c0 -112.667 -42.333 -207.334 -127 -284.001c-72.667 -64.667 -157.667 -97 -255 -97c-130 0 -233.667 54.667 -311 164
c-16 24 -31.333 53 -46 87c-12.667 34.667 -19 61.334 -19 80.001c0 6 3.66699 9.33301 11 10c8 0 13 -6 15 -18c6 -48 26 -96.667 60 -146c71.333 -101.333 168 -152 290 -152c105.333 0 193.666 39 264.999 117c61.333 68.667 92 148.334 92 239.001
c0 106 -39.333 194.333 -118 265c-68.667 60.667 -148.334 91 -239.001 91c-74.667 0 -139 -19 -193 -57l-16 -7c-10.667 0 -16 6.66699 -16 20v323c0 16.667 8.33301 25 25 25h504c10 0 15 -4.33301 15 -13c0 -8 -5 -12 -15 -12h-505z" />
    <glyph glyph-name="six" unicode="6" horiz-adv-x="936" 
d="M410 840l58.001 4.00098c127.333 0 234.666 -48 321.999 -144c74.667 -82.667 112 -179.334 112 -290.001c0 -128 -48 -235.667 -144 -323c-82 -74 -178.667 -111 -290 -111c-128 0 -235.333 47.667 -322 143c-74.667 82.667 -112 179.667 -112 291
c0 102 31.667 192.167 95 270.5s146 129.5 248 153.5l302 491c2.66699 4 6.66699 6.66699 12 8c8 0 12 -4 12 -12l-3 -9zM393.001 812.001l-231.001 -376c-2.66699 -4 -6.66699 -6.66699 -12 -8c-7.33301 0 -11.666 4 -12.999 12l4 9l218 355l-8 -2
c-45.333 -14 -88 -35.333 -128 -64c-46 -34 -83.333 -76.667 -112 -128c-34.667 -63.333 -52 -130 -52 -200c0 -121.333 45 -223 135 -305c78 -70 169.333 -105 274 -105c120.667 0 222 45.333 304 136c70 77.333 105 168.333 105 273c0 104 -35 195.667 -105 275
c-81.333 90 -183 135 -305 135c-10 0 -20 -0.333008 -30 -1s-20.333 -2 -31 -4z" />
    <glyph glyph-name="seven" unicode="7" horiz-adv-x="609" 
d="M597 993l-591 -0.000976562c-10 0 -15 4 -15 12s5 12 15 12h597c15.333 0 23 -5.66699 23 -17l-4 -13l-608 -1298c-2.66699 -5.33301 -6.66699 -8.66602 -12 -9.99902c-8 0 -12 3.66699 -12 11l2 9z" />
    <glyph glyph-name="eight" unicode="8" horiz-adv-x="792" 
d="M202 644c-34.667 48.667 -52 98.668 -52 150.001c0 73.333 27 134.666 81 183.999c46 42 101 63 165 63c72.667 0 133.667 -27 183 -81c42 -46 63 -101.333 63 -166c0 -50.667 -17.667 -100.667 -53 -150c112.667 -76.667 169 -178.667 169 -306
c0 -106 -40 -195.667 -120 -269c-68 -62 -148.667 -93 -242 -93c-106 0 -195.667 40 -269 120c-62 68 -93 148.667 -93 242c0 128 56 230 168 306zM224 656.001c56.667 29.333 114.001 44 172.001 44c58.667 0 116 -14.667 172 -44c32.667 44.667 49 90.667 49 138
c0 66 -24.333 121 -73 165c-42 38 -91.333 57 -148 57c-64.667 0 -119.334 -24.333 -164.001 -73c-38 -42 -57 -91.333 -57 -148c0 -48 16.333 -94.333 49 -139zM219.001 625.001c-20 -12.667 -38.333 -26.6689 -55 -42.002c-70 -66 -105 -147.667 -105 -245
c0 -99.333 37 -182.666 111 -249.999c64 -58 139.333 -87 226 -87c99.333 0 183 37.333 251 112c57.333 64.667 86 139.667 86 225c0 57.333 -13.667 111.333 -41 162s-67 92.334 -119 125.001c-52.667 -50.667 -111.667 -76 -177 -76c-66.667 0 -125.667 25.333 -177 76z
M241.001 636.999c46 -42 97.666 -63 154.999 -63c56 0 107.667 21 155 63l-13 6c-22.667 10.667 -45.5 18.667 -68.5 24s-47.833 8 -74.5 8c-51.333 0 -102.666 -12.667 -153.999 -38z" />
    <glyph glyph-name="nine" unicode="9" horiz-adv-x="936" 
d="M526 177l-58 -3.99902c-127.333 0 -235 48 -323 144c-74 82 -111 178.667 -111 290c0 128 48 235.667 144 323c82 74 178.667 111 290 111c127.333 0 234.666 -48 321.999 -144c74.667 -82.667 112 -179.334 112 -290.001c0 -101.333 -31.667 -191.333 -95 -270
s-146.333 -130 -249 -154l-301 -491c-4 -6 -8 -9 -12 -9c-7.33301 0 -11.666 4 -12.999 12l4 10zM543 205.001l231 375.997c2.66699 4.66699 6.33398 7.33398 11.001 8.00098c7.33301 0 11.666 -4 12.999 -12l-3 -9l-218 -355l8 2c45.333 12.667 88 34 128 64
c46 34 83.333 76.667 112 128c34.667 63.333 52 130 52 200c0 121.333 -45 223 -135 305c-78 70 -169.333 105 -274 105c-120.667 0 -222 -45.333 -304 -136c-70 -77.333 -105 -168.666 -105 -273.999c0 -103.333 35 -194.666 105 -273.999c81.333 -90 183 -135 305 -135
c10 0 20 0.333008 30 1s20 2 30 4c6 0 10.667 0.666992 14 2z" />
    <glyph glyph-name="colon" unicode=":" horiz-adv-x="437" 
d="M220 164c22 0 41 -8.16699 57 -24.5s24 -35.5 24 -57.5c0 -21.333 -8 -40.333 -24 -57s-35.333 -25 -58 -25c-21.333 0 -40.333 8 -57 24s-25 35.667 -25 59c0 22 8 41 24 57s35.667 24 59 24zM219 139c-16 0 -29.668 -5.66699 -41.001 -17
c-5.33301 -5.33301 -9.33301 -11 -12 -17s-4 -13.667 -4 -23c0 -16 5.83301 -29.5 17.5 -40.5s24.834 -16.5 39.501 -16.5c16 0 29.5 5.5 40.5 16.5s16.5 24.5 16.5 40.5s-5.66699 29.333 -17 40c-10 11.333 -23.333 17 -40 17zM219.999 655c22 0 41 -8 57 -24
s24 -35.333 24 -58c0 -22 -8 -41 -24 -57s-35.333 -24 -58 -24c-21.333 0 -40.333 8 -57 24s-25 35.333 -25 58c0 22 8 41 24 57s35.667 24 59 24zM218.999 630c-16 0 -29.668 -5.66699 -41.001 -17c-5.33301 -5.33301 -9.33301 -11 -12 -17s-4 -13.667 -4 -23
c0 -15.333 5.83301 -28.5 17.5 -39.5s24.834 -16.5 39.501 -16.5c16 0 29.5 5.5 40.5 16.5s16.5 24.5 16.5 40.5c0 15.333 -5.66699 28.333 -17 39c-10 11.333 -23.333 17 -40 17z" />
    <glyph glyph-name="semicolon" unicode=";" horiz-adv-x="394" 
d="M234 655c22 0 41 -8 57 -24s24 -35.333 24 -58c0 -22 -8 -41 -24 -57s-35.333 -24 -58 -24c-21.333 0 -40.333 8 -57 24s-25 35.333 -25 58c0 22 8 41 24 57s35.667 24 59 24zM233 630c-16 0 -29.667 -5.66797 -41 -17.001c-5.33301 -5.33301 -9.33301 -11 -12 -17
s-4 -13.667 -4 -23c0 -15.333 5.33301 -28.666 16 -39.999c12 -10.667 25.667 -16 41 -16c16 0 29.5 5.5 40.5 16.5s16.5 24.5 16.5 40.5c0 15.333 -5.66699 28.333 -17 39c-10 11.333 -23.333 17 -40 17zM317 146.999l-221 -311.001c-3.33301 -4 -7.33301 -6.66699 -12 -8
c-8 0 -12 4 -12 12l4 10l221 312c4 4 7.66699 6.33301 11 7c7.33301 0 11.666 -4 12.999 -12c-1.33301 -5.33301 -2.66602 -8.66602 -3.99902 -9.99902z" />
    <glyph glyph-name="less" unicode="&#x3c;" horiz-adv-x="1024" 
d="M114 683l826 -354c10 -4 15 -10.333 15 -19c0 -12.667 -5.66699 -19 -17 -19l-13 3l-840 361c-11.333 4 -17 11.667 -17 23v10c0 9.33301 5.66699 17 17 23l840 360l13 4c11.333 0 17 -6.33301 17 -19c0 -7.33301 -5 -14 -15 -20z" />
    <glyph glyph-name="equal" unicode="=" horiz-adv-x="765" 
d="M722 406l-680 -0.000976562c-10 0 -15 4.33301 -15 13c0 8 5 12 15 12h680c10 0 15 -4 15 -12c0 -7.33301 -5 -11.666 -15 -12.999zM722 585.999l-680 -0.000976562c-10 0 -15 4.33301 -15 13c0 8 5 12 15 12h680c10 0 15 -4 15 -12c0 -7.33301 -5 -11.666 -15 -12.999z
" />
    <glyph glyph-name="greater" unicode="&#x3e;" horiz-adv-x="1024" 
d="M909 683l-825 353.002c-10 4 -15 10.667 -15 20c0 12.667 6 19 18 19l13 -4l839 -360c10.667 -4 16 -11.667 16 -23v-10c0 -10.667 -5.33301 -18.334 -16 -23.001l-839 -361l-13 -3c-12 0 -18 6.33301 -18 19c0 7.33301 5 13.666 15 18.999z" />
    <glyph glyph-name="question" unicode="?" horiz-adv-x="395" 
d="M113 1266c6 -2 10 -3.66602 12 -4.99902l7 -5c58 -36 103.333 -83.5 136 -142.5s49 -121.833 49 -188.5c0 -48 -6.66699 -91 -20 -129c-11.333 -38.667 -36.166 -93 -74.499 -163s-63.833 -123.333 -76.5 -160s-19 -75.667 -19 -117c0 -33.333 3.66699 -62.333 11 -87
l1 -7c0 -8 -4 -12 -12 -12c-6.66699 0 -12.667 10 -18 30c-2 10.667 -3.66699 22.334 -5 35.001s-2 27 -2 43c0 42 6.33301 81.667 19 119s39 93.333 79 168c35.333 66 59.5 118.667 72.5 158s19.5 79.666 19.5 120.999c0 77.333 -21 146.666 -63 207.999
c-32 46 -71 82 -117 108c-6.66699 3.33301 -10.334 8 -11.001 14c0 8 4 12 12 12zM139 157.001c22 0 40.666 -7.66797 55.999 -23.001s23 -34 23 -56c0 -21.333 -7.66699 -39.666 -23 -54.999s-33.666 -23 -54.999 -23c-22 0 -40.667 7.66699 -56 23s-23 34 -23 56
c0 21.333 7.33301 39.333 22 54c8 8 16.333 14 25 18s19 6 31 6zM139.999 132c-15.333 0 -28.167 -5.16504 -38.5 -15.498s-15.5 -22.833 -15.5 -37.5s5 -27.334 15 -38.001s23 -16 39 -16c13.333 0 25.5 5.16699 36.5 15.5s16.5 22.833 16.5 37.5
c0 13.333 -4.83301 25.166 -14.5 35.499s-22.5 16.5 -38.5 18.5z" />
    <glyph glyph-name="at" unicode="@" horiz-adv-x="1486" 
d="M1018 336l236.999 0.000976562c10 0 15 -4.33301 15 -13c0 -8 -5 -12 -15 -12h-237c-16.667 0 -25 8.33301 -25 25v50c-75.333 -62 -159 -93 -251 -93c-114.667 0 -211 43 -289 129c-66.667 74.667 -100 161.667 -100 261c0 114.667 43 211 129 289
c37.333 33.333 77.333 58.333 120 75s89.334 25 140.001 25c114.667 0 211 -43 289 -129c33.333 -37.333 58.333 -77.333 75 -120s25 -89.334 25 -140.001c0 -106 -37.667 -197.667 -113 -275v-72zM1018 444.001c58.667 68.667 87.9951 147.998 87.9951 237.998
c0 107.333 -40 198 -120 272c-69.333 62 -150.666 93 -243.999 93c-107.333 0 -197.666 -40 -270.999 -120c-62 -69.333 -93 -150.666 -93 -243.999c0 -107.333 40 -197.666 120 -270.999c34.667 -30.667 72.334 -54 113.001 -70s84.334 -24 131.001 -24
c94.667 0 178.334 33.333 251.001 100v256c0 10 4.33301 15 13 15c8 0 12 -5 12 -15v-230zM741.994 1364c-123.333 0 -237.167 -30.834 -341.5 -92.501s-187 -145 -248 -250s-91.5 -218.5 -91.5 -340.5c0 -146 43.333 -279.333 130 -400
c66 -90.667 142.333 -159.334 229 -206.001c91.333 -49.333 193.666 -74 306.999 -74c10 0 15.333 -4.33301 16 -13c0 -8 -4.33301 -12 -13 -12c-59.333 0 -123 10 -191 30c-99.333 30 -189 80.333 -269 151c-73.333 66 -130.666 145.333 -171.999 238
s-62 188.334 -62 287.001c0 100 20.167 195.667 60.5 287s98.166 170.666 173.499 237.999c134.667 121.333 292 182 472 182c127.333 0 245.5 -31.667 354.5 -95s195 -149.5 258 -258.5s94.5 -226.5 94.5 -352.5c0 -131.333 -32.333 -250.333 -97 -357
c-5.33301 -8 -12.333 -12.667 -21 -14c-6 0 -9.33301 2.66699 -10 8l3 6c33.333 54 58.333 110.333 75 169s25 121 25 187c0 146.667 -43.333 280.334 -130 401.001c-46 63.333 -102.667 118 -170 164c-56.667 38.667 -116.667 67.834 -180 87.501
s-130.666 29.5 -201.999 29.5z" />
    <glyph glyph-name="A" unicode="A" horiz-adv-x="1120" 
d="M907 106c-102.667 -86.667 -218.334 -130.002 -347.001 -130.002c-49.333 0 -95.666 5.66699 -138.999 17s-86.333 29.333 -129 54c-82 47.333 -146.833 112.333 -194.5 195s-71.5 171.334 -71.5 266.001c0 96 23.833 185 71.5 267s112.667 146.833 195 194.5
s170.833 71.5 265.5 71.5c95.333 0 183.833 -23.833 265.5 -71.5s146.667 -112.667 195 -195s72.5 -170.5 72.5 -264.5c0 -147.333 -53 -274.666 -159 -381.999v-113c0 -10 -4.33301 -15 -13 -15c-8 0 -12 5 -12 15v91zM932 163.998
c89.333 96.667 133.999 211.668 133.999 345.001c0 46.667 -5.33301 90.334 -16 131.001s-28 81.334 -52 122.001c-44.667 78 -106.5 139.833 -185.5 185.5s-163.833 68.5 -254.5 68.5c-149.333 0 -275 -56 -377 -168c-86.667 -96.667 -130 -210 -130 -340
c0 -46.667 5.33301 -90.334 16 -131.001s28 -81.334 52 -122.001c45.333 -78 107.333 -139.833 186 -185.5s163.334 -68.5 254.001 -68.5c128 0 240.667 43 338 129l10 9v363c0 9.33301 4 14.666 12 15.999c8 0 12.333 -5.33301 13 -16v-338z" />
    <glyph glyph-name="B" unicode="B" horiz-adv-x="1120" 
d="M211 911c102.667 86.667 218.335 130.001 347.002 130.001c49.333 0 95.666 -5.66699 138.999 -17s86.333 -29.333 129 -54c82 -48 146.833 -113.167 194.5 -195.5s71.5 -170.833 71.5 -265.5c0 -96 -23.833 -185 -71.5 -267s-112.667 -146.833 -195 -194.5
s-170.833 -71.5 -265.5 -71.5c-95.333 0 -183.833 23.833 -265.5 71.5s-146.667 112.667 -195 195s-72.5 170.5 -72.5 264.5c0 147.333 53 274.666 159 381.999v461c0 10 4 15 12 15c7.33301 0 11.666 -5 12.999 -15v-439zM186.001 853.001
c-89.333 -96.667 -134.003 -211.668 -134.003 -345.001c0 -46.667 5.33301 -90.334 16 -131.001s28 -81.334 52 -122.001c45.333 -78 107.333 -139.833 186 -185.5s163.334 -68.5 254.001 -68.5c46.667 0 90.334 5.33301 131.001 16s81.334 28 122.001 52
c78 45.333 139.833 107.333 185.5 186s68.5 163.334 68.5 254.001c0 46.667 -5.33301 90.334 -16 131.001s-28 81.334 -52 122.001c-44.667 78 -106.5 139.833 -185.5 185.5s-163.833 68.5 -254.5 68.5c-127.333 0 -240 -43 -338 -129l-10 -9v-364
c0 -10 -4.33301 -15 -13 -15c-8 0 -12 5 -12 15v339z" />
    <glyph glyph-name="C" unicode="C" horiz-adv-x="955" 
d="M559 1041c146.667 0 271 -51.3359 373 -154.003c10.667 -10 16.334 -17.667 17.001 -23c0 -7.33301 -4 -11.666 -12 -12.999c-2 0.666992 -4 1.66699 -6 3s-4.66699 3.66602 -8 6.99902c-41.333 46 -94.5 83.333 -159.5 112s-133.167 43 -204.5 43
c-47.333 0 -91.5 -5.33301 -132.5 -16s-82.167 -28 -123.5 -52c-77.333 -45.333 -138.5 -107.333 -183.5 -186s-67.5 -162.667 -67.5 -252c0 -150.667 56 -277 168 -379c96.667 -86.667 208.667 -130 336 -130c36 0 70 3.33301 102 10s66.667 18 104 34
c67.333 30 121.666 68 162.999 114c3.33301 4 7.33301 6.66699 12 8c8 0 12 -4.33301 12 -13c0 -10 -18.5 -29.167 -55.5 -57.5s-73.5 -51.166 -109.5 -68.499c-75.333 -34.667 -152.333 -52 -231 -52c-90.667 0 -177 23.833 -259 71.5s-147 112.834 -195 195.501
s-72 171.334 -72 266.001c0 155.333 58.333 287 175 395c50 45.333 104.5 79.5 163.5 102.5s123.5 34.5 193.5 34.5z" />
    <glyph glyph-name="D" unicode="D" horiz-adv-x="1120" 
d="M932 890c23.333 -22 42.3359 -43.666 57.0029 -64.999c68 -94 102 -200 102 -318c0 -94.667 -23.833 -183 -71.5 -265s-112.834 -146.833 -195.501 -194.5s-171.334 -71.5 -266.001 -71.5c-95.333 0 -184 23.833 -266 71.5s-146.833 112.667 -194.5 195
s-71.5 171.166 -71.5 266.499c0 94.667 23.833 183.167 71.5 265.5s112.667 147.333 195 195s170.833 71.5 265.5 71.5c130.667 0 247 -43 349 -129v438c0 10 4 15 12 15c7.33301 0 11.666 -5 12.999 -15v-460zM932.003 856.001v-342c0 -10 -4.33301 -15 -13 -15
c-8 0 -12 5 -12 15v366l-10 8c-99.333 85.333 -212 128 -338 128c-90.667 0 -175.167 -22.5 -253.5 -67.5s-140.333 -107 -186 -186s-68.5 -163.5 -68.5 -253.5c0 -90.667 22.667 -175.167 68 -253.5s107.333 -140.333 186 -186s163 -68.5 253 -68.5
c90.667 0 175.167 22.667 253.5 68s140.333 107.333 186 186s68.5 163 68.5 253c0 134.667 -44.667 250.667 -134 348z" />
    <glyph glyph-name="E" unicode="E" horiz-adv-x="1111" 
d="M1067 526c0 34 -3.66504 66.335 -10.998 97.002s-18.333 62 -33 94c-38 85.333 -95.667 154.666 -173 207.999c-86.667 60.667 -183.334 91 -290.001 91c-90.667 0 -174.834 -22.5 -252.501 -67.5s-139.667 -106.833 -186 -185.5s-69.5 -163.334 -69.5 -254.001
c0 -88.667 23 -172.667 69 -252s108.333 -141.833 187 -187.5s162.334 -68.5 251.001 -68.5c57.333 0 116.5 11 177.5 33s112.5 51.667 154.5 89c6 6 11 9 15 9c8 0 12 -4 12 -12c0 -6 -15 -20 -45 -42c-93.333 -68 -198 -102 -314 -102c-94.667 0 -183 23.667 -265 71
s-147 112.5 -195 195.5s-72 171.833 -72 266.5s23.833 183.167 71.5 265.5s112.667 147.333 195 195s171.166 71.5 266.499 71.5c102.667 0 197 -27.333 283 -82s151.667 -129 197 -223c34 -70 51 -141 51 -213c0 -14.667 -8.33301 -22 -25 -22h-841
c-10 0 -15 4.33301 -15 13c0 8 5 12 15 12h842z" />
    <glyph glyph-name="F" unicode="F" horiz-adv-x="591" 
d="M65 527l508.001 -0.000976562c10 0 15 -4 15 -12s-5 -12 -15 -12h-508v-488c0 -10 -4 -15 -12 -15s-12 5 -12 15v779c0 94.667 12 174.834 36 240.501s63.667 125.167 119 178.5c48.667 47.333 101.667 83.333 159 108c64.667 28 133.667 42 207 42l9 1h5
c8 0 12 -4 12 -12c0 -8.66699 -5.66699 -13 -17 -13c-68.667 0 -133 -12 -193 -36c-54 -21.333 -104.333 -52.666 -151 -93.999c-58.667 -52.667 -100.334 -112.334 -125.001 -179.001s-37 -154 -37 -262v-241z" />
    <glyph glyph-name="G" unicode="G" horiz-adv-x="1120" 
d="M932 128l0.00195312 -56.999v-17v-7c0 -101.333 -15.5 -179 -46.5 -233s-74.5 -97.167 -130.5 -129.5s-116 -48.5 -180 -48.5c-79.333 0 -150 24 -212 72s-105 111.333 -129 190c-8.66699 32.667 -13 59.334 -13 80.001c0 8 4 12 12 12c8.66699 0 13 -5.66699 13 -17
c0 -34.667 9.33301 -72.667 28 -114c26 -57.333 63.667 -103.666 113 -138.999c55.333 -39.333 117.666 -59 186.999 -59c60 0 115.667 14.167 167 42.5s91.666 68.166 120.999 119.499c14.667 25.333 26 56 34 92s12 76.667 12 122v7v16v46l-10 -9
c-41.333 -35.333 -93 -64.333 -155 -87s-123 -34 -183 -34c-94.667 0 -183.167 23.833 -265.5 71.5s-147.333 112.667 -195 195s-71.5 171.166 -71.5 266.499c0 94.667 23.833 183.167 71.5 265.5s112.667 147.333 195 195s170.833 71.5 265.5 71.5
c95.333 0 184 -23.667 266 -71s146.833 -112.333 194.5 -195s71.5 -171.334 71.5 -266.001c0 -145.333 -53.333 -272.333 -160 -381zM908.002 138.001l0.000976562 366.999c0 10 4 15 12 15s12 -5 12 -15v-342c90 97.333 135 212.333 135 345
c0 90.667 -22.667 175.334 -68 254.001s-107.166 140.667 -185.499 186s-162.833 68 -253.5 68c-46.667 0 -90.334 -5.33301 -131.001 -16s-81.334 -28 -122.001 -52c-78 -44.667 -139.833 -106.5 -185.5 -185.5s-68.5 -163.5 -68.5 -253.5
c0 -90.667 22.667 -175.167 68 -253.5s107.333 -140.333 186 -186s163 -68.5 253 -68.5c127.333 0 240 43 338 129z" />
    <glyph glyph-name="H" unicode="H" horiz-adv-x="806" 
d="M84 870l-4.00488 -79.0029l1 3l2 7c5.33301 17.333 10.5 32.166 15.5 44.499s10.5 23.5 16.5 33.5c28.667 48.667 69.5 87.834 122.5 117.501s109.5 44.5 169.5 44.5c58.667 0 112.5 -14 161.5 -42s89.833 -67.333 122.5 -118c20 -31.333 34.333 -67.666 43 -108.999
s13 -97.666 13 -168.999v-588c0 -10 -4 -15 -12 -15c-7.33301 0 -11.666 5 -12.999 15v557c0 77.333 -2.16699 133 -6.5 167s-12.833 65.333 -25.5 94c-24 54.667 -62 98.834 -114 132.501s-108.667 50.5 -170 50.5c-65.333 0 -124.666 -18 -177.999 -54s-92 -84 -116 -144
c-5.33301 -15.333 -9.66602 -29.5 -12.999 -42.5s-6.66602 -29.5 -9.99902 -49.5c-3.33301 -33.333 -5 -84.333 -5 -153v-558c0 -10 -4 -15 -12 -15c-7.33301 0 -11.666 5 -12.999 15v1335c0 10 4.33301 15 13 15c8 0 12 -5 12 -15v-480z" />
    <glyph glyph-name="I" unicode="I" horiz-adv-x="180" 
d="M78 15l-0.000976562 987c0 10 4.33301 15 13 15c8 0 12 -5 12 -15v-987c0 -10 -4 -15 -12 -15c-7.33301 0 -11.666 5 -12.999 15z" />
    <glyph glyph-name="J" unicode="J" horiz-adv-x="180" 
d="M103 1002v-763.002c0 -83.333 -4.16699 -148.166 -12.5 -194.499s-24.833 -92.166 -49.5 -137.499c-40.667 -77.333 -102.334 -141.833 -185.001 -193.5s-166 -77.5 -250 -77.5c-7.33301 0 -11.666 4 -12.999 12c0 8.66699 6.33301 13 19 13
c41.333 0 81 6.16699 119 18.5s76.333 30.5 115 54.5c72 44 128 102.333 168 175c26 46.667 43.167 94.5 51.5 143.5s12.5 122.833 12.5 221.5v728c0 10 4.33301 15 13 15c8 0 12 -5 12 -15zM90 1268c21.333 0 39.832 -7.83301 55.499 -23.5s23.5 -34.834 23.5 -57.501
c0 -21.333 -7.66699 -39.666 -23 -54.999s-33.666 -23 -54.999 -23c-22.667 0 -41.667 7.66699 -57 23s-23 34.333 -23 57c0 22 7.66699 40.667 23 56s34 23 56 23zM90.999 1243c-15.333 0 -28.333 -5.33301 -39 -16s-16 -23.667 -16 -39s5.33301 -28.333 16 -39
s23.667 -16 39 -16c14 0 26.333 5.33301 37 16s16 23 16 37c0 16 -5 29 -15 39s-22.667 16 -38 18z" />
    <glyph glyph-name="K" unicode="K" horiz-adv-x="804" 
d="M84 516v-501c0 -10 -4 -15 -12 -15c-7.33301 0 -11.666 5 -12.999 15v1335c0 10 4.33301 15 13 15c8 0 12 -5 12 -15v-813c50 0 99.167 6.33301 147.5 19s95.5 30.667 141.5 54c157.333 82 267.666 212 330.999 390c3.33301 11.333 9 17 17 17c6 0 9 -3 9 -9
c0 -12 -10.833 -41.667 -32.5 -89s-42.167 -84.333 -61.5 -111c-42 -59.333 -94.5 -112.5 -157.5 -159.5s-128.5 -80.5 -196.5 -100.5l-90 -20c195.333 -32 350.333 -121.333 465 -268c41.333 -52.667 75.333 -112 102 -178c14.667 -38.667 22 -63 22 -73
c0 -6 -3.33301 -9 -10 -9c-7.33301 0 -13 6 -17 18c-42.667 146 -123.667 263.667 -243 353c-60.667 45.333 -125.667 80.333 -195 105c-74.667 26.667 -152 40 -232 40z" />
    <glyph glyph-name="L" unicode="L" horiz-adv-x="142" 
d="M59 15l-0.000976562 1335c0 10 4.33301 15 13 15c8 0 12 -5 12 -15v-1335c0 -10 -4 -15 -12 -15c-7.33301 0 -11.666 5 -12.999 15z" />
    <glyph glyph-name="M" unicode="M" horiz-adv-x="1302" 
d="M652 893c-24 -30 -41.6709 -67.834 -53.0039 -113.501s-17 -100.167 -17 -163.5v-601c0 -10 -4.33301 -15 -13 -15c-8 0 -12 5 -12 15v599c0 71.333 5.5 128.166 16.5 170.499s31.5 84.5 61.5 126.5c-64 70 -140.667 105 -230 105c-52 0 -101 -11.5 -147 -34.5
s-83 -55.167 -111 -96.5c-42 -60 -63 -150 -63 -270v-600c0 -10 -4 -15 -12 -15c-7.33301 0 -11.666 5 -12.999 15v586c0 72.667 3.5 128.167 10.5 166.5s20.833 75.166 41.5 110.499s49.334 66.666 86.001 93.999c61.333 46 130 69 206 69c90 0 167 -31 231 -93l9 -9l9 -9
c68 74 150.667 111 248 111c59.333 0 115.333 -14.833 168 -44.5s94 -70.167 124 -121.5c18.667 -33.333 31.834 -70.166 39.501 -110.499s11.5 -94.833 11.5 -163.5v-586c0 -10 -4.33301 -15 -13 -15c-8 0 -12 5 -12 15v600c0 68.667 -5.16699 123.834 -15.5 165.501
s-28.833 80.334 -55.5 116.001s-62.5 64.5 -107.5 86.5s-92.5 33 -142.5 33c-89.333 0 -165.666 -35 -228.999 -105l6 -8c48 -69.333 72 -159.666 72 -270.999v-617c0 -10 -4.33301 -15 -13 -15c-8 0 -12 5 -12 15v580v24c0 122.667 -23 214 -69 274z" />
    <glyph glyph-name="N" unicode="N" horiz-adv-x="806" 
d="M80 791l0.995117 2.99707l2 7c5.33301 17.333 10.5 32.166 15.5 44.499s10.5 23.5 16.5 33.5c28.667 48.667 69.5 87.834 122.5 117.501s109.5 44.5 169.5 44.5c58.667 0 112.5 -14 161.5 -42s89.833 -67.333 122.5 -118c20 -31.333 34.333 -67.666 43 -108.999
s13 -97.666 13 -168.999v-588c0 -10 -4 -15 -12 -15c-7.33301 0 -11.666 5 -12.999 15v557c0 77.333 -2.16699 133 -6.5 167s-12.833 65.333 -25.5 94c-24 54.667 -62 98.834 -114 132.501s-108.667 50.5 -170 50.5c-65.333 0 -124.666 -18 -177.999 -54s-92 -84 -116 -144
c-5.33301 -15.333 -9.66602 -29.5 -12.999 -42.5s-6.66602 -29.5 -9.99902 -49.5c-3.33301 -33.333 -5 -84.333 -5 -153v-558c0 -10 -4 -15 -12 -15c-7.33301 0 -11.666 5 -12.999 15v987c0 10 4.33301 15 13 15c8 0 12 -5 12 -15v-132z" />
    <glyph glyph-name="O" unicode="O" horiz-adv-x="1165" 
d="M546 1017c-124.667 0 -234.999 -43.666 -330.999 -130.999c-50.667 -44.667 -91.334 -99.667 -122.001 -165c-14.667 -32 -26 -64.167 -34 -96.5s-12 -65.5 -12 -99.5c0 -10.667 -4.33301 -16.334 -13 -17.001c-8 0 -12 4 -12 12c0 58.667 11.333 117.667 34 177
c31.333 80.667 78.666 149.667 141.999 207c101.333 91.333 220 137 356 137c110 0 210.333 -31.167 301 -93.5s156.334 -145.833 197.001 -250.5c22.667 -62 34 -121 34 -177c0 -8 -4 -12 -12 -12c-8.66699 0 -13 5.66699 -13 17c0 84.667 -22.333 164 -67 238
c-48 80 -110.667 142.333 -188 187s-164 67 -260 67zM1131 509.001c8 0 12 -4.33105 12 -12.998c0 -28.667 -3.33301 -59.667 -10 -93c-10.667 -56 -31 -109.667 -61 -161c-48 -82 -113.167 -146.833 -195.5 -194.5s-170.833 -71.5 -265.5 -71.5
c-104 0 -199.833 28.167 -287.5 84.5s-153.5 132.166 -197.5 227.499c-31.333 70 -47 139.333 -47 208c0 7.33301 4 11.666 12 12.999c8 0 12.333 -5.33301 13 -16c0 -70.667 17.667 -142 53 -214s87.333 -132.333 156 -181c88.667 -64.667 190.667 -97 306 -97
c95.333 0 184.666 27.167 267.999 81.5s145.333 126.5 186 216.5c14.667 32.667 25.834 64.667 33.501 96s11.5 64 11.5 98c0 10 4.33301 15.333 13 16z" />
    <glyph glyph-name="P" unicode="P" horiz-adv-x="1120" 
d="M186 128c-106 106 -159 233.332 -159 381.999c0 94.667 23.833 183 71.5 265s112.834 146.833 195.501 194.5s171.334 71.5 266.001 71.5c95.333 0 184 -23.833 266 -71.5s146.833 -112.667 194.5 -195s71.5 -171.166 71.5 -266.499
c0 -94.667 -23.833 -183.167 -71.5 -265.5s-112.5 -147.5 -194.5 -195.5c-40.667 -23.333 -83.334 -41 -128.001 -53s-91.334 -18 -140.001 -18c-128 0 -243.667 43.333 -347 130v-442c0 -10 -4.33301 -15 -13 -15c-8 0 -12 5 -12 15v464zM186 163.999v338.001
c0 9.33301 4 14.666 12 15.999c8 0 12.333 -5.33301 13 -16v-363l10 -9c96 -86 208.667 -129 338 -129c90.667 0 175.167 22.667 253.5 68s140.333 107.333 186 186s68.5 163 68.5 253c0 150.667 -56 276.667 -168 378c-96.667 86.667 -209.667 130 -339 130
c-90.667 0 -175.167 -22.5 -253.5 -67.5s-140.333 -107 -186 -186s-68.5 -163.5 -68.5 -253.5c0 -134 44.667 -249 134 -345z" />
    <glyph glyph-name="Q" unicode="Q" horiz-adv-x="1120" 
d="M907 106c-102.667 -86.667 -218.334 -130.002 -347.001 -130.002c-49.333 0 -95.666 5.66699 -138.999 17s-86.333 29.333 -129 54c-82 47.333 -146.833 112.333 -194.5 195s-71.5 171.334 -71.5 266.001c0 96 23.833 185 71.5 267s112.667 146.833 195 194.5
s170.833 71.5 265.5 71.5c95.333 0 183.833 -23.833 265.5 -71.5s146.667 -112.667 195 -195s72.5 -170.5 72.5 -264.5c0 -147.333 -53 -274.666 -159 -381.999v-464c0 -10 -4.33301 -15 -13 -15c-8 0 -12 5 -12 15v442zM932 163.998
c89.333 96.667 133.999 211.668 133.999 345.001c0 46.667 -5.33301 90.334 -16 131.001s-28 81.334 -52 122.001c-44.667 78 -106.5 139.833 -185.5 185.5s-163.833 68.5 -254.5 68.5c-149.333 0 -275 -56 -377 -168c-86.667 -96.667 -130 -210 -130 -340
c0 -46.667 5.33301 -90.334 16 -131.001s28 -81.334 52 -122.001c45.333 -78 107.333 -139.833 186 -185.5s163.334 -68.5 254.001 -68.5c128 0 240.667 43 338 129l10 9v363c0 9.33301 4 14.666 12 15.999c8 0 12.333 -5.33301 13 -16v-338z" />
    <glyph glyph-name="R" unicode="R" horiz-adv-x="467" 
d="M80 656c20.667 103.333 67.666 187.999 140.999 253.999c29.333 26.667 66.5 50.834 111.5 72.501s79.833 32.5 104.5 32.5c6 0 9.33301 -3.66699 10 -11c0 -8 -6.66699 -13 -20 -15c-70.667 -12.667 -135.167 -46.167 -193.5 -100.5s-99.5 -119.5 -123.5 -195.5
c-17.333 -57.333 -26 -136 -26 -236v-442c0 -10 -4 -15 -12 -15c-7.33301 0 -11.666 5 -12.999 15v987c0 10 4.33301 15 13 15c8 0 12 -5 12 -15v-267z" />
    <glyph glyph-name="S" unicode="S" horiz-adv-x="727" 
d="M355 1016c-76 0 -140.331 -28.665 -192.998 -85.998c-44 -48 -66 -105.333 -66 -172c0 -70 25.167 -130.667 75.5 -182s109.833 -77 178.5 -77c7.33301 0 11.666 -4 12.999 -12c0 -8 -5.66699 -12 -17 -12c-45.333 0 -89.333 12.333 -132 37
c-36.667 20 -66.667 47.333 -90 82c-18 24.667 -31.333 50 -40 76s-13 55.333 -13 88c0 78 28 144.667 84 200s122.667 83 200 83c50 0 97.167 -12.833 141.5 -38.5s79.166 -60.5 104.499 -104.5c23.333 -40.667 35 -77 35 -109c0 -6.66699 -3.66699 -10.334 -11 -11.001
c-8 0 -13 6.33301 -15 19c0 13.333 -2.5 27.166 -7.5 41.499s-12.5 29.5 -22.5 45.5c-51.333 88 -126.333 132 -225 132zM372.002 630.002l-4.00195 0.000976562h-8c-7.33301 0 -11.666 4 -12.999 12c0 8.66699 6.33301 13 19 13c58 0 113.667 -15.333 167 -46
c44 -26 80.667 -59.667 110 -101c40 -58 60 -122.667 60 -194c0 -51.333 -11.833 -100.833 -35.5 -148.5s-56.834 -88.167 -99.501 -121.5c-60.667 -45.333 -128.667 -68 -204 -68c-59.333 0 -113.666 13.833 -162.999 41.5s-91 68 -125 121s-51 105.167 -51 156.5
c0 8 4 12.667 12 14c8.66699 0 13 -6 13 -18c0 -41.333 14 -86 42 -134s66.333 -86 115 -114s102.334 -42 161.001 -42c90 0 166.333 34.667 229 104c54 60 81 130 81 210c0 55.333 -13.833 107.166 -41.5 155.499s-66.167 87 -115.5 116s-99 43.5 -149 43.5z" />
    <glyph glyph-name="T" unicode="T" horiz-adv-x="625" 
d="M165 992l-143.001 0.000976562c-10 0 -15 4 -15 12c0 7.33301 5 11.666 15 12.999h143v167c0 10 4.33301 15 13 15c8 0 12 -5 12 -15v-167h414c10 0 15 -4.33301 15 -13c0 -8 -5 -12 -15 -12h-414v-977c0 -10 -4 -15 -12 -15c-7.33301 0 -11.666 5 -12.999 15v977z" />
    <glyph glyph-name="U" unicode="U" horiz-adv-x="806" 
d="M726 226l-1.00098 -2.99902l-2 -7c-5.33301 -17.333 -10.5 -32.166 -15.5 -44.499s-10.5 -23.5 -16.5 -33.5c-28.667 -49.333 -69.667 -89 -123 -119c-26 -14 -53 -24.667 -81 -32s-57.333 -11 -88 -11c-58 0 -111.833 13.833 -161.5 41.5s-90.5 67.167 -122.5 118.5
c-20 30.667 -34.333 66.667 -43 108s-13 98 -13 170v588c0 10 4.33301 15 13 15c8 0 12 -5 12 -15v-558c0 -73.333 2 -128 6 -164s12.667 -68 26 -96c24 -54.667 62.167 -98.834 114.5 -132.501s108.833 -50.5 169.5 -50.5c65.333 0 124.833 18 178.5 54
s92.167 84 115.5 144c10.667 28.667 18 58.667 22 90s6 82.666 6 153.999v559c0 10 4.33301 15 13 15c8 0 12 -5 12 -15v-987c0 -10 -4 -15 -12 -15c-7.33301 0 -11.666 5 -12.999 15v132z" />
    <glyph glyph-name="V" unicode="V" horiz-adv-x="836" 
d="M387 113l31 -89l30 89l352 897c2 6 5.66699 9.33301 11 10c8 0 12.333 -3.66699 13 -11l-2 -8l-390 -998c-3.33301 -8 -8 -12 -14 -12c-5.33301 0 -10 4 -14 12l-391 998l-2 8c0 7.33301 4 11 12 11c4.66699 0 9 -3.33301 13 -10z" />
    <glyph glyph-name="W" unicode="W" horiz-adv-x="1302" 
d="M652 125c23.333 28.667 40.6709 66.335 52.0039 113.002s17 101 17 163v601c0 10 4 15 12 15c7.33301 0 11.666 -5 12.999 -15v-599c0 -71.333 -5.33301 -127 -16 -167c-5.33301 -22 -12.666 -42.833 -21.999 -62.5s-22.666 -42.167 -39.999 -67.5
c63.333 -70 139.666 -105 228.999 -105c53.333 0 102.5 11.833 147.5 35.5s82.167 55.5 111.5 95.5c41.333 60.667 62 150.667 62 270v600c0 10 4 15 12 15c7.33301 0 11.666 -5 12.999 -15v-586c0 -72.667 -3.5 -127.834 -10.5 -165.501s-20.5 -73.834 -40.5 -108.501
c-22 -38 -50.667 -70.333 -86 -97c-62 -46 -130.667 -69 -206 -69c-93.333 0 -176 37 -248 111c-70 -74 -153 -111 -249 -111c-60.667 0 -117.334 14.833 -170.001 44.5s-93.667 70.167 -123 121.5c-18.667 32 -32 68.333 -40 109c-3.33301 18.667 -6 42 -8 70
s-3 59.667 -3 95v586c0 10 4.33301 15 13 15c8 0 12 -5 12 -15v-600c0 -68.667 5.16699 -124 15.5 -166s28.833 -80.667 55.5 -116s62.667 -64 108 -86s92.666 -33 141.999 -33c88 0 164.667 35 230 105l-6 8c-48 69.333 -72 159.666 -72 270.999v617c0 10 4 15 12 15
c7.33301 0 11.666 -5 12.999 -15v-580v-24c0 -64 5.5 -118.167 16.5 -162.5s28.833 -81.166 53.5 -110.499z" />
    <glyph glyph-name="X" unicode="X" horiz-adv-x="894" 
d="M462 758c42.667 -79.333 63.999 -162.999 63.999 -250.999c0 -86.667 -21.667 -169.334 -65 -248.001c45.333 -72 104 -129.333 176 -172c36 -20.667 73.667 -36.5 113 -47.5s79.666 -16.5 120.999 -16.5c10.667 0 16.334 -4.33301 17.001 -13c0 -8 -4.33301 -12 -13 -12
c-82.667 0 -163.167 21.5 -241.5 64.5s-140.5 100.5 -186.5 172.5c-45.333 -70.667 -107.166 -127.834 -185.499 -171.501s-158.833 -65.5 -241.5 -65.5c-7.33301 0 -11.666 4 -12.999 12c0 8.66699 5.66699 13 17 13c81.333 0 158.333 21 231 63s132 99.667 178 173
c-42.667 79.333 -64 162 -64 248c0 88.667 21.333 172.334 64 251.001l-7 11c-39.333 65.333 -95.666 119 -168.999 161c-36.667 20 -74.834 35.833 -114.501 47.5s-79.5 17.5 -119.5 17.5c-9.33301 0 -14.666 4 -15.999 12c0 8.66699 5.66699 13 17 13
c80.667 0 159 -21.167 235 -63.5s138.667 -100.5 188 -174.5c49.333 73.333 112.166 131.333 188.499 174s155.166 64 236.499 64c10 0 15.333 -4.33301 16 -13c0 -7.33301 -5.33301 -11.333 -16 -12c-42.667 0 -83 -5.5 -121 -16.5s-76.333 -27.5 -115 -49.5
c-70 -40 -128 -97 -174 -171zM446.999 732.001l-6 -11.999c-15.333 -30.667 -27 -63.834 -35 -99.501s-12 -73.167 -12 -112.5c0 -77.333 17.667 -151.666 53 -222.999l6 12c32 63.333 48 133.666 48 210.999c0 74 -16 144.667 -48 212z" />
    <glyph glyph-name="Y" unicode="Y" horiz-adv-x="806" 
d="M722 147l3.99902 80.001l-1 -4l-2 -7c-5.33301 -17.333 -10.5 -32.166 -15.5 -44.499s-10.5 -23.5 -16.5 -33.5c-28.667 -49.333 -69.667 -89 -123 -119c-26 -14 -53 -24.667 -81 -32s-57.333 -11 -88 -11c-58 0 -111.833 13.833 -161.5 41.5s-90.5 67.167 -122.5 118.5
c-20 30.667 -34.333 66.667 -43 108s-13 98 -13 170v588c0 10 4.33301 15 13 15c8 0 12 -5 12 -15v-558c0 -73.333 2 -128 6 -164s12.667 -68 26 -96c24 -54.667 62.167 -98.834 114.5 -132.501s108.833 -50.5 169.5 -50.5c65.333 0 124.833 18 178.5 54
s92.167 84 115.5 144c10.667 28.667 18 58.667 22 90s6 82.666 6 153.999v559c0 10 4.33301 15 13 15c8 0 12 -5 12 -15v-1335c0 -10 -4 -15 -12 -15c-7.33301 0 -11.666 5 -12.999 15v480z" />
    <glyph glyph-name="Z" unicode="Z" horiz-adv-x="696" 
d="M621 992h-566.001c-10 0 -15 4 -15 12c0 7.33301 5 11.666 15 12.999h575c14 0 21 -6 21 -18c-1.33301 -6 -2.66602 -10 -3.99902 -12l-590 -962h610c10 0 15 -4 15 -12c0 -7.33301 -5 -11.666 -15 -12.999h-619c-14 0 -21 5.66699 -21 17c0 4.66699 1.66699 9 5 13z" />
    <glyph glyph-name="bracketleft" unicode="[" horiz-adv-x="458" 
d="M162 1453v-1779h255c10 0 15 -4 15 -12c0 -7.33301 -5 -11.666 -15 -12.999h-255c-16.667 0 -25 8.33301 -25 25v1779c0 16.667 8.33301 25 25 25h255c10 0 15 -4.33301 15 -13c0 -8 -5 -12 -15 -12h-255z" />
    <glyph glyph-name="backslash" unicode="\" horiz-adv-x="699" 
d="M-24 1473l704 -1684l2 -8c0 -7.33301 -4.33301 -11 -13 -11c-5.33301 0 -9.33301 3.33301 -12 10l-704 1683l-2 9c0 7.33301 4 11 12 11c4.66699 0 9 -3.33301 13 -10z" />
    <glyph glyph-name="bracketright" unicode="]" horiz-adv-x="458" 
d="M296 -326v1779h-255c-10 0 -15 4 -15 12c0 7.33301 5 11.666 15 12.999h255c16.667 0 25 -8.33301 25 -25v-1779c0 -16.667 -8.33301 -25 -25 -25h-255c-10 0 -15 4.33301 -15 13c0 8 5 12 15 12h255z" />
    <glyph glyph-name="asciicircum" unicode="^" horiz-adv-x="1024" 
d="M509 1334l-355.998 -514.999c-5.33301 -8.66699 -12 -13.334 -20 -14.001c-14.667 0 -22 7 -22 21c0 4 2.33301 9.66699 7 17l359 510c6 8 14 12 24 12h22c10 0 18 -4 24 -12l358 -508c3.33301 -5.33301 5.66602 -11.333 6.99902 -18c0 -14.667 -7.66699 -22 -23 -22
c-6.66699 0 -13.334 4.66699 -20.001 14z" />
    <glyph glyph-name="underscore" unicode="_" horiz-adv-x="1024" 
d="M25 -171h974c16.667 0 25 -7 25 -21c0 -13.333 -8.33301 -20 -25 -20h-974c-16.667 0 -25 6.66699 -25 20c-0 14 8.33301 21 25 21z" />
    <glyph glyph-name="a" unicode="a" horiz-adv-x="1120" 
d="M907 106c-102.667 -86.667 -218.334 -130.002 -347.001 -130.002c-49.333 0 -95.666 5.66699 -138.999 17s-86.333 29.333 -129 54c-82 47.333 -146.833 112.333 -194.5 195s-71.5 171.334 -71.5 266.001c0 96 23.833 185 71.5 267s112.667 146.833 195 194.5
s170.833 71.5 265.5 71.5c95.333 0 183.833 -23.833 265.5 -71.5s146.667 -112.667 195 -195s72.5 -170.5 72.5 -264.5c0 -147.333 -53 -274.666 -159 -381.999v-113c0 -10 -4.33301 -15 -13 -15c-8 0 -12 5 -12 15v91zM932 163.998
c89.333 96.667 133.999 211.668 133.999 345.001c0 46.667 -5.33301 90.334 -16 131.001s-28 81.334 -52 122.001c-44.667 78 -106.5 139.833 -185.5 185.5s-163.833 68.5 -254.5 68.5c-149.333 0 -275 -56 -377 -168c-86.667 -96.667 -130 -210 -130 -340
c0 -46.667 5.33301 -90.334 16 -131.001s28 -81.334 52 -122.001c45.333 -78 107.333 -139.833 186 -185.5s163.334 -68.5 254.001 -68.5c128 0 240.667 43 338 129l10 9v363c0 9.33301 4 14.666 12 15.999c8 0 12.333 -5.33301 13 -16v-338z" />
    <glyph glyph-name="b" unicode="b" horiz-adv-x="1120" 
d="M211 911c102.667 86.667 218.335 130.001 347.002 130.001c49.333 0 95.666 -5.66699 138.999 -17s86.333 -29.333 129 -54c82 -48 146.833 -113.167 194.5 -195.5s71.5 -170.833 71.5 -265.5c0 -96 -23.833 -185 -71.5 -267s-112.667 -146.833 -195 -194.5
s-170.833 -71.5 -265.5 -71.5c-95.333 0 -183.833 23.833 -265.5 71.5s-146.667 112.667 -195 195s-72.5 170.5 -72.5 264.5c0 147.333 53 274.666 159 381.999v461c0 10 4 15 12 15c7.33301 0 11.666 -5 12.999 -15v-439zM186.001 853.001
c-89.333 -96.667 -134.003 -211.668 -134.003 -345.001c0 -46.667 5.33301 -90.334 16 -131.001s28 -81.334 52 -122.001c45.333 -78 107.333 -139.833 186 -185.5s163.334 -68.5 254.001 -68.5c46.667 0 90.334 5.33301 131.001 16s81.334 28 122.001 52
c78 45.333 139.833 107.333 185.5 186s68.5 163.334 68.5 254.001c0 46.667 -5.33301 90.334 -16 131.001s-28 81.334 -52 122.001c-44.667 78 -106.5 139.833 -185.5 185.5s-163.833 68.5 -254.5 68.5c-127.333 0 -240 -43 -338 -129l-10 -9v-364
c0 -10 -4.33301 -15 -13 -15c-8 0 -12 5 -12 15v339z" />
    <glyph glyph-name="c" unicode="c" horiz-adv-x="955" 
d="M559 1041c146.667 0 271 -51.3359 373 -154.003c10.667 -10 16.334 -17.667 17.001 -23c0 -7.33301 -4 -11.666 -12 -12.999c-2 0.666992 -4 1.66699 -6 3s-4.66699 3.66602 -8 6.99902c-41.333 46 -94.5 83.333 -159.5 112s-133.167 43 -204.5 43
c-47.333 0 -91.5 -5.33301 -132.5 -16s-82.167 -28 -123.5 -52c-77.333 -45.333 -138.5 -107.333 -183.5 -186s-67.5 -162.667 -67.5 -252c0 -150.667 56 -277 168 -379c96.667 -86.667 208.667 -130 336 -130c36 0 70 3.33301 102 10s66.667 18 104 34
c67.333 30 121.666 68 162.999 114c3.33301 4 7.33301 6.66699 12 8c8 0 12 -4.33301 12 -13c0 -10 -18.5 -29.167 -55.5 -57.5s-73.5 -51.166 -109.5 -68.499c-75.333 -34.667 -152.333 -52 -231 -52c-90.667 0 -177 23.833 -259 71.5s-147 112.834 -195 195.501
s-72 171.334 -72 266.001c0 155.333 58.333 287 175 395c50 45.333 104.5 79.5 163.5 102.5s123.5 34.5 193.5 34.5z" />
    <glyph glyph-name="d" unicode="d" horiz-adv-x="1120" 
d="M932 890c23.333 -22 42.3359 -43.666 57.0029 -64.999c68 -94 102 -200 102 -318c0 -94.667 -23.833 -183 -71.5 -265s-112.834 -146.833 -195.501 -194.5s-171.334 -71.5 -266.001 -71.5c-95.333 0 -184 23.833 -266 71.5s-146.833 112.667 -194.5 195
s-71.5 171.166 -71.5 266.499c0 94.667 23.833 183.167 71.5 265.5s112.667 147.333 195 195s170.833 71.5 265.5 71.5c130.667 0 247 -43 349 -129v438c0 10 4 15 12 15c7.33301 0 11.666 -5 12.999 -15v-460zM932.003 856.001v-342c0 -10 -4.33301 -15 -13 -15
c-8 0 -12 5 -12 15v366l-10 8c-99.333 85.333 -212 128 -338 128c-90.667 0 -175.167 -22.5 -253.5 -67.5s-140.333 -107 -186 -186s-68.5 -163.5 -68.5 -253.5c0 -90.667 22.667 -175.167 68 -253.5s107.333 -140.333 186 -186s163 -68.5 253 -68.5
c90.667 0 175.167 22.667 253.5 68s140.333 107.333 186 186s68.5 163 68.5 253c0 134.667 -44.667 250.667 -134 348z" />
    <glyph glyph-name="e" unicode="e" horiz-adv-x="1111" 
d="M1067 526c0 34 -3.66504 66.335 -10.998 97.002s-18.333 62 -33 94c-38 85.333 -95.667 154.666 -173 207.999c-86.667 60.667 -183.334 91 -290.001 91c-90.667 0 -174.834 -22.5 -252.501 -67.5s-139.667 -106.833 -186 -185.5s-69.5 -163.334 -69.5 -254.001
c0 -88.667 23 -172.667 69 -252s108.333 -141.833 187 -187.5s162.334 -68.5 251.001 -68.5c57.333 0 116.5 11 177.5 33s112.5 51.667 154.5 89c6 6 11 9 15 9c8 0 12 -4 12 -12c0 -6 -15 -20 -45 -42c-93.333 -68 -198 -102 -314 -102c-94.667 0 -183 23.667 -265 71
s-147 112.5 -195 195.5s-72 171.833 -72 266.5s23.833 183.167 71.5 265.5s112.667 147.333 195 195s171.166 71.5 266.499 71.5c102.667 0 197 -27.333 283 -82s151.667 -129 197 -223c34 -70 51 -141 51 -213c0 -14.667 -8.33301 -22 -25 -22h-841
c-10 0 -15 4.33301 -15 13c0 8 5 12 15 12h842z" />
    <glyph glyph-name="f" unicode="f" horiz-adv-x="591" 
d="M65 527l508.001 -0.000976562c10 0 15 -4 15 -12s-5 -12 -15 -12h-508v-488c0 -10 -4 -15 -12 -15s-12 5 -12 15v779c0 94.667 12 174.834 36 240.501s63.667 125.167 119 178.5c48.667 47.333 101.667 83.333 159 108c64.667 28 133.667 42 207 42l9 1h5
c8 0 12 -4 12 -12c0 -8.66699 -5.66699 -13 -17 -13c-68.667 0 -133 -12 -193 -36c-54 -21.333 -104.333 -52.666 -151 -93.999c-58.667 -52.667 -100.334 -112.334 -125.001 -179.001s-37 -154 -37 -262v-241z" />
    <glyph glyph-name="g" unicode="g" horiz-adv-x="1120" 
d="M932 128l0.00195312 -56.999v-17v-7c0 -101.333 -15.5 -179 -46.5 -233s-74.5 -97.167 -130.5 -129.5s-116 -48.5 -180 -48.5c-79.333 0 -150 24 -212 72s-105 111.333 -129 190c-8.66699 32.667 -13 59.334 -13 80.001c0 8 4 12 12 12c8.66699 0 13 -5.66699 13 -17
c0 -34.667 9.33301 -72.667 28 -114c26 -57.333 63.667 -103.666 113 -138.999c55.333 -39.333 117.666 -59 186.999 -59c60 0 115.667 14.167 167 42.5s91.666 68.166 120.999 119.499c14.667 25.333 26 56 34 92s12 76.667 12 122v7v16v46l-10 -9
c-41.333 -35.333 -93 -64.333 -155 -87s-123 -34 -183 -34c-94.667 0 -183.167 23.833 -265.5 71.5s-147.333 112.667 -195 195s-71.5 171.166 -71.5 266.499c0 94.667 23.833 183.167 71.5 265.5s112.667 147.333 195 195s170.833 71.5 265.5 71.5
c95.333 0 184 -23.667 266 -71s146.833 -112.333 194.5 -195s71.5 -171.334 71.5 -266.001c0 -145.333 -53.333 -272.333 -160 -381zM908.002 138.001l0.000976562 366.999c0 10 4 15 12 15s12 -5 12 -15v-342c90 97.333 135 212.333 135 345
c0 90.667 -22.667 175.334 -68 254.001s-107.166 140.667 -185.499 186s-162.833 68 -253.5 68c-46.667 0 -90.334 -5.33301 -131.001 -16s-81.334 -28 -122.001 -52c-78 -44.667 -139.833 -106.5 -185.5 -185.5s-68.5 -163.5 -68.5 -253.5
c0 -90.667 22.667 -175.167 68 -253.5s107.333 -140.333 186 -186s163 -68.5 253 -68.5c127.333 0 240 43 338 129z" />
    <glyph glyph-name="h" unicode="h" horiz-adv-x="806" 
d="M84 870l-4.00488 -79.0029l1 3l2 7c5.33301 17.333 10.5 32.166 15.5 44.499s10.5 23.5 16.5 33.5c28.667 48.667 69.5 87.834 122.5 117.501s109.5 44.5 169.5 44.5c58.667 0 112.5 -14 161.5 -42s89.833 -67.333 122.5 -118c20 -31.333 34.333 -67.666 43 -108.999
s13 -97.666 13 -168.999v-588c0 -10 -4 -15 -12 -15c-7.33301 0 -11.666 5 -12.999 15v557c0 77.333 -2.16699 133 -6.5 167s-12.833 65.333 -25.5 94c-24 54.667 -62 98.834 -114 132.501s-108.667 50.5 -170 50.5c-65.333 0 -124.666 -18 -177.999 -54s-92 -84 -116 -144
c-5.33301 -15.333 -9.66602 -29.5 -12.999 -42.5s-6.66602 -29.5 -9.99902 -49.5c-3.33301 -33.333 -5 -84.333 -5 -153v-558c0 -10 -4 -15 -12 -15c-7.33301 0 -11.666 5 -12.999 15v1335c0 10 4.33301 15 13 15c8 0 12 -5 12 -15v-480z" />
    <glyph glyph-name="i" unicode="i" horiz-adv-x="180" 
d="M78 15l-0.000976562 987c0 10 4.33301 15 13 15c8 0 12 -5 12 -15v-987c0 -10 -4 -15 -12 -15c-7.33301 0 -11.666 5 -12.999 15zM77.999 1214l-0.000976562 92c0 10 4.33301 15 13 15c8 0 12 -5 12 -15v-92c0 -10 -4 -15 -12 -15c-7.33301 0 -11.666 5 -12.999 15z" />
    <glyph glyph-name="j" unicode="j" horiz-adv-x="180" 
d="M103 1002v-763.002c0 -83.333 -4.16699 -148.166 -12.5 -194.499s-24.833 -92.166 -49.5 -137.499c-40.667 -77.333 -102.334 -141.833 -185.001 -193.5s-166 -77.5 -250 -77.5c-7.33301 0 -11.666 4 -12.999 12c0 8.66699 6.33301 13 19 13
c41.333 0 81 6.16699 119 18.5s76.333 30.5 115 54.5c72 44 128 102.333 168 175c26 46.667 43.167 94.5 51.5 143.5s12.5 122.833 12.5 221.5v728c0 10 4.33301 15 13 15c8 0 12 -5 12 -15zM90 1268c21.333 0 39.832 -7.83301 55.499 -23.5s23.5 -34.834 23.5 -57.501
c0 -21.333 -7.66699 -39.666 -23 -54.999s-33.666 -23 -54.999 -23c-22.667 0 -41.667 7.66699 -57 23s-23 34.333 -23 57c0 22 7.66699 40.667 23 56s34 23 56 23zM90.999 1243c-15.333 0 -28.333 -5.33301 -39 -16s-16 -23.667 -16 -39s5.33301 -28.333 16 -39
s23.667 -16 39 -16c14 0 26.333 5.33301 37 16s16 23 16 37c0 16 -5 29 -15 39s-22.667 16 -38 18z" />
    <glyph glyph-name="k" unicode="k" horiz-adv-x="804" 
d="M84 516v-501c0 -10 -4 -15 -12 -15c-7.33301 0 -11.666 5 -12.999 15v1335c0 10 4.33301 15 13 15c8 0 12 -5 12 -15v-813c50 0 99.167 6.33301 147.5 19s95.5 30.667 141.5 54c157.333 82 267.666 212 330.999 390c3.33301 11.333 9 17 17 17c6 0 9 -3 9 -9
c0 -12 -10.833 -41.667 -32.5 -89s-42.167 -84.333 -61.5 -111c-42 -59.333 -94.5 -112.5 -157.5 -159.5s-128.5 -80.5 -196.5 -100.5l-90 -20c195.333 -32 350.333 -121.333 465 -268c41.333 -52.667 75.333 -112 102 -178c14.667 -38.667 22 -63 22 -73
c0 -6 -3.33301 -9 -10 -9c-7.33301 0 -13 6 -17 18c-42.667 146 -123.667 263.667 -243 353c-60.667 45.333 -125.667 80.333 -195 105c-74.667 26.667 -152 40 -232 40z" />
    <glyph glyph-name="l" unicode="l" horiz-adv-x="142" 
d="M59 15l-0.000976562 1335c0 10 4.33301 15 13 15c8 0 12 -5 12 -15v-1335c0 -10 -4 -15 -12 -15c-7.33301 0 -11.666 5 -12.999 15z" />
    <glyph glyph-name="m" unicode="m" horiz-adv-x="1302" 
d="M652 893c-24 -30 -41.6709 -67.834 -53.0039 -113.501s-17 -100.167 -17 -163.5v-601c0 -10 -4.33301 -15 -13 -15c-8 0 -12 5 -12 15v599c0 71.333 5.5 128.166 16.5 170.499s31.5 84.5 61.5 126.5c-64 70 -140.667 105 -230 105c-52 0 -101 -11.5 -147 -34.5
s-83 -55.167 -111 -96.5c-42 -60 -63 -150 -63 -270v-600c0 -10 -4 -15 -12 -15c-7.33301 0 -11.666 5 -12.999 15v586c0 72.667 3.5 128.167 10.5 166.5s20.833 75.166 41.5 110.499s49.334 66.666 86.001 93.999c61.333 46 130 69 206 69c90 0 167 -31 231 -93l9 -9l9 -9
c68 74 150.667 111 248 111c59.333 0 115.333 -14.833 168 -44.5s94 -70.167 124 -121.5c18.667 -33.333 31.834 -70.166 39.501 -110.499s11.5 -94.833 11.5 -163.5v-586c0 -10 -4.33301 -15 -13 -15c-8 0 -12 5 -12 15v600c0 68.667 -5.16699 123.834 -15.5 165.501
s-28.833 80.334 -55.5 116.001s-62.5 64.5 -107.5 86.5s-92.5 33 -142.5 33c-89.333 0 -165.666 -35 -228.999 -105l6 -8c48 -69.333 72 -159.666 72 -270.999v-617c0 -10 -4.33301 -15 -13 -15c-8 0 -12 5 -12 15v580v24c0 122.667 -23 214 -69 274z" />
    <glyph glyph-name="n" unicode="n" horiz-adv-x="806" 
d="M80 791l0.995117 2.99707l2 7c5.33301 17.333 10.5 32.166 15.5 44.499s10.5 23.5 16.5 33.5c28.667 48.667 69.5 87.834 122.5 117.501s109.5 44.5 169.5 44.5c58.667 0 112.5 -14 161.5 -42s89.833 -67.333 122.5 -118c20 -31.333 34.333 -67.666 43 -108.999
s13 -97.666 13 -168.999v-588c0 -10 -4 -15 -12 -15c-7.33301 0 -11.666 5 -12.999 15v557c0 77.333 -2.16699 133 -6.5 167s-12.833 65.333 -25.5 94c-24 54.667 -62 98.834 -114 132.501s-108.667 50.5 -170 50.5c-65.333 0 -124.666 -18 -177.999 -54s-92 -84 -116 -144
c-5.33301 -15.333 -9.66602 -29.5 -12.999 -42.5s-6.66602 -29.5 -9.99902 -49.5c-3.33301 -33.333 -5 -84.333 -5 -153v-558c0 -10 -4 -15 -12 -15c-7.33301 0 -11.666 5 -12.999 15v987c0 10 4.33301 15 13 15c8 0 12 -5 12 -15v-132z" />
    <glyph glyph-name="o" unicode="o" horiz-adv-x="1165" 
d="M546 1017c-124.667 0 -234.999 -43.666 -330.999 -130.999c-50.667 -44.667 -91.334 -99.667 -122.001 -165c-14.667 -32 -26 -64.167 -34 -96.5s-12 -65.5 -12 -99.5c0 -10.667 -4.33301 -16.334 -13 -17.001c-8 0 -12 4 -12 12c0 58.667 11.333 117.667 34 177
c31.333 80.667 78.666 149.667 141.999 207c101.333 91.333 220 137 356 137c110 0 210.333 -31.167 301 -93.5s156.334 -145.833 197.001 -250.5c22.667 -62 34 -121 34 -177c0 -8 -4 -12 -12 -12c-8.66699 0 -13 5.66699 -13 17c0 84.667 -22.333 164 -67 238
c-48 80 -110.667 142.333 -188 187s-164 67 -260 67zM1131 509.001c8 0 12 -4.33105 12 -12.998c0 -28.667 -3.33301 -59.667 -10 -93c-10.667 -56 -31 -109.667 -61 -161c-48 -82 -113.167 -146.833 -195.5 -194.5s-170.833 -71.5 -265.5 -71.5
c-104 0 -199.833 28.167 -287.5 84.5s-153.5 132.166 -197.5 227.499c-31.333 70 -47 139.333 -47 208c0 7.33301 4 11.666 12 12.999c8 0 12.333 -5.33301 13 -16c0 -70.667 17.667 -142 53 -214s87.333 -132.333 156 -181c88.667 -64.667 190.667 -97 306 -97
c95.333 0 184.666 27.167 267.999 81.5s145.333 126.5 186 216.5c14.667 32.667 25.834 64.667 33.501 96s11.5 64 11.5 98c0 10 4.33301 15.333 13 16z" />
    <glyph glyph-name="p" unicode="p" horiz-adv-x="1120" 
d="M186 128c-106 106 -159 233.332 -159 381.999c0 94.667 23.833 183 71.5 265s112.834 146.833 195.501 194.5s171.334 71.5 266.001 71.5c95.333 0 184 -23.833 266 -71.5s146.833 -112.667 194.5 -195s71.5 -171.166 71.5 -266.499
c0 -94.667 -23.833 -183.167 -71.5 -265.5s-112.5 -147.5 -194.5 -195.5c-40.667 -23.333 -83.334 -41 -128.001 -53s-91.334 -18 -140.001 -18c-128 0 -243.667 43.333 -347 130v-442c0 -10 -4.33301 -15 -13 -15c-8 0 -12 5 -12 15v464zM186 163.999v338.001
c0 9.33301 4 14.666 12 15.999c8 0 12.333 -5.33301 13 -16v-363l10 -9c96 -86 208.667 -129 338 -129c90.667 0 175.167 22.667 253.5 68s140.333 107.333 186 186s68.5 163 68.5 253c0 150.667 -56 276.667 -168 378c-96.667 86.667 -209.667 130 -339 130
c-90.667 0 -175.167 -22.5 -253.5 -67.5s-140.333 -107 -186 -186s-68.5 -163.5 -68.5 -253.5c0 -134 44.667 -249 134 -345z" />
    <glyph glyph-name="q" unicode="q" horiz-adv-x="1120" 
d="M907 106c-102.667 -86.667 -218.334 -130.002 -347.001 -130.002c-49.333 0 -95.666 5.66699 -138.999 17s-86.333 29.333 -129 54c-82 47.333 -146.833 112.333 -194.5 195s-71.5 171.334 -71.5 266.001c0 96 23.833 185 71.5 267s112.667 146.833 195 194.5
s170.833 71.5 265.5 71.5c95.333 0 183.833 -23.833 265.5 -71.5s146.667 -112.667 195 -195s72.5 -170.5 72.5 -264.5c0 -147.333 -53 -274.666 -159 -381.999v-464c0 -10 -4.33301 -15 -13 -15c-8 0 -12 5 -12 15v442zM932 163.998
c89.333 96.667 133.999 211.668 133.999 345.001c0 46.667 -5.33301 90.334 -16 131.001s-28 81.334 -52 122.001c-44.667 78 -106.5 139.833 -185.5 185.5s-163.833 68.5 -254.5 68.5c-149.333 0 -275 -56 -377 -168c-86.667 -96.667 -130 -210 -130 -340
c0 -46.667 5.33301 -90.334 16 -131.001s28 -81.334 52 -122.001c45.333 -78 107.333 -139.833 186 -185.5s163.334 -68.5 254.001 -68.5c128 0 240.667 43 338 129l10 9v363c0 9.33301 4 14.666 12 15.999c8 0 12.333 -5.33301 13 -16v-338z" />
    <glyph glyph-name="r" unicode="r" horiz-adv-x="467" 
d="M80 656c20.667 103.333 67.666 187.999 140.999 253.999c29.333 26.667 66.5 50.834 111.5 72.501s79.833 32.5 104.5 32.5c6 0 9.33301 -3.66699 10 -11c0 -8 -6.66699 -13 -20 -15c-70.667 -12.667 -135.167 -46.167 -193.5 -100.5s-99.5 -119.5 -123.5 -195.5
c-17.333 -57.333 -26 -136 -26 -236v-442c0 -10 -4 -15 -12 -15c-7.33301 0 -11.666 5 -12.999 15v987c0 10 4.33301 15 13 15c8 0 12 -5 12 -15v-267z" />
    <glyph glyph-name="s" unicode="s" horiz-adv-x="727" 
d="M355 1016c-76 0 -140.331 -28.665 -192.998 -85.998c-44 -48 -66 -105.333 -66 -172c0 -70 25.167 -130.667 75.5 -182s109.833 -77 178.5 -77c7.33301 0 11.666 -4 12.999 -12c0 -8 -5.66699 -12 -17 -12c-45.333 0 -89.333 12.333 -132 37
c-36.667 20 -66.667 47.333 -90 82c-18 24.667 -31.333 50 -40 76s-13 55.333 -13 88c0 78 28 144.667 84 200s122.667 83 200 83c50 0 97.167 -12.833 141.5 -38.5s79.166 -60.5 104.499 -104.5c23.333 -40.667 35 -77 35 -109c0 -6.66699 -3.66699 -10.334 -11 -11.001
c-8 0 -13 6.33301 -15 19c0 13.333 -2.5 27.166 -7.5 41.499s-12.5 29.5 -22.5 45.5c-51.333 88 -126.333 132 -225 132zM372.002 630.002l-4.00195 0.000976562h-8c-7.33301 0 -11.666 4 -12.999 12c0 8.66699 6.33301 13 19 13c58 0 113.667 -15.333 167 -46
c44 -26 80.667 -59.667 110 -101c40 -58 60 -122.667 60 -194c0 -51.333 -11.833 -100.833 -35.5 -148.5s-56.834 -88.167 -99.501 -121.5c-60.667 -45.333 -128.667 -68 -204 -68c-59.333 0 -113.666 13.833 -162.999 41.5s-91 68 -125 121s-51 105.167 -51 156.5
c0 8 4 12.667 12 14c8.66699 0 13 -6 13 -18c0 -41.333 14 -86 42 -134s66.333 -86 115 -114s102.334 -42 161.001 -42c90 0 166.333 34.667 229 104c54 60 81 130 81 210c0 55.333 -13.833 107.166 -41.5 155.499s-66.167 87 -115.5 116s-99 43.5 -149 43.5z" />
    <glyph glyph-name="t" unicode="t" horiz-adv-x="625" 
d="M165 992l-143.001 0.000976562c-10 0 -15 4 -15 12c0 7.33301 5 11.666 15 12.999h143v167c0 10 4.33301 15 13 15c8 0 12 -5 12 -15v-167h414c10 0 15 -4.33301 15 -13c0 -8 -5 -12 -15 -12h-414v-977c0 -10 -4 -15 -12 -15c-7.33301 0 -11.666 5 -12.999 15v977z" />
    <glyph glyph-name="u" unicode="u" horiz-adv-x="806" 
d="M726 226l-1.00098 -2.99902l-2 -7c-5.33301 -17.333 -10.5 -32.166 -15.5 -44.499s-10.5 -23.5 -16.5 -33.5c-28.667 -49.333 -69.667 -89 -123 -119c-26 -14 -53 -24.667 -81 -32s-57.333 -11 -88 -11c-58 0 -111.833 13.833 -161.5 41.5s-90.5 67.167 -122.5 118.5
c-20 30.667 -34.333 66.667 -43 108s-13 98 -13 170v588c0 10 4.33301 15 13 15c8 0 12 -5 12 -15v-558c0 -73.333 2 -128 6 -164s12.667 -68 26 -96c24 -54.667 62.167 -98.834 114.5 -132.501s108.833 -50.5 169.5 -50.5c65.333 0 124.833 18 178.5 54
s92.167 84 115.5 144c10.667 28.667 18 58.667 22 90s6 82.666 6 153.999v559c0 10 4.33301 15 13 15c8 0 12 -5 12 -15v-987c0 -10 -4 -15 -12 -15c-7.33301 0 -11.666 5 -12.999 15v132z" />
    <glyph glyph-name="v" unicode="v" horiz-adv-x="836" 
d="M387 113l31 -89l30 89l352 897c2 6 5.66699 9.33301 11 10c8 0 12.333 -3.66699 13 -11l-2 -8l-390 -998c-3.33301 -8 -8 -12 -14 -12c-5.33301 0 -10 4 -14 12l-391 998l-2 8c0 7.33301 4 11 12 11c4.66699 0 9 -3.33301 13 -10z" />
    <glyph glyph-name="w" unicode="w" horiz-adv-x="1302" 
d="M652 125c23.333 28.667 40.6709 66.335 52.0039 113.002s17 101 17 163v601c0 10 4 15 12 15c7.33301 0 11.666 -5 12.999 -15v-599c0 -71.333 -5.33301 -127 -16 -167c-5.33301 -22 -12.666 -42.833 -21.999 -62.5s-22.666 -42.167 -39.999 -67.5
c63.333 -70 139.666 -105 228.999 -105c53.333 0 102.5 11.833 147.5 35.5s82.167 55.5 111.5 95.5c41.333 60.667 62 150.667 62 270v600c0 10 4 15 12 15c7.33301 0 11.666 -5 12.999 -15v-586c0 -72.667 -3.5 -127.834 -10.5 -165.501s-20.5 -73.834 -40.5 -108.501
c-22 -38 -50.667 -70.333 -86 -97c-62 -46 -130.667 -69 -206 -69c-93.333 0 -176 37 -248 111c-70 -74 -153 -111 -249 -111c-60.667 0 -117.334 14.833 -170.001 44.5s-93.667 70.167 -123 121.5c-18.667 32 -32 68.333 -40 109c-3.33301 18.667 -6 42 -8 70
s-3 59.667 -3 95v586c0 10 4.33301 15 13 15c8 0 12 -5 12 -15v-600c0 -68.667 5.16699 -124 15.5 -166s28.833 -80.667 55.5 -116s62.667 -64 108 -86s92.666 -33 141.999 -33c88 0 164.667 35 230 105l-6 8c-48 69.333 -72 159.666 -72 270.999v617c0 10 4 15 12 15
c7.33301 0 11.666 -5 12.999 -15v-580v-24c0 -64 5.5 -118.167 16.5 -162.5s28.833 -81.166 53.5 -110.499z" />
    <glyph glyph-name="x" unicode="x" horiz-adv-x="894" 
d="M462 758c42.667 -79.333 63.999 -162.999 63.999 -250.999c0 -86.667 -21.667 -169.334 -65 -248.001c45.333 -72 104 -129.333 176 -172c36 -20.667 73.667 -36.5 113 -47.5s79.666 -16.5 120.999 -16.5c10.667 0 16.334 -4.33301 17.001 -13c0 -8 -4.33301 -12 -13 -12
c-82.667 0 -163.167 21.5 -241.5 64.5s-140.5 100.5 -186.5 172.5c-45.333 -70.667 -107.166 -127.834 -185.499 -171.501s-158.833 -65.5 -241.5 -65.5c-7.33301 0 -11.666 4 -12.999 12c0 8.66699 5.66699 13 17 13c81.333 0 158.333 21 231 63s132 99.667 178 173
c-42.667 79.333 -64 162 -64 248c0 88.667 21.333 172.334 64 251.001l-7 11c-39.333 65.333 -95.666 119 -168.999 161c-36.667 20 -74.834 35.833 -114.501 47.5s-79.5 17.5 -119.5 17.5c-9.33301 0 -14.666 4 -15.999 12c0 8.66699 5.66699 13 17 13
c80.667 0 159 -21.167 235 -63.5s138.667 -100.5 188 -174.5c49.333 73.333 112.166 131.333 188.499 174s155.166 64 236.499 64c10 0 15.333 -4.33301 16 -13c0 -7.33301 -5.33301 -11.333 -16 -12c-42.667 0 -83 -5.5 -121 -16.5s-76.333 -27.5 -115 -49.5
c-70 -40 -128 -97 -174 -171zM446.999 732.001l-6 -11.999c-15.333 -30.667 -27 -63.834 -35 -99.501s-12 -73.167 -12 -112.5c0 -77.333 17.667 -151.666 53 -222.999l6 12c32 63.333 48 133.666 48 210.999c0 74 -16 144.667 -48 212z" />
    <glyph glyph-name="y" unicode="y" horiz-adv-x="806" 
d="M722 147l3.99902 80.001l-1 -4l-2 -7c-5.33301 -17.333 -10.5 -32.166 -15.5 -44.499s-10.5 -23.5 -16.5 -33.5c-28.667 -49.333 -69.667 -89 -123 -119c-26 -14 -53 -24.667 -81 -32s-57.333 -11 -88 -11c-58 0 -111.833 13.833 -161.5 41.5s-90.5 67.167 -122.5 118.5
c-20 30.667 -34.333 66.667 -43 108s-13 98 -13 170v588c0 10 4.33301 15 13 15c8 0 12 -5 12 -15v-558c0 -73.333 2 -128 6 -164s12.667 -68 26 -96c24 -54.667 62.167 -98.834 114.5 -132.501s108.833 -50.5 169.5 -50.5c65.333 0 124.833 18 178.5 54
s92.167 84 115.5 144c10.667 28.667 18 58.667 22 90s6 82.666 6 153.999v559c0 10 4.33301 15 13 15c8 0 12 -5 12 -15v-1335c0 -10 -4 -15 -12 -15c-7.33301 0 -11.666 5 -12.999 15v480z" />
    <glyph glyph-name="z" unicode="z" horiz-adv-x="696" 
d="M621 992h-566.001c-10 0 -15 4 -15 12c0 7.33301 5 11.666 15 12.999h575c14 0 21 -6 21 -18c-1.33301 -6 -2.66602 -10 -3.99902 -12l-590 -962h610c10 0 15 -4 15 -12c0 -7.33301 -5 -11.666 -15 -12.999h-619c-14 0 -21 5.66699 -21 17c0 4.66699 1.66699 9 5 13z" />
    <glyph glyph-name="braceleft" unicode="{" horiz-adv-x="522" 
d="M140 565c72.667 -58.667 109.001 -124.332 109.001 -196.999c0 -35.333 -10.333 -94.666 -31 -177.999c-9.33301 -38.667 -16.333 -71.667 -21 -99s-7 -52 -7 -74c0 -84.667 27.667 -158.834 83 -222.501s127.666 -105.5 216.999 -125.5c10 -2 15.333 -6.66699 16 -14
c0 -8 -3.66699 -12 -11 -12c-16 0 -44.333 8.83301 -85 26.5s-72.667 35.5 -96 53.5c-46 34 -82.167 77 -108.5 129s-39.5 107.333 -39.5 166c0 44 9.66699 105 29 183s29 134.667 29 170c0 66 -33.333 124.333 -100 175c-8 6 -12.333 12.333 -13 19c0 6 4.33301 12 13 18
c30.667 21.333 55 48.333 73 81s27 64 27 94c0 35.333 -9.66699 92.5 -29 171.5s-29 138.833 -29 179.5c0 92 28 171 84 237s134 112 234 138l10 2c8 0 12 -4 12 -12c0 -5.33301 -5.33301 -10 -16 -14c-62.667 -14 -120 -41 -172 -81c-40 -32 -71.333 -71.667 -94 -119
c-10.667 -22.667 -19 -46.5 -25 -71.5s-9 -50.5 -9 -76.5c0 -42.667 9.33301 -100.334 28 -173.001c10 -43.333 17.667 -79.5 23 -108.5s8 -52.167 8 -69.5c0 -72 -36.333 -137.333 -109 -196z" />
    <glyph glyph-name="bar" unicode="|" horiz-adv-x="1024" 
d="M532 1341v-1658c0 -16 -6.66699 -24 -20 -24s-20 8 -20 24v1658c0 16 6.66699 24 20 24s20 -8 20 -24z" />
    <glyph glyph-name="braceright" unicode="}" horiz-adv-x="522" 
d="M383 565c-72.667 57.333 -109.001 123.329 -109.001 197.996c0 34 10.333 92.667 31 176c9.33301 38.667 16.333 71.667 21 99s7 52 7 74c0 84.667 -27.667 158.834 -83 222.501s-127.666 105.5 -216.999 125.5c-10 2 -15.333 6.66699 -16 14c0 8 4 12 12 12l10 -2l9 -2
c82.667 -20.667 152.334 -60 209.001 -118c66.667 -70 100 -154.333 100 -253c0 -44.667 -9.33301 -104 -28 -178c-20.667 -82.667 -31 -140.667 -31 -174c0 -31.333 9 -63.166 27 -95.499s42.667 -59.166 74 -80.499c8 -4.66699 12.333 -11 13 -19
c0 -6 -4.33301 -12 -13 -18c-30 -20 -54.333 -46.667 -73 -80s-28 -65 -28 -95c0 -36.667 10.333 -95 31 -175c9.33301 -39.333 16.333 -73 21 -101s7 -53.667 7 -77c0 -60.667 -14 -117.667 -42 -171s-67.333 -97.333 -118 -132c-22.667 -16 -52.834 -32 -90.501 -48
s-63.5 -24 -77.5 -24c-8 0 -12 4 -12 12c0 5.33301 5.33301 10 16 14c62.667 12.667 120 39.667 172 81c40 32 71.333 71.667 94 119c10.667 22.667 19 46.5 25 71.5s9 50.5 9 76.5c0 42.667 -9.33301 100.334 -28 173.001c-10 42 -17.667 77.667 -23 107s-8 52.333 -8 69
c0 74 36.333 140.333 109 199z" />
    <glyph glyph-name="asciitilde" unicode="~" horiz-adv-x="1365" 
d="M451 1446c53.333 0 134.332 -29.666 242.999 -88.999c62 -32.667 107 -54.667 135 -66c28 -10 56 -15 84 -15c82 0 151 49.333 207 148c6 12 13.333 18 22 18c13.333 0 20 -6.66699 20 -20c0 -12.667 -19.333 -42.334 -58 -89.001
c-53.333 -63.333 -116.666 -95 -189.999 -95c-32 0 -64.833 6.33301 -98.5 19s-94.5 43 -182.5 91c-76.667 41.333 -137.667 62 -183 62c-38 0 -75.167 -13 -111.5 -39s-67.5 -62.667 -93.5 -110c-6 -12 -13.333 -18 -22 -18c-13.333 0 -20 6.33301 -20 19
c0 8.66699 12.333 29.667 37 63c60.667 80.667 131 121 211 121z" />
    <glyph glyph-name="nonbreakingspace" unicode="&#xa0;" 
 />
    <glyph glyph-name="exclamdown" unicode="&#xa1;" horiz-adv-x="274" 
d="M137 1041c22 0 40.666 -7.66797 55.999 -23.001s23 -33.666 23 -54.999c0 -22 -7.66699 -40.667 -23 -56s-33.666 -23 -54.999 -23c-22 0 -40.667 7.66699 -56 23s-23 34.333 -23 57c0 20 7.33301 37.667 22 53c8 8 16.333 14 25 18s19 6 31 6zM137.999 1016
c-14 0 -26.501 -5.33203 -37.501 -15.999s-16.5 -23 -16.5 -37c0 -13.333 5 -26 15 -38c10.667 -10.667 23.334 -16 38.001 -16c14 0 26.5 5.16699 37.5 15.5s16.5 23.166 16.5 38.499c0 14 -5.33301 26.333 -16 37s-23 16 -37 16zM124.998 -211l-0.000976562 987
c0 10 4.33301 15 13 15c8 0 12 -5 12 -15v-987c0 -10 -4 -15 -12 -15c-7.33301 0 -11.666 5 -12.999 15z" />
    <glyph glyph-name="cent" unicode="&#xa2;" horiz-adv-x="737" 
d="M419 805v-703.002c51.333 0 98 8.16699 140 24.5s81.333 42.5 118 78.5c6 6 11.333 9.66699 16 11c8 0 12 -4 12 -12c0 -12 -24.333 -34 -73 -66c-62 -40 -133 -60 -213 -60v-94c0 -10 -4.33301 -15 -13 -15c-8 0 -12 5 -12 15v95c-31.333 0 -61.166 5.33301 -89.499 16
s-57.833 26.334 -88.5 47.001c-50.667 33.333 -91 78 -121 134s-45 115.333 -45 178c0 96 33 180.333 99 253s147.667 113.334 245 122.001v76c0 10 4 15 12 15c7.33301 0 11.666 -5 12.999 -15v-75c80.667 0 153.667 -21.333 219 -64c44.667 -28.667 67 -49.334 67 -62.001
c0 -7.33301 -4 -11.666 -12 -12.999c-2 0.666992 -4 1.66699 -6 3s-5.33301 4 -10 8c-34.667 34.667 -73.5 60.5 -116.5 77.5s-90.167 25.5 -141.5 25.5zM394 803.998l-13 -2c-18 0 -35.833 -2.83301 -53.5 -8.5s-37.167 -14.167 -58.5 -25.5
c-56 -28.667 -101 -68.334 -135 -119.001c-39.333 -59.333 -59 -124.666 -59 -195.999c0 -90 30 -168.167 90 -234.5s136.333 -104.833 229 -115.5v701z" />
    <glyph glyph-name="sterling" unicode="&#xa3;" horiz-adv-x="666" 
d="M144 349l-103.999 -0.00195312c-10 0 -15 4.33301 -15 13c0 8 5 12 15 12h104v130c0 168 53.333 301.333 160 400c41.333 38 93.666 70 156.999 96c32.667 13.333 62.5 23.333 89.5 30s53.5 10 79.5 10c8 0 12 -3.66699 12 -11s-6 -12 -18 -14
c-68 0 -131.333 -15 -190 -45c-54 -27.333 -104.333 -68.333 -151 -123c-76 -89.333 -114 -209 -114 -359v-114h458c10 0 15 -4 15 -12c0 -7.33301 -5 -11.666 -15 -12.999h-458v-324h458c10 0 15 -4 15 -12c0 -7.33301 -5 -11.666 -15 -12.999h-458
c-16.667 -0 -25 8.33301 -25 25v324z" />
    <glyph glyph-name="currency" unicode="&#xa4;" horiz-adv-x="765" 
d="M629 279l59.001 -58.999c4 -4 6 -7.66699 6 -11c0 -8 -4 -12 -12 -12c-1.33301 0.666992 -2.83301 1.33398 -4.5 2.00098s-3.83398 2 -6.50098 4l-59 59c-66 -60.667 -142.667 -91 -230 -91s-163.666 30.333 -228.999 91l-59 -59c-4 -4 -7.66699 -6 -11 -6
c-8 0 -12 4 -12 12c0 3.33301 2 7 6 11l58 59c-60 67.333 -90 143.666 -90 228.999s30 162 90 230l-58 59c-4 4 -6 7.66699 -6 11c0 8 4 12 12 12c1.33301 -0.666992 2.83301 -1.33398 4.5 -2.00098s3.83398 -2 6.50098 -4l59 -58l3 3c66 58 141.333 87 226 87
c83.333 0 158.666 -29 225.999 -87l4 -3l59 58c3.33301 4 7 6 11 6c8 0 12 -4 12 -12c-0.666992 -1.33301 -1.33398 -2.83301 -2.00098 -4.5s-2 -3.83398 -4 -6.50098l-59 -59c60 -67.333 90 -143.666 90 -228.999s-30 -162 -90 -230zM381.001 821.001
c-91.333 0 -168.332 -34.666 -230.999 -103.999c-26.667 -29.333 -46.667 -61 -60 -95s-20 -71.667 -20 -113c0 -92.667 34.333 -170.334 103 -233.001c59.333 -53.333 129 -80 209 -80c92 0 169.333 34.667 232 104c53.333 59.333 80 127.333 80 204
c0 73.333 -20.667 137 -62 191c-64.667 84 -148.334 126 -251.001 126z" />
    <glyph glyph-name="yen" unicode="&#xa5;" horiz-adv-x="705" 
d="M353 428l310.001 589.999c3.33301 6 7.33301 9 12 9c7.33301 0 11.333 -3.66699 12 -11c-0.666992 -4.66699 -1.33398 -7.66699 -2.00098 -9l-266 -505h237c10 0 15 -4 15 -12s-5 -12 -15 -12h-249l-42 -79v-65h266c10 0 15 -4 15 -12c0 -7.33301 -5 -11.666 -15 -12.999
h-266v-294c0 -10 -4 -15 -12 -15s-12 5 -12 15v294h-266c-10 0 -15 4.33301 -15 13c0 8 5 12 15 12h266v64l-42 80h-249c-10 0 -15 4 -15 12s5 12 15 12h236l-265 505l-3 9c0 7.33301 4 11 12 11c4.66699 0 8.66699 -3 12 -9z" />
    <glyph glyph-name="brokenbar" unicode="&#xa6;" horiz-adv-x="1024" 
d="M532 1341v-607c0 -16 -6.66699 -24 -20 -24s-20 8 -20 24v607c0 16 6.66699 24 20 24s20 -8 20 -24zM532 290v-607c0 -16 -6.66699 -24 -20 -24s-20 8 -20 24v607c0 16 6.66699 24 20 24s20 -8 20 -24z" />
    <glyph glyph-name="section" unicode="&#xa7;" horiz-adv-x="765" 
d="M188 606c62.667 42.667 127.329 63.998 193.996 63.998c58.667 0 112.834 -14.333 162.501 -43s89.334 -68.5 119.001 -119.5s44.5 -105.167 44.5 -162.5c0 -86.667 -29.333 -160.667 -88 -222l-35 -32c39.333 -52.667 59 -109.667 59 -171c0 -48 -12 -93 -36 -135
s-57.5 -75.167 -100.5 -99.5s-87.833 -36.5 -134.5 -36.5c-50.667 0 -97.834 13.167 -141.501 39.5s-77.5 62.833 -101.5 109.5c-18 35.333 -27 66 -27 92c0 6.66699 3.66699 10.334 11 11.001c7.33301 0 12 -5 14 -15c8 -62.667 38.333 -115.334 91 -158.001
c44 -36 95 -54 153 -54c68 0 126.333 24.333 175 73s73 106.667 73 174c0 52.667 -18.333 104.334 -55 155.001c-56.667 -37.333 -117.667 -56 -183 -56c-95.333 0 -175.666 36 -240.999 108c-56 61.333 -84 133.666 -84 216.999c0 86 29 160 87 222l25 24
c-44.667 56 -67 115.667 -67 179c0 48 12 93 36 135s57.5 75.167 100.5 99.5s88.167 36.5 135.5 36.5c52.667 0 101.834 -15 147.501 -45s79.834 -70 102.501 -120c12.667 -29.333 19 -54.333 19 -75c0 -8 -3.66699 -12 -11 -12s-12 4.66699 -14 14
c-6 34.667 -16.333 64.667 -31 90c-22 37.333 -52 67.333 -90 90s-79 34 -123 34c-72.667 0 -134 -27.333 -184 -82c-42 -47.333 -63 -102.666 -63 -165.999c0 -57.333 20.333 -111.666 61 -162.999zM204.995 587.998l13.999 -10.999c44.667 -36.667 94.667 -55 150 -55
c7.33301 0 11.666 -4 12.999 -12c0 -8 -5.66699 -12 -17 -12c-63.333 0 -123 25 -179 75l-11 -10c-27.333 -24.667 -49.666 -57.334 -66.999 -98.001s-26 -80.667 -26 -120c0 -93.333 35.667 -170.333 107 -231c28 -22.667 58.167 -40 90.5 -52s66.833 -18 103.5 -18
c59.333 0 114.333 16.667 165 50c-48 49.333 -104.667 74 -170 74c-7.33301 0 -11.666 4 -12.999 12c0 8 6 12 18 12c68.667 0 130.667 -27.667 186 -83c76 66 114 144.667 114 236c0 92 -35.667 168.667 -107 230c-56.667 46.667 -121.667 70 -195 70
c-58 0 -116.667 -19 -176 -57z" />
    <glyph glyph-name="copyright" unicode="&#xa9;" horiz-adv-x="1486" 
d="M741 1381c159.333 0 302.334 -48.333 429.001 -145c88 -66 156.5 -148.833 205.5 -248.5s73.5 -205.834 73.5 -318.501c0 -123.333 -31.5 -239.166 -94.5 -347.499s-149.167 -194.333 -258.5 -258s-227.333 -95.5 -354 -95.5s-244.334 31.667 -353.001 95
s-194.667 149.833 -258 259.5s-95 227.167 -95 352.5c0 206 78 380.667 234 524c65.333 59.333 137.333 104.5 216 135.5s163.667 46.5 255 46.5zM740.001 1356c-198.667 0 -366.664 -75 -503.997 -225c-116.667 -130 -175 -282 -175 -456c0 -122 30.167 -235.5 90.5 -340.5
s143.666 -188.167 249.999 -249.5s219.833 -92 340.5 -92c113.333 0 220.166 26.667 320.499 80s182.166 127 245.499 221c77.333 114.667 116 239 116 373c0 158.667 -45 297 -135 415c-69.333 90.667 -149.833 159 -241.5 205s-194.167 69 -307.5 69zM912.004 1097
c8 0 12.6641 -4.00293 13.9971 -12.0029c0 -8.66699 -6.33301 -13 -19 -13c-39.333 0 -81 -8.33301 -125 -25c-22.667 -8.66699 -42.667 -18.167 -60 -28.5s-35.333 -23.5 -54 -39.5c-94.667 -79.333 -142 -180.666 -142 -303.999c0 -78.667 20.833 -150.5 62.5 -215.5
s97.834 -113.833 168.501 -146.5c24.667 -11.333 49.667 -20.166 75 -26.499s50.333 -9.5 75 -9.5c12 0 18.333 -4.33301 19 -13c0 -8 -4.33301 -12 -13 -12c-50 0 -100.667 10.667 -152 32c-57.333 24 -107.666 60 -150.999 108c-72.667 80.667 -109 175 -109 283
c0 94.667 28.833 179.834 86.5 255.501s132.834 126.5 225.501 152.5c37.333 9.33301 70.333 14 99 14z" />
    <glyph glyph-name="ordfeminine" unicode="&#xaa;" horiz-adv-x="481" 
d="M368 657c-42 -28 -84.334 -42.001 -127.001 -42.001c-62.667 0 -115.334 23.667 -158.001 71c-36.667 40.667 -55 88 -55 142c0 62.667 23.333 115.334 70 158.001c40.667 36.667 88.334 55 143.001 55c62.667 0 115.334 -23.667 158.001 -71
c36.667 -40.667 55 -88 55 -142s-20.667 -104 -62 -150v-39c0 -10 -4 -15 -12 -15s-12 5 -12 15v18zM391.999 714.999c24.667 37.333 37.001 74.999 37.001 112.999c0 54.667 -20.667 101.334 -62 140.001c-35.333 32 -77.333 48 -126 48c-56 0 -102.667 -20.667 -140 -62
c-32 -36 -48 -78 -48 -126c0 -56 20.667 -102.667 62 -140c36 -32 78 -48 126 -48c43.333 0 85.666 16 126.999 48v136c0 10 4 15 12 15s12 -5 12 -15v-109z" />
    <glyph glyph-name="guillemotleft" unicode="&#xab;" horiz-adv-x="511" 
d="M97 509l190 -305l3 -10c0 -7.33301 -4 -11 -12 -11c-4.66699 0 -8.66699 2.66699 -12 8l-189 304l-5 14c0 4.66699 1.66699 9.66699 5 15l188 304c3.33301 6 7.33301 9 12 9c8 0 12 -4 12 -12l-3 -9zM245 509l190 -305l3 -10c0 -7.33301 -4 -11 -12 -11
c-4.66699 0 -8.66699 2.66699 -12 8l-188 304c-4 6 -6 10.667 -6 14c0 4 2 9 6 15l187 304c4 6 8 9 12 9c8 0 12 -4 12 -12l-3 -9z" />
    <glyph glyph-name="logicalnot" unicode="&#xac;" horiz-adv-x="1024" 
d="M915 509h-825c-15.333 0 -23 6.33301 -23 19c0 12 7.66699 18 23 18h840c16.667 0 25 -8.33301 25 -25v-497c0 -16 -6.66699 -24 -20 -24s-20 8 -20 24v485z" />
    <glyph glyph-name="minus" unicode="&#xad;" horiz-adv-x="532" 
d="M449 546l-366 -0.000976562c-10 0 -15 4.33301 -15 13c0 8 5 12 15 12h366c10 0 15 -4 15 -12c0 -7.33301 -5 -11.666 -15 -12.999z" />
    <glyph glyph-name="registered" unicode="&#xae;" horiz-adv-x="1486" 
d="M741 1381c159.333 0 302.334 -48.333 429.001 -145c88 -66 156.5 -148.833 205.5 -248.5s73.5 -205.834 73.5 -318.501c0 -123.333 -31.5 -239.166 -94.5 -347.499s-149.167 -194.333 -258.5 -258s-227.333 -95.5 -354 -95.5s-244.334 31.667 -353.001 95
s-194.667 149.833 -258 259.5s-95 227.167 -95 352.5c0 206 78 380.667 234 524c65.333 59.333 137.333 104.5 216 135.5s163.667 46.5 255 46.5zM740.001 1356c-198.667 0 -366.664 -75 -503.997 -225c-116.667 -130 -175 -282 -175 -456c0 -122 30.167 -235.5 90.5 -340.5
s143.666 -188.167 249.999 -249.5s219.833 -92 340.5 -92c113.333 0 220.166 26.667 320.499 80s182.166 127 245.499 221c77.333 114.667 116 239 116 373c0 158.667 -45 297 -135 415c-69.333 90.667 -149.833 159 -241.5 205s-194.167 69 -307.5 69zM692.004 664
l0.00195312 -378.003c0 -10 -4.33301 -15 -13 -15c-8 0 -12 5 -12 15v381c-38.667 8 -58.334 17.333 -59.001 28c0 8 3.66699 12 11 12l12 -4c3.33301 -1.33301 8.66602 -3.16602 15.999 -5.49902s14 -4.16602 20 -5.49902v376l-10 -3c-46 -13.333 -82.333 -39 -109 -77
c-2.66699 -3.33301 -6.66699 -5.66602 -12 -6.99902c-8 0 -12 3.66699 -12 11c0 12.667 15.667 31.667 47 57c40 32 85.667 48 137 48c64 0 117.333 -23.667 160 -71c37.333 -41.333 56 -90 56 -146c0 -46 -12.5 -86.833 -37.5 -122.5s-59.5 -62.5 -103.5 -80.5l225 -392
c2 -2 3 -5 3 -9c0 -7.33301 -4 -11 -12 -11c-4.66699 0 -8.66699 2.66699 -12 8l-229 396c-22 -4 -38.333 -6 -49 -6zM692.006 687.997h9h6l34 3l5 1l-17 29l-4 10c0 7.33301 4.33301 11 13 11c4.66699 0 8.66699 -2.66699 12 -8l20 -36c41.333 16 73.333 40.167 96 72.5
s34 68.833 34 109.5c0 50 -18.333 94.5 -55 133.5s-79 58.5 -127 58.5h-12h-4h-10v-384z" />
    <glyph glyph-name="macron" unicode="&#xaf;" horiz-adv-x="1024" 
d="M25 1589h974c16.667 0 25 -7 25 -21c0 -13.333 -8.33301 -20 -25 -20h-974c-16.667 0 -25 6.66699 -25 20c-0 14 8.33301 21 25 21z" />
    <glyph glyph-name="degree" unicode="&#xb0;" horiz-adv-x="598" 
d="M300 1041c66.667 0 123.333 -25.334 170 -76.001c39.333 -43.333 59 -96 59 -158c0 -66 -25.333 -122 -76 -168c-44.667 -39.333 -96 -59 -154 -59c-68 0 -125.333 25.333 -172 76c-39.333 44.667 -59 96.334 -59 155.001c0 67.333 25.333 124.333 76 171
c43.333 39.333 95.333 59 156 59zM299.999 1016c-62 0 -113.331 -22.668 -153.998 -68.001c-35.333 -39.333 -53 -85 -53 -137c0 -61.333 22.667 -112.333 68 -153c39.333 -35.333 85.333 -53 138 -53c60 0 110.667 22.667 152 68c35.333 38.667 53 83.334 53 134.001
c0 62.667 -22.667 114.667 -68 156c-18.667 17.333 -39.334 30.5 -62.001 39.5s-47.334 13.5 -74.001 13.5z" />
    <glyph glyph-name="plusminus" unicode="&#xb1;" horiz-adv-x="765" 
d="M370 533l-328.001 -0.000976562c-10 0 -15 4.33301 -15 13c0 8 5 12 15 12h328v328c0 10 4.33301 15 13 15c8 0 12 -5 12 -15v-328h328c10 0 15 -4 15 -12c0 -7.33301 -5 -11.666 -15 -12.999h-328v-328c0 -10 -4 -15 -12 -15c-7.33301 0 -11.666 5 -12.999 15v328z
M721.999 91.999l-680 -0.000976562c-10 0 -15 4.33301 -15 13c0 8 5 12 15 12h680c10 0 15 -4 15 -12c0 -7.33301 -5 -11.666 -15 -12.999z" />
    <glyph glyph-name="twosuperior" unicode="&#xb2;" horiz-adv-x="498" 
d="M100 430l337 -0.000976562c10 0 15 -4 15 -12s-5 -12 -15 -12h-353c-12.667 0 -19 5 -19 15c0 3.33301 2 7.66602 6 12.999l257 305c41.333 49.333 62 92.333 62 129s-14.333 68.834 -43 96.501s-62 41.5 -100 41.5c-40 0 -74 -14 -102 -42s-42 -62.333 -42 -103
c0 -8.66699 0.666992 -15 2 -19l1 -9c0 -8 -4.33301 -12 -13 -12c-9.33301 0 -14 13.333 -14 40c0 47.333 16.167 87.5 48.5 120.5s71.833 49.5 118.5 49.5c50.667 0 92.667 -18.667 126 -56c28 -32 42 -67 42 -105c0 -43.333 -20.667 -89.666 -62 -138.999z" />
    <glyph glyph-name="threesuperior" unicode="&#xb3;" horiz-adv-x="498" 
d="M344 757c-32 -28 -66.333 -42.002 -103 -42.002c-8 0 -12.667 4 -14 12c0 6.66699 10.5 11.167 31.5 13.5s42.5 12.166 64.5 29.499l-9 4c-18 8 -41.667 13.667 -71 17c-9.33301 0 -14.666 4 -15.999 12c0 8 4.33301 12 13 12c30.667 0 64.667 -9 102 -27
c19.333 26.667 29 55 29 85c0 36 -13.167 67.167 -39.5 93.5s-58.166 39.5 -95.499 39.5c-26.667 0 -51.334 -7.66699 -74.001 -23s-39 -34.666 -49 -57.999c-2 -5.33301 -6 -8.66602 -12 -9.99902c-8 0 -12 4 -12 12c0 4.66699 4 13.667 12 27
c29.333 51.333 74.333 77 135 77c44 0 81.5 -15.167 112.5 -45.5s46.5 -67.833 46.5 -112.5c0 -34 -11.333 -66.667 -34 -98c57.333 -48 86 -105 86 -171c0 -58.667 -20.667 -108.667 -62 -150s-91 -62 -149 -62c-74 0 -132.333 31.667 -175 95
c-18.667 29.333 -28 51 -28 65c0 8 4 12 12 12c5.33301 0 10 -5.33301 14 -16c8 -35.333 29.667 -66.166 65 -92.499s72.666 -39.5 111.999 -39.5c56 0 102.333 20.667 139 62c32 35.333 48 77.333 48 126c0 62 -26.333 113 -79 153z" />
    <glyph glyph-name="mu" unicode="&#xb5;" horiz-adv-x="640" 
d="M82 147l1.99902 -62.001v-394c0 -10 -4 -15 -12 -15c-7.33301 0 -11.666 5 -12.999 15v1057c0 10 4.33301 15 13 15c8 0 12 -5 12 -15v-439c0 -91.333 13.333 -157.333 40 -198c46 -71.333 110.667 -107 194 -107c50.667 0 95.667 13.333 135 40s68 62.667 86 108
c14 36 21 96.333 21 181v417c0 8 3.66699 12.333 11 13c6.66699 0 10.334 -4.33301 11.001 -13v-735c0 -10 -4.33301 -15 -13 -15c-8 0 -12 5 -12 15v88l4 48l-4 -10c-14.667 -48 -44.834 -87 -90.501 -117s-95.167 -45 -148.5 -45c-56 0 -104.167 14.333 -144.5 43
s-70.833 70.334 -91.5 125.001z" />
    <glyph glyph-name="paragraph" unicode="&#xb6;" horiz-adv-x="559" 
d="M411 1020l0.00195312 75c0 10 4 15 12 15c7.33301 0 11.666 -5 12.999 -15v-87c22 -13.333 43.333 -29.833 64 -49.5s31.667 -34.167 33 -43.5c0 -8 -4 -12 -12 -12c-4 0 -9 4 -15 12c-16 24 -39.333 45.333 -70 64v-1315c0 -10 -4.33301 -15 -13 -15c-8 0 -12 5 -12 15
v1329c-28 12 -58.667 19.667 -92 23v-1352c0 -10 -4.33301 -15 -13 -15c-8 0 -12 5 -12 15v834l-15 1c-16 0 -32 2.5 -48 7.5s-33.667 12.5 -53 22.5c-44 24 -79.167 57.5 -105.5 100.5s-39.5 89.833 -39.5 140.5c0 72.667 24.667 134.667 74 186
c26 26.667 54.5 47.5 85.5 62.5s64.833 22.5 101.5 22.5v54c0 10 4 15 12 15c7.33301 0 11.666 -5 12.999 -15v-54l13 -1c13.333 0 25.833 -1.5 37.5 -4.5s25.5 -8.16699 41.5 -15.5zM294.002 522v494l-13 -1c-18 0 -36 -3.16699 -54 -9.5s-36 -15.5 -54 -27.5
c-35.333 -22 -63.333 -51.5 -84 -88.5s-31 -76.833 -31 -119.5c0 -66.667 22.333 -123.667 67 -171c23.333 -24.667 49 -43.667 77 -57s58.667 -20 92 -20z" />
    <glyph glyph-name="onesuperior" unicode="&#xb9;" horiz-adv-x="498" 
d="M297 993h-179c-10 0 -15 4 -15 12s5 12 15 12h179c16.667 0 25 -8.33301 25 -25v-570c0 -10 -4.33301 -15 -13 -15c-8 0 -12 5 -12 15v571z" />
    <glyph glyph-name="ordmasculine" unicode="&#xba;" horiz-adv-x="518" 
d="M241 1041c55.333 0 104.499 -20.166 147.499 -60.499s64.5 -87.166 64.5 -140.499c0 -8 -4 -12 -12 -12c-8.66699 0 -13 6.66699 -13 20c-4 46 -24.333 85.5 -61 118.5s-78.667 49.5 -126 49.5c-71.333 0 -126 -31.333 -164 -94
c-7.33301 -12.667 -13.166 -25.334 -17.499 -38.001s-6.5 -24.667 -6.5 -36c0 -12.667 -4.33301 -19.334 -13 -20.001c-8 0 -12 4.66699 -12 14c0 18 5 39.667 15 65c16 39.333 42 71.5 78 96.5s76 37.5 120 37.5zM76.999 828.001c8.66699 0 12.999 -7.00098 12.999 -21.001
c0 -42 19.667 -80.333 59 -115s82 -52 128 -52c50.667 0 93 15.833 127 47.5s54.333 73.834 61 126.501c0.666992 8.66699 5 13.334 13 14.001c8 0 12 -4.33301 12 -13c0 -52 -21.833 -98.333 -65.5 -139s-92.5 -61 -146.5 -61c-55.333 0 -104.666 20.167 -147.999 60.5
s-65 86.833 -65 139.5c0 7.33301 4 11.666 12 12.999z" />
    <glyph glyph-name="guillemotright" unicode="&#xbb;" horiz-adv-x="511" 
d="M266 509l-189 307l-3 9c0 8 4.33301 12 13 12c3.33301 0 7 -3 11 -9l188 -304l5 -15c0 -4 -1.66699 -8.66699 -5 -14l-189 -304c-2.66699 -4 -6.66699 -6.66699 -12 -8c-8 0 -12 3.66699 -12 11l3 10zM414 509l-189 307.001l-3 9c0 8 4.33301 12 13 12
c3.33301 0 7 -3 11 -9l188 -304l5 -15c0 -4 -1.66699 -8.66699 -5 -14l-189 -304c-2 -4.66699 -5.66699 -7.33398 -11 -8.00098c-8 0 -12.333 3.66699 -13 11l3 10z" />
    <glyph glyph-name="onequarter" unicode="&#xbc;" horiz-adv-x="1130" 
d="M257 993h-179c-10 0 -15 4 -15 12s5 12 15 12h179c16.667 0 25 -8.33301 25 -25v-570c0 -10 -4.33301 -15 -13 -15c-8 0 -12 5 -12 15v571zM842 1016l-615 -1024c-2.66699 -4 -7 -6.66699 -13 -8c-8 0 -12 4 -12 12l4 9l615 1024c2.66699 4 6.66699 6.66699 12 8
c8 0 12 -4 12 -12zM951 165l-309.001 0.000976562c-13.333 0 -20 5.33301 -20 16c0 3.33301 2 7.66602 6 12.999l324 417c2.66699 4 6.33398 6.33301 11.001 7c7.33301 0 11.666 -5 12.999 -15v-413h83c10 0 15 -4.33301 15 -13c0 -8 -5 -12 -15 -12h-83v-150
c0 -10 -4 -15 -12 -15c-7.33301 0 -11.666 5 -12.999 15v150zM951.999 189.001v348v38l-19 -27l-258 -332l-22 -27h35h264z" />
    <glyph glyph-name="onehalf" unicode="&#xbd;" horiz-adv-x="1130" 
d="M257 993h-179c-10 0 -15 4 -15 12s5 12 15 12h179c16.667 0 25 -8.33301 25 -25v-570c0 -10 -4.33301 -15 -13 -15c-8 0 -12 5 -12 15v571zM842 1016l-615 -1024c-2.66699 -4 -7 -6.66699 -13 -8c-8 0 -12 4 -12 12l4 9l615 1024c2.66699 4 6.66699 6.66699 12 8
c8 0 12 -4 12 -12zM690 24l336.998 -0.00292969c10 0 15 -4 15 -12s-5 -12 -15 -12h-353c-12 0 -18.333 5.33301 -19 16c0.666992 2 1.33398 3.83301 2.00098 5.5s2 3.83398 4 6.50098l257 305c41.333 48.667 62 91.334 62 128.001s-14.333 68.834 -43 96.501
s-62 41.5 -100 41.5c-39.333 0 -73.666 -14 -102.999 -42c-27.333 -28.667 -41 -63 -41 -103l2 -19l1 -8c0 -8 -4.33301 -12 -13 -12c-9.33301 0 -14 13.333 -14 40c0 46 16.167 85.667 48.5 119s71.833 50 118.5 50c50.667 0 92.667 -18.667 126 -56
c28 -31.333 42 -66.333 42 -105c0 -44 -20.667 -90 -62 -138z" />
    <glyph glyph-name="threequarters" unicode="&#xbe;" horiz-adv-x="1130" 
d="M344 757c-33.333 -28 -67.668 -42 -103.001 -42c-9.33301 0 -14 4 -14 12c0 4.66699 1.33301 8 4 10l24 3c23.333 2.66699 46 12.667 68 30l-9 4c-18 8 -41.667 13.667 -71 17c-9.33301 0 -14.666 4 -15.999 12c0 8 4.33301 12 13 12c30.667 0 64.667 -9 102 -27
c19.333 26.667 29 55 29 85c0 36 -13.167 67.167 -39.5 93.5s-58.166 39.5 -95.499 39.5c-26 0 -50.333 -7.33301 -73 -22s-39.334 -34.334 -50.001 -59.001c-2 -5.33301 -6 -8.66602 -12 -9.99902c-8 0 -12 4 -12 12c0 4.66699 4 13.667 12 27
c29.333 51.333 74.333 77 135 77c46.667 0 86.334 -17.667 119.001 -53c26.667 -30 40 -65 40 -105c0 -34 -11.333 -66.667 -34 -98c57.333 -48 86 -105 86 -171c0 -58.667 -20.667 -108.667 -62 -150s-91 -62 -149 -62c-74 0 -132.333 31.667 -175 95
c-18.667 29.333 -28 51 -28 65c0 8 4 12 12 12c5.33301 0 10 -5 14 -15c8 -36 29.667 -67.167 65 -93.5s72.666 -39.5 111.999 -39.5c56 0 102.333 20.667 139 62c32 35.333 48 77.333 48 126c0 62 -26.333 113 -79 153zM882.998 1016l-615 -1024
c-2.66699 -4 -7 -6.66699 -13 -8c-8 0 -12 4 -12 12l3 9l616 1024c2 4 6 6.66699 12 8c8 0 12 -4 12 -12zM948.998 165l-309.001 0.000976562c-13.333 0 -20 5.33301 -20 16c0 3.33301 2 7.66602 6 12.999l324 417c2.66699 4 6.33398 6.33301 11.001 7
c7.33301 0 11.666 -5 12.999 -15v-413h83c10 0 15 -4.33301 15 -13c0 -8 -5 -12 -15 -12h-83v-150c0 -10 -4 -15 -12 -15c-7.33301 0 -11.666 5 -12.999 15v150zM949.997 189.001v348v38l-19 -27l-258 -332l-22 -27h35h264z" />
    <glyph glyph-name="questiondown" unicode="&#xbf;" horiz-adv-x="395" 
d="M144 791c8 0 11.998 -3.99512 11.998 -11.9951l-1 -7c-3.33301 -12 -6 -25.5 -8 -40.5s-3 -30.833 -3 -47.5c0 -40 6 -78 18 -114c6 -16.667 15.5 -38.834 28.5 -66.501s29.167 -59.167 48.5 -94.5c37.333 -70 62.5 -125.167 75.5 -165.5s19.5 -82.833 19.5 -127.5
c0 -68.667 -16.167 -131.834 -48.5 -189.501s-77.833 -104.834 -136.5 -141.501l-7 -5c-2.66699 -2 -6.66699 -3.66699 -12 -5c-8 0 -12 4 -12 12c0 4.66699 3.66699 9.33398 11 14.001c56.667 33.333 100.834 77.833 132.501 133.5s47.5 116.167 47.5 181.5
c0 44 -6.16699 84.833 -18.5 122.5s-36.833 90.167 -73.5 157.5c-39.333 73.333 -65.5 129.166 -78.5 167.499s-19.5 78.5 -19.5 120.5c0 18.667 0.333008 32.667 1 42s2.83398 22.166 6.50098 38.499s9.5 25.166 17.5 26.499zM155.998 1041
c22 0 40.666 -7.66895 55.999 -23.002s23 -33.666 23 -54.999c0 -22 -7.66699 -40.667 -23 -56s-33.666 -23 -54.999 -23c-22 0 -40.667 7.66699 -56 23s-23 34.333 -23 57c0 20 7.66699 37.667 23 53c8.66699 8.66699 17 14.834 25 18.501s18 5.5 30 5.5zM156.997 1016
c-15.333 0 -28.168 -5.16602 -38.501 -15.499s-15.5 -22.833 -15.5 -37.5c0 -13.333 5 -26 15 -38c10.667 -10.667 23.334 -16 38.001 -16c14 0 26.5 5.16699 37.5 15.5s16.5 23.166 16.5 38.499c0 14 -5.33301 26.333 -16 37s-23 16 -37 16z" />
    <glyph glyph-name="Agrave" unicode="&#xc0;" horiz-adv-x="1120" 
d="M907 106c-102.667 -86.667 -218.334 -130.002 -347.001 -130.002c-49.333 0 -95.666 5.66699 -138.999 17s-86.333 29.333 -129 54c-82 47.333 -146.833 112.333 -194.5 195s-71.5 171.334 -71.5 266.001c0 96 23.833 185 71.5 267s112.667 146.833 195 194.5
s170.833 71.5 265.5 71.5c95.333 0 183.833 -23.833 265.5 -71.5s146.667 -112.667 195 -195s72.5 -170.5 72.5 -264.5c0 -147.333 -53 -274.666 -159 -381.999v-113c0 -10 -4.33301 -15 -13 -15c-8 0 -12 5 -12 15v91zM932 163.998
c89.333 96.667 133.999 211.668 133.999 345.001c0 46.667 -5.33301 90.334 -16 131.001s-28 81.334 -52 122.001c-44.667 78 -106.5 139.833 -185.5 185.5s-163.833 68.5 -254.5 68.5c-149.333 0 -275 -56 -377 -168c-86.667 -96.667 -130 -210 -130 -340
c0 -46.667 5.33301 -90.334 16 -131.001s28 -81.334 52 -122.001c45.333 -78 107.333 -139.833 186 -185.5s163.334 -68.5 254.001 -68.5c128 0 240.667 43 338 129l10 9v363c0 9.33301 4 14.666 12 15.999c8 0 12.333 -5.33301 13 -16v-338zM433.999 1368l185.999 -181.998
c4 -4 6 -7.66699 6 -11c0 -8 -4 -12 -12 -12c-5.33301 2 -9 3.66699 -11 5l-187 183c-2 2 -3.66699 5.33301 -5 10c0 7.33301 4 11.666 12 12.999c1.33301 -0.666992 2.83301 -1.33398 4.5 -2.00098s3.83398 -2 6.50098 -4z" />
    <glyph glyph-name="Aacute" unicode="&#xc1;" horiz-adv-x="1120" 
d="M907 106c-102.667 -86.667 -218.334 -130.002 -347.001 -130.002c-49.333 0 -95.666 5.66699 -138.999 17s-86.333 29.333 -129 54c-82 47.333 -146.833 112.333 -194.5 195s-71.5 171.334 -71.5 266.001c0 96 23.833 185 71.5 267s112.667 146.833 195 194.5
s170.833 71.5 265.5 71.5c95.333 0 183.833 -23.833 265.5 -71.5s146.667 -112.667 195 -195s72.5 -170.5 72.5 -264.5c0 -147.333 -53 -274.666 -159 -381.999v-113c0 -10 -4.33301 -15 -13 -15c-8 0 -12 5 -12 15v91zM932 163.998
c89.333 96.667 133.999 211.668 133.999 345.001c0 46.667 -5.33301 90.334 -16 131.001s-28 81.334 -52 122.001c-44.667 78 -106.5 139.833 -185.5 185.5s-163.833 68.5 -254.5 68.5c-149.333 0 -275 -56 -377 -168c-86.667 -96.667 -130 -210 -130 -340
c0 -46.667 5.33301 -90.334 16 -131.001s28 -81.334 52 -122.001c45.333 -78 107.333 -139.833 186 -185.5s163.334 -68.5 254.001 -68.5c128 0 240.667 43 338 129l10 9v363c0 9.33301 4 14.666 12 15.999c8 0 12.333 -5.33301 13 -16v-338zM701.999 1351l-185.999 -183
l-11 -5c-8 0 -12 4 -12 12c2 5.33301 3.66699 9 5 11l187 182c4 4 7.66699 6 11 6c8 0 12 -4.33301 12 -13c-0.666992 -1.33301 -1.33398 -2.83301 -2.00098 -4.5s-2 -3.5 -4 -5.5z" />
    <glyph glyph-name="Acircumflex" unicode="&#xc2;" horiz-adv-x="1120" 
d="M907 106c-102.667 -86.667 -218.334 -130.002 -347.001 -130.002c-49.333 0 -95.666 5.66699 -138.999 17s-86.333 29.333 -129 54c-82 47.333 -146.833 112.333 -194.5 195s-71.5 171.334 -71.5 266.001c0 96 23.833 185 71.5 267s112.667 146.833 195 194.5
s170.833 71.5 265.5 71.5c95.333 0 183.833 -23.833 265.5 -71.5s146.667 -112.667 195 -195s72.5 -170.5 72.5 -264.5c0 -147.333 -53 -274.666 -159 -381.999v-113c0 -10 -4.33301 -15 -13 -15c-8 0 -12 5 -12 15v91zM932 163.998
c89.333 96.667 133.999 211.668 133.999 345.001c0 46.667 -5.33301 90.334 -16 131.001s-28 81.334 -52 122.001c-44.667 78 -106.5 139.833 -185.5 185.5s-163.833 68.5 -254.5 68.5c-149.333 0 -275 -56 -377 -168c-86.667 -96.667 -130 -210 -130 -340
c0 -46.667 5.33301 -90.334 16 -131.001s28 -81.334 52 -122.001c45.333 -78 107.333 -139.833 186 -185.5s163.334 -68.5 254.001 -68.5c128 0 240.667 43 338 129l10 9v363c0 9.33301 4 14.666 12 15.999c8 0 12.333 -5.33301 13 -16v-338zM558.999 1359l-203.001 -205
l-11 -5c-8 0 -12 4 -12 12c2 5.33301 3.66699 9 5 11l204 204c6 6 11.667 9 17 9c6 0 12 -3 18 -9l204 -204c2.66699 -2 4.33398 -5.66699 5.00098 -11c0 -8 -4 -12 -12 -12c-5.33301 2 -9 3.66699 -11 5z" />
    <glyph glyph-name="Atilde" unicode="&#xc3;" horiz-adv-x="1120" 
d="M907 106c-102.667 -86.667 -218.334 -130.002 -347.001 -130.002c-49.333 0 -95.666 5.66699 -138.999 17s-86.333 29.333 -129 54c-82 47.333 -146.833 112.333 -194.5 195s-71.5 171.334 -71.5 266.001c0 96 23.833 185 71.5 267s112.667 146.833 195 194.5
s170.833 71.5 265.5 71.5c95.333 0 183.833 -23.833 265.5 -71.5s146.667 -112.667 195 -195s72.5 -170.5 72.5 -264.5c0 -147.333 -53 -274.666 -159 -381.999v-113c0 -10 -4.33301 -15 -13 -15c-8 0 -12 5 -12 15v91zM932 163.998
c89.333 96.667 133.999 211.668 133.999 345.001c0 46.667 -5.33301 90.334 -16 131.001s-28 81.334 -52 122.001c-44.667 78 -106.5 139.833 -185.5 185.5s-163.833 68.5 -254.5 68.5c-149.333 0 -275 -56 -377 -168c-86.667 -96.667 -130 -210 -130 -340
c0 -46.667 5.33301 -90.334 16 -131.001s28 -81.334 52 -122.001c45.333 -78 107.333 -139.833 186 -185.5s163.334 -68.5 254.001 -68.5c128 0 240.667 43 338 129l10 9v363c0 9.33301 4 14.666 12 15.999c8 0 12.333 -5.33301 13 -16v-338zM446.999 1341
c22.667 0 41.334 -4.66699 56.001 -14c15.333 -7.33301 36.166 -25 62.499 -53s46 -45.833 59 -53.5s29.5 -11.5 49.5 -11.5c60.667 0 101.667 38 123 114c2 8 7 12 15 12c6 0 9.33301 -3.33301 10 -10l-2 -10l-1 -6c-8.66699 -36.667 -26.5 -66.667 -53.5 -90
s-57.5 -35 -91.5 -35c-40 0 -80.333 22.333 -121 67c-23.333 25.333 -42.5 42.5 -57.5 51.5s-31.833 13.5 -50.5 13.5c-60.667 0 -101.667 -38 -123 -114c-2 -8 -7 -12 -15 -12c-6 0 -9.33301 3.33301 -10 10c0 7.33301 3.33301 20 10 38c10 31.333 28.167 56.333 54.5 75
s54.833 28 85.5 28z" />
    <glyph glyph-name="Adieresis" unicode="&#xc4;" horiz-adv-x="1120" 
d="M907 106c-102.667 -86.667 -218.334 -130.002 -347.001 -130.002c-49.333 0 -95.666 5.66699 -138.999 17s-86.333 29.333 -129 54c-82 47.333 -146.833 112.333 -194.5 195s-71.5 171.334 -71.5 266.001c0 96 23.833 185 71.5 267s112.667 146.833 195 194.5
s170.833 71.5 265.5 71.5c95.333 0 183.833 -23.833 265.5 -71.5s146.667 -112.667 195 -195s72.5 -170.5 72.5 -264.5c0 -147.333 -53 -274.666 -159 -381.999v-113c0 -10 -4.33301 -15 -13 -15c-8 0 -12 5 -12 15v91zM932 163.998
c89.333 96.667 133.999 211.668 133.999 345.001c0 46.667 -5.33301 90.334 -16 131.001s-28 81.334 -52 122.001c-44.667 78 -106.5 139.833 -185.5 185.5s-163.833 68.5 -254.5 68.5c-149.333 0 -275 -56 -377 -168c-86.667 -96.667 -130 -210 -130 -340
c0 -46.667 5.33301 -90.334 16 -131.001s28 -81.334 52 -122.001c45.333 -78 107.333 -139.833 186 -185.5s163.334 -68.5 254.001 -68.5c128 0 240.667 43 338 129l10 9v363c0 9.33301 4 14.666 12 15.999c8 0 12.333 -5.33301 13 -16v-338zM730.999 1214l-0.000976562 93
c0 8 4 12.667 12 14c6.66699 0 10.334 -4.66699 11.001 -14v-93c0 -10 -3.66699 -15 -11 -15c-8 0 -12 5 -12 15zM364.998 1214l0.000976562 92c0 10 4 15 12 15c7.33301 0 11.666 -5 12.999 -15v-92c0 -10 -4.33301 -15 -13 -15c-8 0 -12 5 -12 15z" />
    <glyph glyph-name="Aring" unicode="&#xc5;" horiz-adv-x="1120" 
d="M907 106c-102.667 -86.667 -218.334 -130.002 -347.001 -130.002c-49.333 0 -95.666 5.66699 -138.999 17s-86.333 29.333 -129 54c-82 47.333 -146.833 112.333 -194.5 195s-71.5 171.334 -71.5 266.001c0 96 23.833 185 71.5 267s112.667 146.833 195 194.5
s170.833 71.5 265.5 71.5c95.333 0 183.833 -23.833 265.5 -71.5s146.667 -112.667 195 -195s72.5 -170.5 72.5 -264.5c0 -147.333 -53 -274.666 -159 -381.999v-113c0 -10 -4.33301 -15 -13 -15c-8 0 -12 5 -12 15v91zM932 163.998
c89.333 96.667 133.999 211.668 133.999 345.001c0 46.667 -5.33301 90.334 -16 131.001s-28 81.334 -52 122.001c-44.667 78 -106.5 139.833 -185.5 185.5s-163.833 68.5 -254.5 68.5c-149.333 0 -275 -56 -377 -168c-86.667 -96.667 -130 -210 -130 -340
c0 -46.667 5.33301 -90.334 16 -131.001s28 -81.334 52 -122.001c45.333 -78 107.333 -139.833 186 -185.5s163.334 -68.5 254.001 -68.5c128 0 240.667 43 338 129l10 9v363c0 9.33301 4 14.666 12 15.999c8 0 12.333 -5.33301 13 -16v-338zM558.999 1396
c37.333 0 69 -13 95 -39s39 -58 39 -96c0 -36 -13.167 -67 -39.5 -93s-57.5 -39 -93.5 -39s-67.333 13 -94 39s-40 57.667 -40 95c0 36.667 13 68 39 94s57.333 39 94 39zM559.999 1371c-30 0 -55.665 -10.667 -76.998 -32c-21.333 -20 -32 -45.333 -32 -76
c0 -30 10.667 -55.667 32 -77s47 -32 77 -32c29.333 0 54.666 10.5 75.999 31.5s32 46.167 32 75.5c0 30 -10.333 55.833 -31 77.5s-46.334 32.5 -77.001 32.5z" />
    <glyph glyph-name="AE" unicode="&#xc6;" horiz-adv-x="2152" 
d="M1080 615l3.00293 16.001c10 51.333 31.667 104 65 158c37.333 60.667 83.666 110.667 138.999 150c93.333 68 198 102 314 102c102.667 0 197 -27.333 283 -82s151.667 -129 197 -223c34 -70 51 -141 51 -213c0 -14.667 -8.33301 -22 -25 -22h-841
c-10 0 -15 4.33301 -15 13c0 8 5 12 15 12h842c0 34 -3.66699 66.333 -11 97s-18.333 62 -33 94c-39.333 85.333 -97 154.666 -173 207.999c-86.667 60.667 -183.334 91 -290.001 91c-90.667 0 -175.167 -22.5 -253.5 -67.5s-140.333 -107 -186 -186
s-68.5 -163.5 -68.5 -253.5c0 -88.667 22.667 -172.667 68 -252s107.666 -141.833 186.999 -187.5s163.333 -68.5 252 -68.5c57.333 0 116.5 11 177.5 33s112.5 51.667 154.5 89c6 6 11 9 15 9c8 0 12 -4 12 -12c0 -6 -15 -20 -45 -42c-93.333 -68 -198 -102 -314 -102
c-97.333 0 -187.166 24.833 -269.499 74.5s-148.833 118.834 -199.5 207.501c-26 47.333 -43 96.666 -51 147.999c-8 -49.333 -25 -98.666 -51 -147.999c-23.333 -46 -55.333 -89.333 -96 -130v-113c0 -10 -4.33301 -15 -13 -15c-8 0 -12 5 -12 15v91
c-102.667 -86.667 -218.334 -130 -347.001 -130c-49.333 0 -95.666 5.66699 -138.999 17s-86.333 29.333 -129 54c-82 47.333 -146.833 112.333 -194.5 195s-71.5 171 -71.5 265c0 49.333 5.66699 95.666 17 138.999s29.333 86.333 54 129
c48 82 113.167 146.833 195.5 194.5s170.833 71.5 265.5 71.5c64.667 0 124.667 -9.66699 180 -29s107.666 -49.333 156.999 -90c96 -78.667 157.333 -181 184 -307zM933.003 163.001c90 98 135.003 213.002 135.003 345.002c0 90.667 -22.5 175.167 -67.5 253.5
s-107.167 140.333 -186.5 186s-164.333 68.5 -255 68.5c-46.667 0 -90.334 -5.33301 -131.001 -16s-81.334 -28 -122.001 -52c-78 -44.667 -139.833 -106.5 -185.5 -185.5s-68.5 -164.167 -68.5 -255.5c0 -46.667 5.33301 -90.334 16 -131.001s28 -81.334 52 -122.001
c44.667 -76.667 106.5 -138 185.5 -184s163.833 -69 254.5 -69c128 0 240.667 43 338 129l10 9v363c0 10 4 15 12 15c7.33301 0 11.666 -5 12.999 -15v-339z" />
    <glyph glyph-name="Ccedilla" unicode="&#xc7;" horiz-adv-x="955" 
d="M525 -23l0.000976562 -93.0039c29.333 -4 54.666 -18 75.999 -42c10 -11.333 17.667 -23.666 23 -36.999s8 -27.666 8 -42.999c0 -33.333 -13 -62.5 -39 -87.5s-57 -37.5 -93 -37.5c-30 0 -57.333 9.33301 -82 28c-16 13.333 -24.667 24.333 -26 33c0 7.33301 4 11 12 11
c3.33301 0 8.66602 -4 15.999 -12c19.333 -23.333 46 -35 80 -35c30.667 0 56.167 9.66699 76.5 29s30.5 43 30.5 71c0 24.667 -8 46 -24 64s-38.333 29.667 -67 35c-10.667 2 -16 9.33301 -16 22v96c-64.667 7.33301 -126.334 26 -185.001 56
c-82 42.667 -149.667 103.667 -203 183c-57.333 88.667 -86 186 -86 292c0 158 58.333 289.333 175 394c101.333 91.333 220.666 137 357.999 137c146.667 0 271 -51.333 373 -154c10.667 -10 16.334 -17.667 17.001 -23c0 -7.33301 -4 -11.666 -12 -12.999
c-2 0.666992 -4 1.66699 -6 3s-4.66699 3.66602 -8 6.99902c-41.333 46 -94.5 83.333 -159.5 112s-133.167 43 -204.5 43c-91.333 0 -176.166 -22.333 -254.499 -67s-140.166 -106.667 -185.499 -186s-68 -163.666 -68 -252.999c0 -150.667 56 -277 168 -379
c96.667 -86.667 209 -130 337 -130c36 0 70 3.33301 102 10s66.667 18 104 34c68.667 30 123 68 163 114c3.33301 4 7.33301 6.66699 12 8c8 0 12 -4.33301 12 -13c0 -5.33301 -10 -17.666 -30 -36.999c-19.333 -17.333 -41 -34 -65 -50c-92 -60.667 -188.667 -91 -290 -91z
" />
    <glyph glyph-name="Egrave" unicode="&#xc8;" horiz-adv-x="1111" 
d="M430 1368l185.999 -181.998c4 -4 6 -7.66699 6 -11c0 -8 -4 -12 -12 -12c-5.33301 2 -9 3.66699 -11 5l-187 183c-2 2 -3.66699 5.33301 -5 10c0 7.33301 4 11.666 12 12.999c1.33301 -0.666992 2.83301 -1.33398 4.5 -2.00098s3.83398 -2 6.50098 -4zM1067 526.002
c0 34 -3.66504 66.335 -10.998 97.002s-18.333 62 -33 94c-38 85.333 -95.667 154.666 -173 207.999c-86.667 60.667 -183.334 91 -290.001 91c-90.667 0 -174.834 -22.5 -252.501 -67.5s-139.667 -106.833 -186 -185.5s-69.5 -163.334 -69.5 -254.001
c0 -88.667 23 -172.667 69 -252s108.333 -141.833 187 -187.5s162.334 -68.5 251.001 -68.5c57.333 0 116.5 11 177.5 33s112.5 51.667 154.5 89c6 6 11 9 15 9c8 0 12 -4 12 -12c0 -6 -15 -20 -45 -42c-93.333 -68 -198 -102 -314 -102c-94.667 0 -183 23.667 -265 71
s-147 112.5 -195 195.5s-72 171.833 -72 266.5s23.833 183.167 71.5 265.5s112.667 147.333 195 195s171.166 71.5 266.499 71.5c102.667 0 197 -27.333 283 -82s151.667 -129 197 -223c34 -70 51 -141 51 -213c0 -14.667 -8.33301 -22 -25 -22h-841
c-10 0 -15 4.33301 -15 13c0 8 5 12 15 12h842z" />
    <glyph glyph-name="Eacute" unicode="&#xc9;" horiz-adv-x="1111" 
d="M698 1351l-185.999 -183l-11 -5c-8 0 -12 4 -12 12c0 4 1.66699 7.66699 5 11l187 182c4 4 7.66699 6 11 6c8 0 12 -4.33301 12 -13c-0.666992 -1.33301 -1.33398 -2.83301 -2.00098 -4.5s-2 -3.5 -4 -5.5zM1067 526c0 34 -3.66504 66.335 -10.998 97.002
s-18.333 62 -33 94c-38 85.333 -95.667 154.666 -173 207.999c-86.667 60.667 -183.334 91 -290.001 91c-90.667 0 -174.834 -22.5 -252.501 -67.5s-139.667 -106.833 -186 -185.5s-69.5 -163.334 -69.5 -254.001c0 -88.667 23 -172.667 69 -252
s108.333 -141.833 187 -187.5s162.334 -68.5 251.001 -68.5c57.333 0 116.5 11 177.5 33s112.5 51.667 154.5 89c6 6 11 9 15 9c8 0 12 -4 12 -12c0 -6 -15 -20 -45 -42c-93.333 -68 -198 -102 -314 -102c-94.667 0 -183 23.667 -265 71s-147 112.5 -195 195.5
s-72 171.833 -72 266.5s23.833 183.167 71.5 265.5s112.667 147.333 195 195s171.166 71.5 266.499 71.5c102.667 0 197 -27.333 283 -82s151.667 -129 197 -223c34 -70 51 -141 51 -213c0 -14.667 -8.33301 -22 -25 -22h-841c-10 0 -15 4.33301 -15 13c0 8 5 12 15 12h842z
" />
    <glyph glyph-name="Ecircumflex" unicode="&#xca;" horiz-adv-x="1111" 
d="M555 1359l-203 -205l-11 -5c-8 0 -12 4 -12 12c2 5.33301 3.66699 9 5 11l204 204c6 6 11.667 9 17 9c6 0 12 -3 18 -9l204 -204l5 -11c0 -8 -4.33301 -12 -13 -12c-4.66699 2 -8 3.66699 -10 5zM1067 526c0 34 -3.66504 66.335 -10.998 97.002s-18.333 62 -33 94
c-38 85.333 -95.667 154.666 -173 207.999c-86.667 60.667 -183.334 91 -290.001 91c-90.667 0 -174.834 -22.5 -252.501 -67.5s-139.667 -106.833 -186 -185.5s-69.5 -163.334 -69.5 -254.001c0 -88.667 23 -172.667 69 -252s108.333 -141.833 187 -187.5
s162.334 -68.5 251.001 -68.5c57.333 0 116.5 11 177.5 33s112.5 51.667 154.5 89c6 6 11 9 15 9c8 0 12 -4 12 -12c0 -6 -15 -20 -45 -42c-93.333 -68 -198 -102 -314 -102c-94.667 0 -183 23.667 -265 71s-147 112.5 -195 195.5s-72 171.833 -72 266.5
s23.833 183.167 71.5 265.5s112.667 147.333 195 195s171.166 71.5 266.499 71.5c102.667 0 197 -27.333 283 -82s151.667 -129 197 -223c34 -70 51 -141 51 -213c0 -14.667 -8.33301 -22 -25 -22h-841c-10 0 -15 4.33301 -15 13c0 8 5 12 15 12h842z" />
    <glyph glyph-name="Edieresis" unicode="&#xcb;" horiz-adv-x="1111" 
d="M727 1214v92.999c0 8.66699 3.66699 13.334 11 14.001c8 0 12 -4.66699 12 -14v-93c0 -10 -4 -15 -12 -15c-6 0 -9.66699 5 -11 15zM361 1214l-0.000976562 92c0 10 4.33301 15 13 15c8 0 12 -5 12 -15v-92c0 -10 -4 -15 -12 -15c-7.33301 0 -11.666 5 -12.999 15z
M1067 525.999c0 34 -3.66504 66.335 -10.998 97.002s-18.333 62 -33 94c-38 85.333 -95.667 154.666 -173 207.999c-86.667 60.667 -183.334 91 -290.001 91c-90.667 0 -174.834 -22.5 -252.501 -67.5s-139.667 -106.833 -186 -185.5s-69.5 -163.334 -69.5 -254.001
c0 -88.667 23 -172.667 69 -252s108.333 -141.833 187 -187.5s162.334 -68.5 251.001 -68.5c57.333 0 116.5 11 177.5 33s112.5 51.667 154.5 89c6 6 11 9 15 9c8 0 12 -4 12 -12c0 -6 -15 -20 -45 -42c-93.333 -68 -198 -102 -314 -102c-94.667 0 -183 23.667 -265 71
s-147 112.5 -195 195.5s-72 171.833 -72 266.5s23.833 183.167 71.5 265.5s112.667 147.333 195 195s171.166 71.5 266.499 71.5c102.667 0 197 -27.333 283 -82s151.667 -129 197 -223c34 -70 51 -141 51 -213c0 -14.667 -8.33301 -22 -25 -22h-841
c-10 0 -15 4.33301 -15 13c0 8 5 12 15 12h842z" />
    <glyph glyph-name="Igrave" unicode="&#xcc;" horiz-adv-x="180" 
d="M78 15l0.000976562 987c0 10 4 15 12 15c7.33301 0 11.666 -5 12.999 -15v-987c0 -10 -4.33301 -15 -13 -15c-8 0 -12 5 -12 15zM29.001 1367l126 -183l4 -9c0 -8 -4.33301 -12 -13 -12c-3.33301 0 -7 2.33301 -11 7l-126 183l-4 9c0 8 4.33301 12 13 12
c3.33301 0 7 -2.33301 11 -7z" />
    <glyph glyph-name="Iacute" unicode="&#xcd;" horiz-adv-x="180" 
d="M78 15l-0.000976562 987c0 10 4.33301 15 13 15c8 0 12 -5 12 -15v-987c0 -10 -4 -15 -12 -15c-7.33301 0 -11.666 5 -12.999 15zM171.999 1352l-126 -182c-2.66699 -3.33301 -6.66699 -5.66602 -12 -6.99902c-8 0 -12 3.66699 -12 11
c1.33301 5.33301 2.66602 8.66602 3.99902 9.99902l126 183c2.66699 4 6.33398 6.33301 11.001 7c8.66699 0 13 -3.66699 13 -11z" />
    <glyph glyph-name="Icircumflex" unicode="&#xce;" horiz-adv-x="180" 
d="M78 15l-0.000976562 987c0 10 4.33301 15 13 15c8 0 12 -5 12 -15v-987c0 -10 -4 -15 -12 -15c-7.33301 0 -11.666 5 -12.999 15zM89.999 1283l-62 -63c-2 -2 -5.66699 -3.66699 -11 -5c-8 0 -12 4.33301 -12 13l6 10l61 62c6 6 12 9 18 9s12 -3 18 -9l62 -62l5 -11
c0 -8 -4 -12 -12 -12c-5.33301 2 -9 3.66699 -11 5z" />
    <glyph glyph-name="Idieresis" unicode="&#xcf;" horiz-adv-x="180" 
d="M78 15l-0.000976562 987c0 10 4.33301 15 13 15c8 0 12 -5 12 -15v-987c0 -10 -4 -15 -12 -15c-7.33301 0 -11.666 5 -12.999 15zM132.999 1214v92.999c0 8.66699 3.66699 13.334 11 14.001c8 0 12 -4.66699 12 -14v-93c0 -10 -4 -15 -12 -15c-6 0 -9.66699 5 -11 15z
M24.999 1214l-0.000976562 92c0 10 4.33301 15 13 15c8 0 12 -5 12 -15v-92c0 -10 -4 -15 -12 -15c-7.33301 0 -11.666 5 -12.999 15z" />
    <glyph glyph-name="Eth" unicode="&#xd0;" horiz-adv-x="1120" 
d="M932 128l0.00195312 -56.999v-17v-7c0 -101.333 -15.5 -179 -46.5 -233s-74.5 -97.167 -130.5 -129.5s-116 -48.5 -180 -48.5c-79.333 0 -150 24 -212 72s-105 111.333 -129 190c-8.66699 32.667 -13 59.334 -13 80.001c0 8 4 12 12 12c8.66699 0 13 -5.66699 13 -17
c0 -34.667 9.33301 -72.667 28 -114c26 -57.333 63.667 -103.666 113 -138.999c55.333 -39.333 117.666 -59 186.999 -59c60 0 115.667 14.167 167 42.5s91.666 68.166 120.999 119.499c14.667 25.333 26 56 34 92s12 76.667 12 122v7v16v46l-10 -9
c-41.333 -35.333 -93 -64.333 -155 -87s-123 -34 -183 -34c-94.667 0 -183.167 23.833 -265.5 71.5s-147.333 112.667 -195 195s-71.5 171.166 -71.5 266.499c0 94.667 23.833 183.167 71.5 265.5s112.667 147.333 195 195s170.833 71.5 265.5 71.5
c95.333 0 184 -23.667 266 -71s146.833 -112.333 194.5 -195s71.5 -171.334 71.5 -266.001c0 -145.333 -53.333 -272.333 -160 -381zM908.002 138.001l0.000976562 366.999c0 10 4 15 12 15s12 -5 12 -15v-342c90 97.333 135 212.333 135 345
c0 90.667 -22.667 175.334 -68 254.001s-107.166 140.667 -185.499 186s-162.833 68 -253.5 68c-46.667 0 -90.334 -5.33301 -131.001 -16s-81.334 -28 -122.001 -52c-78 -44.667 -139.833 -106.5 -185.5 -185.5s-68.5 -163.5 -68.5 -253.5
c0 -90.667 22.667 -175.167 68 -253.5s107.333 -140.333 186 -186s163 -68.5 253 -68.5c127.333 0 240 43 338 129zM339.003 1379c8 0 12.333 -5.33203 13 -15.999c0 -20 4.66699 -40.333 14 -61c16 -38.667 41.5 -70 76.5 -94s74.167 -36 117.5 -36
c54.667 0 102 18.667 142 56c20 19.333 35.833 40.5 47.5 63.5s17.5 46.833 17.5 71.5c0 10 4.33301 15.333 13 16c8 0 12 -4.33301 12 -13c0 -58.667 -23.667 -109.834 -71 -153.501s-102.333 -65.5 -165 -65.5c-59.333 0 -112.333 22.333 -159 67s-70 95.334 -70 152.001
c0 7.33301 4 11.666 12 12.999z" />
    <glyph glyph-name="Ntilde" unicode="&#xd1;" horiz-adv-x="806" 
d="M80 791l0.995117 2.99707l2 7c5.33301 17.333 10.5 32.166 15.5 44.499s10.5 23.5 16.5 33.5c28.667 48.667 69.5 87.834 122.5 117.501s109.5 44.5 169.5 44.5c58.667 0 112.5 -14 161.5 -42s89.833 -67.333 122.5 -118c20 -31.333 34.333 -67.666 43 -108.999
s13 -97.666 13 -168.999v-588c0 -10 -4 -15 -12 -15c-7.33301 0 -11.666 5 -12.999 15v557c0 77.333 -2.16699 133 -6.5 167s-12.833 65.333 -25.5 94c-24 54.667 -62 98.834 -114 132.501s-108.667 50.5 -170 50.5c-65.333 0 -124.666 -18 -177.999 -54s-92 -84 -116 -144
c-5.33301 -15.333 -9.66602 -29.5 -12.999 -42.5s-6.66602 -29.5 -9.99902 -49.5c-3.33301 -33.333 -5 -84.333 -5 -153v-558c0 -10 -4 -15 -12 -15c-7.33301 0 -11.666 5 -12.999 15v987c0 10 4.33301 15 13 15c8 0 12 -5 12 -15v-132zM290.995 1341
c36.667 0 76 -22 118 -66l10 -11c34.667 -36.667 67.667 -55 99 -55c60.667 0 101.667 38 123 114c2 8 7 12 15 12c6 0 9.33301 -3.33301 10 -10l-2 -10l-1 -6c-8 -37.333 -25.5 -67.5 -52.5 -90.5s-57.833 -34.5 -92.5 -34.5c-39.333 0 -79.666 22.667 -120.999 68
c-24 26 -43.333 43.167 -58 51.5s-31.334 12.5 -50.001 12.5c-60.667 0 -101.667 -38 -123 -114c-2 -8 -7 -12 -15 -12c-6 0 -9.33301 3.33301 -10 10c0 7.33301 3.33301 20 10 38c10 31.333 28.167 56.333 54.5 75s54.833 28 85.5 28z" />
    <glyph glyph-name="Ograve" unicode="&#xd2;" horiz-adv-x="1165" 
d="M457 1368l186.998 -181.997c2.66699 -2 4.33398 -5.66699 5.00098 -11c0 -8 -4 -12 -12 -12c-5.33301 2 -9 3.66699 -11 5l-186 183c-4 3.33301 -6 6.66602 -6 9.99902c0 7.33301 4 11.666 12 12.999c1.33301 -0.666992 2.83301 -1.33398 4.5 -2.00098
s3.83398 -2 6.50098 -4zM545.998 1017c-124.667 0 -234.999 -43.666 -330.999 -130.999c-50.667 -44.667 -91.334 -99.667 -122.001 -165c-14.667 -32 -26 -64.167 -34 -96.5s-12 -65.5 -12 -99.5c0 -10.667 -4.33301 -16.334 -13 -17.001c-8 0 -12 4 -12 12
c0 58.667 11.333 117.667 34 177c31.333 80.667 78.666 149.667 141.999 207c101.333 91.333 220 137 356 137c110 0 210.333 -31.167 301 -93.5s156.334 -145.833 197.001 -250.5c22.667 -62 34 -121 34 -177c0 -8 -4 -12 -12 -12c-8.66699 0 -13 5.66699 -13 17
c0 84.667 -22.333 164 -67 238c-48 80 -110.667 142.333 -188 187s-164 67 -260 67zM1131 509.004c8 0 12 -4.33105 12 -12.998c0 -28.667 -3.33301 -59.667 -10 -93c-10.667 -56 -31 -109.667 -61 -161c-48 -82 -113.167 -146.833 -195.5 -194.5
s-170.833 -71.5 -265.5 -71.5c-104 0 -199.833 28.167 -287.5 84.5s-153.5 132.166 -197.5 227.499c-31.333 70 -47 139.333 -47 208c0 7.33301 4 11.666 12 12.999c8 0 12.333 -5.33301 13 -16c0 -70.667 17.667 -142 53 -214s87.333 -132.333 156 -181
c88.667 -64.667 190.667 -97 306 -97c95.333 0 184.666 27.167 267.999 81.5s145.333 126.5 186 216.5c14.667 32.667 25.834 64.667 33.501 96s11.5 64 11.5 98c0 10 4.33301 15.333 13 16z" />
    <glyph glyph-name="Oacute" unicode="&#xd3;" horiz-adv-x="1165" 
d="M726 1351l-187.002 -183.002l-10 -5c-7.33301 0 -11.666 4 -12.999 12c0.666992 1.33301 1.33398 2.83301 2.00098 4.5s2 3.83398 4 6.50098l186 182c4 4 7.66699 6 11 6c8 0 12 -4.33301 12 -13c-2 -5.33301 -3.66699 -8.66602 -5 -9.99902zM545.998 1017
c-124.667 0 -234.999 -43.666 -330.999 -130.999c-50.667 -44.667 -91.334 -99.667 -122.001 -165c-14.667 -32 -26 -64.167 -34 -96.5s-12 -65.5 -12 -99.5c0 -10.667 -4.33301 -16.334 -13 -17.001c-8 0 -12 4 -12 12c0 58.667 11.333 117.667 34 177
c31.333 80.667 78.666 149.667 141.999 207c101.333 91.333 220 137 356 137c110 0 210.333 -31.167 301 -93.5s156.334 -145.833 197.001 -250.5c22.667 -62 34 -121 34 -177c0 -8 -4 -12 -12 -12c-8.66699 0 -13 5.66699 -13 17c0 84.667 -22.333 164 -67 238
c-48 80 -110.667 142.333 -188 187s-164 67 -260 67zM1131 508.999c8 0 12 -4.33105 12 -12.998c0 -28.667 -3.33301 -59.667 -10 -93c-10.667 -56 -31 -109.667 -61 -161c-48 -82 -113.167 -146.833 -195.5 -194.5s-170.833 -71.5 -265.5 -71.5
c-104 0 -199.833 28.167 -287.5 84.5s-153.5 132.166 -197.5 227.499c-31.333 70 -47 139.333 -47 208c0 7.33301 4 11.666 12 12.999c8 0 12.333 -5.33301 13 -16c0 -70.667 17.667 -142 53 -214s87.333 -132.333 156 -181c88.667 -64.667 190.667 -97 306 -97
c95.333 0 184.666 27.167 267.999 81.5s145.333 126.5 186 216.5c14.667 32.667 25.834 64.667 33.501 96s11.5 64 11.5 98c0 10 4.33301 15.333 13 16z" />
    <glyph glyph-name="Ocircumflex" unicode="&#xd4;" horiz-adv-x="1165" 
d="M582 1359l-203.001 -205l-11 -5c-8 0 -12 4 -12 12c2 5.33301 3.66699 9 5 11l204 204c6 6 12 9 18 9c4 0 9.66699 -3 17 -9l204 -204c2.66699 -2 4.33398 -5.66699 5.00098 -11c0 -8 -4 -12 -12 -12c-5.33301 2 -9 3.66699 -11 5zM545.999 1017
c-124.667 0 -234.999 -43.666 -330.999 -130.999c-50.667 -44.667 -91.334 -99.667 -122.001 -165c-14.667 -32 -26 -64.167 -34 -96.5s-12 -65.5 -12 -99.5c0 -10.667 -4.33301 -16.334 -13 -17.001c-8 0 -12 4 -12 12c0 58.667 11.333 117.667 34 177
c31.333 80.667 78.666 149.667 141.999 207c101.333 91.333 220 137 356 137c110 0 210.333 -31.167 301 -93.5s156.334 -145.833 197.001 -250.5c22.667 -62 34 -121 34 -177c0 -8 -4 -12 -12 -12c-8.66699 0 -13 5.66699 -13 17c0 84.667 -22.333 164 -67 238
c-48 80 -110.667 142.333 -188 187s-164 67 -260 67zM1131 509.001c8 0 12 -4.33105 12 -12.998c0 -28.667 -3.33301 -59.667 -10 -93c-10.667 -56 -31 -109.667 -61 -161c-48 -82 -113.167 -146.833 -195.5 -194.5s-170.833 -71.5 -265.5 -71.5
c-104 0 -199.833 28.167 -287.5 84.5s-153.5 132.166 -197.5 227.499c-31.333 70 -47 139.333 -47 208c0 7.33301 4 11.666 12 12.999c8 0 12.333 -5.33301 13 -16c0 -70.667 17.667 -142 53 -214s87.333 -132.333 156 -181c88.667 -64.667 190.667 -97 306 -97
c95.333 0 184.666 27.167 267.999 81.5s145.333 126.5 186 216.5c14.667 32.667 25.834 64.667 33.501 96s11.5 64 11.5 98c0 10 4.33301 15.333 13 16z" />
    <glyph glyph-name="Otilde" unicode="&#xd5;" horiz-adv-x="1165" 
d="M546 1017c-124.667 0 -234.999 -43.666 -330.999 -130.999c-50.667 -44.667 -91.334 -99.667 -122.001 -165c-14.667 -32 -26 -64.167 -34 -96.5s-12 -65.5 -12 -99.5c0 -10.667 -4.33301 -16.334 -13 -17.001c-8 0 -12 4 -12 12c0 58.667 11.333 117.667 34 177
c31.333 80.667 78.666 149.667 141.999 207c101.333 91.333 220 137 356 137c110 0 210.333 -31.167 301 -93.5s156.334 -145.833 197.001 -250.5c22.667 -62 34 -121 34 -177c0 -8 -4 -12 -12 -12c-8.66699 0 -13 5.66699 -13 17c0 84.667 -22.333 164 -67 238
c-48 80 -110.667 142.333 -188 187s-164 67 -260 67zM1131 509.001c8 0 12 -4.33105 12 -12.998c0 -28.667 -3.33301 -59.667 -10 -93c-10.667 -56 -31 -109.667 -61 -161c-48 -82 -113.167 -146.833 -195.5 -194.5s-170.833 -71.5 -265.5 -71.5
c-104 0 -199.833 28.167 -287.5 84.5s-153.5 132.166 -197.5 227.499c-31.333 70 -47 139.333 -47 208c0 7.33301 4 11.666 12 12.999c8 0 12.333 -5.33301 13 -16c0 -70.667 17.667 -142 53 -214s87.333 -132.333 156 -181c88.667 -64.667 190.667 -97 306 -97
c95.333 0 184.666 27.167 267.999 81.5s145.333 126.5 186 216.5c14.667 32.667 25.834 64.667 33.501 96s11.5 64 11.5 98c0 10 4.33301 15.333 13 16zM470.001 1341c21.333 0 40.5 -4.83301 57.5 -14.5s40.5 -30.5 70.5 -62.5c34.667 -36.667 67.667 -55 99 -55
c60.667 0 101.667 38 123 114c2 8 7 12 15 12c6 0 9.33301 -3.33301 10 -10l-2 -10l-1 -6c-8 -37.333 -25.5 -67.5 -52.5 -90.5s-57.833 -34.5 -92.5 -34.5c-40 0 -80.333 22.333 -121 67c-22.667 25.333 -41.5 42.5 -56.5 51.5s-32.167 13.5 -51.5 13.5
c-60.667 0 -101.667 -38 -123 -114c-2 -8 -7 -12 -15 -12c-6 0 -9.33301 3.33301 -10 10c0 7.33301 3.33301 20 10 38c10 31.333 28.167 56.333 54.5 75s54.833 28 85.5 28z" />
    <glyph glyph-name="Odieresis" unicode="&#xd6;" horiz-adv-x="1165" 
d="M754 1214v92.999c0 8.66699 3.66699 13.334 11 14.001c8 0 12 -4.66699 12 -14v-93c0 -10 -4 -15 -12 -15c-6 0 -9.66699 5 -11 15zM388 1214l0.000976562 92c0 10 4 15 12 15c7.33301 0 11.666 -5 12.999 -15v-92c0 -10 -4.33301 -15 -13 -15c-8 0 -12 5 -12 15z
M546.001 1017c-124.667 0 -234.999 -43.666 -330.999 -130.999c-50.667 -44.667 -91.334 -99.667 -122.001 -165c-14.667 -32 -26 -64.167 -34 -96.5s-12 -65.5 -12 -99.5c0 -10.667 -4.33301 -16.334 -13 -17.001c-8 0 -12 4 -12 12c0 58.667 11.333 117.667 34 177
c31.333 80.667 78.666 149.667 141.999 207c101.333 91.333 220 137 356 137c110 0 210.333 -31.167 301 -93.5s156.334 -145.833 197.001 -250.5c22.667 -62 34 -121 34 -177c0 -8 -4 -12 -12 -12c-8.66699 0 -13 5.66699 -13 17c0 84.667 -22.333 164 -67 238
c-48 80 -110.667 142.333 -188 187s-164 67 -260 67zM1131 509c8 0 12 -4.33105 12 -12.998c0 -28.667 -3.33301 -59.667 -10 -93c-10.667 -56 -31 -109.667 -61 -161c-48 -82 -113.167 -146.833 -195.5 -194.5s-170.833 -71.5 -265.5 -71.5
c-104 0 -199.833 28.167 -287.5 84.5s-153.5 132.166 -197.5 227.499c-31.333 70 -47 139.333 -47 208c0 7.33301 4 11.666 12 12.999c8 0 12.333 -5.33301 13 -16c0 -70.667 17.667 -142 53 -214s87.333 -132.333 156 -181c88.667 -64.667 190.667 -97 306 -97
c95.333 0 184.666 27.167 267.999 81.5s145.333 126.5 186 216.5c14.667 32.667 25.834 64.667 33.501 96s11.5 64 11.5 98c0 10 4.33301 15.333 13 16z" />
    <glyph glyph-name="multiply" unicode="&#xd7;" horiz-adv-x="765" 
d="M400 509l288 -288.999c2 -2 3.33301 -4 4 -6s1.33398 -3.33301 2.00098 -4c0 -7.33301 -4 -11.666 -12 -12.999c-1.33301 0.666992 -2.83301 1.33398 -4.5 2.00098s-3.83398 2 -6.50098 4l-289 288l-288 -288c-4 -4 -7.66699 -6 -11 -6c-8 0 -12 4 -12 12
c0 3.33301 2 7 6 11l288 289l-288 288c-2 2 -3.5 3.83301 -4.5 5.5s-1.5 3.16699 -1.5 4.5c0 7.33301 4 11.666 12 12.999c1.33301 -0.666992 2.83301 -1.33398 4.5 -2.00098s3.83398 -2 6.50098 -4l288 -288l289 288c4 4 7.66699 6 11 6c8 0 12 -4 12 -12
c-0.666992 -1.33301 -1.33398 -2.83301 -2.00098 -4.5s-2 -3.83398 -4 -6.50098z" />
    <glyph glyph-name="Oslash" unicode="&#xd8;" horiz-adv-x="1156" 
d="M280 121c96 -80 205.335 -120 328.002 -120c99.333 0 191 27 275 81s146.333 126.333 187 217c30 65.333 45 130 45 194c0 10 4.33301 15.333 13 16c8 0 12 -4.33301 12 -13c0 -29.333 -3.33301 -60.333 -10 -93c-10.667 -56 -31 -109.667 -61 -161
c-48 -82 -113.167 -146.833 -195.5 -194.5s-170.5 -71.5 -264.5 -71.5c-130 0 -244.667 41.667 -344 125l-75 -102c-3.33301 -3.33301 -7.33301 -5.66602 -12 -6.99902c-8 0 -12 4 -12 12c1.33301 5.33301 2.66602 8.66602 3.99902 9.99902l77 104
c-53.333 49.333 -95.166 107.833 -125.499 175.5s-45.5 135.167 -45.5 202.5c0 7.33301 4 11.666 12 12.999c8 0 12.333 -5.33301 13 -16c0 -136 53.333 -254.667 160 -356l583 786c-90 62 -187.667 93 -293 93c-130 0 -243.333 -43.333 -340 -130
c-50.667 -46 -91 -100.667 -121 -164c-14.667 -32 -26 -64.167 -34 -96.5s-12 -65.5 -12 -99.5c0 -10.667 -4.33301 -16.334 -13 -17.001c-8 0 -12 4 -12 12c0 58 11.333 116.667 34 176c30 81.333 77.333 150.333 142 207c101.333 91.333 219.666 137 354.999 137
c114.667 0 217.667 -32.667 309 -98l50 68c3.33301 3.33301 7.33301 5.66602 12 6.99902c8 0 12 -4 12 -12l-4 -10l-50 -68c61.333 -49.333 110.666 -110.666 147.999 -183.999s56 -147.666 56 -222.999c0 -8 -4 -12 -12 -12c-8.66699 0 -13 5.66699 -13 17
c0 70.667 -17.667 140.834 -53 210.501s-82.333 127.167 -141 172.5z" />
    <glyph glyph-name="Ugrave" unicode="&#xd9;" horiz-adv-x="806" 
d="M726 226l-1.00098 -2.99902l-2 -7c-5.33301 -17.333 -10.5 -32.166 -15.5 -44.499s-10.5 -23.5 -16.5 -33.5c-28.667 -49.333 -69.667 -89 -123 -119c-26 -14 -53 -24.667 -81 -32s-57.333 -11 -88 -11c-58 0 -111.833 13.833 -161.5 41.5s-90.5 67.167 -122.5 118.5
c-20 30.667 -34.333 66.667 -43 108s-13 98 -13 170v588c0 10 4.33301 15 13 15c8 0 12 -5 12 -15v-558c0 -73.333 2 -128 6 -164s12.667 -68 26 -96c24 -54.667 62.167 -98.834 114.5 -132.501s108.833 -50.5 169.5 -50.5c65.333 0 124.833 18 178.5 54
s92.167 84 115.5 144c10.667 28.667 18 58.667 22 90s6 82.666 6 153.999v559c0 10 4.33301 15 13 15c8 0 12 -5 12 -15v-987c0 -10 -4 -15 -12 -15c-7.33301 0 -11.666 5 -12.999 15v132zM276.999 1368l186.999 -181.998c4 -4 6 -7.66699 6 -11c0 -8 -4.33301 -12 -13 -12
c-5.33301 2 -8.66602 3.66699 -9.99902 5l-187 183c-2 2 -3.66699 5.33301 -5 10c0 7.33301 4 11.666 12 12.999c1.33301 -0.666992 2.83301 -1.33398 4.5 -2.00098s3.5 -2 5.5 -4z" />
    <glyph glyph-name="Uacute" unicode="&#xda;" horiz-adv-x="806" 
d="M726 226l-1.00098 -2.99902l-2 -7c-5.33301 -17.333 -10.5 -32.166 -15.5 -44.499s-10.5 -23.5 -16.5 -33.5c-28.667 -49.333 -69.667 -89 -123 -119c-26 -14 -53 -24.667 -81 -32s-57.333 -11 -88 -11c-58 0 -111.833 13.833 -161.5 41.5s-90.5 67.167 -122.5 118.5
c-20 30.667 -34.333 66.667 -43 108s-13 98 -13 170v588c0 10 4.33301 15 13 15c8 0 12 -5 12 -15v-558c0 -73.333 2 -128 6 -164s12.667 -68 26 -96c24 -54.667 62.167 -98.834 114.5 -132.501s108.833 -50.5 169.5 -50.5c65.333 0 124.833 18 178.5 54
s92.167 84 115.5 144c10.667 28.667 18 58.667 22 90s6 82.666 6 153.999v559c0 10 4.33301 15 13 15c8 0 12 -5 12 -15v-987c0 -10 -4 -15 -12 -15c-7.33301 0 -11.666 5 -12.999 15v132zM545.999 1351l-187.002 -183.002c-2 -2 -5.33301 -3.66699 -10 -5
c-7.33301 0 -11.666 4 -12.999 12c0.666992 1.33301 1.33398 2.83301 2.00098 4.5s2 3.83398 4 6.50098l187 182c2 2 3.83301 3.33301 5.5 4s3.16699 1.33398 4.5 2.00098c8 0 12.333 -4.33301 13 -13z" />
    <glyph glyph-name="Ucircumflex" unicode="&#xdb;" horiz-adv-x="806" 
d="M726 226l-1.00098 -2.99902l-2 -7c-5.33301 -17.333 -10.5 -32.166 -15.5 -44.499s-10.5 -23.5 -16.5 -33.5c-28.667 -49.333 -69.667 -89 -123 -119c-26 -14 -53 -24.667 -81 -32s-57.333 -11 -88 -11c-58 0 -111.833 13.833 -161.5 41.5s-90.5 67.167 -122.5 118.5
c-20 30.667 -34.333 66.667 -43 108s-13 98 -13 170v588c0 10 4.33301 15 13 15c8 0 12 -5 12 -15v-558c0 -73.333 2 -128 6 -164s12.667 -68 26 -96c24 -54.667 62.167 -98.834 114.5 -132.501s108.833 -50.5 169.5 -50.5c65.333 0 124.833 18 178.5 54
s92.167 84 115.5 144c10.667 28.667 18 58.667 22 90s6 82.666 6 153.999v559c0 10 4.33301 15 13 15c8 0 12 -5 12 -15v-987c0 -10 -4 -15 -12 -15c-7.33301 0 -11.666 5 -12.999 15v132zM402.999 1359l-204.003 -205.001c-2 -2 -5.33301 -3.66699 -10 -5
c-7.33301 0 -11.666 4 -12.999 12c0.666992 1.33301 1.33398 2.83301 2.00098 4.5s2 3.83398 4 6.50098l203 204c6 6 12 9 18 9s12 -3 18 -9l203 -204c4 -4 6 -7.66699 6 -11c0 -8 -4.33301 -12 -13 -12c-5.33301 2 -8.66602 3.66699 -9.99902 5z" />
    <glyph glyph-name="Udieresis" unicode="&#xdc;" horiz-adv-x="806" 
d="M726 226l-1.00098 -2.99902l-2 -7c-5.33301 -17.333 -10.5 -32.166 -15.5 -44.499s-10.5 -23.5 -16.5 -33.5c-28.667 -49.333 -69.667 -89 -123 -119c-26 -14 -53 -24.667 -81 -32s-57.333 -11 -88 -11c-58 0 -111.833 13.833 -161.5 41.5s-90.5 67.167 -122.5 118.5
c-20 30.667 -34.333 66.667 -43 108s-13 98 -13 170v588c0 10 4.33301 15 13 15c8 0 12 -5 12 -15v-558c0 -73.333 2 -128 6 -164s12.667 -68 26 -96c24 -54.667 62.167 -98.834 114.5 -132.501s108.833 -50.5 169.5 -50.5c65.333 0 124.833 18 178.5 54
s92.167 84 115.5 144c10.667 28.667 18 58.667 22 90s6 82.666 6 153.999v559c0 10 4.33301 15 13 15c8 0 12 -5 12 -15v-987c0 -10 -4 -15 -12 -15c-7.33301 0 -11.666 5 -12.999 15v132zM574.999 1214l-0.000976562 93c0 8 4 12.667 12 14
c6.66699 0 10.334 -4.66699 11.001 -14v-93c0 -10 -3.66699 -15 -11 -15c-8 0 -12 5 -12 15zM208.998 1214l0.000976562 92c0 10 4 15 12 15c7.33301 0 11.666 -5 12.999 -15v-92c0 -10 -4.33301 -15 -13 -15c-8 0 -12 5 -12 15z" />
    <glyph glyph-name="Yacute" unicode="&#xdd;" horiz-adv-x="180" 
d="M78 15l-0.000976562 987c0 10 4.33301 15 13 15c8 0 12 -5 12 -15v-987c0 -10 -4 -15 -12 -15c-7.33301 0 -11.666 5 -12.999 15zM77.999 1214l-0.000976562 92c0 10 4.33301 15 13 15c8 0 12 -5 12 -15v-92c0 -10 -4 -15 -12 -15c-7.33301 0 -11.666 5 -12.999 15z" />
    <glyph glyph-name="Thorn" unicode="&#xde;" horiz-adv-x="727" 
d="M364 -24c-52.667 0 -102.332 11.6699 -148.999 35.0029c-54 26 -99.167 66.167 -135.5 120.5s-54.5 109.166 -54.5 164.499c0 7.33301 4 11.666 12 12.999c8.66699 0 13 -7 13 -21c0 -40.667 13.667 -84 41 -130c21.333 -36.667 48.666 -67.667 81.999 -93
c56.667 -42.667 120.334 -64 191.001 -64c93.333 0 171.333 34.667 234 104c54 60 81 130 81 210c0 55.333 -13.833 107.166 -41.5 155.499s-66.167 87 -115.5 116s-99.333 43.5 -150 43.5h-4h-7c-7.33301 0 -11.666 4 -12.999 12c0 8.66699 6.33301 13 19 13
c58.667 0 114.667 -15.333 168 -46c44 -26 80.333 -59.667 109 -101c40 -58 60 -122.667 60 -194c0 -75.333 -23.167 -143.333 -69.5 -204s-106.166 -101.334 -179.499 -122.001c-2.66699 -0.666992 -12 -2.33398 -28 -5.00098s-28.667 -4.66699 -38 -6v-93
c29.333 -4 54.666 -18 75.999 -42c10 -11.333 17.667 -23.666 23 -36.999s8 -27.666 8 -42.999c0 -33.333 -13 -62.5 -39 -87.5s-56.667 -37.5 -92 -37.5c-30.667 0 -58.334 9.33301 -83.001 28c-16 13.333 -24.667 24.333 -26 33c0 7.33301 4 11 12 11
c3.33301 0 8.66602 -4 15.999 -12c20 -23.333 46.667 -35 80 -35c30.667 0 56.167 9.66699 76.5 29s30.5 43 30.5 71c0 24.667 -8 46 -24 64s-38.333 29.667 -67 35c-10.667 2 -16 9.33301 -16 22v93zM355.002 1016c-76 0 -140.331 -28.665 -192.998 -85.998
c-44 -48 -66 -105.333 -66 -172c0 -70 25.167 -130.667 75.5 -182s109.833 -77 178.5 -77c7.33301 0 11.666 -4 12.999 -12c0 -8 -5.66699 -12 -17 -12c-45.333 0 -89.333 12.333 -132 37c-36.667 21.333 -66.667 48.666 -90 81.999c-18 24.667 -31.333 50 -40 76
s-13 55.333 -13 88c0 78 28 144.667 84 200s122.667 83 200 83c50 0 97.167 -12.833 141.5 -38.5s79.166 -60.5 104.499 -104.5c23.333 -40.667 35 -77 35 -109c0 -6.66699 -3.66699 -10.334 -11 -11.001c-7.33301 0 -12 5.33301 -14 16c0 13.333 -2.5 27.333 -7.5 42
s-12.833 30.667 -23.5 48c-51.333 88 -126.333 132 -225 132z" />
    <glyph glyph-name="germandbls" unicode="&#xdf;" horiz-adv-x="949" 
d="M663 807c-66 -50 -133.333 -74.999 -202 -74.999c-12 0 -18 4.33301 -18 13c0 8 4 12 12 12h4l4 -1c62 0 120 21 174 63l-7 2c-25.333 10 -51.5 17.667 -78.5 23s-55.5 8 -85.5 8h-9c-8 0 -12.667 4 -14 12c0 8 4.33301 12.333 13 13h8c70.667 0 136 -14 196 -42
c66 64 99 138.333 99 223c0 91.333 -34 168 -102 230c-58.667 51.333 -126.667 77 -204 77c-63.333 0 -120.5 -17.667 -171.5 -53s-87.167 -83 -108.5 -143c-14 -42 -21 -103.667 -21 -185v-591c0 -8 -4 -12.667 -12 -14c-8 0 -12.333 4.66699 -13 14v590
c0 36 1 66.833 3 92.5s5.66699 49.5 11 71.5c10 40.667 27 78 51 112c28.667 40.667 66.667 72.667 114 96s96.666 35 147.999 35c98 0 180 -36.333 246 -109c56 -62 84 -135.333 84 -220c0 -90 -34 -169 -102 -237l15 -8c36.667 -19.333 73.334 -49.333 110.001 -90
c76.667 -86.667 115 -186.667 115 -300c0 -116 -38.333 -216.667 -115 -302c-90 -99.333 -202.667 -149 -338 -149c-72 0 -139.833 16.333 -203.5 49s-117.5 79 -161.5 139c-56.667 80 -85 161.667 -85 245c0 16 4.33301 24 13 24c8 0 12 -6.33301 12 -19
c0 -52 9.33301 -100.5 28 -145.5s46.667 -88.167 84 -129.5c84 -92 188 -138 312 -138c127.333 0 233.666 47 318.999 141c73.333 81.333 110 176.666 110 285.999c0 80 -20.167 153.167 -60.5 219.5s-98.166 119.833 -173.499 160.5z" />
    <glyph glyph-name="agrave" unicode="&#xe0;" horiz-adv-x="1120" 
d="M907 106c-102.667 -86.667 -218.334 -130.002 -347.001 -130.002c-49.333 0 -95.666 5.66699 -138.999 17s-86.333 29.333 -129 54c-82 47.333 -146.833 112.333 -194.5 195s-71.5 171.334 -71.5 266.001c0 96 23.833 185 71.5 267s112.667 146.833 195 194.5
s170.833 71.5 265.5 71.5c95.333 0 183.833 -23.833 265.5 -71.5s146.667 -112.667 195 -195s72.5 -170.5 72.5 -264.5c0 -147.333 -53 -274.666 -159 -381.999v-113c0 -10 -4.33301 -15 -13 -15c-8 0 -12 5 -12 15v91zM932 163.998
c89.333 96.667 133.999 211.668 133.999 345.001c0 46.667 -5.33301 90.334 -16 131.001s-28 81.334 -52 122.001c-44.667 78 -106.5 139.833 -185.5 185.5s-163.833 68.5 -254.5 68.5c-149.333 0 -275 -56 -377 -168c-86.667 -96.667 -130 -210 -130 -340
c0 -46.667 5.33301 -90.334 16 -131.001s28 -81.334 52 -122.001c45.333 -78 107.333 -139.833 186 -185.5s163.334 -68.5 254.001 -68.5c128 0 240.667 43 338 129l10 9v363c0 9.33301 4 14.666 12 15.999c8 0 12.333 -5.33301 13 -16v-338zM433.999 1368l185.999 -181.998
c4 -4 6 -7.66699 6 -11c0 -8 -4 -12 -12 -12c-5.33301 2 -9 3.66699 -11 5l-187 183c-2 2 -3.66699 5.33301 -5 10c0 7.33301 4 11.666 12 12.999c1.33301 -0.666992 2.83301 -1.33398 4.5 -2.00098s3.83398 -2 6.50098 -4z" />
    <glyph glyph-name="aacute" unicode="&#xe1;" horiz-adv-x="1120" 
d="M907 106c-102.667 -86.667 -218.334 -130.002 -347.001 -130.002c-49.333 0 -95.666 5.66699 -138.999 17s-86.333 29.333 -129 54c-82 47.333 -146.833 112.333 -194.5 195s-71.5 171.334 -71.5 266.001c0 96 23.833 185 71.5 267s112.667 146.833 195 194.5
s170.833 71.5 265.5 71.5c95.333 0 183.833 -23.833 265.5 -71.5s146.667 -112.667 195 -195s72.5 -170.5 72.5 -264.5c0 -147.333 -53 -274.666 -159 -381.999v-113c0 -10 -4.33301 -15 -13 -15c-8 0 -12 5 -12 15v91zM932 163.998
c89.333 96.667 133.999 211.668 133.999 345.001c0 46.667 -5.33301 90.334 -16 131.001s-28 81.334 -52 122.001c-44.667 78 -106.5 139.833 -185.5 185.5s-163.833 68.5 -254.5 68.5c-149.333 0 -275 -56 -377 -168c-86.667 -96.667 -130 -210 -130 -340
c0 -46.667 5.33301 -90.334 16 -131.001s28 -81.334 52 -122.001c45.333 -78 107.333 -139.833 186 -185.5s163.334 -68.5 254.001 -68.5c128 0 240.667 43 338 129l10 9v363c0 9.33301 4 14.666 12 15.999c8 0 12.333 -5.33301 13 -16v-338zM701.999 1351l-185.999 -183
l-11 -5c-8 0 -12 4 -12 12c2 5.33301 3.66699 9 5 11l187 182c4 4 7.66699 6 11 6c8 0 12 -4.33301 12 -13c-0.666992 -1.33301 -1.33398 -2.83301 -2.00098 -4.5s-2 -3.5 -4 -5.5z" />
    <glyph glyph-name="acircumflex" unicode="&#xe2;" horiz-adv-x="1120" 
d="M907 106c-102.667 -86.667 -218.334 -130.002 -347.001 -130.002c-49.333 0 -95.666 5.66699 -138.999 17s-86.333 29.333 -129 54c-82 47.333 -146.833 112.333 -194.5 195s-71.5 171.334 -71.5 266.001c0 96 23.833 185 71.5 267s112.667 146.833 195 194.5
s170.833 71.5 265.5 71.5c95.333 0 183.833 -23.833 265.5 -71.5s146.667 -112.667 195 -195s72.5 -170.5 72.5 -264.5c0 -147.333 -53 -274.666 -159 -381.999v-113c0 -10 -4.33301 -15 -13 -15c-8 0 -12 5 -12 15v91zM932 163.998
c89.333 96.667 133.999 211.668 133.999 345.001c0 46.667 -5.33301 90.334 -16 131.001s-28 81.334 -52 122.001c-44.667 78 -106.5 139.833 -185.5 185.5s-163.833 68.5 -254.5 68.5c-149.333 0 -275 -56 -377 -168c-86.667 -96.667 -130 -210 -130 -340
c0 -46.667 5.33301 -90.334 16 -131.001s28 -81.334 52 -122.001c45.333 -78 107.333 -139.833 186 -185.5s163.334 -68.5 254.001 -68.5c128 0 240.667 43 338 129l10 9v363c0 9.33301 4 14.666 12 15.999c8 0 12.333 -5.33301 13 -16v-338zM558.999 1359l-203.001 -205
l-11 -5c-8 0 -12 4 -12 12c2 5.33301 3.66699 9 5 11l204 204c6 6 11.667 9 17 9c6 0 12 -3 18 -9l204 -204c2.66699 -2 4.33398 -5.66699 5.00098 -11c0 -8 -4 -12 -12 -12c-5.33301 2 -9 3.66699 -11 5z" />
    <glyph glyph-name="atilde" unicode="&#xe3;" horiz-adv-x="1120" 
d="M907 106c-102.667 -86.667 -218.334 -130.002 -347.001 -130.002c-49.333 0 -95.666 5.66699 -138.999 17s-86.333 29.333 -129 54c-82 47.333 -146.833 112.333 -194.5 195s-71.5 171.334 -71.5 266.001c0 96 23.833 185 71.5 267s112.667 146.833 195 194.5
s170.833 71.5 265.5 71.5c95.333 0 183.833 -23.833 265.5 -71.5s146.667 -112.667 195 -195s72.5 -170.5 72.5 -264.5c0 -147.333 -53 -274.666 -159 -381.999v-113c0 -10 -4.33301 -15 -13 -15c-8 0 -12 5 -12 15v91zM932 163.998
c89.333 96.667 133.999 211.668 133.999 345.001c0 46.667 -5.33301 90.334 -16 131.001s-28 81.334 -52 122.001c-44.667 78 -106.5 139.833 -185.5 185.5s-163.833 68.5 -254.5 68.5c-149.333 0 -275 -56 -377 -168c-86.667 -96.667 -130 -210 -130 -340
c0 -46.667 5.33301 -90.334 16 -131.001s28 -81.334 52 -122.001c45.333 -78 107.333 -139.833 186 -185.5s163.334 -68.5 254.001 -68.5c128 0 240.667 43 338 129l10 9v363c0 9.33301 4 14.666 12 15.999c8 0 12.333 -5.33301 13 -16v-338zM446.999 1341
c22.667 0 41.334 -4.66699 56.001 -14c15.333 -7.33301 36.166 -25 62.499 -53s46 -45.833 59 -53.5s29.5 -11.5 49.5 -11.5c60.667 0 101.667 38 123 114c2 8 7 12 15 12c6 0 9.33301 -3.33301 10 -10l-2 -10l-1 -6c-8.66699 -36.667 -26.5 -66.667 -53.5 -90
s-57.5 -35 -91.5 -35c-40 0 -80.333 22.333 -121 67c-23.333 25.333 -42.5 42.5 -57.5 51.5s-31.833 13.5 -50.5 13.5c-60.667 0 -101.667 -38 -123 -114c-2 -8 -7 -12 -15 -12c-6 0 -9.33301 3.33301 -10 10c0 7.33301 3.33301 20 10 38c10 31.333 28.167 56.333 54.5 75
s54.833 28 85.5 28z" />
    <glyph glyph-name="adieresis" unicode="&#xe4;" horiz-adv-x="1120" 
d="M907 106c-102.667 -86.667 -218.334 -130.002 -347.001 -130.002c-49.333 0 -95.666 5.66699 -138.999 17s-86.333 29.333 -129 54c-82 47.333 -146.833 112.333 -194.5 195s-71.5 171.334 -71.5 266.001c0 96 23.833 185 71.5 267s112.667 146.833 195 194.5
s170.833 71.5 265.5 71.5c95.333 0 183.833 -23.833 265.5 -71.5s146.667 -112.667 195 -195s72.5 -170.5 72.5 -264.5c0 -147.333 -53 -274.666 -159 -381.999v-113c0 -10 -4.33301 -15 -13 -15c-8 0 -12 5 -12 15v91zM932 163.998
c89.333 96.667 133.999 211.668 133.999 345.001c0 46.667 -5.33301 90.334 -16 131.001s-28 81.334 -52 122.001c-44.667 78 -106.5 139.833 -185.5 185.5s-163.833 68.5 -254.5 68.5c-149.333 0 -275 -56 -377 -168c-86.667 -96.667 -130 -210 -130 -340
c0 -46.667 5.33301 -90.334 16 -131.001s28 -81.334 52 -122.001c45.333 -78 107.333 -139.833 186 -185.5s163.334 -68.5 254.001 -68.5c128 0 240.667 43 338 129l10 9v363c0 9.33301 4 14.666 12 15.999c8 0 12.333 -5.33301 13 -16v-338zM730.999 1214l-0.000976562 93
c0 8 4 12.667 12 14c6.66699 0 10.334 -4.66699 11.001 -14v-93c0 -10 -3.66699 -15 -11 -15c-8 0 -12 5 -12 15zM364.998 1214l0.000976562 92c0 10 4 15 12 15c7.33301 0 11.666 -5 12.999 -15v-92c0 -10 -4.33301 -15 -13 -15c-8 0 -12 5 -12 15z" />
    <glyph glyph-name="aring" unicode="&#xe5;" horiz-adv-x="1120" 
d="M907 106c-102.667 -86.667 -218.334 -130.002 -347.001 -130.002c-49.333 0 -95.666 5.66699 -138.999 17s-86.333 29.333 -129 54c-82 47.333 -146.833 112.333 -194.5 195s-71.5 171.334 -71.5 266.001c0 96 23.833 185 71.5 267s112.667 146.833 195 194.5
s170.833 71.5 265.5 71.5c95.333 0 183.833 -23.833 265.5 -71.5s146.667 -112.667 195 -195s72.5 -170.5 72.5 -264.5c0 -147.333 -53 -274.666 -159 -381.999v-113c0 -10 -4.33301 -15 -13 -15c-8 0 -12 5 -12 15v91zM932 163.998
c89.333 96.667 133.999 211.668 133.999 345.001c0 46.667 -5.33301 90.334 -16 131.001s-28 81.334 -52 122.001c-44.667 78 -106.5 139.833 -185.5 185.5s-163.833 68.5 -254.5 68.5c-149.333 0 -275 -56 -377 -168c-86.667 -96.667 -130 -210 -130 -340
c0 -46.667 5.33301 -90.334 16 -131.001s28 -81.334 52 -122.001c45.333 -78 107.333 -139.833 186 -185.5s163.334 -68.5 254.001 -68.5c128 0 240.667 43 338 129l10 9v363c0 9.33301 4 14.666 12 15.999c8 0 12.333 -5.33301 13 -16v-338zM558.999 1396
c37.333 0 69 -13 95 -39s39 -58 39 -96c0 -36 -13.167 -67 -39.5 -93s-57.5 -39 -93.5 -39s-67.333 13 -94 39s-40 57.667 -40 95c0 36.667 13 68 39 94s57.333 39 94 39zM559.999 1371c-30 0 -55.665 -10.667 -76.998 -32c-21.333 -20 -32 -45.333 -32 -76
c0 -30 10.667 -55.667 32 -77s47 -32 77 -32c29.333 0 54.666 10.5 75.999 31.5s32 46.167 32 75.5c0 30 -10.333 55.833 -31 77.5s-46.334 32.5 -77.001 32.5z" />
    <glyph glyph-name="ae" unicode="&#xe6;" horiz-adv-x="2152" 
d="M1080 615l3.00293 16.001c10 51.333 31.667 104 65 158c37.333 60.667 83.666 110.667 138.999 150c93.333 68 198 102 314 102c102.667 0 197 -27.333 283 -82s151.667 -129 197 -223c34 -70 51 -141 51 -213c0 -14.667 -8.33301 -22 -25 -22h-841
c-10 0 -15 4.33301 -15 13c0 8 5 12 15 12h842c0 34 -3.66699 66.333 -11 97s-18.333 62 -33 94c-39.333 85.333 -97 154.666 -173 207.999c-86.667 60.667 -183.334 91 -290.001 91c-90.667 0 -175.167 -22.5 -253.5 -67.5s-140.333 -107 -186 -186
s-68.5 -163.5 -68.5 -253.5c0 -88.667 22.667 -172.667 68 -252s107.666 -141.833 186.999 -187.5s163.333 -68.5 252 -68.5c57.333 0 116.5 11 177.5 33s112.5 51.667 154.5 89c6 6 11 9 15 9c8 0 12 -4 12 -12c0 -6 -15 -20 -45 -42c-93.333 -68 -198 -102 -314 -102
c-97.333 0 -187.166 24.833 -269.499 74.5s-148.833 118.834 -199.5 207.501c-26 47.333 -43 96.666 -51 147.999c-8 -49.333 -25 -98.666 -51 -147.999c-23.333 -46 -55.333 -89.333 -96 -130v-113c0 -10 -4.33301 -15 -13 -15c-8 0 -12 5 -12 15v91
c-102.667 -86.667 -218.334 -130 -347.001 -130c-49.333 0 -95.666 5.66699 -138.999 17s-86.333 29.333 -129 54c-82 47.333 -146.833 112.333 -194.5 195s-71.5 171 -71.5 265c0 49.333 5.66699 95.666 17 138.999s29.333 86.333 54 129
c48 82 113.167 146.833 195.5 194.5s170.833 71.5 265.5 71.5c64.667 0 124.667 -9.66699 180 -29s107.666 -49.333 156.999 -90c96 -78.667 157.333 -181 184 -307zM933.003 163.001c90 98 135.003 213.002 135.003 345.002c0 90.667 -22.5 175.167 -67.5 253.5
s-107.167 140.333 -186.5 186s-164.333 68.5 -255 68.5c-46.667 0 -90.334 -5.33301 -131.001 -16s-81.334 -28 -122.001 -52c-78 -44.667 -139.833 -106.5 -185.5 -185.5s-68.5 -164.167 -68.5 -255.5c0 -46.667 5.33301 -90.334 16 -131.001s28 -81.334 52 -122.001
c44.667 -76.667 106.5 -138 185.5 -184s163.833 -69 254.5 -69c128 0 240.667 43 338 129l10 9v363c0 10 4 15 12 15c7.33301 0 11.666 -5 12.999 -15v-339z" />
    <glyph glyph-name="ccedilla" unicode="&#xe7;" horiz-adv-x="955" 
d="M525 -23l0.000976562 -93.0039c29.333 -4 54.666 -18 75.999 -42c10 -11.333 17.667 -23.666 23 -36.999s8 -27.666 8 -42.999c0 -33.333 -13 -62.5 -39 -87.5s-57 -37.5 -93 -37.5c-30 0 -57.333 9.33301 -82 28c-16 13.333 -24.667 24.333 -26 33c0 7.33301 4 11 12 11
c3.33301 0 8.66602 -4 15.999 -12c19.333 -23.333 46 -35 80 -35c30.667 0 56.167 9.66699 76.5 29s30.5 43 30.5 71c0 24.667 -8 46 -24 64s-38.333 29.667 -67 35c-10.667 2 -16 9.33301 -16 22v96c-64.667 7.33301 -126.334 26 -185.001 56
c-82 42.667 -149.667 103.667 -203 183c-57.333 88.667 -86 186 -86 292c0 158 58.333 289.333 175 394c101.333 91.333 220.666 137 357.999 137c146.667 0 271 -51.333 373 -154c10.667 -10 16.334 -17.667 17.001 -23c0 -7.33301 -4 -11.666 -12 -12.999
c-2 0.666992 -4 1.66699 -6 3s-4.66699 3.66602 -8 6.99902c-41.333 46 -94.5 83.333 -159.5 112s-133.167 43 -204.5 43c-91.333 0 -176.166 -22.333 -254.499 -67s-140.166 -106.667 -185.499 -186s-68 -163.666 -68 -252.999c0 -150.667 56 -277 168 -379
c96.667 -86.667 209 -130 337 -130c36 0 70 3.33301 102 10s66.667 18 104 34c68.667 30 123 68 163 114c3.33301 4 7.33301 6.66699 12 8c8 0 12 -4.33301 12 -13c0 -5.33301 -10 -17.666 -30 -36.999c-19.333 -17.333 -41 -34 -65 -50c-92 -60.667 -188.667 -91 -290 -91z
" />
    <glyph glyph-name="egrave" unicode="&#xe8;" horiz-adv-x="1111" 
d="M430 1368l185.999 -181.998c4 -4 6 -7.66699 6 -11c0 -8 -4 -12 -12 -12c-5.33301 2 -9 3.66699 -11 5l-187 183c-2 2 -3.66699 5.33301 -5 10c0 7.33301 4 11.666 12 12.999c1.33301 -0.666992 2.83301 -1.33398 4.5 -2.00098s3.83398 -2 6.50098 -4zM1067 526.002
c0 34 -3.66504 66.335 -10.998 97.002s-18.333 62 -33 94c-38 85.333 -95.667 154.666 -173 207.999c-86.667 60.667 -183.334 91 -290.001 91c-90.667 0 -174.834 -22.5 -252.501 -67.5s-139.667 -106.833 -186 -185.5s-69.5 -163.334 -69.5 -254.001
c0 -88.667 23 -172.667 69 -252s108.333 -141.833 187 -187.5s162.334 -68.5 251.001 -68.5c57.333 0 116.5 11 177.5 33s112.5 51.667 154.5 89c6 6 11 9 15 9c8 0 12 -4 12 -12c0 -6 -15 -20 -45 -42c-93.333 -68 -198 -102 -314 -102c-94.667 0 -183 23.667 -265 71
s-147 112.5 -195 195.5s-72 171.833 -72 266.5s23.833 183.167 71.5 265.5s112.667 147.333 195 195s171.166 71.5 266.499 71.5c102.667 0 197 -27.333 283 -82s151.667 -129 197 -223c34 -70 51 -141 51 -213c0 -14.667 -8.33301 -22 -25 -22h-841
c-10 0 -15 4.33301 -15 13c0 8 5 12 15 12h842z" />
    <glyph glyph-name="eacute" unicode="&#xe9;" horiz-adv-x="1111" 
d="M698 1351l-185.999 -183l-11 -5c-8 0 -12 4 -12 12c0 4 1.66699 7.66699 5 11l187 182c4 4 7.66699 6 11 6c8 0 12 -4.33301 12 -13c-0.666992 -1.33301 -1.33398 -2.83301 -2.00098 -4.5s-2 -3.5 -4 -5.5zM1067 526c0 34 -3.66504 66.335 -10.998 97.002
s-18.333 62 -33 94c-38 85.333 -95.667 154.666 -173 207.999c-86.667 60.667 -183.334 91 -290.001 91c-90.667 0 -174.834 -22.5 -252.501 -67.5s-139.667 -106.833 -186 -185.5s-69.5 -163.334 -69.5 -254.001c0 -88.667 23 -172.667 69 -252
s108.333 -141.833 187 -187.5s162.334 -68.5 251.001 -68.5c57.333 0 116.5 11 177.5 33s112.5 51.667 154.5 89c6 6 11 9 15 9c8 0 12 -4 12 -12c0 -6 -15 -20 -45 -42c-93.333 -68 -198 -102 -314 -102c-94.667 0 -183 23.667 -265 71s-147 112.5 -195 195.5
s-72 171.833 -72 266.5s23.833 183.167 71.5 265.5s112.667 147.333 195 195s171.166 71.5 266.499 71.5c102.667 0 197 -27.333 283 -82s151.667 -129 197 -223c34 -70 51 -141 51 -213c0 -14.667 -8.33301 -22 -25 -22h-841c-10 0 -15 4.33301 -15 13c0 8 5 12 15 12h842z
" />
    <glyph glyph-name="ecircumflex" unicode="&#xea;" horiz-adv-x="1111" 
d="M555 1359l-203 -205l-11 -5c-8 0 -12 4 -12 12c2 5.33301 3.66699 9 5 11l204 204c6 6 11.667 9 17 9c6 0 12 -3 18 -9l204 -204l5 -11c0 -8 -4.33301 -12 -13 -12c-4.66699 2 -8 3.66699 -10 5zM1067 526c0 34 -3.66504 66.335 -10.998 97.002s-18.333 62 -33 94
c-38 85.333 -95.667 154.666 -173 207.999c-86.667 60.667 -183.334 91 -290.001 91c-90.667 0 -174.834 -22.5 -252.501 -67.5s-139.667 -106.833 -186 -185.5s-69.5 -163.334 -69.5 -254.001c0 -88.667 23 -172.667 69 -252s108.333 -141.833 187 -187.5
s162.334 -68.5 251.001 -68.5c57.333 0 116.5 11 177.5 33s112.5 51.667 154.5 89c6 6 11 9 15 9c8 0 12 -4 12 -12c0 -6 -15 -20 -45 -42c-93.333 -68 -198 -102 -314 -102c-94.667 0 -183 23.667 -265 71s-147 112.5 -195 195.5s-72 171.833 -72 266.5
s23.833 183.167 71.5 265.5s112.667 147.333 195 195s171.166 71.5 266.499 71.5c102.667 0 197 -27.333 283 -82s151.667 -129 197 -223c34 -70 51 -141 51 -213c0 -14.667 -8.33301 -22 -25 -22h-841c-10 0 -15 4.33301 -15 13c0 8 5 12 15 12h842z" />
    <glyph glyph-name="edieresis" unicode="&#xeb;" horiz-adv-x="1111" 
d="M727 1214v92.999c0 8.66699 3.66699 13.334 11 14.001c8 0 12 -4.66699 12 -14v-93c0 -10 -4 -15 -12 -15c-6 0 -9.66699 5 -11 15zM361 1214l-0.000976562 92c0 10 4.33301 15 13 15c8 0 12 -5 12 -15v-92c0 -10 -4 -15 -12 -15c-7.33301 0 -11.666 5 -12.999 15z
M1067 525.999c0 34 -3.66504 66.335 -10.998 97.002s-18.333 62 -33 94c-38 85.333 -95.667 154.666 -173 207.999c-86.667 60.667 -183.334 91 -290.001 91c-90.667 0 -174.834 -22.5 -252.501 -67.5s-139.667 -106.833 -186 -185.5s-69.5 -163.334 -69.5 -254.001
c0 -88.667 23 -172.667 69 -252s108.333 -141.833 187 -187.5s162.334 -68.5 251.001 -68.5c57.333 0 116.5 11 177.5 33s112.5 51.667 154.5 89c6 6 11 9 15 9c8 0 12 -4 12 -12c0 -6 -15 -20 -45 -42c-93.333 -68 -198 -102 -314 -102c-94.667 0 -183 23.667 -265 71
s-147 112.5 -195 195.5s-72 171.833 -72 266.5s23.833 183.167 71.5 265.5s112.667 147.333 195 195s171.166 71.5 266.499 71.5c102.667 0 197 -27.333 283 -82s151.667 -129 197 -223c34 -70 51 -141 51 -213c0 -14.667 -8.33301 -22 -25 -22h-841
c-10 0 -15 4.33301 -15 13c0 8 5 12 15 12h842z" />
    <glyph glyph-name="igrave" unicode="&#xec;" horiz-adv-x="180" 
d="M78 15l0.000976562 987c0 10 4 15 12 15c7.33301 0 11.666 -5 12.999 -15v-987c0 -10 -4.33301 -15 -13 -15c-8 0 -12 5 -12 15zM29.001 1367l126 -183l4 -9c0 -8 -4.33301 -12 -13 -12c-3.33301 0 -7 2.33301 -11 7l-126 183l-4 9c0 8 4.33301 12 13 12
c3.33301 0 7 -2.33301 11 -7z" />
    <glyph glyph-name="iacute" unicode="&#xed;" horiz-adv-x="180" 
d="M78 15l-0.000976562 987c0 10 4.33301 15 13 15c8 0 12 -5 12 -15v-987c0 -10 -4 -15 -12 -15c-7.33301 0 -11.666 5 -12.999 15zM171.999 1352l-126 -182c-2.66699 -3.33301 -6.66699 -5.66602 -12 -6.99902c-8 0 -12 3.66699 -12 11
c1.33301 5.33301 2.66602 8.66602 3.99902 9.99902l126 183c2.66699 4 6.33398 6.33301 11.001 7c8.66699 0 13 -3.66699 13 -11z" />
    <glyph glyph-name="icircumflex" unicode="&#xee;" horiz-adv-x="180" 
d="M78 15l-0.000976562 987c0 10 4.33301 15 13 15c8 0 12 -5 12 -15v-987c0 -10 -4 -15 -12 -15c-7.33301 0 -11.666 5 -12.999 15zM89.999 1283l-62 -63c-2 -2 -5.66699 -3.66699 -11 -5c-8 0 -12 4.33301 -12 13l6 10l61 62c6 6 12 9 18 9s12 -3 18 -9l62 -62l5 -11
c0 -8 -4 -12 -12 -12c-5.33301 2 -9 3.66699 -11 5z" />
    <glyph glyph-name="idieresis" unicode="&#xef;" horiz-adv-x="180" 
d="M78 15l-0.000976562 987c0 10 4.33301 15 13 15c8 0 12 -5 12 -15v-987c0 -10 -4 -15 -12 -15c-7.33301 0 -11.666 5 -12.999 15zM132.999 1214v92.999c0 8.66699 3.66699 13.334 11 14.001c8 0 12 -4.66699 12 -14v-93c0 -10 -4 -15 -12 -15c-6 0 -9.66699 5 -11 15z
M24.999 1214l-0.000976562 92c0 10 4.33301 15 13 15c8 0 12 -5 12 -15v-92c0 -10 -4 -15 -12 -15c-7.33301 0 -11.666 5 -12.999 15z" />
    <glyph glyph-name="eth" unicode="&#xf0;" horiz-adv-x="1120" 
d="M932 128l0.00195312 -56.999v-17v-7c0 -101.333 -15.5 -179 -46.5 -233s-74.5 -97.167 -130.5 -129.5s-116 -48.5 -180 -48.5c-79.333 0 -150 24 -212 72s-105 111.333 -129 190c-8.66699 32.667 -13 59.334 -13 80.001c0 8 4 12 12 12c8.66699 0 13 -5.66699 13 -17
c0 -34.667 9.33301 -72.667 28 -114c26 -57.333 63.667 -103.666 113 -138.999c55.333 -39.333 117.666 -59 186.999 -59c60 0 115.667 14.167 167 42.5s91.666 68.166 120.999 119.499c14.667 25.333 26 56 34 92s12 76.667 12 122v7v16v46l-10 -9
c-41.333 -35.333 -93 -64.333 -155 -87s-123 -34 -183 -34c-94.667 0 -183.167 23.833 -265.5 71.5s-147.333 112.667 -195 195s-71.5 171.166 -71.5 266.499c0 94.667 23.833 183.167 71.5 265.5s112.667 147.333 195 195s170.833 71.5 265.5 71.5
c95.333 0 184 -23.667 266 -71s146.833 -112.333 194.5 -195s71.5 -171.334 71.5 -266.001c0 -145.333 -53.333 -272.333 -160 -381zM908.002 138.001l0.000976562 366.999c0 10 4 15 12 15s12 -5 12 -15v-342c90 97.333 135 212.333 135 345
c0 90.667 -22.667 175.334 -68 254.001s-107.166 140.667 -185.499 186s-162.833 68 -253.5 68c-46.667 0 -90.334 -5.33301 -131.001 -16s-81.334 -28 -122.001 -52c-78 -44.667 -139.833 -106.5 -185.5 -185.5s-68.5 -163.5 -68.5 -253.5
c0 -90.667 22.667 -175.167 68 -253.5s107.333 -140.333 186 -186s163 -68.5 253 -68.5c127.333 0 240 43 338 129zM339.003 1379c8 0 12.333 -5.33203 13 -15.999c0 -20 4.66699 -40.333 14 -61c16 -38.667 41.5 -70 76.5 -94s74.167 -36 117.5 -36
c54.667 0 102 18.667 142 56c20 19.333 35.833 40.5 47.5 63.5s17.5 46.833 17.5 71.5c0 10 4.33301 15.333 13 16c8 0 12 -4.33301 12 -13c0 -58.667 -23.667 -109.834 -71 -153.501s-102.333 -65.5 -165 -65.5c-59.333 0 -112.333 22.333 -159 67s-70 95.334 -70 152.001
c0 7.33301 4 11.666 12 12.999z" />
    <glyph glyph-name="ntilde" unicode="&#xf1;" horiz-adv-x="806" 
d="M80 791l0.995117 2.99707l2 7c5.33301 17.333 10.5 32.166 15.5 44.499s10.5 23.5 16.5 33.5c28.667 48.667 69.5 87.834 122.5 117.501s109.5 44.5 169.5 44.5c58.667 0 112.5 -14 161.5 -42s89.833 -67.333 122.5 -118c20 -31.333 34.333 -67.666 43 -108.999
s13 -97.666 13 -168.999v-588c0 -10 -4 -15 -12 -15c-7.33301 0 -11.666 5 -12.999 15v557c0 77.333 -2.16699 133 -6.5 167s-12.833 65.333 -25.5 94c-24 54.667 -62 98.834 -114 132.501s-108.667 50.5 -170 50.5c-65.333 0 -124.666 -18 -177.999 -54s-92 -84 -116 -144
c-5.33301 -15.333 -9.66602 -29.5 -12.999 -42.5s-6.66602 -29.5 -9.99902 -49.5c-3.33301 -33.333 -5 -84.333 -5 -153v-558c0 -10 -4 -15 -12 -15c-7.33301 0 -11.666 5 -12.999 15v987c0 10 4.33301 15 13 15c8 0 12 -5 12 -15v-132zM290.995 1341
c36.667 0 76 -22 118 -66l10 -11c34.667 -36.667 67.667 -55 99 -55c60.667 0 101.667 38 123 114c2 8 7 12 15 12c6 0 9.33301 -3.33301 10 -10l-2 -10l-1 -6c-8 -37.333 -25.5 -67.5 -52.5 -90.5s-57.833 -34.5 -92.5 -34.5c-39.333 0 -79.666 22.667 -120.999 68
c-24 26 -43.333 43.167 -58 51.5s-31.334 12.5 -50.001 12.5c-60.667 0 -101.667 -38 -123 -114c-2 -8 -7 -12 -15 -12c-6 0 -9.33301 3.33301 -10 10c0 7.33301 3.33301 20 10 38c10 31.333 28.167 56.333 54.5 75s54.833 28 85.5 28z" />
    <glyph glyph-name="ograve" unicode="&#xf2;" horiz-adv-x="1165" 
d="M457 1368l186.998 -181.997c2.66699 -2 4.33398 -5.66699 5.00098 -11c0 -8 -4 -12 -12 -12c-5.33301 2 -9 3.66699 -11 5l-186 183c-4 3.33301 -6 6.66602 -6 9.99902c0 7.33301 4 11.666 12 12.999c1.33301 -0.666992 2.83301 -1.33398 4.5 -2.00098
s3.83398 -2 6.50098 -4zM545.998 1017c-124.667 0 -234.999 -43.666 -330.999 -130.999c-50.667 -44.667 -91.334 -99.667 -122.001 -165c-14.667 -32 -26 -64.167 -34 -96.5s-12 -65.5 -12 -99.5c0 -10.667 -4.33301 -16.334 -13 -17.001c-8 0 -12 4 -12 12
c0 58.667 11.333 117.667 34 177c31.333 80.667 78.666 149.667 141.999 207c101.333 91.333 220 137 356 137c110 0 210.333 -31.167 301 -93.5s156.334 -145.833 197.001 -250.5c22.667 -62 34 -121 34 -177c0 -8 -4 -12 -12 -12c-8.66699 0 -13 5.66699 -13 17
c0 84.667 -22.333 164 -67 238c-48 80 -110.667 142.333 -188 187s-164 67 -260 67zM1131 509.004c8 0 12 -4.33105 12 -12.998c0 -28.667 -3.33301 -59.667 -10 -93c-10.667 -56 -31 -109.667 -61 -161c-48 -82 -113.167 -146.833 -195.5 -194.5
s-170.833 -71.5 -265.5 -71.5c-104 0 -199.833 28.167 -287.5 84.5s-153.5 132.166 -197.5 227.499c-31.333 70 -47 139.333 -47 208c0 7.33301 4 11.666 12 12.999c8 0 12.333 -5.33301 13 -16c0 -70.667 17.667 -142 53 -214s87.333 -132.333 156 -181
c88.667 -64.667 190.667 -97 306 -97c95.333 0 184.666 27.167 267.999 81.5s145.333 126.5 186 216.5c14.667 32.667 25.834 64.667 33.501 96s11.5 64 11.5 98c0 10 4.33301 15.333 13 16z" />
    <glyph glyph-name="oacute" unicode="&#xf3;" horiz-adv-x="1165" 
d="M726 1351l-187.002 -183.002l-10 -5c-7.33301 0 -11.666 4 -12.999 12c0.666992 1.33301 1.33398 2.83301 2.00098 4.5s2 3.83398 4 6.50098l186 182c4 4 7.66699 6 11 6c8 0 12 -4.33301 12 -13c-2 -5.33301 -3.66699 -8.66602 -5 -9.99902zM545.998 1017
c-124.667 0 -234.999 -43.666 -330.999 -130.999c-50.667 -44.667 -91.334 -99.667 -122.001 -165c-14.667 -32 -26 -64.167 -34 -96.5s-12 -65.5 -12 -99.5c0 -10.667 -4.33301 -16.334 -13 -17.001c-8 0 -12 4 -12 12c0 58.667 11.333 117.667 34 177
c31.333 80.667 78.666 149.667 141.999 207c101.333 91.333 220 137 356 137c110 0 210.333 -31.167 301 -93.5s156.334 -145.833 197.001 -250.5c22.667 -62 34 -121 34 -177c0 -8 -4 -12 -12 -12c-8.66699 0 -13 5.66699 -13 17c0 84.667 -22.333 164 -67 238
c-48 80 -110.667 142.333 -188 187s-164 67 -260 67zM1131 508.999c8 0 12 -4.33105 12 -12.998c0 -28.667 -3.33301 -59.667 -10 -93c-10.667 -56 -31 -109.667 -61 -161c-48 -82 -113.167 -146.833 -195.5 -194.5s-170.833 -71.5 -265.5 -71.5
c-104 0 -199.833 28.167 -287.5 84.5s-153.5 132.166 -197.5 227.499c-31.333 70 -47 139.333 -47 208c0 7.33301 4 11.666 12 12.999c8 0 12.333 -5.33301 13 -16c0 -70.667 17.667 -142 53 -214s87.333 -132.333 156 -181c88.667 -64.667 190.667 -97 306 -97
c95.333 0 184.666 27.167 267.999 81.5s145.333 126.5 186 216.5c14.667 32.667 25.834 64.667 33.501 96s11.5 64 11.5 98c0 10 4.33301 15.333 13 16z" />
    <glyph glyph-name="ocircumflex" unicode="&#xf4;" horiz-adv-x="1165" 
d="M582 1359l-203.001 -205l-11 -5c-8 0 -12 4 -12 12c2 5.33301 3.66699 9 5 11l204 204c6 6 12 9 18 9c4 0 9.66699 -3 17 -9l204 -204c2.66699 -2 4.33398 -5.66699 5.00098 -11c0 -8 -4 -12 -12 -12c-5.33301 2 -9 3.66699 -11 5zM545.999 1017
c-124.667 0 -234.999 -43.666 -330.999 -130.999c-50.667 -44.667 -91.334 -99.667 -122.001 -165c-14.667 -32 -26 -64.167 -34 -96.5s-12 -65.5 -12 -99.5c0 -10.667 -4.33301 -16.334 -13 -17.001c-8 0 -12 4 -12 12c0 58.667 11.333 117.667 34 177
c31.333 80.667 78.666 149.667 141.999 207c101.333 91.333 220 137 356 137c110 0 210.333 -31.167 301 -93.5s156.334 -145.833 197.001 -250.5c22.667 -62 34 -121 34 -177c0 -8 -4 -12 -12 -12c-8.66699 0 -13 5.66699 -13 17c0 84.667 -22.333 164 -67 238
c-48 80 -110.667 142.333 -188 187s-164 67 -260 67zM1131 509.001c8 0 12 -4.33105 12 -12.998c0 -28.667 -3.33301 -59.667 -10 -93c-10.667 -56 -31 -109.667 -61 -161c-48 -82 -113.167 -146.833 -195.5 -194.5s-170.833 -71.5 -265.5 -71.5
c-104 0 -199.833 28.167 -287.5 84.5s-153.5 132.166 -197.5 227.499c-31.333 70 -47 139.333 -47 208c0 7.33301 4 11.666 12 12.999c8 0 12.333 -5.33301 13 -16c0 -70.667 17.667 -142 53 -214s87.333 -132.333 156 -181c88.667 -64.667 190.667 -97 306 -97
c95.333 0 184.666 27.167 267.999 81.5s145.333 126.5 186 216.5c14.667 32.667 25.834 64.667 33.501 96s11.5 64 11.5 98c0 10 4.33301 15.333 13 16z" />
    <glyph glyph-name="otilde" unicode="&#xf5;" horiz-adv-x="1165" 
d="M546 1017c-124.667 0 -234.999 -43.666 -330.999 -130.999c-50.667 -44.667 -91.334 -99.667 -122.001 -165c-14.667 -32 -26 -64.167 -34 -96.5s-12 -65.5 -12 -99.5c0 -10.667 -4.33301 -16.334 -13 -17.001c-8 0 -12 4 -12 12c0 58.667 11.333 117.667 34 177
c31.333 80.667 78.666 149.667 141.999 207c101.333 91.333 220 137 356 137c110 0 210.333 -31.167 301 -93.5s156.334 -145.833 197.001 -250.5c22.667 -62 34 -121 34 -177c0 -8 -4 -12 -12 -12c-8.66699 0 -13 5.66699 -13 17c0 84.667 -22.333 164 -67 238
c-48 80 -110.667 142.333 -188 187s-164 67 -260 67zM1131 509.001c8 0 12 -4.33105 12 -12.998c0 -28.667 -3.33301 -59.667 -10 -93c-10.667 -56 -31 -109.667 -61 -161c-48 -82 -113.167 -146.833 -195.5 -194.5s-170.833 -71.5 -265.5 -71.5
c-104 0 -199.833 28.167 -287.5 84.5s-153.5 132.166 -197.5 227.499c-31.333 70 -47 139.333 -47 208c0 7.33301 4 11.666 12 12.999c8 0 12.333 -5.33301 13 -16c0 -70.667 17.667 -142 53 -214s87.333 -132.333 156 -181c88.667 -64.667 190.667 -97 306 -97
c95.333 0 184.666 27.167 267.999 81.5s145.333 126.5 186 216.5c14.667 32.667 25.834 64.667 33.501 96s11.5 64 11.5 98c0 10 4.33301 15.333 13 16zM470.001 1341c21.333 0 40.5 -4.83301 57.5 -14.5s40.5 -30.5 70.5 -62.5c34.667 -36.667 67.667 -55 99 -55
c60.667 0 101.667 38 123 114c2 8 7 12 15 12c6 0 9.33301 -3.33301 10 -10l-2 -10l-1 -6c-8 -37.333 -25.5 -67.5 -52.5 -90.5s-57.833 -34.5 -92.5 -34.5c-40 0 -80.333 22.333 -121 67c-22.667 25.333 -41.5 42.5 -56.5 51.5s-32.167 13.5 -51.5 13.5
c-60.667 0 -101.667 -38 -123 -114c-2 -8 -7 -12 -15 -12c-6 0 -9.33301 3.33301 -10 10c0 7.33301 3.33301 20 10 38c10 31.333 28.167 56.333 54.5 75s54.833 28 85.5 28z" />
    <glyph glyph-name="odieresis" unicode="&#xf6;" horiz-adv-x="1165" 
d="M754 1214v92.999c0 8.66699 3.66699 13.334 11 14.001c8 0 12 -4.66699 12 -14v-93c0 -10 -4 -15 -12 -15c-6 0 -9.66699 5 -11 15zM388 1214l0.000976562 92c0 10 4 15 12 15c7.33301 0 11.666 -5 12.999 -15v-92c0 -10 -4.33301 -15 -13 -15c-8 0 -12 5 -12 15z
M546.001 1017c-124.667 0 -234.999 -43.666 -330.999 -130.999c-50.667 -44.667 -91.334 -99.667 -122.001 -165c-14.667 -32 -26 -64.167 -34 -96.5s-12 -65.5 -12 -99.5c0 -10.667 -4.33301 -16.334 -13 -17.001c-8 0 -12 4 -12 12c0 58.667 11.333 117.667 34 177
c31.333 80.667 78.666 149.667 141.999 207c101.333 91.333 220 137 356 137c110 0 210.333 -31.167 301 -93.5s156.334 -145.833 197.001 -250.5c22.667 -62 34 -121 34 -177c0 -8 -4 -12 -12 -12c-8.66699 0 -13 5.66699 -13 17c0 84.667 -22.333 164 -67 238
c-48 80 -110.667 142.333 -188 187s-164 67 -260 67zM1131 509c8 0 12 -4.33105 12 -12.998c0 -28.667 -3.33301 -59.667 -10 -93c-10.667 -56 -31 -109.667 -61 -161c-48 -82 -113.167 -146.833 -195.5 -194.5s-170.833 -71.5 -265.5 -71.5
c-104 0 -199.833 28.167 -287.5 84.5s-153.5 132.166 -197.5 227.499c-31.333 70 -47 139.333 -47 208c0 7.33301 4 11.666 12 12.999c8 0 12.333 -5.33301 13 -16c0 -70.667 17.667 -142 53 -214s87.333 -132.333 156 -181c88.667 -64.667 190.667 -97 306 -97
c95.333 0 184.666 27.167 267.999 81.5s145.333 126.5 186 216.5c14.667 32.667 25.834 64.667 33.501 96s11.5 64 11.5 98c0 10 4.33301 15.333 13 16z" />
    <glyph glyph-name="divide" unicode="&#xf7;" horiz-adv-x="765" 
d="M381 342c22 0 40.666 -7.66797 55.999 -23.001s23 -34 23 -56c0 -21.333 -7.66699 -39.666 -23 -54.999s-33.666 -23 -54.999 -23c-22 0 -40.667 7.66699 -56 23s-23 34 -23 56c0 21.333 7.33301 39.333 22 54c8 8 16.333 14 25 18s19 6 31 6zM381.999 316.999
c-15.333 0 -28.167 -5.16699 -38.5 -15.5s-15.5 -22.833 -15.5 -37.5s5 -27.334 15 -38.001s22.667 -16 38 -16c13.333 0 26 5 38 15c10.667 10.667 16 23.334 16 38.001c0 14 -5.16699 26.5 -15.5 37.5s-22.833 16.5 -37.5 16.5zM380.998 832.999
c22 0 40.666 -7.66699 55.999 -23s23 -34 23 -56c0 -21.333 -7.66699 -39.666 -23 -54.999s-33.666 -23 -54.999 -23c-22 0 -40.667 7.66699 -56 23s-23 33.666 -23 54.999c0 22 7.33301 40.333 22 55c8 8 16.333 14 25 18s19 6 31 6zM381.997 807.999
c-15.333 0 -28.167 -5.16895 -38.5 -15.502s-15.5 -23.166 -15.5 -38.499c0 -13.333 5 -26 15 -38c10 -10 22.667 -15 38 -15c13.333 0 26 5 38 15c10.667 10.667 16 23.334 16 38.001c0 14 -5.16699 26.5 -15.5 37.5s-22.833 16.5 -37.5 16.5zM721.996 495.997
l-680 0.000976562c-10 0 -15 4 -15 12c0 7.33301 5 11.666 15 12.999h680c10 0 15 -4.33301 15 -13c0 -8 -5 -12 -15 -12z" />
    <glyph glyph-name="oslash" unicode="&#xf8;" horiz-adv-x="1156" 
d="M280 121c96 -80 205.335 -120 328.002 -120c99.333 0 191 27 275 81s146.333 126.333 187 217c30 65.333 45 130 45 194c0 10 4.33301 15.333 13 16c8 0 12 -4.33301 12 -13c0 -29.333 -3.33301 -60.333 -10 -93c-10.667 -56 -31 -109.667 -61 -161
c-48 -82 -113.167 -146.833 -195.5 -194.5s-170.5 -71.5 -264.5 -71.5c-130 0 -244.667 41.667 -344 125l-75 -102c-3.33301 -3.33301 -7.33301 -5.66602 -12 -6.99902c-8 0 -12 4 -12 12c1.33301 5.33301 2.66602 8.66602 3.99902 9.99902l77 104
c-53.333 49.333 -95.166 107.833 -125.499 175.5s-45.5 135.167 -45.5 202.5c0 7.33301 4 11.666 12 12.999c8 0 12.333 -5.33301 13 -16c0 -136 53.333 -254.667 160 -356l583 786c-90 62 -187.667 93 -293 93c-130 0 -243.333 -43.333 -340 -130
c-50.667 -46 -91 -100.667 -121 -164c-14.667 -32 -26 -64.167 -34 -96.5s-12 -65.5 -12 -99.5c0 -10.667 -4.33301 -16.334 -13 -17.001c-8 0 -12 4 -12 12c0 58 11.333 116.667 34 176c30 81.333 77.333 150.333 142 207c101.333 91.333 219.666 137 354.999 137
c114.667 0 217.667 -32.667 309 -98l50 68c3.33301 3.33301 7.33301 5.66602 12 6.99902c8 0 12 -4 12 -12l-4 -10l-50 -68c61.333 -49.333 110.666 -110.666 147.999 -183.999s56 -147.666 56 -222.999c0 -8 -4 -12 -12 -12c-8.66699 0 -13 5.66699 -13 17
c0 70.667 -17.667 140.834 -53 210.501s-82.333 127.167 -141 172.5z" />
    <glyph glyph-name="ugrave" unicode="&#xf9;" horiz-adv-x="806" 
d="M726 226l-1.00098 -2.99902l-2 -7c-5.33301 -17.333 -10.5 -32.166 -15.5 -44.499s-10.5 -23.5 -16.5 -33.5c-28.667 -49.333 -69.667 -89 -123 -119c-26 -14 -53 -24.667 -81 -32s-57.333 -11 -88 -11c-58 0 -111.833 13.833 -161.5 41.5s-90.5 67.167 -122.5 118.5
c-20 30.667 -34.333 66.667 -43 108s-13 98 -13 170v588c0 10 4.33301 15 13 15c8 0 12 -5 12 -15v-558c0 -73.333 2 -128 6 -164s12.667 -68 26 -96c24 -54.667 62.167 -98.834 114.5 -132.501s108.833 -50.5 169.5 -50.5c65.333 0 124.833 18 178.5 54
s92.167 84 115.5 144c10.667 28.667 18 58.667 22 90s6 82.666 6 153.999v559c0 10 4.33301 15 13 15c8 0 12 -5 12 -15v-987c0 -10 -4 -15 -12 -15c-7.33301 0 -11.666 5 -12.999 15v132zM276.999 1368l186.999 -181.998c4 -4 6 -7.66699 6 -11c0 -8 -4.33301 -12 -13 -12
c-5.33301 2 -8.66602 3.66699 -9.99902 5l-187 183c-2 2 -3.66699 5.33301 -5 10c0 7.33301 4 11.666 12 12.999c1.33301 -0.666992 2.83301 -1.33398 4.5 -2.00098s3.5 -2 5.5 -4z" />
    <glyph glyph-name="uacute" unicode="&#xfa;" horiz-adv-x="806" 
d="M726 226l-1.00098 -2.99902l-2 -7c-5.33301 -17.333 -10.5 -32.166 -15.5 -44.499s-10.5 -23.5 -16.5 -33.5c-28.667 -49.333 -69.667 -89 -123 -119c-26 -14 -53 -24.667 -81 -32s-57.333 -11 -88 -11c-58 0 -111.833 13.833 -161.5 41.5s-90.5 67.167 -122.5 118.5
c-20 30.667 -34.333 66.667 -43 108s-13 98 -13 170v588c0 10 4.33301 15 13 15c8 0 12 -5 12 -15v-558c0 -73.333 2 -128 6 -164s12.667 -68 26 -96c24 -54.667 62.167 -98.834 114.5 -132.501s108.833 -50.5 169.5 -50.5c65.333 0 124.833 18 178.5 54
s92.167 84 115.5 144c10.667 28.667 18 58.667 22 90s6 82.666 6 153.999v559c0 10 4.33301 15 13 15c8 0 12 -5 12 -15v-987c0 -10 -4 -15 -12 -15c-7.33301 0 -11.666 5 -12.999 15v132zM545.999 1351l-187.002 -183.002c-2 -2 -5.33301 -3.66699 -10 -5
c-7.33301 0 -11.666 4 -12.999 12c0.666992 1.33301 1.33398 2.83301 2.00098 4.5s2 3.83398 4 6.50098l187 182c2 2 3.83301 3.33301 5.5 4s3.16699 1.33398 4.5 2.00098c8 0 12.333 -4.33301 13 -13z" />
    <glyph glyph-name="ucircumflex" unicode="&#xfb;" horiz-adv-x="806" 
d="M726 226l-1.00098 -2.99902l-2 -7c-5.33301 -17.333 -10.5 -32.166 -15.5 -44.499s-10.5 -23.5 -16.5 -33.5c-28.667 -49.333 -69.667 -89 -123 -119c-26 -14 -53 -24.667 -81 -32s-57.333 -11 -88 -11c-58 0 -111.833 13.833 -161.5 41.5s-90.5 67.167 -122.5 118.5
c-20 30.667 -34.333 66.667 -43 108s-13 98 -13 170v588c0 10 4.33301 15 13 15c8 0 12 -5 12 -15v-558c0 -73.333 2 -128 6 -164s12.667 -68 26 -96c24 -54.667 62.167 -98.834 114.5 -132.501s108.833 -50.5 169.5 -50.5c65.333 0 124.833 18 178.5 54
s92.167 84 115.5 144c10.667 28.667 18 58.667 22 90s6 82.666 6 153.999v559c0 10 4.33301 15 13 15c8 0 12 -5 12 -15v-987c0 -10 -4 -15 -12 -15c-7.33301 0 -11.666 5 -12.999 15v132zM402.999 1359l-204.003 -205.001c-2 -2 -5.33301 -3.66699 -10 -5
c-7.33301 0 -11.666 4 -12.999 12c0.666992 1.33301 1.33398 2.83301 2.00098 4.5s2 3.83398 4 6.50098l203 204c6 6 12 9 18 9s12 -3 18 -9l203 -204c4 -4 6 -7.66699 6 -11c0 -8 -4.33301 -12 -13 -12c-5.33301 2 -8.66602 3.66699 -9.99902 5z" />
    <glyph glyph-name="udieresis" unicode="&#xfc;" horiz-adv-x="806" 
d="M726 226l-1.00098 -2.99902l-2 -7c-5.33301 -17.333 -10.5 -32.166 -15.5 -44.499s-10.5 -23.5 -16.5 -33.5c-28.667 -49.333 -69.667 -89 -123 -119c-26 -14 -53 -24.667 -81 -32s-57.333 -11 -88 -11c-58 0 -111.833 13.833 -161.5 41.5s-90.5 67.167 -122.5 118.5
c-20 30.667 -34.333 66.667 -43 108s-13 98 -13 170v588c0 10 4.33301 15 13 15c8 0 12 -5 12 -15v-558c0 -73.333 2 -128 6 -164s12.667 -68 26 -96c24 -54.667 62.167 -98.834 114.5 -132.501s108.833 -50.5 169.5 -50.5c65.333 0 124.833 18 178.5 54
s92.167 84 115.5 144c10.667 28.667 18 58.667 22 90s6 82.666 6 153.999v559c0 10 4.33301 15 13 15c8 0 12 -5 12 -15v-987c0 -10 -4 -15 -12 -15c-7.33301 0 -11.666 5 -12.999 15v132zM574.999 1214l-0.000976562 93c0 8 4 12.667 12 14
c6.66699 0 10.334 -4.66699 11.001 -14v-93c0 -10 -3.66699 -15 -11 -15c-8 0 -12 5 -12 15zM208.998 1214l0.000976562 92c0 10 4 15 12 15c7.33301 0 11.666 -5 12.999 -15v-92c0 -10 -4.33301 -15 -13 -15c-8 0 -12 5 -12 15z" />
    <glyph glyph-name="yacute" unicode="&#xfd;" horiz-adv-x="180" 
d="M78 15l0.000976562 987c0 10 4 15 12 15c7.33301 0 11.666 -5 12.999 -15v-987c0 -10 -4.33301 -15 -13 -15c-8 0 -12 5 -12 15z" />
    <glyph glyph-name="thorn" unicode="&#xfe;" horiz-adv-x="727" 
d="M364 -24c-52.667 0 -102.332 11.6699 -148.999 35.0029c-54 26 -99.167 66.167 -135.5 120.5s-54.5 109.166 -54.5 164.499c0 7.33301 4 11.666 12 12.999c8.66699 0 13 -7 13 -21c0 -40.667 13.667 -84 41 -130c21.333 -36.667 48.666 -67.667 81.999 -93
c56.667 -42.667 120.334 -64 191.001 -64c93.333 0 171.333 34.667 234 104c54 60 81 130 81 210c0 55.333 -13.833 107.166 -41.5 155.499s-66.167 87 -115.5 116s-99.333 43.5 -150 43.5h-4h-7c-7.33301 0 -11.666 4 -12.999 12c0 8.66699 6.33301 13 19 13
c58.667 0 114.667 -15.333 168 -46c44 -26 80.333 -59.667 109 -101c40 -58 60 -122.667 60 -194c0 -75.333 -23.167 -143.333 -69.5 -204s-106.166 -101.334 -179.499 -122.001c-2.66699 -0.666992 -12 -2.33398 -28 -5.00098s-28.667 -4.66699 -38 -6v-93
c29.333 -4 54.666 -18 75.999 -42c10 -11.333 17.667 -23.666 23 -36.999s8 -27.666 8 -42.999c0 -33.333 -13 -62.5 -39 -87.5s-56.667 -37.5 -92 -37.5c-30.667 0 -58.334 9.33301 -83.001 28c-16 13.333 -24.667 24.333 -26 33c0 7.33301 4 11 12 11
c3.33301 0 8.66602 -4 15.999 -12c20 -23.333 46.667 -35 80 -35c30.667 0 56.167 9.66699 76.5 29s30.5 43 30.5 71c0 24.667 -8 46 -24 64s-38.333 29.667 -67 35c-10.667 2 -16 9.33301 -16 22v93zM355.002 1016c-76 0 -140.331 -28.665 -192.998 -85.998
c-44 -48 -66 -105.333 -66 -172c0 -70 25.167 -130.667 75.5 -182s109.833 -77 178.5 -77c7.33301 0 11.666 -4 12.999 -12c0 -8 -5.66699 -12 -17 -12c-45.333 0 -89.333 12.333 -132 37c-36.667 21.333 -66.667 48.666 -90 81.999c-18 24.667 -31.333 50 -40 76
s-13 55.333 -13 88c0 78 28 144.667 84 200s122.667 83 200 83c50 0 97.167 -12.833 141.5 -38.5s79.166 -60.5 104.499 -104.5c23.333 -40.667 35 -77 35 -109c0 -6.66699 -3.66699 -10.334 -11 -11.001c-7.33301 0 -12 5.33301 -14 16c0 13.333 -2.5 27.333 -7.5 42
s-12.833 30.667 -23.5 48c-51.333 88 -126.333 132 -225 132z" />
    <glyph glyph-name="ydieresis" unicode="&#xff;" horiz-adv-x="806" 
d="M722 147l3.99902 80.001l-1 -4l-2 -7c-5.33301 -17.333 -10.5 -32.166 -15.5 -44.499s-10.5 -23.5 -16.5 -33.5c-28.667 -49.333 -69.667 -89 -123 -119c-26 -14 -53 -24.667 -81 -32s-57.333 -11 -88 -11c-58 0 -111.833 13.833 -161.5 41.5s-90.5 67.167 -122.5 118.5
c-20 30.667 -34.333 66.667 -43 108s-13 98 -13 170v588c0 10 4.33301 15 13 15c8 0 12 -5 12 -15v-558c0 -73.333 2 -128 6 -164s12.667 -68 26 -96c24 -54.667 62.167 -98.834 114.5 -132.501s108.833 -50.5 169.5 -50.5c65.333 0 124.833 18 178.5 54
s92.167 84 115.5 144c10.667 28.667 18 58.667 22 90s6 82.666 6 153.999v559c0 10 4.33301 15 13 15c8 0 12 -5 12 -15v-1335c0 -10 -4 -15 -12 -15c-7.33301 0 -11.666 5 -12.999 15v480zM574.999 1214l-0.000976562 93c0 8 4 12.667 12 14
c6.66699 0 10.334 -4.66699 11.001 -14v-93c0 -10 -3.66699 -15 -11 -15c-8 0 -12 5 -12 15zM208.998 1214l0.000976562 92c0 10 4 15 12 15c7.33301 0 11.666 -5 12.999 -15v-92c0 -10 -4.33301 -15 -13 -15c-8 0 -12 5 -12 15z" />
    <glyph glyph-name="Cacute" unicode="&#x106;" horiz-adv-x="955" 
d="M559 1041c146.667 0 271 -51.3359 373 -154.003c10.667 -10 16.334 -17.667 17.001 -23c0 -7.33301 -4 -11.666 -12 -12.999c-2 0.666992 -4 1.66699 -6 3s-4.66699 3.66602 -8 6.99902c-41.333 46 -94.5 83.333 -159.5 112s-133.167 43 -204.5 43
c-47.333 0 -91.5 -5.33301 -132.5 -16s-82.167 -28 -123.5 -52c-77.333 -45.333 -138.5 -107.333 -183.5 -186s-67.5 -162.667 -67.5 -252c0 -150.667 56 -277 168 -379c96.667 -86.667 208.667 -130 336 -130c36 0 70 3.33301 102 10s66.667 18 104 34
c67.333 30 121.666 68 162.999 114c3.33301 4 7.33301 6.66699 12 8c8 0 12 -4.33301 12 -13c0 -10 -18.5 -29.167 -55.5 -57.5s-73.5 -51.166 -109.5 -68.499c-75.333 -34.667 -152.333 -52 -231 -52c-90.667 0 -177 23.833 -259 71.5s-147 112.834 -195 195.501
s-72 171.334 -72 266.001c0 155.333 58.333 287 175 395c50 45.333 104.5 79.5 163.5 102.5s123.5 34.5 193.5 34.5zM690 1351l-186.999 -183c-2 -2 -5.33301 -3.66699 -10 -5c-7.33301 0 -11.666 4 -12.999 12c0.666992 1.33301 1.33398 2.83301 2.00098 4.5
s2 3.83398 4 6.50098l187 182c3.33301 4 6.66602 6 9.99902 6c7.33301 0 11.666 -4 12.999 -12c-0.666992 -1.33301 -1.33398 -2.83301 -2.00098 -4.5s-2 -3.83398 -4 -6.50098z" />
    <glyph glyph-name="cacute" unicode="&#x107;" horiz-adv-x="955" 
d="M559 1041c146.667 0 271 -51.3359 373 -154.003c10.667 -10 16.334 -17.667 17.001 -23c0 -7.33301 -4 -11.666 -12 -12.999c-2 0.666992 -4 1.66699 -6 3s-4.66699 3.66602 -8 6.99902c-41.333 46 -94.5 83.333 -159.5 112s-133.167 43 -204.5 43
c-47.333 0 -91.5 -5.33301 -132.5 -16s-82.167 -28 -123.5 -52c-77.333 -45.333 -138.5 -107.333 -183.5 -186s-67.5 -162.667 -67.5 -252c0 -150.667 56 -277 168 -379c96.667 -86.667 208.667 -130 336 -130c36 0 70 3.33301 102 10s66.667 18 104 34
c67.333 30 121.666 68 162.999 114c3.33301 4 7.33301 6.66699 12 8c8 0 12 -4.33301 12 -13c0 -10 -18.5 -29.167 -55.5 -57.5s-73.5 -51.166 -109.5 -68.499c-75.333 -34.667 -152.333 -52 -231 -52c-90.667 0 -177 23.833 -259 71.5s-147 112.834 -195 195.501
s-72 171.334 -72 266.001c0 155.333 58.333 287 175 395c50 45.333 104.5 79.5 163.5 102.5s123.5 34.5 193.5 34.5zM690 1351l-186.999 -183c-2 -2 -5.33301 -3.66699 -10 -5c-7.33301 0 -11.666 4 -12.999 12c0.666992 1.33301 1.33398 2.83301 2.00098 4.5
s2 3.83398 4 6.50098l187 182c3.33301 4 6.66602 6 9.99902 6c7.33301 0 11.666 -4 12.999 -12c-0.666992 -1.33301 -1.33398 -2.83301 -2.00098 -4.5s-2 -3.83398 -4 -6.50098z" />
    <glyph glyph-name="Ccaron" unicode="&#x10c;" horiz-adv-x="955" 
d="M559 1041c146.667 0 271 -51.3359 373 -154.003c10.667 -10 16.334 -17.667 17.001 -23c0 -7.33301 -4 -11.666 -12 -12.999c-2 0.666992 -4 1.66699 -6 3s-4.66699 3.66602 -8 6.99902c-41.333 46 -94.5 83.333 -159.5 112s-133.167 43 -204.5 43
c-47.333 0 -91.5 -5.33301 -132.5 -16s-82.167 -28 -123.5 -52c-77.333 -45.333 -138.5 -107.333 -183.5 -186s-67.5 -162.667 -67.5 -252c0 -150.667 56 -277 168 -379c96.667 -86.667 208.667 -130 336 -130c36 0 70 3.33301 102 10s66.667 18 104 34
c67.333 30 121.666 68 162.999 114c3.33301 4 7.33301 6.66699 12 8c8 0 12 -4.33301 12 -13c0 -10 -18.5 -29.167 -55.5 -57.5s-73.5 -51.166 -109.5 -68.499c-75.333 -34.667 -152.333 -52 -231 -52c-90.667 0 -177 23.833 -259 71.5s-147 112.834 -195 195.501
s-72 171.334 -72 266.001c0 155.333 58.333 287 175 395c50 45.333 104.5 79.5 163.5 102.5s123.5 34.5 193.5 34.5zM562 1178l203.999 204c4 4 7.66699 6 11 6c8 0 12 -4 12 -12c0 -4 -1.66699 -7.66699 -5 -11l-204 -204c-6 -6 -12 -9 -18 -9c-4 0 -9.66699 3 -17 9
l-204 204c-2 2.66699 -3.66699 6.33398 -5 11.001c0 8 4 12 12 12c1.33301 -0.666992 2.83301 -1.33398 4.5 -2.00098s3.83398 -2 6.50098 -4z" />
    <glyph glyph-name="ccaron" unicode="&#x10d;" horiz-adv-x="955" 
d="M559 1041c146.667 0 271 -51.3359 373 -154.003c10.667 -10 16.334 -17.667 17.001 -23c0 -7.33301 -4 -11.666 -12 -12.999c-2 0.666992 -4 1.66699 -6 3s-4.66699 3.66602 -8 6.99902c-41.333 46 -94.5 83.333 -159.5 112s-133.167 43 -204.5 43
c-47.333 0 -91.5 -5.33301 -132.5 -16s-82.167 -28 -123.5 -52c-77.333 -45.333 -138.5 -107.333 -183.5 -186s-67.5 -162.667 -67.5 -252c0 -150.667 56 -277 168 -379c96.667 -86.667 208.667 -130 336 -130c36 0 70 3.33301 102 10s66.667 18 104 34
c67.333 30 121.666 68 162.999 114c3.33301 4 7.33301 6.66699 12 8c8 0 12 -4.33301 12 -13c0 -10 -18.5 -29.167 -55.5 -57.5s-73.5 -51.166 -109.5 -68.499c-75.333 -34.667 -152.333 -52 -231 -52c-90.667 0 -177 23.833 -259 71.5s-147 112.834 -195 195.501
s-72 171.334 -72 266.001c0 155.333 58.333 287 175 395c50 45.333 104.5 79.5 163.5 102.5s123.5 34.5 193.5 34.5zM562 1178l203.999 204c4 4 7.66699 6 11 6c8 0 12 -4 12 -12c0 -4 -1.66699 -7.66699 -5 -11l-204 -204c-6 -6 -12 -9 -18 -9c-4 0 -9.66699 3 -17 9
l-204 204c-2 2.66699 -3.66699 6.33398 -5 11.001c0 8 4 12 12 12c1.33301 -0.666992 2.83301 -1.33398 4.5 -2.00098s3.83398 -2 6.50098 -4z" />
    <glyph glyph-name="dcroat" unicode="&#x111;" horiz-adv-x="1120" 
d="M932 128l0.00195312 -56.999v-17v-7c0 -101.333 -15.5 -179 -46.5 -233s-74.5 -97.167 -130.5 -129.5s-116 -48.5 -180 -48.5c-79.333 0 -150 24 -212 72s-105 111.333 -129 190c-8.66699 32.667 -13 59.334 -13 80.001c0 8 4 12 12 12c8.66699 0 13 -5.66699 13 -17
c0 -34.667 9.33301 -72.667 28 -114c26 -57.333 63.667 -103.666 113 -138.999c55.333 -39.333 117.666 -59 186.999 -59c60 0 115.667 14.167 167 42.5s91.666 68.166 120.999 119.499c14.667 25.333 26 56 34 92s12 76.667 12 122v7v16v46l-10 -9
c-41.333 -35.333 -93 -64.333 -155 -87s-123 -34 -183 -34c-94.667 0 -183.167 23.833 -265.5 71.5s-147.333 112.667 -195 195s-71.5 171.166 -71.5 266.499c0 94.667 23.833 183.167 71.5 265.5s112.667 147.333 195 195s170.833 71.5 265.5 71.5
c95.333 0 184 -23.667 266 -71s146.833 -112.333 194.5 -195s71.5 -171.334 71.5 -266.001c0 -145.333 -53.333 -272.333 -160 -381zM908.002 138.001l0.000976562 366.999c0 10 4 15 12 15s12 -5 12 -15v-342c90 97.333 135 212.333 135 345
c0 90.667 -22.667 175.334 -68 254.001s-107.166 140.667 -185.499 186s-162.833 68 -253.5 68c-46.667 0 -90.334 -5.33301 -131.001 -16s-81.334 -28 -122.001 -52c-78 -44.667 -139.833 -106.5 -185.5 -185.5s-68.5 -163.5 -68.5 -253.5
c0 -90.667 22.667 -175.167 68 -253.5s107.333 -140.333 186 -186s163 -68.5 253 -68.5c127.333 0 240 43 338 129zM339.003 1379c8 0 12.333 -5.33203 13 -15.999c0 -20 4.66699 -40.333 14 -61c16 -38.667 41.5 -70 76.5 -94s74.167 -36 117.5 -36
c54.667 0 102 18.667 142 56c20 19.333 35.833 40.5 47.5 63.5s17.5 46.833 17.5 71.5c0 10 4.33301 15.333 13 16c8 0 12 -4.33301 12 -13c0 -58.667 -23.667 -109.834 -71 -153.501s-102.333 -65.5 -165 -65.5c-59.333 0 -112.333 22.333 -159 67s-70 95.334 -70 152.001
c0 7.33301 4 11.666 12 12.999z" />
    <glyph glyph-name="Gbreve" unicode="&#x11e;" horiz-adv-x="1120" 
d="M932 128l0.00195312 -56.999v-17v-7c0 -101.333 -15.5 -179 -46.5 -233s-74.5 -97.167 -130.5 -129.5s-116 -48.5 -180 -48.5c-79.333 0 -150 24 -212 72s-105 111.333 -129 190c-8.66699 32.667 -13 59.334 -13 80.001c0 8 4 12 12 12c8.66699 0 13 -5.66699 13 -17
c0 -34.667 9.33301 -72.667 28 -114c26 -57.333 63.667 -103.666 113 -138.999c55.333 -39.333 117.666 -59 186.999 -59c60 0 115.667 14.167 167 42.5s91.666 68.166 120.999 119.499c14.667 25.333 26 56 34 92s12 76.667 12 122v7v16v46l-10 -9
c-41.333 -35.333 -93 -64.333 -155 -87s-123 -34 -183 -34c-94.667 0 -183.167 23.833 -265.5 71.5s-147.333 112.667 -195 195s-71.5 171.166 -71.5 266.499c0 94.667 23.833 183.167 71.5 265.5s112.667 147.333 195 195s170.833 71.5 265.5 71.5
c95.333 0 184 -23.667 266 -71s146.833 -112.333 194.5 -195s71.5 -171.334 71.5 -266.001c0 -145.333 -53.333 -272.333 -160 -381zM908.002 138.001l0.000976562 366.999c0 10 4 15 12 15s12 -5 12 -15v-342c90 97.333 135 212.333 135 345
c0 90.667 -22.667 175.334 -68 254.001s-107.166 140.667 -185.499 186s-162.833 68 -253.5 68c-46.667 0 -90.334 -5.33301 -131.001 -16s-81.334 -28 -122.001 -52c-78 -44.667 -139.833 -106.5 -185.5 -185.5s-68.5 -163.5 -68.5 -253.5
c0 -90.667 22.667 -175.167 68 -253.5s107.333 -140.333 186 -186s163 -68.5 253 -68.5c127.333 0 240 43 338 129zM339.003 1379c8 0 12.333 -5.33203 13 -15.999c0 -20 4.66699 -40.333 14 -61c16 -38.667 41.5 -70 76.5 -94s74.167 -36 117.5 -36
c54.667 0 102 18.667 142 56c20 19.333 35.833 40.5 47.5 63.5s17.5 46.833 17.5 71.5c0 10 4.33301 15.333 13 16c8 0 12 -4.33301 12 -13c0 -58.667 -23.667 -109.834 -71 -153.501s-102.333 -65.5 -165 -65.5c-59.333 0 -112.333 22.333 -159 67s-70 95.334 -70 152.001
c0 7.33301 4 11.666 12 12.999z" />
    <glyph glyph-name="gbreve" unicode="&#x11f;" horiz-adv-x="1120" 
d="M932 128l0.00195312 -56.999v-17v-7c0 -101.333 -15.5 -179 -46.5 -233s-74.5 -97.167 -130.5 -129.5s-116 -48.5 -180 -48.5c-79.333 0 -150 24 -212 72s-105 111.333 -129 190c-8.66699 32.667 -13 59.334 -13 80.001c0 8 4 12 12 12c8.66699 0 13 -5.66699 13 -17
c0 -34.667 9.33301 -72.667 28 -114c26 -57.333 63.667 -103.666 113 -138.999c55.333 -39.333 117.666 -59 186.999 -59c60 0 115.667 14.167 167 42.5s91.666 68.166 120.999 119.499c14.667 25.333 26 56 34 92s12 76.667 12 122v7v16v46l-10 -9
c-41.333 -35.333 -93 -64.333 -155 -87s-123 -34 -183 -34c-94.667 0 -183.167 23.833 -265.5 71.5s-147.333 112.667 -195 195s-71.5 171.166 -71.5 266.499c0 94.667 23.833 183.167 71.5 265.5s112.667 147.333 195 195s170.833 71.5 265.5 71.5
c95.333 0 184 -23.667 266 -71s146.833 -112.333 194.5 -195s71.5 -171.334 71.5 -266.001c0 -145.333 -53.333 -272.333 -160 -381zM908.002 138.001l0.000976562 366.999c0 10 4 15 12 15s12 -5 12 -15v-342c90 97.333 135 212.333 135 345
c0 90.667 -22.667 175.334 -68 254.001s-107.166 140.667 -185.499 186s-162.833 68 -253.5 68c-46.667 0 -90.334 -5.33301 -131.001 -16s-81.334 -28 -122.001 -52c-78 -44.667 -139.833 -106.5 -185.5 -185.5s-68.5 -163.5 -68.5 -253.5
c0 -90.667 22.667 -175.167 68 -253.5s107.333 -140.333 186 -186s163 -68.5 253 -68.5c127.333 0 240 43 338 129zM339.003 1379c8 0 12.333 -5.33203 13 -15.999c0 -20 4.66699 -40.333 14 -61c16 -38.667 41.5 -70 76.5 -94s74.167 -36 117.5 -36
c54.667 0 102 18.667 142 56c20 19.333 35.833 40.5 47.5 63.5s17.5 46.833 17.5 71.5c0 10 4.33301 15.333 13 16c8 0 12 -4.33301 12 -13c0 -58.667 -23.667 -109.834 -71 -153.501s-102.333 -65.5 -165 -65.5c-59.333 0 -112.333 22.333 -159 67s-70 95.334 -70 152.001
c0 7.33301 4 11.666 12 12.999z" />
    <glyph glyph-name="c290" unicode="&#x122;" 
 />
    <glyph glyph-name="c291" unicode="&#x123;" 
 />
    <glyph glyph-name="c292" unicode="&#x124;" 
 />
    <glyph glyph-name="c293" unicode="&#x125;" horiz-adv-x="1120" 
 />
    <glyph glyph-name="c294" unicode="&#x126;" 
 />
    <glyph glyph-name="c295" unicode="&#x127;" 
 />
    <glyph glyph-name="c296" unicode="&#x128;" 
 />
    <glyph glyph-name="c297" unicode="&#x129;" 
 />
    <glyph glyph-name="c298" unicode="&#x12a;" 
 />
    <glyph glyph-name="c299" unicode="&#x12b;" 
 />
    <glyph glyph-name="c300" unicode="&#x12c;" 
 />
    <glyph glyph-name="c301" unicode="&#x12d;" 
 />
    <glyph glyph-name="c302" unicode="&#x12e;" 
 />
    <glyph glyph-name="c303" unicode="&#x12f;" 
 />
    <glyph glyph-name="glyph230" unicode="&#x130;" horiz-adv-x="180" 
d="M78 15l0.000976562 987c0 10 4 15 12 15c7.33301 0 11.666 -5 12.999 -15v-987c0 -10 -4.33301 -15 -13 -15c-8 0 -12 5 -12 15zM90.001 1268c21.333 0 39.832 -7.83301 55.499 -23.5s23.5 -34.834 23.5 -57.501c0 -21.333 -7.66699 -39.666 -23 -54.999
s-33.666 -23 -54.999 -23c-22.667 0 -41.667 7.66699 -57 23s-23 34.333 -23 57c0 22 7.66699 40.667 23 56s34 23 56 23zM91 1243c-15.333 0 -28.333 -5.33301 -39 -16s-16 -23.667 -16 -39s5.33301 -28.333 16 -39s23.667 -16 39 -16c14 0 26.333 5.33301 37 16
s16 23 16 37c0 16 -5 29 -15 39s-22.667 16 -38 18z" />
    <glyph glyph-name="glyph212" unicode="&#x131;" horiz-adv-x="180" 
d="M78 15l0.000976562 987c0 10 4 15 12 15c7.33301 0 11.666 -5 12.999 -15v-987c0 -10 -4.33301 -15 -13 -15c-8 0 -12 5 -12 15z" />
    <glyph glyph-name="c306" unicode="&#x132;" 
 />
    <glyph glyph-name="c307" unicode="&#x133;" 
 />
    <glyph glyph-name="c308" unicode="&#x134;" 
 />
    <glyph glyph-name="c309" unicode="&#x135;" 
 />
    <glyph glyph-name="c310" unicode="&#x136;" 
 />
    <glyph glyph-name="c311" unicode="&#x137;" 
 />
    <glyph glyph-name="c312" unicode="&#x138;" 
 />
    <glyph glyph-name="c313" unicode="&#x139;" 
 />
    <glyph glyph-name="c314" unicode="&#x13a;" 
 />
    <glyph glyph-name="c315" unicode="&#x13b;" 
 />
    <glyph glyph-name="c316" unicode="&#x13c;" 
 />
    <glyph glyph-name="c317" unicode="&#x13d;" 
 />
    <glyph glyph-name="c318" unicode="&#x13e;" 
 />
    <glyph glyph-name="c319" unicode="&#x13f;" 
 />
    <glyph glyph-name="c320" unicode="&#x140;" 
 />
    <glyph glyph-name="glyph213" unicode="&#x141;" horiz-adv-x="191" 
d="M83 724l-70.998 -61.999l-11 -5c-8 0 -12 4 -12 12c0 3.33301 2 7 6 11l88 76v594c0 10 4 15 12 15c7.33301 0 11.666 -5 12.999 -15v-572l71 62l11 5c8 0 12 -4.33301 12 -13c-0.666992 -1.33301 -1.33398 -2.83301 -2.00098 -4.5s-2 -3.83398 -4 -6.50098l-88 -76v-730
c0 -10 -4.33301 -15 -13 -15c-8 0 -12 5 -12 15v709z" />
    <glyph glyph-name="glyph214" unicode="&#x142;" horiz-adv-x="191" 
d="M83 724l-70.998 -61.999l-11 -5c-8 0 -12 4 -12 12c0 3.33301 2 7 6 11l88 76v594c0 10 4 15 12 15c7.33301 0 11.666 -5 12.999 -15v-572l71 62l11 5c8 0 12 -4.33301 12 -13c-0.666992 -1.33301 -1.33398 -2.83301 -2.00098 -4.5s-2 -3.83398 -4 -6.50098l-88 -76v-730
c0 -10 -4.33301 -15 -13 -15c-8 0 -12 5 -12 15v709z" />
    <glyph glyph-name="c323" unicode="&#x143;" 
 />
    <glyph glyph-name="c324" unicode="&#x144;" 
 />
    <glyph glyph-name="c325" unicode="&#x145;" 
 />
    <glyph glyph-name="c326" unicode="&#x146;" 
 />
    <glyph glyph-name="c327" unicode="&#x147;" 
 />
    <glyph glyph-name="c328" unicode="&#x148;" 
 />
    <glyph glyph-name="c329" unicode="&#x149;" 
 />
    <glyph glyph-name="c330" unicode="&#x14a;" 
 />
    <glyph glyph-name="c331" unicode="&#x14b;" 
 />
    <glyph glyph-name="c332" unicode="&#x14c;" 
 />
    <glyph glyph-name="c333" unicode="&#x14d;" 
 />
    <glyph glyph-name="c334" unicode="&#x14e;" 
 />
    <glyph glyph-name="c335" unicode="&#x14f;" 
 />
    <glyph glyph-name="middot" unicode="&#x150;" horiz-adv-x="498" 
d="M249 635c31.333 0 58 -11 80 -33s33 -49 33 -81c0 -30 -11.167 -56 -33.5 -78s-48.5 -33 -78.5 -33s-56.333 11 -79 33s-34 48.667 -34 80c0 30.667 11 57 33 79s48.333 33 79 33zM250 610c-24.667 0 -45.498 -8.5 -62.498 -25.5s-25.5 -37.5 -25.5 -61.5
c0 -24.667 8.33301 -45.667 25 -63c18 -16.667 39 -25 63 -25c23.333 0 43.666 8.5 60.999 25.5s26 37.167 26 60.5c0 24 -8.33301 44.833 -25 62.5s-37.334 26.5 -62.001 26.5z" />
    <glyph glyph-name="c337" unicode="&#x151;" 
 />
    <glyph glyph-name="OE" unicode="&#x152;" horiz-adv-x="2152" 
d="M1080 405c-11.333 -64.667 -33.998 -124 -67.998 -178c-39.333 -62.667 -89.333 -115 -150 -157c-90.667 -62.667 -191.334 -94 -302.001 -94c-96 0 -185 23.667 -267 71s-146.833 112.333 -194.5 195s-71.5 171.334 -71.5 266.001c0 96 23.833 185 71.5 267
s112.667 146.833 195 194.5s171.166 71.5 266.499 71.5c125.333 0 237.333 -40 336 -120s160 -182 184 -306l3 16c8 50.667 29.833 104.167 65.5 160.5s81.5 105.5 137.5 147.5c93.333 68 198 102 314 102c104 0 198.833 -27.333 284.5 -82s151.167 -129 196.5 -223
c34 -70 51 -141 51 -213c0 -14.667 -8.33301 -22 -25 -22h-841c-10 0 -15 4.33301 -15 13c0 8 5 12 15 12h841c0 34 -3.66699 66.333 -11 97s-18.333 62 -33 94c-38 85.333 -95.667 154.666 -173 207.999c-86.667 60.667 -183 91 -289 91c-150.667 0 -276.667 -56 -378 -168
c-87.333 -97.333 -131 -210.333 -131 -339c0 -88.667 23 -172.667 69 -252s108.333 -141.833 187 -187.5s162.667 -68.5 252 -68.5c57.333 0 116.5 11 177.5 33s112.5 51.667 154.5 89c6 6 11 9 15 9c8 0 12 -4 12 -12c0 -6 -15 -20 -45 -42
c-93.333 -68 -198 -102 -314 -102c-86 0 -166.167 19 -240.5 57s-138.5 93.667 -192.5 167c-48 66 -77 134.333 -87 205zM564.002 1016c-152 0 -279 -55.999 -381 -167.999c-87.333 -96.667 -131 -210 -131 -340c0 -90.667 22.5 -174.834 67.5 -252.501
s107 -139.5 186 -185.5s163.833 -69 254.5 -69c91.333 0 176 22.5 254 67.5s139.833 107 185.5 186s68.5 160.5 68.5 244.5c0 153.333 -56.333 282 -169 386c-46.667 42.667 -97.667 75.167 -153 97.5s-116 33.5 -182 33.5z" />
    <glyph glyph-name="oe" unicode="&#x153;" horiz-adv-x="2152" 
d="M1080 405c-11.333 -64.667 -33.998 -124 -67.998 -178c-39.333 -62.667 -89.333 -115 -150 -157c-90.667 -62.667 -191.334 -94 -302.001 -94c-96 0 -185 23.667 -267 71s-146.833 112.333 -194.5 195s-71.5 171.334 -71.5 266.001c0 96 23.833 185 71.5 267
s112.667 146.833 195 194.5s171.166 71.5 266.499 71.5c125.333 0 237.333 -40 336 -120s160 -182 184 -306l3 16c8 50.667 29.833 104.167 65.5 160.5s81.5 105.5 137.5 147.5c93.333 68 198 102 314 102c104 0 198.833 -27.333 284.5 -82s151.167 -129 196.5 -223
c34 -70 51 -141 51 -213c0 -14.667 -8.33301 -22 -25 -22h-841c-10 0 -15 4.33301 -15 13c0 8 5 12 15 12h841c0 34 -3.66699 66.333 -11 97s-18.333 62 -33 94c-38 85.333 -95.667 154.666 -173 207.999c-86.667 60.667 -183 91 -289 91c-150.667 0 -276.667 -56 -378 -168
c-87.333 -97.333 -131 -210.333 -131 -339c0 -88.667 23 -172.667 69 -252s108.333 -141.833 187 -187.5s162.667 -68.5 252 -68.5c57.333 0 116.5 11 177.5 33s112.5 51.667 154.5 89c6 6 11 9 15 9c8 0 12 -4 12 -12c0 -6 -15 -20 -45 -42
c-93.333 -68 -198 -102 -314 -102c-86 0 -166.167 19 -240.5 57s-138.5 93.667 -192.5 167c-48 66 -77 134.333 -87 205zM564.002 1016c-152 0 -279 -55.999 -381 -167.999c-87.333 -96.667 -131 -210 -131 -340c0 -90.667 22.5 -174.834 67.5 -252.501
s107 -139.5 186 -185.5s163.833 -69 254.5 -69c91.333 0 176 22.5 254 67.5s139.833 107 185.5 186s68.5 160.5 68.5 244.5c0 153.333 -56.333 282 -169 386c-46.667 42.667 -97.667 75.167 -153 97.5s-116 33.5 -182 33.5z" />
    <glyph glyph-name="Scedilla" unicode="&#x15e;" horiz-adv-x="727" 
d="M364 -24c-52.667 0 -102.332 11.6699 -148.999 35.0029c-54 26 -99.167 66.167 -135.5 120.5s-54.5 109.166 -54.5 164.499c0 7.33301 4 11.666 12 12.999c8.66699 0 13 -7 13 -21c0 -40.667 13.667 -84 41 -130c21.333 -36.667 48.666 -67.667 81.999 -93
c56.667 -42.667 120.334 -64 191.001 -64c93.333 0 171.333 34.667 234 104c54 60 81 130 81 210c0 55.333 -13.833 107.166 -41.5 155.499s-66.167 87 -115.5 116s-99.333 43.5 -150 43.5h-4h-7c-7.33301 0 -11.666 4 -12.999 12c0 8.66699 6.33301 13 19 13
c58.667 0 114.667 -15.333 168 -46c44 -26 80.333 -59.667 109 -101c40 -58 60 -122.667 60 -194c0 -75.333 -23.167 -143.333 -69.5 -204s-106.166 -101.334 -179.499 -122.001c-2.66699 -0.666992 -12 -2.33398 -28 -5.00098s-28.667 -4.66699 -38 -6v-93
c29.333 -4 54.666 -18 75.999 -42c10 -11.333 17.667 -23.666 23 -36.999s8 -27.666 8 -42.999c0 -33.333 -13 -62.5 -39 -87.5s-56.667 -37.5 -92 -37.5c-30.667 0 -58.334 9.33301 -83.001 28c-16 13.333 -24.667 24.333 -26 33c0 7.33301 4 11 12 11
c3.33301 0 8.66602 -4 15.999 -12c20 -23.333 46.667 -35 80 -35c30.667 0 56.167 9.66699 76.5 29s30.5 43 30.5 71c0 24.667 -8 46 -24 64s-38.333 29.667 -67 35c-10.667 2 -16 9.33301 -16 22v93zM355.002 1016c-76 0 -140.331 -28.665 -192.998 -85.998
c-44 -48 -66 -105.333 -66 -172c0 -70 25.167 -130.667 75.5 -182s109.833 -77 178.5 -77c7.33301 0 11.666 -4 12.999 -12c0 -8 -5.66699 -12 -17 -12c-45.333 0 -89.333 12.333 -132 37c-36.667 21.333 -66.667 48.666 -90 81.999c-18 24.667 -31.333 50 -40 76
s-13 55.333 -13 88c0 78 28 144.667 84 200s122.667 83 200 83c50 0 97.167 -12.833 141.5 -38.5s79.166 -60.5 104.499 -104.5c23.333 -40.667 35 -77 35 -109c0 -6.66699 -3.66699 -10.334 -11 -11.001c-7.33301 0 -12 5.33301 -14 16c0 13.333 -2.5 27.333 -7.5 42
s-12.833 30.667 -23.5 48c-51.333 88 -126.333 132 -225 132z" />
    <glyph glyph-name="scedilla" unicode="&#x15f;" horiz-adv-x="727" 
d="M364 -24c-52.667 0 -102.332 11.6699 -148.999 35.0029c-54 26 -99.167 66.167 -135.5 120.5s-54.5 109.166 -54.5 164.499c0 7.33301 4 11.666 12 12.999c8.66699 0 13 -7 13 -21c0 -40.667 13.667 -84 41 -130c21.333 -36.667 48.666 -67.667 81.999 -93
c56.667 -42.667 120.334 -64 191.001 -64c93.333 0 171.333 34.667 234 104c54 60 81 130 81 210c0 55.333 -13.833 107.166 -41.5 155.499s-66.167 87 -115.5 116s-99.333 43.5 -150 43.5h-4h-7c-7.33301 0 -11.666 4 -12.999 12c0 8.66699 6.33301 13 19 13
c58.667 0 114.667 -15.333 168 -46c44 -26 80.333 -59.667 109 -101c40 -58 60 -122.667 60 -194c0 -75.333 -23.167 -143.333 -69.5 -204s-106.166 -101.334 -179.499 -122.001c-2.66699 -0.666992 -12 -2.33398 -28 -5.00098s-28.667 -4.66699 -38 -6v-93
c29.333 -4 54.666 -18 75.999 -42c10 -11.333 17.667 -23.666 23 -36.999s8 -27.666 8 -42.999c0 -33.333 -13 -62.5 -39 -87.5s-56.667 -37.5 -92 -37.5c-30.667 0 -58.334 9.33301 -83.001 28c-16 13.333 -24.667 24.333 -26 33c0 7.33301 4 11 12 11
c3.33301 0 8.66602 -4 15.999 -12c20 -23.333 46.667 -35 80 -35c30.667 0 56.167 9.66699 76.5 29s30.5 43 30.5 71c0 24.667 -8 46 -24 64s-38.333 29.667 -67 35c-10.667 2 -16 9.33301 -16 22v93zM355.002 1016c-76 0 -140.331 -28.665 -192.998 -85.998
c-44 -48 -66 -105.333 -66 -172c0 -70 25.167 -130.667 75.5 -182s109.833 -77 178.5 -77c7.33301 0 11.666 -4 12.999 -12c0 -8 -5.66699 -12 -17 -12c-45.333 0 -89.333 12.333 -132 37c-36.667 21.333 -66.667 48.666 -90 81.999c-18 24.667 -31.333 50 -40 76
s-13 55.333 -13 88c0 78 28 144.667 84 200s122.667 83 200 83c50 0 97.167 -12.833 141.5 -38.5s79.166 -60.5 104.499 -104.5c23.333 -40.667 35 -77 35 -109c0 -6.66699 -3.66699 -10.334 -11 -11.001c-7.33301 0 -12 5.33301 -14 16c0 13.333 -2.5 27.333 -7.5 42
s-12.833 30.667 -23.5 48c-51.333 88 -126.333 132 -225 132z" />
    <glyph glyph-name="Scaron" unicode="&#x160;" horiz-adv-x="727" 
d="M355 1016c-76 0 -140.331 -28.666 -192.998 -85.999c-44 -48 -66 -105.333 -66 -172c0 -70 25.167 -130.667 75.5 -182s109.833 -77 178.5 -77c7.33301 0 11.666 -4 12.999 -12c0 -8 -5.66699 -12 -17 -12c-45.333 0 -89.333 12.333 -132 37
c-36.667 20 -66.667 47.333 -90 82c-18 24.667 -31.333 50 -40 76s-13 55.333 -13 88c0 78 28 144.667 84 200s122.667 83 200 83c50 0 97.167 -12.833 141.5 -38.5s79.166 -60.5 104.499 -104.5c23.333 -40.667 35 -77 35 -109c0 -6.66699 -3.66699 -10.334 -11 -11.001
c-7.33301 0 -12 5.33301 -14 16c0 13.333 -2.5 27.333 -7.5 42s-12.833 30.667 -23.5 48c-51.333 88 -126.333 132 -225 132zM372.002 630.001l-4.00195 0.00292969h-8c-7.33301 0 -11.666 4 -12.999 12c0 8.66699 6.33301 13 19 13c58 0 113.667 -15.333 167 -46
c44 -26 80.667 -59.667 110 -101c40 -58 60 -122.667 60 -194c0 -51.333 -11.833 -100.833 -35.5 -148.5s-56.834 -88.167 -99.501 -121.5c-60.667 -45.333 -128.667 -68 -204 -68c-59.333 0 -113.666 13.833 -162.999 41.5s-91 68.167 -125 121.5s-51 105.666 -51 156.999
c0 7.33301 4 11.666 12 12.999c8.66699 0 13 -7 13 -21c0 -40.667 14 -84.667 42 -132s66.333 -85 115 -113s102.334 -42 161.001 -42c90 0 166.333 34.667 229 104c54 60 81 130 81 210c0 55.333 -13.833 107.166 -41.5 155.499s-66.167 87 -115.5 116s-99 43.5 -149 43.5z
M364 1178l203 204.002c4 4 8 6 12 6c8 0 12 -4 12 -12c-0.666992 -1.33301 -1.33398 -2.83301 -2.00098 -4.5s-2 -3.83398 -4 -6.50098l-204 -204c-6 -6 -11.667 -9 -17 -9c-6 0 -12 3 -18 9l-204 204l-5 11c0 8 4 12 12 12
c1.33301 -0.666992 2.83301 -1.33398 4.5 -2.00098s3.83398 -2 6.50098 -4z" />
    <glyph glyph-name="scaron" unicode="&#x161;" horiz-adv-x="727" 
d="M355 1016c-76 0 -140.331 -28.666 -192.998 -85.999c-44 -48 -66 -105.333 -66 -172c0 -70 25.167 -130.667 75.5 -182s109.833 -77 178.5 -77c7.33301 0 11.666 -4 12.999 -12c0 -8 -5.66699 -12 -17 -12c-45.333 0 -89.333 12.333 -132 37
c-36.667 20 -66.667 47.333 -90 82c-18 24.667 -31.333 50 -40 76s-13 55.333 -13 88c0 78 28 144.667 84 200s122.667 83 200 83c50 0 97.167 -12.833 141.5 -38.5s79.166 -60.5 104.499 -104.5c23.333 -40.667 35 -77 35 -109c0 -6.66699 -3.66699 -10.334 -11 -11.001
c-7.33301 0 -12 5.33301 -14 16c0 13.333 -2.5 27.333 -7.5 42s-12.833 30.667 -23.5 48c-51.333 88 -126.333 132 -225 132zM372.002 630.001l-4.00195 0.00292969h-8c-7.33301 0 -11.666 4 -12.999 12c0 8.66699 6.33301 13 19 13c58 0 113.667 -15.333 167 -46
c44 -26 80.667 -59.667 110 -101c40 -58 60 -122.667 60 -194c0 -51.333 -11.833 -100.833 -35.5 -148.5s-56.834 -88.167 -99.501 -121.5c-60.667 -45.333 -128.667 -68 -204 -68c-59.333 0 -113.666 13.833 -162.999 41.5s-91 68.167 -125 121.5s-51 105.666 -51 156.999
c0 7.33301 4 11.666 12 12.999c8.66699 0 13 -7 13 -21c0 -40.667 14 -84.667 42 -132s66.333 -85 115 -113s102.334 -42 161.001 -42c90 0 166.333 34.667 229 104c54 60 81 130 81 210c0 55.333 -13.833 107.166 -41.5 155.499s-66.167 87 -115.5 116s-99 43.5 -149 43.5z
M364 1178l203 204.002c4 4 8 6 12 6c8 0 12 -4 12 -12c-0.666992 -1.33301 -1.33398 -2.83301 -2.00098 -4.5s-2 -3.83398 -4 -6.50098l-204 -204c-6 -6 -11.667 -9 -17 -9c-6 0 -12 3 -18 9l-204 204l-5 11c0 8 4 12 12 12
c1.33301 -0.666992 2.83301 -1.33398 4.5 -2.00098s3.83398 -2 6.50098 -4z" />
    <glyph glyph-name="Ydieresis" unicode="&#x178;" horiz-adv-x="806" 
d="M722 147l3.99902 80.001l-1 -4l-2 -7c-5.33301 -17.333 -10.5 -32.166 -15.5 -44.499s-10.5 -23.5 -16.5 -33.5c-28.667 -49.333 -69.667 -89 -123 -119c-26 -14 -53 -24.667 -81 -32s-57.333 -11 -88 -11c-58 0 -111.833 13.833 -161.5 41.5s-90.5 67.167 -122.5 118.5
c-20 30.667 -34.333 66.667 -43 108s-13 98 -13 170v588c0 10 4.33301 15 13 15c8 0 12 -5 12 -15v-558c0 -73.333 2 -128 6 -164s12.667 -68 26 -96c24 -54.667 62.167 -98.834 114.5 -132.501s108.833 -50.5 169.5 -50.5c65.333 0 124.833 18 178.5 54
s92.167 84 115.5 144c10.667 28.667 18 58.667 22 90s6 82.666 6 153.999v559c0 10 4.33301 15 13 15c8 0 12 -5 12 -15v-1335c0 -10 -4 -15 -12 -15c-7.33301 0 -11.666 5 -12.999 15v480zM574.999 1214l-0.000976562 93c0 8 4 12.667 12 14
c6.66699 0 10.334 -4.66699 11.001 -14v-93c0 -10 -3.66699 -15 -11 -15c-8 0 -12 5 -12 15zM208.998 1214l0.000976562 92c0 10 4 15 12 15c7.33301 0 11.666 -5 12.999 -15v-92c0 -10 -4.33301 -15 -13 -15c-8 0 -12 5 -12 15z" />
    <glyph glyph-name="Zcaron" unicode="&#x17d;" horiz-adv-x="696" 
d="M621 992h-566.001c-10 0 -15 4 -15 12c0 7.33301 5 11.666 15 12.999h575c14 0 21 -6 21 -18c-1.33301 -6 -2.66602 -10 -3.99902 -12l-590 -962h610c10 0 15 -4 15 -12c0 -7.33301 -5 -11.666 -15 -12.999h-619c-14 0 -21 5.66699 -21 17c0 4.66699 1.66699 9 5 13z
M347.999 1178l204.002 205.001c2 2 5.33301 3.66699 10 5c7.33301 0 11.666 -4 12.999 -12c-0.666992 -1.33301 -1.33398 -2.83301 -2.00098 -4.5s-2 -3.83398 -4 -6.50098l-203 -204c-6 -6 -12 -9 -18 -9c-4.66699 0 -10.667 3 -18 9l-203 204c-4 4 -6 7.66699 -6 11
c0 8 4 12 12 12c4 0 7.66699 -1.66699 11 -5z" />
    <glyph glyph-name="zcaron" unicode="&#x17e;" horiz-adv-x="696" 
d="M621 992h-566.001c-10 0 -15 4 -15 12c0 7.33301 5 11.666 15 12.999h575c14 0 21 -6 21 -18c-1.33301 -6 -2.66602 -10 -3.99902 -12l-590 -962h610c10 0 15 -4 15 -12c0 -7.33301 -5 -11.666 -15 -12.999h-619c-14 0 -21 5.66699 -21 17c0 4.66699 1.66699 9 5 13z
M347.999 1178l204.002 205.001c2 2 5.33301 3.66699 10 5c7.33301 0 11.666 -4 12.999 -12c-0.666992 -1.33301 -1.33398 -2.83301 -2.00098 -4.5s-2 -3.83398 -4 -6.50098l-203 -204c-6 -6 -12 -9 -18 -9c-4.66699 0 -10.667 3 -18 9l-203 204c-4 4 -6 7.66699 -6 11
c0 8 4 12 12 12c4 0 7.66699 -1.66699 11 -5z" />
    <glyph glyph-name="florin" unicode="&#x192;" horiz-adv-x="643" 
d="M368 726l49.001 188.999c17.333 76.667 46.333 135.667 87 177s93 62 157 62h4c7.33301 0 11.666 -4 12.999 -12c0 -8 -4.66699 -12 -14 -12c-57.333 0 -104.333 -18 -141 -54s-63.334 -89 -80.001 -159l-49 -191h159c8 0 12 -3.33301 12 -10c0 -10 -6.66699 -15 -20 -15
h-158l-207 -801c-20 -77.333 -53.667 -132.666 -101 -165.999c-40.667 -28.667 -84.334 -43 -131.001 -43c-9.33301 0 -14.666 4 -15.999 12c0 8.66699 6.33301 13 19 13c50.667 0 93.334 16.167 128.001 48.5s60.667 79.833 78 142.5l205 794h-155c-8 0 -12 3.33301 -12 10
c0 10 6.33301 15 19 15h154z" />
    <glyph glyph-name="pi" unicode="&#x3c0;" horiz-adv-x="1024" 
d="M198 954l-145.001 -0.000976562c-10 0 -15 4.33301 -15 13c0 8 5 12 15 12h918c10 0 15 -4 15 -12c0 -7.33301 -5 -11.666 -15 -12.999h-143v-939c0 -10 -4 -15 -12 -15c-7.33301 0 -11.666 5 -12.999 15v939h-580v-939c0 -10 -4.33301 -15 -13 -15c-8 0 -12 5 -12 15
v939z" />
    <glyph glyph-name="endash" unicode="&#x2013;" horiz-adv-x="824" 
d="M741 546l-658 -0.000976562c-10 0 -15 4.33301 -15 13c0 8 5 12 15 12h658c10 0 15 -4 15 -12c0 -7.33301 -5 -11.666 -15 -12.999z" />
    <glyph glyph-name="emdash" unicode="&#x2014;" horiz-adv-x="1184" 
d="M1169 546l-1154 -0.000976562c-10 0 -15 4.33301 -15 13c0 8 5 12 15 12h1154c10 0 15 -4 15 -12c0 -7.33301 -5 -11.666 -15 -12.999z" />
    <glyph glyph-name="quoteleft" unicode="&#x2018;" horiz-adv-x="395" 
d="M97 1352l221 -311l4 -10c0 -8 -4 -12 -12 -12c-4.66699 0 -8.66699 2.66699 -12 8l-221 311l-4 10c0 8 4 12 12 12c4.66699 0 8.66699 -2.66699 12 -8z" />
    <glyph glyph-name="quoteright" unicode="&#x2019;" horiz-adv-x="393" 
d="M317 1338l-221.001 -312.001c-2.66699 -3.33301 -6.66699 -5.66602 -12 -6.99902c-8 0 -12 4 -12 12l4 10l221 311c2.66699 3.33301 6.66699 5.66602 12 6.99902c8 0 12 -3.66699 12 -11c-1.33301 -5.33301 -2.66602 -8.66602 -3.99902 -9.99902z" />
    <glyph glyph-name="quotesinglbase" unicode="&#x201a;" horiz-adv-x="394" 
d="M317 147l-221.001 -311c-3.33301 -4 -7.33301 -6.66699 -12 -8c-8 0 -12 4 -12 12l4 10l221 312c3.33301 3.33301 7.33301 5.66602 12 6.99902c8 0 12 -4 12 -12c-1.33301 -5.33301 -2.66602 -8.66602 -3.99902 -9.99902z" />
    <glyph glyph-name="quotedblleft" unicode="&#x201c;" horiz-adv-x="530" 
d="M97 1352l221 -311l4 -10c0 -8 -4 -12 -12 -12c-4.66699 0 -8.66699 2.66699 -12 8l-221 311l-4 10c0 8 4 12 12 12c4.66699 0 8.66699 -2.66699 12 -8zM232 1352l221 -311l4 -10c0 -8 -4 -12 -12 -12c-4.66699 0 -8.66699 2.66699 -12 8l-221 311l-4 10c0 8 4 12 12 12
c4.66699 0 8.66699 -2.66699 12 -8z" />
    <glyph glyph-name="quotedblright" unicode="&#x201d;" horiz-adv-x="530" 
d="M318 1338l-221.001 -311.001c-3.33301 -4 -7.33301 -6.66699 -12 -8c-8 0 -12 4 -12 12l4 10l221 311c3.33301 4 7.33301 6.66699 12 8c8 0 12 -4 12 -12c-1.33301 -5.33301 -2.66602 -8.66602 -3.99902 -9.99902zM452.999 1338l-221.001 -311.001
c-3.33301 -4 -7.33301 -6.66699 -12 -8c-8 0 -12 4 -12 12l4 10l221 311c3.33301 4 7.33301 6.66699 12 8c8 0 12 -4 12 -12c-1.33301 -5.33301 -2.66602 -8.66602 -3.99902 -9.99902z" />
    <glyph glyph-name="quotedblbase" unicode="&#x201e;" horiz-adv-x="530" 
d="M318 147l-221.001 -312.002c-2.66699 -3.33301 -6.66699 -5.66602 -12 -6.99902c-8 0 -12 4 -12 12l4 10l221 311c3.33301 4 7.33301 6.66699 12 8c8 0 12 -4 12 -12c-1.33301 -5.33301 -2.66602 -8.66602 -3.99902 -9.99902zM452.999 146.998l-221.001 -312.002
c-3.33301 -3.33301 -7.33301 -5.66602 -12 -6.99902c-8 0 -12 4 -12 12l4 10l221 311c3.33301 4 7.33301 6.66699 12 8c8 0 12 -4 12 -12c-1.33301 -5.33301 -2.66602 -8.66602 -3.99902 -9.99902z" />
    <glyph glyph-name="dagger" unicode="&#x2020;" horiz-adv-x="609" 
d="M292 758l-254.999 0.000976562c-10 0 -15 4 -15 12c0 7.33301 5 11.666 15 12.999h255v219c0 10 4 15 12 15c7.33301 0 11.666 -5 12.999 -15v-219h255c10 0 15 -4.33301 15 -13c0 -8 -5 -12 -15 -12h-255v-1094c0 -10 -4.33301 -15 -13 -15c-8 0 -12 5 -12 15v1094z" />
    <glyph glyph-name="daggerdbl" unicode="&#x2021;" horiz-adv-x="609" 
d="M292 758l-254.999 0.00195312c-10 0 -15 4 -15 12c0 7.33301 5 11.666 15 12.999h255v219c0 10 4 15 12 15c7.33301 0 11.666 -5 12.999 -15v-219h255c10 0 15 -4.33301 15 -13c0 -8 -5 -12 -15 -12h-255v-850h255c10 0 15 -4.33301 15 -13c0 -8 -5 -12 -15 -12h-255
v-219c0 -10 -4.33301 -15 -13 -15c-8 0 -12 5 -12 15v219h-255c-10 0 -15 4 -15 12c0 7.33301 5 11.666 15 12.999h255v850z" />
    <glyph glyph-name="bullet" unicode="&#x2022;" horiz-adv-x="1365" 
d="M688 978c82 0 151.334 -31.334 208.001 -94.001c48.667 -54.667 73 -118 73 -190c0 -83.333 -31 -153.666 -93 -210.999c-54.667 -48.667 -118.334 -73 -191.001 -73c-64.667 0 -121.667 19.333 -171 58c-75.333 57.333 -113 133 -113 227c0 64 19.667 121.667 59 173
c57.333 73.333 133.333 110 228 110z" />
    <glyph glyph-name="ellipsis" unicode="&#x2026;" horiz-adv-x="1311" 
d="M220 164c22 0 41 -8.16699 57 -24.5s24 -35.5 24 -57.5c0 -21.333 -8 -40.333 -24 -57s-35.333 -25 -58 -25c-21.333 0 -40.333 8 -57 24s-25 35.667 -25 59c0 22 8 41 24 57s35.667 24 59 24zM219 139c-16 0 -29.668 -5.66699 -41.001 -17
c-5.33301 -5.33301 -9.33301 -11 -12 -17s-4 -13.667 -4 -23c0 -16 5.83301 -29.5 17.5 -40.5s24.834 -16.5 39.501 -16.5c16 0 29.5 5.5 40.5 16.5s16.5 24.5 16.5 40.5s-5.66699 29.333 -17 40c-10 11.333 -23.333 17 -40 17zM656.999 164c22 0 41 -8.16699 57 -24.5
s24 -35.5 24 -57.5c0 -21.333 -8 -40.333 -24 -57s-35.333 -25 -58 -25c-21.333 0 -40.333 8 -57 24s-25 35.667 -25 59c0 22 8 41 24 57s35.667 24 59 24zM655.999 139c-16 0 -29.667 -5.66699 -41 -17c-5.33301 -5.33301 -9.33301 -11 -12 -17s-4 -13.667 -4 -23
c0 -16 5.33301 -29.667 16 -41c12 -10.667 25.667 -16 41 -16c16 0 29.5 5.5 40.5 16.5s16.5 24.5 16.5 40.5s-5.66699 29.333 -17 40c-10 11.333 -23.333 17 -40 17zM1094 164c22 0 41 -8.16699 57 -24.5s24 -35.5 24 -57.5c0 -21.333 -8 -40.333 -24 -57
s-35.333 -25 -58 -25c-21.333 0 -40.333 8 -57 24s-25 35.667 -25 59c0 22 8 41 24 57s35.667 24 59 24zM1093 139c-16 0 -29.667 -5.66699 -41 -17c-5.33301 -5.33301 -9.33301 -11 -12 -17s-4 -13.667 -4 -23c0 -16 5.33301 -29.667 16 -41c12 -10.667 25.667 -16 41 -16
c16 0 29.5 5.5 40.5 16.5s16.5 24.5 16.5 40.5s-5.66699 29.333 -17 40c-10 11.333 -23.333 17 -40 17z" />
    <glyph glyph-name="perthousand" unicode="&#x2030;" horiz-adv-x="1727" 
d="M890 1016l-616 -1024c-2.66699 -4 -6.66699 -6.66699 -12 -8c-8 0 -12 4 -12 12l3 9l616 1024c2 4 6 6.66699 12 8c8 0 12 -4 12 -12zM295 1041c76.667 0 142 -29.334 196 -88.001c45.333 -50.667 68 -111.667 68 -183c0 -76 -29.333 -140.333 -88 -193
c-50 -46 -109.333 -69 -178 -69c-78 0 -144 29.333 -198 88c-45.333 50.667 -68 110.334 -68 179.001c0 77.333 29.333 143 88 197c50 46 110 69 180 69zM295 1016c-72 0 -132.333 -26.666 -181 -79.999c-41.333 -45.333 -62 -99.333 -62 -162
c0 -70.667 26.667 -130.334 80 -179.001c45.333 -41.333 99 -62 161 -62c72 0 131.667 26.667 179 80c41.333 46.667 62 99 62 157c0 74 -26.667 135.333 -80 184c-44.667 41.333 -97.667 62 -159 62zM848 509c76.667 0 142 -29.334 196 -88.001
c45.333 -50.667 68 -111.667 68 -183c0 -75.333 -29.333 -140 -88 -194c-50.667 -45.333 -110 -68 -178 -68c-78 0 -144 29.333 -198 88c-45.333 50.667 -68 110.334 -68 179.001c0 77.333 29.333 143 88 197c50 46 110 69 180 69zM848 483.999
c-72 0 -132.334 -26.667 -181.001 -80c-41.333 -46.667 -62 -100.667 -62 -162c0 -70.667 26.667 -130.334 80 -179.001c45.333 -41.333 99 -62 161 -62c70.667 0 130.334 26.667 179.001 80c41.333 46.667 62 99.334 62 158.001c0 72.667 -26.667 133.667 -80 183
c-44.667 41.333 -97.667 62 -159 62zM1435 508.999c76.667 0 142 -29.334 196 -88.001c45.333 -50.667 68 -111.667 68 -183c0 -75.333 -29.333 -140 -88 -194c-50.667 -45.333 -110 -68 -178 -68c-78 0 -144 29.333 -198 88c-45.333 50.667 -68 110.334 -68 179.001
c0 77.333 29.333 143 88 197c50 46 110 69 180 69zM1435 483.998c-72 0 -132.334 -26.667 -181.001 -80c-41.333 -46.667 -62 -100.667 -62 -162c0 -70.667 26.667 -130.334 80 -179.001c45.333 -41.333 99 -62 161 -62c70.667 0 130.334 26.667 179.001 80
c41.333 46.667 62 99.334 62 158.001c0 73.333 -26.667 134.333 -80 183c-44.667 41.333 -97.667 62 -159 62z" />
    <glyph glyph-name="guilsinglleft" unicode="&#x2039;" horiz-adv-x="363" 
d="M97 509l190 -305l3 -10c0 -7.33301 -4 -11 -12 -11c-4.66699 0 -8.66699 2.66699 -12 8l-189 304l-5 14c0 4.66699 1.66699 9.66699 5 15l188 304c3.33301 6 7.33301 9 12 9c8 0 12 -4 12 -12l-3 -9z" />
    <glyph glyph-name="guilsinglright" unicode="&#x203a;" horiz-adv-x="363" 
d="M266 509l-189 307l-3 9c0 8 4.33301 12 13 12c3.33301 0 7 -3 11 -9l188 -304l5 -15c0 -4 -1.66699 -8.66699 -5 -14l-189 -304c-2.66699 -4 -6.66699 -6.66699 -12 -8c-8 0 -12 3.66699 -12 11l3 10z" />
    <glyph glyph-name="franc" unicode="&#x20a3;" horiz-adv-x="948" 
d="M165 993h-143c-10 0 -15 4 -15 12s5 12 15 12h143v168c0 10 4 15 12 15s12 -5 12 -15v-168h675c10 0 15 -4 15 -12s-5 -12 -15 -12h-675v-466h254c8 0 12.667 -4 14 -12c0 -8 -4.66699 -12 -14 -12h-254v-488c0 -10 -4 -15 -12 -15s-12 5 -12 15v978zM561 354
c8 42 17.001 74.001 27.001 96.001c22.667 55.333 57.667 105.333 105 150s99.333 77 156 97c32.667 11.333 55.667 17 69 17c6 0 9.33301 -3.66699 10 -11c0 -8 -6.66699 -13 -20 -15c-70 -12.667 -134.333 -46.334 -193 -101.001s-100 -119.667 -124 -195
c-17.333 -57.333 -26 -136.333 -26 -237v-140c0 -10 -4.33301 -15 -13 -15c-8 0 -12 5 -12 15v685c0 10 4 15 12 15c7.33301 0 11.666 -5 12.999 -15v-266z" />
    <glyph glyph-name="trademark" unicode="&#x2122;" horiz-adv-x="1087" 
d="M100 992l-78.001 -0.000976562c-10 0 -15 4.33301 -15 13c0 8 5 12 15 12h78v92c0 10 4.33301 15 13 15c8 0 12 -5 12 -15v-92h238c10 0 15 -4 15 -12c0 -7.33301 -5 -11.666 -15 -12.999h-238v-571c0 -10 -4 -15 -12 -15c-7.33301 0 -11.666 5 -12.999 15v571z
M673.999 929.999c-24 -36 -36.001 -87.6699 -36.001 -155.003v-354c0 -10 -4.33301 -15 -13 -15c-8 0 -12 5 -12 15v353c0 71.333 15 129.666 45 174.999c-37.333 38 -80.333 57 -129 57c-32 0 -61.833 -7.66699 -89.5 -23s-49.5 -36.666 -65.5 -63.999
c-19.333 -33.333 -29 -81.333 -29 -144v-354c0 -10 -4.33301 -15 -13 -15c-8 0 -12 5 -12 15v345c0 74 10.333 128.667 31 164c18 30.667 42.833 55.167 74.5 73.5s65.5 27.5 101.5 27.5c56 0 105 -21 147 -63c41.333 42 90.333 63 147 63c36 0 70.167 -9 102.5 -27
s57.166 -42.667 74.499 -74c10 -17.333 17.667 -39.666 23 -66.999s8 -59.666 8 -96.999v-345c0 -10 -4 -15 -12 -15c-7.33301 0 -11.666 5 -12.999 15v354c0 63.333 -9.66699 111.333 -29 144c-15.333 26.667 -37 47.834 -65 63.501s-58 23.5 -90 23.5
c-47.333 0 -90.666 -19 -129.999 -57c30 -44.667 45 -99.667 45 -165v-363c0 -10 -4.33301 -15 -13 -15c-8 0 -12 5 -12 15v342c0 75.333 -12 131 -36 167z" />
    <glyph glyph-name="Omega" unicode="&#x2126;" horiz-adv-x="1365" 
d="M507 37c-93.333 51.333 -175.001 114.667 -245.001 190c-136 147.333 -204 316.666 -204 507.999c0 190.667 61.333 349.667 184 477c119.333 124 266.333 186 441 186c174 0 321 -62 441 -186c61.333 -64.667 107.333 -136.5 138 -215.5s46 -166.5 46 -262.5
c0 -206.667 -81.667 -389.667 -245 -549c-55.333 -53.333 -123.333 -102.666 -204 -147.999h427c14.667 0 22 -6.33301 22 -19c0 -12 -7.33301 -18 -22 -18h-473c-13.333 0 -21 6 -23 18v5c0 10 6.33301 18 19 24c88 48 165.667 104.667 233 170
c151.333 148 227 321 227 519c0 139.333 -39 265.666 -117 378.999c-54.667 80.667 -122.167 141.834 -202.5 183.501s-168.5 62.5 -264.5 62.5c-169.333 0 -309.666 -61.167 -420.999 -183.5s-167 -269.5 -167 -441.5c0 -140 40 -269.667 120 -389
s193.667 -219.333 341 -300c12 -6 18 -14 18 -24v-5c0 -12 -7.66699 -18 -23 -18h-472c-15.333 0 -23 6 -23 18c0 12.667 7.66699 19 23 19h426z" />
    <glyph glyph-name="partialdiff" unicode="&#x2202;" horiz-adv-x="1025" 
d="M871 690l-2.99707 13.001c-40.667 171.333 -114.5 313 -221.5 425s-235.167 181 -384.5 207c-18.667 3.33301 -30.334 6.16602 -35.001 8.49902s-7 7.83301 -7 16.5c0 13.333 6.66699 20 20 20s41.666 -5.83301 84.999 -17.5s78.666 -23.167 105.999 -34.5
c202 -86 346 -245 432 -477c48.667 -130.667 73 -261.667 73 -393c0 -98.667 -15.333 -179 -46 -241c-28 -56.667 -65.333 -105 -112 -145c-78 -66 -166 -99 -264 -99c-107.333 0 -202 39.667 -284 119c-94 91.333 -141 205 -141 341c0 132 43.667 243 131 333
c82 86 183.667 129 305 129c154.667 0 270 -68.333 346 -205zM533.003 858.001c-86 0 -163.667 -24.334 -233 -73.001c-32 -22 -60.333 -50.667 -85 -86c-56.667 -80.667 -85 -170 -85 -268c0 -66 14 -129 42 -189s68 -110.667 120 -152c67.333 -53.333 142.333 -80 225 -80
c103.333 0 192.333 39.833 267 119.5s112 184.834 112 315.501c0 109.333 -26 199 -78 269c-72.667 96 -167.667 144 -285 144z" />
    </font>
</defs>
</svg>
