<?xml version="1.0" standalone="no"?>
<!DOCTYPE svg PUBLIC "-//W3C//DTD SVG 1.1//EN" "http://www.w3.org/Graphics/SVG/1.1/DTD/svg11.dtd" >
<svg>
<metadata>
Created by FontForge 20090914 at Sat Oct 10 06:39:49 2015
 By www-data
&#194;&#169; Virtue Creative. 2012. All Rights Reserved
</metadata>
<defs>
<font id="StructrRegular" horiz-adv-x="1014" >
  <font-face 
    font-family="Structr Regular"
    font-weight="400"
    font-stretch="normal"
    units-per-em="2048"
    panose-1="2 0 5 0 0 0 0 0 0 0"
    ascent="1638"
    descent="-410"
    x-height="869"
    cap-height="1434"
    bbox="-285 -467.002 2476 1776"
    underline-thickness="150"
    underline-position="-142"
    unicode-range="U+0020-U+F002"
  />
<missing-glyph horiz-adv-x="1024" 
d="M872 253c-1.33301 34 -17.333 67.668 -48 101.001c-61.333 66.667 -165.333 100 -312 100c-153.333 0 -260.666 -32 -321.999 -96c-32 -32.667 -48 -66.667 -48 -102v-19c0 -11.333 -6.66699 -17 -20 -17c-14 0 -21 5.66699 -21 17v19c0 40 17.667 80.333 53 121
c69.333 78.667 188.666 118 357.999 118c166 0 282.333 -39 349 -117c34.667 -40.667 52 -82.334 52 -125.001v-16c0 -11.333 -6.66699 -17 -20 -17c-14 0 -21 5.66699 -21 17v16zM216 696.001c-14 0 -21 7.33301 -21 22s7 22 21 22h103c10.667 0 16 -7.33301 16 -22
s-5.33301 -22 -16 -22h-103zM677 697.001c-14 0 -21 7.33301 -21 22c0 14 7 21 21 21h103c10 0 15 -7 15 -21c0 -14.667 -5 -22 -15 -22h-103z" />
    <glyph glyph-name=".notdef" horiz-adv-x="1024" 
d="M872 253c-1.33301 34 -17.333 67.668 -48 101.001c-61.333 66.667 -165.333 100 -312 100c-153.333 0 -260.666 -32 -321.999 -96c-32 -32.667 -48 -66.667 -48 -102v-19c0 -11.333 -6.66699 -17 -20 -17c-14 0 -21 5.66699 -21 17v19c0 40 17.667 80.333 53 121
c69.333 78.667 188.666 118 357.999 118c166 0 282.333 -39 349 -117c34.667 -40.667 52 -82.334 52 -125.001v-16c0 -11.333 -6.66699 -17 -20 -17c-14 0 -21 5.66699 -21 17v16zM216 696.001c-14 0 -21 7.33301 -21 22s7 22 21 22h103c10.667 0 16 -7.33301 16 -22
s-5.33301 -22 -16 -22h-103zM677 697.001c-14 0 -21 7.33301 -21 22c0 14 7 21 21 21h103c10 0 15 -7 15 -21c0 -14.667 -5 -22 -15 -22h-103z" />
    <glyph glyph-name="space" unicode=" " horiz-adv-x="508" 
 />
    <glyph glyph-name="space" unicode="&#xa0;" horiz-adv-x="508" 
 />
    <glyph glyph-name="exclam" unicode="!" horiz-adv-x="247" 
d="M106 115c0 10 6.33301 15 19 15s19 -5 19 -15v-96c0 -12.667 -6.33301 -19 -19 -19s-19 6.33301 -19 19v96zM144 477c0 -13.333 -6.33301 -20 -19 -20s-19 6.66699 -19 20v945c0 10 6.33301 15 19 15s19 -5 19 -15v-945z" />
    <glyph glyph-name="quotedbl" unicode="&#x22;" horiz-adv-x="404" 
d="M136 1341c0 -13.333 -7 -20 -21 -20c-13.333 0 -20 6.66699 -20 20v120c0 11.333 6.66699 17 20 17c14 0 21 -5.66699 21 -17v-120zM294 1341c0 -13.333 -7 -20 -21 -20c-13.333 0 -20 6.66699 -20 20v120c0 11.333 6.66699 17 20 17c14 0 21 -5.66699 21 -17v-120z" />
    <glyph glyph-name="numbersign" unicode="#" horiz-adv-x="1764" 
d="M692 970l-196 -563h563l192 563h-559zM1631 1011c13.333 0 20.6689 -6.66602 22.002 -19.999v-5c0 -10.667 -5.66699 -16 -17 -16h-345l-192 -563h311c13.333 0 21 -6.66699 23 -20v-4c0 -11.333 -6 -17 -18 -17h-334l-120 -359c-2.66699 -8 -8.33398 -12 -17.001 -12
l-9 2c-4.66699 2 -8.33398 6 -11.001 12c-2 3.33301 -3 6.66602 -3 9.99902c0 2 0.333008 3.66699 1 5l119 342h-564l-119 -359c-2.66699 -8 -8.33398 -12 -17.001 -12c-8.66699 2.66699 -15 7.33398 -19 14.001c-2.66699 3.33301 -4 6.66602 -4 9.99902
c0 2 0.333008 3.66699 1 5l118 342h-371c-14 0 -21.667 7 -23 21v5c0 10 5.66699 15 17 15h396l192 563h-361c-14 0 -22 7 -24 21v3c0 11.333 6.33301 17 19 17h384l134 400c2 8 7.66699 12 17 12c8.66699 -2.66699 15 -7.33398 19 -14.001c2.66699 -4 4 -7.66699 4 -11
c0 -1.33301 -0.333008 -2.66602 -1 -3.99902l-132 -383h563l133 400c2.66699 8 8.33398 12 17.001 12c8.66699 -2.66699 15 -7.33398 19 -14.001c3.33301 -4 5 -7.66699 5 -11c0 -1.33301 -0.333008 -2.66602 -1 -3.99902l-133 -383h321z" />
    <glyph glyph-name="dollar" unicode="$" 
d="M423 1395c-96.667 0 -169.999 -25.999 -219.999 -77.999c-46.667 -48.667 -70 -110 -70 -184l-1 -158c0 -2.66699 0.333008 -9.33398 1 -20.001c1.33301 -16 3.66602 -31.333 6.99902 -46c11.333 -48.667 32.333 -89 63 -121c50 -52 123.333 -78 220 -78h73v685h-73z
M596.001 12.001c98.667 0 173 26.666 223 79.999c45.333 47.333 68 108 68 182v134c-6.66699 82.667 -30 144.334 -70 185.001c-50 52.667 -123.667 79 -221 79h-62v-660h62zM626.001 1433c106.667 -6 185.667 -35.667 237 -89c48 -49.333 72 -111.666 72 -186.999v-12
c-0.666992 -12.667 -7 -19 -19 -19c-12.667 0.666992 -19 7.33398 -19 20.001v12c0 64.667 -20.333 118 -61 160c-50 51.333 -126.667 77 -230 77h-72v-685h82c101.333 -6.66699 177.666 -37 228.999 -91c52.667 -55.333 79 -120 79 -194v-149
c0.666992 -6.66699 1 -13.334 1 -20.001c0 -72 -26.333 -135.333 -79 -190c-57.333 -60.667 -140.666 -91 -249.999 -91h-62v-114c0 -12.667 -6.33301 -19 -19 -19s-19 6.33301 -19 19v114l-103 -1c-114.667 5.33301 -197 41 -247 107
c-34.667 45.333 -52 102.666 -52 171.999c0 10.667 6.33301 16 19 16s19 -5.33301 19 -16c0 -160.667 93.667 -241 281 -241h83v660h-93c-100 6.66699 -176 36.667 -228 90c-53.333 56 -80 123.667 -80 203v180c0 76 26.667 142 80 198c58 60 140.667 90 248 90h73v92
c0 9.33301 6.33301 14 19 14s19 -4.66699 19 -14v-92h92z" />
    <glyph glyph-name="percent" unicode="%" horiz-adv-x="1134" 
d="M229 -87c-3.33301 -7.33301 -9 -10.999 -17 -10.999l-8 2c-4 2 -7 5.66699 -9 11c-1.33301 3.33301 -2 6.33301 -2 9c0 2 0.333008 3.66699 1 5l735 1561c3.33301 7.33301 9 11 17 11c13.333 -4.66699 20 -11 20 -19c0 -2.66699 -0.666992 -5.33398 -2 -8.00098z
M359 1366h-221v-228h221v228zM398 1119c0 -13.333 -6.66699 -20 -20 -20h-259c-13.333 0 -20 6.66699 -20 20v267c0 12.667 6.66699 19 20 19h258c6 0 11 -2.33301 15 -7l6 -12v-267zM1016 302.001h-220v-227h220v227zM1035 342.001c6 0 11 -2.33301 15 -7l6 -13v-267
c0 -13.333 -6.66699 -20 -20 -20v1l-1 -1h-259c-12.667 0 -19 6.66699 -19 20v267c0 13.333 6.33301 20 19 20h259z" />
    <glyph glyph-name="ampersand" unicode="&#x26;" horiz-adv-x="1189" 
d="M498 704c-100 0 -152 -0.333008 -156 -1c-136.667 -5.33301 -205 -95.333 -205 -270v-116c0 -98 25.333 -171 76 -219c42.667 -40.667 94.667 -61 156 -61h475l144 75l-384 517l-56 77zM1034 105c33.333 -45.333 57.333 -79.6689 72 -103.002c2.66699 -4 4 -8 4 -12
c0 -5.33301 -3 -9.66602 -9 -12.999l-10 -3c-6.66699 0 -11.667 2.66699 -15 8c-10.667 17.333 -34 51.666 -70 102.999l-155 -82l-477 -2h-13c-64.667 0 -122 23.333 -172 70c-58.667 55.333 -88 137.333 -88 246v135c4.66699 107.333 35.334 185 92.001 233
c39.333 34 88.666 52 147.999 54h183c-156 212.667 -246.333 337.667 -271 375c-6.66699 10 -10 32.333 -10 67c0 68.667 22.667 126.667 68 174c52 52.667 128.667 79 230 79h98c98 -6 170.333 -35.333 217 -88c43.333 -48 65 -105 65 -171c0 -10 -0.666992 -20.667 -2 -32
c-1.33301 -10.667 -7.33301 -16 -18 -16c-12 1.33301 -18 7 -18 17v3c0.666992 4.66699 1 10.334 1 17.001c0 12 -1.33301 26.667 -4 44c-6.66699 46 -23.667 84.333 -51 115c-44.667 50 -114 75 -208 75h-80c-91.333 0 -159.333 -22.667 -204 -68
c-22.667 -24 -37.667 -44 -45 -60c-8.66699 -18.667 -13 -43 -13 -73v-12c0 -29.333 1.33301 -46.666 4 -51.999c26 -38 142 -197.667 348 -479l367 -497v409c0 8.66699 6 13 18 13s18 -4.33301 18 -13v-461z" />
    <glyph glyph-name="quotesingle" unicode="'" horiz-adv-x="206" 
d="M136 1341c0 -13.333 -7 -20 -21 -20c-13.333 0 -20 6.66699 -20 20v120c0 11.333 6.66699 17 20 17c14 0 21 -5.66699 21 -17v-120z" />
    <glyph glyph-name="parenleft" unicode="(" horiz-adv-x="338" 
d="M289 -23c1.33301 -2.66699 2.00098 -5.00098 2.00098 -7.00098s-0.333008 -4 -1 -6c-2.66699 -8 -8.33398 -12 -17.001 -12l-5 1c-68 22.667 -115.667 57 -143 103c-14 23.333 -21 45.333 -21 66v1222c0 19.333 6.66699 40.333 20 63
c25.333 44.667 69.333 78.667 132 102h3c10 0 16.333 -3.33301 19 -10l1 -3l-1 -11c-2 -4 -5.33301 -7 -10 -9c-52.667 -19.333 -90 -46.666 -112 -81.999c-11.333 -18 -17 -34.667 -17 -50v-1222c0 -16.667 6 -34 18 -52c24 -36.667 64.667 -64.667 122 -84l3 -1z" />
    <glyph glyph-name="parenright" unicode=")" horiz-adv-x="382" 
d="M93 -15l2 1.00098c58 19.333 98.667 47.333 122 84c12 18 18 35.333 18 52v1222c0 15.333 -5.66699 32 -17 50c-21.333 35.333 -58.666 62.666 -111.999 81.999c-4.66699 2 -8 5 -10 9l-1 11l1 3c2.66699 6.66699 9 10 19 10h3
c63.333 -23.333 107.666 -57.333 132.999 -102c12.667 -22.667 19 -43.667 19 -63v-1222c0 -20.667 -7 -42.667 -21 -66c-27.333 -46 -74.666 -80.333 -141.999 -103l-6 -1c-8.66699 0 -14.334 4 -17.001 12c-0.666992 2 -1 4 -1 6s0.666992 4.33301 2 7z" />
    <glyph glyph-name="asterisk" unicode="*" horiz-adv-x="551" 
d="M462 1363c6.66699 0 11.666 -3.00098 14.999 -9.00098c2 -2.66699 3 -5.66699 3 -9c0 -1.33301 -0.333008 -2.66602 -1 -3.99902c-1.33301 -4.66699 -4 -8.33398 -8 -11.001l-155 -94l154 -95c4 -2.66699 6.66699 -6.33398 8 -11.001v-3
c0 -3.33301 -0.666992 -6.66602 -2 -9.99902c-3.33301 -6 -8.66602 -9 -15.999 -9l-9 3l-152 94l1 -184l-5 -9c-3.33301 -4 -7.33301 -6 -12 -6c-5.33301 0 -9.66602 2 -12.999 6c-3.33301 3.33301 -5 7.33301 -5 12l-1 181l-171 -99c-6.66699 0 -12 2.66699 -16 8
c-1.33301 3.33301 -2 6.66602 -2 9.99902v3c1.33301 4.66699 4 8.33398 8 11.001l165 99l-163 101c-4 2.66699 -6.66699 6.33398 -8 11.001c-0.666992 1.33301 -1 2.66602 -1 3.99902c0 3.33301 1 6.33301 3 9c3.33301 6 8.66602 9 15.999 9l9 -3l160 -99l-1 189l5 9
c3.33301 3.33301 7.33301 5 12 5c2 0 4.33301 -0.333008 7 -1c7.33301 -3.33301 11 -8.66602 11 -15.999l1 -187z" />
    <glyph glyph-name="plus" unicode="+" horiz-adv-x="851" 
d="M793 750c4 0 8 -2 12 -6c2.66699 -2.66699 4 -6.33398 4 -11.001s-1.33301 -8.66699 -4 -12c-4 -3.33301 -8 -5 -12 -5h-318v-324c0 -4.66699 -1.33301 -8.33398 -4 -11.001c-4 -4 -8 -6 -12 -6c-4.66699 0 -8.66699 2 -12 6c-3.33301 2.66699 -5 6.33398 -5 11.001v324
h-335c-4 0 -7.66699 1.66699 -11 5s-5 7.33301 -5 12s1.66699 8.33398 5 11.001c3.33301 4 7 6 11 6h335v341c0 8.66699 5.66699 13 17 13c10.667 0 16 -4.33301 16 -13v-341h318z" />
    <glyph glyph-name="comma" unicode="," horiz-adv-x="204" 
d="M60 -65c-4 -7.33301 -9.33301 -11 -16 -11c-4 0 -8.33301 1.33301 -13 4c-7.33301 4 -11 9 -11 15c0 3.33301 1.33301 7.33301 4 12l73 131c3.33301 6 8 9 14 9c3.33301 0 7.33301 -1.33301 12 -4c8 -5.33301 12 -11 12 -17c0 -2.66699 -0.666992 -5.66699 -2 -9z" />
    <glyph glyph-name="hyphen" unicode="-" horiz-adv-x="670" 
d="M559 750c4 0 8 -2 12 -6c2.66699 -2.66699 4 -6.33398 4 -11.001s-1.33301 -8.66699 -4 -12c-4 -3.33301 -8 -5 -12 -5h-452c-4 0 -7.66699 1.66699 -11 5s-5 7.33301 -5 12s1.66699 8.33398 5 11.001c3.33301 4 7 6 11 6h452z" />
    <glyph glyph-name="hyphen" unicode="&#xad;" horiz-adv-x="670" 
d="M559 750c4 0 8 -2 12 -6c2.66699 -2.66699 4 -6.33398 4 -11.001s-1.33301 -8.66699 -4 -12c-4 -3.33301 -8 -5 -12 -5h-452c-4 0 -7.66699 1.66699 -11 5s-5 7.33301 -5 12s1.66699 8.33398 5 11.001c3.33301 4 7 6 11 6h452z" />
    <glyph glyph-name="period" unicode="." horiz-adv-x="204" 
d="M127 25c0 -15.333 -8.33301 -23 -25 -23c-15.333 0 -23 7.66699 -23 23v58c0 13.333 7.66699 20 23 20c16.667 0 25 -6.66699 25 -20v-58z" />
    <glyph glyph-name="slash" unicode="/" horiz-adv-x="801" 
d="M4 -158c-4 -8 -10.334 -12 -19.001 -12l-9 2c-4 2 -7.33301 6 -10 12c-0.666992 3.33301 -1 6.33301 -1 9s0.333008 5 1 7l815 1727c4.66699 8 11.334 12 20.001 12c14 -4.66699 21 -11.334 21 -20.001c0 -3.33301 -1 -6.66602 -3 -9.99902z" />
    <glyph glyph-name="zero" unicode="0" 
d="M871 1191c0 41.333 -22.333 81.667 -67 121l-528 -1224c-1.33301 -3.33301 -3.33301 -6 -6 -8c62 -26.667 141 -40 237 -40c148 0 253.333 33 316 99c32 35.333 48 69 48 101v951zM134 240.001c2 -58.667 37.6689 -107.334 107.002 -146.001l1 8l531 1232
c-64 40 -152.667 60 -266 60c-152.667 0 -260.334 -32.333 -323.001 -97c-32.667 -33.333 -49.334 -67.666 -50.001 -102.999v-954zM147.002 1315c70 79.333 190 119 360 119c167.333 0 284.666 -39.333 351.999 -118c34.667 -40 52 -81.667 52 -125v-951
c0 -42 -17.333 -83.333 -52 -124c-67.333 -77.333 -184.666 -116 -351.999 -116c-170 0 -290 39.667 -360 119c-35.333 40.667 -53 81 -53 121v954c0 40 17.667 80.333 53 121z" />
    <glyph glyph-name="one" unicode="1" horiz-adv-x="571" 
d="M432 1433c12.667 0 18.999 -6 18.999 -18v-1396c0 -12.667 -6.33301 -19 -19 -19c-12 -0 -18 6.33301 -18 19v1377h-97l-196 -197l-11 -3c-5.33301 0 -9.66602 1.66699 -12.999 5c-4 4.66699 -6 9 -6 13c0 4.66699 2 9 6 13l209 207z" />
    <glyph glyph-name="two" unicode="2" horiz-adv-x="1025" 
d="M925 37c12.667 0 19 -6.00098 19 -18.001c0 -12.667 -6.33301 -19 -19 -19h-773c-12.667 0 -19 6.33301 -19 19l-1 105c474.667 578 725.334 885.667 752.001 923c2.66699 7.33301 4 29 4 65v34c0 76 -19.667 134.667 -59 176c-48.667 50 -125 75 -229 75h-181
c-106.667 0 -184.667 -28 -234 -84c-37.333 -42 -56 -86.667 -56 -134c0 -8 0.666992 -16 2 -24v-2c0 -4 -1.33301 -8 -4 -12c-3.33301 -4 -7.33301 -6.33301 -12 -7c-12.667 2 -19.667 7.33301 -21 16c-1.33301 10 -2 20 -2 30c0 56.667 21.667 109.334 65 158.001
c51.333 58 130.666 89.333 237.999 94l205 2c114 0 199 -28.667 255 -86c47.333 -49.333 71 -115 71 -197v-10c0 -65.333 -4 -104 -12 -116c-26 -36.667 -274.333 -340 -745 -910l2 -78h754z" />
    <glyph glyph-name="three" unicode="3" horiz-adv-x="1023" 
d="M603 1434c116.667 0 202.666 -31.333 257.999 -94c32 -36.667 52 -80.667 60 -132c2.66699 -16.667 4 -31.667 4 -45c0 -9.33301 -0.666992 -18 -2 -26l2 -319c0 -77.333 -40 -137.666 -120 -180.999c24.667 -8 45.667 -20 63 -36c38 -34.667 57 -85 57 -151
c0 -51.333 -0.333008 -114.666 -1 -189.999c0 -67.333 -22 -124.333 -66 -171c-56.667 -59.333 -141.667 -89 -255 -89h-486c-12 0 -18 6.33301 -18 19c0 12 6 18 18 18h486c102.667 0 178.334 25.667 227.001 77c38 40 57 88.667 57 146
c0.666992 35.333 1 98.666 1 189.999c0 55.333 -15 96.666 -45 123.999c-25.333 23.333 -58.333 36 -99 38h-458c-12 0 -18 6 -18 18c0 12.667 6 19 18 19h457c19.333 0 45.333 12.333 78 37c44.667 32.667 67 72.334 67 119.001l-1 335c0.666992 9.33301 1 18.333 1 27
c0 57.333 -18.333 106.666 -55 147.999c-48 54.667 -124.667 82 -230 82h-467l-1 -173c0 -12 -6 -18 -18 -18h-3l-11 5c-3.33301 4 -5 8.33301 -5 13l1 190v2c0 12 6 18 18 18h486z" />
    <glyph glyph-name="four" unicode="4" 
d="M877 798c0 9.33301 6.33496 13.999 19.002 13.999c12 0 18 -4.66699 18 -14v-779c0 -12.667 -6 -19 -18 -19c-12.667 0 -19 6.33301 -19 19v421h-748c-17.333 0 -26 6 -26 18v97c0 14.667 3.33301 29.334 10 44.001c1.33301 3.33301 69.666 111.333 204.999 324l317 502
c3.33301 6 8.66602 9 15.999 9l9 -3c4 -2 6.66699 -5.66699 8 -11c0.666992 -2 1 -3.66699 1 -5c0 -3.33301 -1 -6.33301 -3 -9l-330 -525c-126 -196 -189.333 -295 -190 -297c-4 -10 -6 -19.667 -6 -29v-78h737v321z" />
    <glyph glyph-name="five" unicode="5" 
d="M726 645c54 0 98.334 -15.6641 133.001 -46.9971c38 -34.667 57 -85 57 -151v-116c0 -6.66699 -0.333008 -30.667 -1 -72c0.666992 -2.66699 1 -6 1 -10c0 -10.667 -2.33301 -26.334 -7 -47.001c-10 -44 -30 -81.667 -60 -113c-56 -59.333 -140.667 -89 -254 -89h-484
c-12 0 -18 6 -18 18c0 12.667 6 19 18 19h484c102.667 0 178.334 25.667 227.001 77c37.333 39.333 56 87.666 56 144.999l1 188c0 55.333 -15 96.666 -45 123.999c-27.333 25.333 -63 38 -107 38l-10 -1l-348 1c-82 0 -146.333 23.667 -193 71
c-50.667 50.667 -76 113.334 -76 188.001c-0.666992 -2 -1 13 -1 45v505l5 11c3.33301 3.33301 7.66602 5 12.999 5l773 -1c12 0 18 -6 18 -18l1 -178l-5 -10c-3.33301 -3.33301 -7.33301 -5 -12 -5c-2.66699 0 -5.33398 0.333008 -8.00098 1
c-8 3.33301 -12 8.66602 -12 15.999l-1 157l-736 1l1 -135l-1 -297c0 -47.333 0.333008 -79.333 1 -96c5.33301 -70 27.333 -124.667 66 -164c40 -40 95.667 -60 167 -60h357z" />
    <glyph glyph-name="six" unicode="6" 
d="M651 37c78.667 0 138.334 21.332 179.001 63.999c38.667 40.667 58 93.334 58 158.001c0 16 0.333008 70 1 162v176c0 53.333 -14 94 -42 122c-26.667 26.667 -57.667 40 -93 40h-488c-32.667 0 -60.334 -10 -83.001 -30c-30 -27.333 -45 -71.333 -45 -132
c0 -50.667 0.333008 -163 1 -337v-6c0 -61.333 19.333 -112.333 58 -153c41.333 -42.667 101 -64 179 -64h275zM754 795.999c46 0 85.666 -17 118.999 -51c35.333 -34.667 53 -84 53 -148c0 -50.667 -0.333008 -163 -1 -337v-14c0 -65.333 -22.667 -122 -68 -170
c-48 -50.667 -116.667 -76 -206 -76h-279c-87.333 1.33301 -154.666 26.666 -201.999 75.999c-45.333 48 -68 105 -68 171v14c-0.666992 0 -1 110.667 -1 332v606l8 10l-7 -1c-0.666992 6.66699 -1 13 -1 19c0 44 18.333 85.667 55 125c50 54.667 129.667 82 239 82h499
c12 0 18 -6 18 -18v-188c0 -9.33301 -6 -14 -18 -14c-12.667 0 -19 4.66699 -19 14v169h-480c-98.667 0 -169.334 -23.333 -212.001 -70c-29.333 -32 -44 -67.667 -44 -107v-19c-0.666992 -41.333 -1 -85.666 -1 -132.999v-335c6.66699 9.33301 13.667 17.333 21 24
c30 26.667 62 40 96 40c6.66699 0 13.334 -0.333008 20.001 -1h479z" />
    <glyph glyph-name="seven" unicode="7" 
d="M901 1428c3.33301 -3.33301 5 -7.33301 5 -12l-1 -154l-537 -1251c-3.33301 -7.33301 -9 -11 -17 -11l-7 1c-8 3.33301 -12 8.33301 -12 15c0 2.66699 0.666992 5.66699 2 9l536 1244l-1 128l-736 -1l-1 -157c0 -12 -6.33301 -18 -19 -18h-2l-11 5
c-3.33301 4 -5 8.66699 -5 14l1 175c0 12 6 18 18 18l776 1z" />
    <glyph glyph-name="eight" unicode="8" 
d="M746 634c35.333 16 59.999 29 73.999 39c47.333 33.333 71 72.333 71 117l-1 349c1.33301 10 2 20 2 30c0 56.667 -18.333 105.334 -55 146.001c-48 54.667 -125 82 -231 82h-183c-106 0 -183 -27.333 -231 -82c-35.333 -40.667 -53 -98.334 -53 -173.001l-1 -352
c0 -44 22.667 -82.667 68 -116c24.667 -17.333 51.334 -31 80.001 -41l7 1h453zM890.999 435c0 55.333 -14.999 96.666 -44.999 123.999c-24.667 23.333 -57.334 36 -98.001 38h-466c-41.333 -2 -74.333 -14.667 -99 -38c-30 -27.333 -45 -68.666 -45 -123.999
c0 -94.667 0.333008 -152.667 1 -174v-8c0 -53.333 18.667 -99.666 56 -138.999c48.667 -51.333 124.667 -77 228 -77h183c103.333 0 179.333 25.667 228 77c37.333 40 56 88.667 56 146c0.666992 35.333 1 93.666 1 174.999zM606 1434c116.667 0 203 -31.6699 259 -95.0029
c32 -36 52 -79.667 60 -131c2.66699 -17.333 4 -32.666 4 -45.999c0 -9.33301 -0.666992 -17.666 -2 -24.999l1 -347c0 -45.333 -13.667 -83 -41 -113c-15.333 -16 -41.333 -34.333 -78 -55c24 -8 44.667 -20 62 -36c38 -34.667 57 -85 57 -151
c0 -51.333 -0.333008 -109.666 -1 -174.999c0 -67.333 -22 -124.333 -66 -171c-56 -59.333 -141 -89 -255 -89h-183c-114 0 -199 29.667 -255 89c-44 46.667 -66 100 -66 160v13c-0.666992 65.333 -1 123 -1 173c0 66 19 116.333 57 151c17.333 16 38 28 62 36
c-79.333 43.333 -119 99.333 -119 168l1 349c-1.33301 12 -2 23.667 -2 35c0 61.333 21.333 116.333 64 165c56 63.333 142.333 95 259 95h183z" />
    <glyph glyph-name="nine" unicode="9" horiz-adv-x="1020" 
d="M747 572c25.333 0 49.668 6.66602 73.001 19.999c46 26 69 70.667 69 134l-1 414c0.666992 9.33301 1 18.666 1 27.999c0 56.667 -18 105.334 -54 146.001c-16.667 18.667 -37 34.334 -61 47.001c-16 8 -34 14.667 -54 20c-16 4.66699 -33 8 -51 10
c-20 2.66699 -40.667 4 -62 4h-196c-104.667 0 -180.667 -27.333 -228 -82c-35.333 -39.333 -53 -96.333 -53 -171l-1 -416c0 -63.333 23 -108 69 -134c23.333 -13.333 47.666 -20 72.999 -20h476zM826.002 1371c13.333 -9.33301 25.668 -20.334 37.001 -33.001
c42 -48 63 -103 63 -165c0 -11.333 -0.666992 -23 -2 -35l1 -880v-12c0 -58.667 -22 -111.334 -66 -158.001c-55.333 -58.667 -139.333 -88 -252 -88h-388c-12 0 -18 6 -18 18s6 18 18 18h388c102 0 177.333 25.667 226 77c36.667 39.333 55 87.333 55 144l1 349
c-33.333 -44 -80.333 -67.333 -141 -70h-477c-30 0 -60 8 -90 24c-59.333 32 -89 87.333 -89 166l2 414c-1.33301 12 -2 23.667 -2 35c0 60.667 21 115 63 163c55.333 62 140.666 93 255.999 93h196c10.667 0 21 -0.333008 31 -1c22.667 -1.33301 44 -3.66602 64 -6.99902
c26 -5.33301 50.333 -12.666 73 -21.999c18 -8 35 -18 51 -30z" />
    <glyph glyph-name="colon" unicode=":" horiz-adv-x="215" 
d="M139 611c0 -13.333 -7 -20 -21 -20c-13.333 0 -20 6.66699 -20 20v150c0 11.333 6.66699 17 20 17c14 0 21 -5.66699 21 -17v-150zM139 122c0 -13.333 -7 -20 -21 -20c-13.333 0 -20 6.66699 -20 20v150c0 11.333 6.66699 17 20 17c14 0 21 -5.66699 21 -17v-150z" />
    <glyph glyph-name="semicolon" unicode=";" horiz-adv-x="218" 
d="M60 -65c-4 -7.33301 -9.33301 -11 -16 -11c-4 0 -8.33301 1.33301 -13 4c-7.33301 4 -11 9 -11 15c0 3.33301 1.33301 7.33301 4 12l73 131c3.33301 6 8 9 14 9c3.33301 0 7.33301 -1.33301 12 -4c8 -5.33301 12 -11 12 -17c0 -2.66699 -0.666992 -5.66699 -2 -9z
M139 611c0 -13.333 -7 -20 -21 -20c-13.333 0 -20 6.66699 -20 20v150c0 11.333 6.66699 17 20 17c14 0 21 -5.66699 21 -17v-150z" />
    <glyph glyph-name="semicolon" unicode="&#x37e;" horiz-adv-x="218" 
d="M60 -65c-4 -7.33301 -9.33301 -11 -16 -11c-4 0 -8.33301 1.33301 -13 4c-7.33301 4 -11 9 -11 15c0 3.33301 1.33301 7.33301 4 12l73 131c3.33301 6 8 9 14 9c3.33301 0 7.33301 -1.33301 12 -4c8 -5.33301 12 -11 12 -17c0 -2.66699 -0.666992 -5.66699 -2 -9z
M139 611c0 -13.333 -7 -20 -21 -20c-13.333 0 -20 6.66699 -20 20v150c0 11.333 6.66699 17 20 17c14 0 21 -5.66699 21 -17v-150z" />
    <glyph glyph-name="less" unicode="&#x3c;" horiz-adv-x="515" 
d="M421 529c4 -2 7 -5.99902 9 -11.999c1.33301 -2.66699 2 -5.33398 2 -8.00098s-0.666992 -5 -2 -7c-3.33301 -8 -9.33301 -12 -18 -12l-9 2l-290 136c-8 4 -12 10.333 -12 19v124c0 8.66699 4 14.667 12 18l290 137l9 2c8.66699 0 14.667 -4 18 -12
c1.33301 -2 2 -4.33301 2 -7c0 -2 -0.666992 -4.66699 -2 -8c-2 -6 -5 -10 -9 -12l-279 -128v-104z" />
    <glyph glyph-name="equal" unicode="=" horiz-adv-x="605" 
d="M119 408c-13.333 0 -20 7 -20 21c0 13.333 6.66699 20 20 20h370c11.333 0 17 -6.66699 17 -20c0 -14 -5.66699 -21 -17 -21h-370zM119 612c-13.333 0 -20 7 -20 21c0 13.333 6.66699 20 20 20l370 -1c11.333 0 17 -6.66699 17 -20c0 -14 -5.66699 -21 -17 -21z" />
    <glyph glyph-name="greater" unicode="&#x3e;" horiz-adv-x="532" 
d="M390 657v103.999l-278 128c-4.66699 2 -8 6 -10 12c-0.666992 3.33301 -1 6 -1 8c0 2.66699 0.333008 5 1 7c4 8 10.333 12 19 12l9 -2l290 -137c8 -3.33301 12 -9.33301 12 -18v-124c0 -8.66699 -4 -15 -12 -19l-290 -136l-9 -2c-8.66699 0 -15 4 -19 12
c-0.666992 2 -1 4.33301 -1 7s0.333008 5.33398 1 8.00098c2 6 5.33301 10 10 12z" />
    <glyph glyph-name="question" unicode="?" horiz-adv-x="1039" 
d="M527 115c0 10 6.33301 15 19 15s19 -5 19 -15v-96c0 -12.667 -6.33301 -19 -19 -19s-19 6.33301 -19 19v96zM940 1012c-26.667 -38 -156.001 -160.335 -388.001 -367.002l1 -237c0 -12.667 -6.33301 -19 -19 -19h-3l-13 8l-3 11l1 248c0 6 2.33301 10.667 7 14
c232 206.667 360.333 328 385 364c3.33301 8 5 31.333 5 70v34c0 76.667 -20.333 136 -61 178c-50 51.333 -128 77 -234 77h-186c-110 0 -190 -28.667 -240 -86c-36.667 -42 -55 -102 -55 -180v-3c0 -10.667 -5.66699 -16.667 -17 -18c-13.333 0 -20.666 5.66699 -21.999 17
c-1.33301 12 -2 23.667 -2 35c0 66 22.333 124.333 67 175c52.667 59.333 134 91.333 244 96l211 2c116.667 0 203.667 -29.667 261 -89c48 -49.333 72 -115.666 72 -198.999v-28c0 -57.333 -3.66699 -91.666 -11 -102.999z" />
    <glyph glyph-name="at" unicode="@" horiz-adv-x="1391" 
d="M715 283c87.333 0 153.334 23.334 198.001 70.001c34 34.667 54.333 80.667 61 138v304c-6.66699 49.333 -24.667 90.333 -54 123c-23.333 26.667 -57 48 -101 64c-38.667 14.667 -74.334 22 -107.001 22h-32c-111.333 0 -192.333 -28.667 -243 -86
c-37.333 -42.667 -56 -103.334 -56 -182.001l-1 -86l1 -96c-1.33301 -10 -2 -20 -2 -30c0 -60 19.333 -111.667 58 -155c50.667 -57.333 131.667 -86 243 -86h35zM933.001 1274c106 0 191.667 -37.332 257 -111.999c65.333 -75.333 98 -174 98 -296v-478
c0 -42.667 -13.333 -76.667 -40 -102c-24.667 -22.667 -59.334 -34 -104.001 -34c-14 0 -29 1 -45 3c-70 10 -110.333 38 -121 84c-2.66699 4.66699 -4 10.667 -4 18v13c-10.667 -17.333 -21.667 -32 -33 -44c-52 -54.667 -127.333 -82 -226 -82h-35
c-122.667 0 -213.334 33.333 -272.001 100c-45.333 51.333 -68 110 -68 176c0 12 0.666992 24 2 36l-1 112l1 65c-1.33301 12 -2 23.667 -2 35c0 65.333 22.667 123.666 68 174.999c58.667 66.667 149.334 100 272.001 100h18c114.667 -6.66699 198.334 -40 251.001 -100
c9.33301 -10 17.666 -21 24.999 -33v71c0 12 7 18 21 18s21 -6 21 -18v-624c6.66699 -32 37.334 -52 92.001 -60c14 -2 27 -3 39 -3c33.333 0 58 7.66699 74 23c18.667 17.333 28 42 28 74v475c0 100.667 -25.333 185 -76 253c-58 77.333 -138 116 -240 116h-425
c-102 0 -189 -36 -261 -108s-108 -159 -108 -261v-458c0 -102 36 -189 108 -261s159 -108 261 -108h422c12.667 0 19 -6.66699 19 -20c0 -12.667 -6.33301 -19 -19 -19h-422c-112.667 0 -208.667 40 -288 120c-80 79.333 -120 175.333 -120 288v458
c0 112.667 40 208.667 120 288c79.333 80 175.333 120 288 120h425z" />
    <glyph glyph-name="A" unicode="A" horiz-adv-x="1004" 
d="M819 1295c-60.667 65.333 -163.667 98.001 -309 98.001c-150 0 -255.667 -31.667 -317 -95c-32 -32.667 -48.333 -66.334 -49 -101.001v-554h723v553c-1.33301 34 -17.333 67 -48 99zM156 1317c68 78 186 117 354 117c164.667 0 280 -38.333 346 -115
c34.667 -40 52 -81 52 -123v-1176c0 -13.333 -7 -20 -21 -20c-13.333 0 -20 6.66699 -20 20v583h-723v-583c0 -10.667 -7 -16 -21 -16c-13.333 0 -20 5.33301 -20 16v1177c0 39.333 17.667 79.333 53 120z" />
    <glyph glyph-name="B" unicode="B" horiz-adv-x="1101" 
d="M790 653c39.333 0 79 20 119 60c27.333 27.333 41 58.333 41 93l-1 332c0.666992 9.33301 1 18.666 1 27.999c0 56.667 -17.667 105.334 -53 146.001c-48 54 -124.333 81 -229 81h-524v-740h646zM668 41c102 0 177.334 25.666 226.001 76.999c37.333 39.333 56 86 56 140
v194c0 54.667 -14.667 95.334 -44 122.001c-26.667 25.333 -62.334 38 -107.001 38l-655 -1v-570h524zM668.001 1434c117.333 0 204 -31.665 260 -94.998c43.333 -49.333 65 -106.333 65 -171c0 -10.667 -0.666992 -21.334 -2 -32.001l1 -330
c0 -68 -38.667 -123.333 -116 -166c22.667 -8.66699 42 -20.334 58 -35.001c38.667 -35.333 58 -86.333 58 -153c0 -50.667 -0.333008 -114 -1 -190c0.666992 -2 1 -5.33301 1 -10c0 -10 -2.33301 -26 -7 -48c-10.667 -44.667 -31 -82.667 -61 -114
c-56 -60 -141.333 -90 -256 -90h-545c-14 0 -21 7.66699 -21 23v1392c0 12.667 7 19 21 19h545z" />
    <glyph glyph-name="C" unicode="C" horiz-adv-x="1034" 
d="M927 1136c-2 -12 -8.99805 -17.999 -20.998 -17.999c-14 1.33301 -21 8 -21 20v3c1.33301 5.33301 2 11.666 2 18.999c0 11.333 -1.33301 24.666 -4 39.999c-7.33301 44.667 -24 82 -50 112c-48 54 -124.333 81 -229 81h-178c-104.667 0 -180.667 -27 -228 -81
c-36 -40.667 -54 -88.667 -54 -144c0 -8.66699 0.333008 -17.667 1 -27v-845c-0.666992 -8 -1 -16 -1 -24c0 -58.667 18 -108.334 54 -149.001c47.333 -54 123.333 -81 228 -81h214c82 0 144 21.667 186 65c40 40.667 60 91.334 60 152.001c0 5.33301 -0.333008 11 -1 17v4
l5 11c4 4.66699 8.66699 7.33398 14 8.00098h1c13.333 0 20.666 -6.33301 21.999 -19c0.666992 -7.33301 1 -14.666 1 -21.999c0 -70 -24 -129.667 -72 -179c-50 -52.667 -122 -79 -216 -79h-214c-117.333 0 -204 31.667 -260 95c-42.667 48.667 -64 105.334 -64 170.001
c0 11.333 0.666992 22.666 2 33.999v839c-1.33301 12 -2 23.667 -2 35c0 62 21.333 117.333 64 166c56 63.333 142.667 95 260 95c135.333 -0.666992 204 -1.66699 206 -3c103.333 -3.33301 180.666 -34 231.999 -92c43.333 -48.667 65 -105.667 65 -171
c0 -10.667 -0.666992 -21.334 -2 -32.001z" />
    <glyph glyph-name="D" unicode="D" horiz-adv-x="1036" 
d="M622 41c104.667 0 180.667 27 228 81c36 40 54 88 54 144c0 8.66699 -0.333008 17.667 -1 27v845c0.666992 8 1 16 1 24c0 59.333 -18 109.333 -54 150c-47.333 54 -123.333 81 -228 81h-477v-1352h477zM622 1434c117.333 0 203.999 -31.667 259.999 -95
c42.667 -48.667 64 -104.667 64 -168c0 -11.333 -0.666992 -23 -2 -35v-840c0.666992 0 1.33398 -6.33301 2.00098 -19c0 -16 -1.33301 -32.333 -4 -49c-8 -52.667 -28 -97 -60 -133c-56 -63.333 -142.667 -95 -260 -95h-497c-14 0 -21 7 -21 21v1392c0 14 7 21 21 21h497z
" />
    <glyph glyph-name="E" unicode="E" horiz-adv-x="1025" 
d="M144 1393v-747h662c13.333 0 20 -7 20 -21s-6.66699 -21 -20 -21h-662v-563h766c13.333 0 20 -6.66699 20 -20c0 -14 -6.66699 -21 -20 -21h-786c-14 0 -21 7 -21 21v1392c0 14 7 21 21 21h786c13.333 0 20 -7 20 -21c0 -13.333 -6.66699 -20 -20 -20h-766z" />
    <glyph glyph-name="F" unicode="F" horiz-adv-x="1020" 
d="M144 21c0 -14 -6.66699 -21 -20 -21c-14 0 -21 7 -21 21v1390c0 14 7 21 21 21h768c13.333 0 20 -7 20 -21s-6.66699 -21 -20 -21h-748v-745h652c14 0 21 -7 21 -21s-7 -21 -21 -21h-652v-582z" />
    <glyph glyph-name="G" unicode="G" horiz-adv-x="1017" 
d="M179 87c-25.333 27.333 -45 59.3359 -59 96.0029c-14 37.333 -21 74.666 -21 111.999v844c-1.33301 12 -2 23.667 -2 35c0 61.333 21.333 116.333 64 165c56 63.333 142.333 95 259 95c135.333 -0.666992 204 -1.66699 206 -3c102.667 -3.33301 179.667 -34 231 -92
c42.667 -48.667 64 -104.334 64 -167.001c0 -12 -0.666992 -24 -2 -36s-8 -18 -20 -18c-14 2 -21 8.66699 -21 20v3c1.33301 11.333 2 22.333 2 33c0 50.667 -18 96.667 -54 138c-47.333 54 -123.333 81 -228 81h-178c-104 0 -180 -27 -228 -81
c-35.333 -40.667 -53 -89 -53 -145c0 -8 0.333008 -16.333 1 -25v-860c4.66699 -68 27.667 -123.333 69 -166c48.667 -50 119 -75 211 -75h178c103.333 0 179 24.667 227 74c36 38 54 85.667 54 143v347h-269c-13.333 0 -20 6.66699 -20 20c0 14 6.66699 21 20 21h290
c14 0 21 -7 21 -21c-0.666992 -226.667 -1 -345.334 -1 -356.001v-12c0 -68 -21.667 -124.667 -65 -170c-51.333 -52.667 -129.333 -81.334 -234 -86.001l-201 -1c-28 0 -54.333 2.33301 -79 7c-24.667 4 -47.667 10.333 -69 19s-41 19.334 -59 32.001
c-12 9.33301 -23.333 19 -34 29z" />
    <glyph glyph-name="H" unicode="H" horiz-adv-x="1028" 
d="M899 601h-755v-580c0 -11.333 -6.66699 -17 -20 -17c-14 0 -21 5.66699 -21 17v1396c0 11.333 7 17 21 17c13.333 0 20 -5.66699 20 -17v-774h755v774c0 11.333 7 17 21 17c13.333 0 20 -5.66699 20 -17v-1396c0 -14 -6.66699 -21 -20 -21c-14 0 -21 7 -21 21v580z" />
    <glyph glyph-name="I" unicode="I" horiz-adv-x="231" 
d="M147 21c0 -14 -7 -21 -21 -21s-21 7 -21 21v1396c0 11.333 7 17 21 17s21 -5.66699 21 -17v-1396z" />
    <glyph glyph-name="J" unicode="J" horiz-adv-x="990" 
d="M374 0c-104.667 6 -182.668 35.001 -234.001 87.001c-48 49.333 -72 112 -72 188v9c0 13.333 7 20 21 20c13.333 -0.666992 20 -7 20 -19v-5c0 -67.333 20.333 -122 61 -164c48.667 -49.333 123.334 -74 224.001 -74h179c106 0 183 27 231 81
c36 41.333 54 90.666 54 147.999c0 8 -0.333008 16.333 -1 25c-0.666992 5.33301 -1 68.333 -1 189c0 181.333 0.666992 492.666 2 933.999c0 11.333 7 17 21 17c13.333 0 20 -5.66699 20 -17c0 -55.333 -0.333008 -429 -1 -1121c1.33301 -12 2 -24 2 -36
c0 -61.333 -21.667 -116.666 -65 -165.999c-56.667 -64 -144 -96 -262 -96h-199z" />
    <glyph glyph-name="K" unicode="K" horiz-adv-x="969" 
d="M316 609l-173 -2.99902v-585c0 -14 -6.66699 -21 -20 -21c-14 0 -21 7 -21 21v1397c0 11.333 7 17 21 17c13.333 0 20 -5.66699 20 -17v-771h179l468 782c3.33301 6.66699 9.33301 10 18 10l10 -3c8 -4 12 -9.33301 12 -16c0 -4 -1.33301 -8 -4 -12l-472 -780l524 -589
c3.33301 -4.66699 5 -9.33398 5 -14.001c0 -5.33301 -3 -10.333 -9 -15l-12 -4c-7.33301 0 -13 3 -17 9z" />
    <glyph glyph-name="L" unicode="L" horiz-adv-x="1023" 
d="M915 42c14 0 21 -7 21 -21s-7 -21 -21 -21h-787c-14 0 -21 7 -21 21v1393c0 11.333 7 17 21 17s21 -5.66699 21 -17v-1372h766z" />
    <glyph glyph-name="M" unicode="M" horiz-adv-x="1335" 
d="M1222 1434c14 0 21.001 -7 21.001 -21v-1392c0 -14 -7 -21 -21 -21s-21 7 -21 21v1371h-16l-397 -786c-2.66699 -6 -6.33398 -11 -11.001 -15c-7.33301 -4.66699 -13.666 -7 -18.999 -7h-170c-4.66699 0 -9.33398 1.33301 -14.001 4c-7.33301 4.66699 -12.333 10 -15 16
l-398 788h-16v-1371c0 -11.333 -7 -17 -21 -17s-21 5.66699 -21 17v1392c0 14 7 21 21 21h51c8.66699 0 15 -4 19 -12l401 -796h156l402 796c3.33301 8 9.33301 12 18 12h51z" />
    <glyph glyph-name="N" unicode="N" horiz-adv-x="1028" 
d="M886 1423c0 11.333 7 17 21 17c13.333 0 20 -5.66699 20 -17v-1399c0 -14 -6.66699 -21 -20 -21h-63c-8.66699 0 -15 3.66699 -19 11l-660 1378h-16v-1371c0 -14 -7 -21 -21 -21s-21 7 -21 21v1392c0 14 7 21 21 21h51c8.66699 0 15 -4 19 -12l659 -1377h29v1378z" />
    <glyph glyph-name="O" unicode="O" horiz-adv-x="1012" 
d="M829 1290c-62 66.667 -166.667 100 -314 100c-151.333 0 -258.333 -32.333 -321 -97c-32.667 -32.667 -49.334 -66.667 -50.001 -102v-951c0.666992 -35.333 17.334 -69.333 50.001 -102c62.667 -64.667 169.667 -97 321 -97c147.333 0 252 33 314 99
c30.667 33.333 47 67 49 101v947c-2 34.667 -18.333 68.667 -49 102zM156 1312c69.333 79.333 189 119 359 119c167.333 0 284.666 -39.333 351.999 -118c34.667 -40 52 -81.667 52 -125v-948c0 -42 -17.333 -83 -52 -123c-67.333 -78 -184.666 -117 -351.999 -117
c-170 0 -289.667 39.667 -359 119c-35.333 40.667 -53 81 -53 121v951c0 40 17.667 80.333 53 121z" />
    <glyph glyph-name="P" unicode="P" horiz-adv-x="1025" 
d="M760 659c30 0 59.333 11.998 88 35.998c35.333 29.333 53 68.333 53 117c0 54.667 -0.333008 163.334 -1 326.001c0.666992 8.66699 1 17.334 1 26.001c0 58.667 -18 108 -54 148c-47.333 54 -123.333 81 -228 81h-478v-734h619zM878 1340
c41.333 -47.333 62.667 -105.332 64 -173.999v-29l-1 -17c0.666992 -126.667 1 -229.334 1 -308.001c0 -61.333 -22.667 -111 -68 -149c-36 -30.667 -74 -46 -114 -46h-619v-596c0 -14 -6.66699 -21 -20 -21c-14 0 -21 7 -21 21v1393c0 14 7 21 21 21h498
c116.667 0 203 -31.667 259 -95z" />
    <glyph glyph-name="Q" unicode="Q" horiz-adv-x="1004" 
d="M544 292c1.33301 5.33301 4.33203 9.66406 8.99902 12.9971l12 4c6.66699 0 12.334 -3 17.001 -9l158 -224c54 20.667 92.333 54.334 115 101.001c10.667 20.667 17 42 19 64v959c0 34 -15.667 67.333 -47 100c-60.667 62 -166 93 -316 93c-154 0 -262 -32 -324 -96
c-32 -33.333 -48 -67.666 -48 -102.999v-954c0 -35.333 16 -69.666 48 -102.999c62 -64 170 -96 324 -96c72 0 134.667 7 188 21l-153 217zM150.999 1315c69.333 79.333 189.334 119 360.001 119c166.667 0 284 -38.667 352 -116c34.667 -39.333 52 -78.666 52 -117.999
v-959c0 -24.667 -6.33301 -51.334 -19 -80.001c-25.333 -54.667 -69 -95 -131 -121l79 -111c3.33301 -4.66699 5 -9 5 -13c0 -6 -3.33301 -11.333 -10 -16l-12 -4c-6.66699 0 -12.334 3 -17.001 9l-86 121c-59.333 -17.333 -130.333 -26 -213 -26
c-170.667 0 -290.667 39.667 -360 119c-35.333 40.667 -53 81 -53 121v954c0 40 17.667 80.333 53 121z" />
    <glyph glyph-name="R" unicode="R" horiz-adv-x="1001" 
d="M812 702c44 40.667 66 96.668 66 168.001c0 54.667 -0.333008 144 -1 268c0.666992 9.33301 1 18.666 1 27.999c0 57.333 -18 106 -54 146c-47.333 54 -123.333 81 -228 81h-453v-723h601c22 0 44.667 10.667 68 32zM920 870.001c0 -84 -26.666 -150 -79.999 -198
c-28.667 -26.667 -58.667 -41 -90 -43h-151l274 -612c-0.666992 -5.33301 -3.33398 -9.66602 -8.00098 -12.999l-12 -4c-7.33301 0 -13 3 -17 9l-285 620h-408v-608c0 -10.667 -6.66699 -16.334 -20 -17.001h-3c-12 0 -18 4.33301 -18 13v1392c0 16.667 7 25 21 25h473
c117.333 0 204 -31.667 260 -95c32.667 -36.667 52.667 -81.667 60 -135c2.66699 -16 4 -30.333 4 -43c0 -9.33301 -0.666992 -18 -2 -26l-1 1c1.33301 -9.33301 2 -43.333 2 -102z" />
    <glyph glyph-name="S" unicode="S" horiz-adv-x="998" 
d="M418 1432c132.667 -0.666992 200.001 -1.66504 202.001 -2.99805c98 -3.33301 172 -31 222 -83c46.667 -48.667 70 -109.334 70 -182.001v-12c0 -13.333 -6.66699 -20 -20 -20c-14 0.666992 -21 7.66699 -21 21v12c0 62 -19.333 112.667 -58 152
c-47.333 49.333 -120.333 74 -219 74h-176c-92.667 0 -163 -25 -211 -75c-44 -46 -66 -102.333 -66 -169v-119c0 -21.333 0.333008 -36.333 1 -45c6.66699 -62 28.667 -112.333 66 -151c48 -50 118 -75 210 -75c125.333 0 189.666 -0.666992 192.999 -2
c92 -4 163.333 -32.333 214 -85c51.333 -54.667 77 -119.667 77 -195v-183c0 -82.667 -25.333 -150.667 -76 -204c-55.333 -58.667 -136 -88 -242 -88h-195l-6 2c-108.667 3.33301 -186.667 37 -234 101c-32.667 44 -49.334 99.667 -50.001 167c0 11.333 7 17 21 17
c13.333 0 20 -5.66699 20 -17c0.666992 -152.667 90 -229 268 -229h176c94 0 164.667 25 212 75c29.333 30.667 49 68.667 59 114c4 20 6 37 6 51v200c0 61.333 -22 114.666 -66 159.999c-47.333 50 -117.666 75 -210.999 75c-124.667 0 -189 1 -193 3
c-91.333 4 -162.333 32.333 -213 85c-52 54 -78 119.333 -78 196v140c-0.666992 6 -1 12 -1 18c0 70 26.333 132 79 186c56 58.667 136 88 240 88z" />
    <glyph glyph-name="T" unicode="T" horiz-adv-x="1020" 
d="M926 1431c14 0 21 -7 21 -21s-7 -21 -21 -21h-403v-1368c0 -14 -7 -21 -21 -21s-21 7 -21 21v1368h-368c-14 0 -21 7 -21 21s7 21 21 21h813z" />
    <glyph glyph-name="U" unicode="U" horiz-adv-x="1001" 
d="M875 1417c0 11.333 7 17.001 21 17.001c13.333 0 20 -5.66699 20 -17v-1175c0 -42.667 -17.333 -84.334 -52 -125.001c-66.667 -78 -183 -117 -349 -117c-169.333 -0 -288.666 39.333 -357.999 118c-35.333 40.667 -53 81 -53 121v1178c0 11.333 7 17 21 17
c13.333 0 20 -5.66699 20 -17v-1178c0 -35.333 16 -69.333 48 -102c61.333 -64 168.666 -96 321.999 -96c146.667 0 250.667 33.333 312 100c30.667 33.333 46.667 67 48 101v1175z" />
    <glyph glyph-name="V" unicode="V" horiz-adv-x="909" 
d="M804 1413c2 10.667 8.66797 16 20.001 16c14 -2 21 -8.33301 21 -19c0 -1.33301 -0.333008 -3 -1 -5l-327 -1389c-2.66699 -10.667 -9.33398 -16 -20.001 -16h-83c-11.333 -0 -18 5.33301 -20 16l-300 1389c-0.666992 2 -1 4 -1 6c0 10 5.66699 16 17 18
c14 0 22 -5.33301 24 -16l296 -1372h50z" />
    <glyph glyph-name="W" unicode="W" horiz-adv-x="1720" 
d="M1614 1433c6 -0.666992 10.668 -2.66699 14.001 -6c4 -4 6 -8.66699 6 -14v-4l-328 -1393c-2 -10.667 -8.66699 -16 -20 -16h-83c-10.667 -0 -17 5.33301 -19 16l-297 1377l-43 -1l-329 -1376c-2 -10.667 -8.66699 -16 -20 -16h-83
c-10.667 -0 -17.334 5.33301 -20.001 16l-299 1393v4c0 4.66699 1.33301 9 4 13c3.33301 4 7.33301 6.33301 12 7c6 0 11 -1 15 -3c4.66699 -2 7.66699 -6.33301 9 -13l296 -1376h50l329 1376c2 10.667 8.33301 16 19 16h71c15.333 0 24 -5.33301 26 -16l296 -1376h50
l324 1377c0.666992 4 3 7.66699 7 11c4 2.66699 8.33301 4 13 4z" />
    <glyph glyph-name="X" unicode="X" horiz-adv-x="917" 
d="M796 1421c3.33301 7.33301 9.33203 11.001 17.999 11.001c14 -4.66699 21 -11.334 21 -20.001c0 -2.66699 -0.666992 -5.66699 -2 -9l-347 -691l347 -683c2 -4 3 -7.66699 3 -11c0 -6.66699 -4.33301 -12 -13 -16l-9 -2c-8.66699 0 -14.667 4 -18 12l-330 657l-331 -657
c-3.33301 -8 -9.33301 -12 -18 -12c-10.667 3.33301 -17 8 -19 14l-2 3l2 12l347 691l-347 683c-1.33301 4 -2 7.66699 -2 11c0 6.66699 4 12 12 16c2.66699 0.666992 5.33398 1 8.00098 1c10 0 16.333 -3.33301 19 -10l331 -658z" />
    <glyph glyph-name="Y" unicode="Y" horiz-adv-x="931" 
d="M812 1421c2.66699 8.66699 9 13 19 13c9.33301 -2.66699 15.333 -6.66699 18 -12l2 -3l-1 -12l-341 -819l-1 -568c0 -13.333 -6.66699 -20 -20 -20s-20 6.66699 -20 20l1 572l-377 817l3 16l10 8h3c12 0 20 -4 24 -12l356 -772z" />
    <glyph glyph-name="Z" unicode="Z" horiz-adv-x="1017" 
d="M915 41c14 0 21 -6.66699 21 -20c0 -14 -7 -21 -21 -21h-803c-13.333 0 -20 7 -20 21v60l789 1258l-1 49h-780c-14 0 -21 7 -21 21c0 13.333 7 20 21 20h801c13.333 0 20 -6.66699 20 -20l-2 -88l-786 -1253v-27h782z" />
    <glyph glyph-name="bracketleft" unicode="[" horiz-adv-x="512" 
d="M411 -106c12 0 18 -6.33301 18 -19c0 -12 -6 -18 -18 -18h-313c-12.667 0 -19 6 -19 18v1662c0 12.667 6.33301 19 19 19h313c12 0 18 -6 18 -18c0 -12.667 -6 -19 -18 -19h-295v-1625h295z" />
    <glyph glyph-name="backslash" unicode="\" horiz-adv-x="762" 
d="M-32 1569c-2 3.33301 -3 6.66602 -3 9.99902c0 8.66699 7.33301 15.334 22 20.001c8.66699 0 15 -4 19 -12l815 -1727c1.33301 -2 2 -4.33301 2 -7s-0.666992 -5.66699 -2 -9c-2 -6 -5.33301 -10 -10 -12l-9 -2c-8.66699 0 -14.667 4 -18 12z" />
    <glyph glyph-name="bracketright" unicode="]" horiz-adv-x="499" 
d="M79 -125c0 12.667 6 19 18 19h295v1625h-295c-12 0 -18 6.33301 -18 19c0 12 6 18 18 18h313c12.667 0 19 -6.33301 19 -19v-1662c0 -12 -6.33301 -18 -19 -18h-313c-12 0 -18 6 -18 18z" />
    <glyph glyph-name="asciicircum" unicode="^" horiz-adv-x="500" 
d="M404 1093c0.666992 -2 1.00098 -4.00098 1.00098 -6.00098c0 -3.33301 -0.666992 -6.33301 -2 -9c-2 -4.66699 -5.66699 -8 -11 -10l-6 -1c-9.33301 0 -15.333 4 -18 12l-94 258h-42l-93 -258c-3.33301 -8 -9.33301 -12 -18 -12l-7 1
c-4.66699 2 -8.33398 5.33301 -11.001 10c-0.666992 2.66699 -1 5 -1 7c0 2.66699 0.333008 5.33398 1 8.00098l103 270c3.33301 8 9.33301 12 18 12h59c8.66699 0 14.667 -4 18 -12z" />
    <glyph glyph-name="underscore" unicode="_" horiz-adv-x="828" 
d="M119 -107c-13.333 0 -20 7 -20 21c0 13.333 6.66699 20 20 20h605c11.333 0 17 -6.66699 17 -20c0 -14 -5.66699 -21 -17 -21h-605z" />
    <glyph glyph-name="grave" unicode="`" horiz-adv-x="370" 
d="M260 1547l-8 2l-140 67c-7.33301 3.33301 -11 9 -11 17l2 9c3.33301 7.33301 9.33301 11 18 11l8 -2l140 -67c7.33301 -4 11 -10 11 -18c-4 -12.667 -10.667 -19 -20 -19z" />
    <glyph glyph-name="a" unicode="a" horiz-adv-x="934" 
d="M123 302c-0.666992 -9.33301 -0.999023 -18.668 -0.999023 -28.001c0 -59.333 18.667 -110 56 -152c49.333 -56 128.333 -84 237 -84l125 -1c85.333 0 150 23 194 69c32.667 34 52.334 78.667 59.001 134v391c-6.66699 48 -24.334 88 -53.001 120
c-49.333 56 -128.333 84 -237 84h-88c-108.667 0 -187.667 -28 -237 -84c-36.667 -41.333 -55.334 -100.666 -56.001 -177.999zM415.001 -0.00195312c-120 0 -208.333 32.334 -265 97.001c-32.667 36.667 -53.334 81.667 -62.001 135c-2.66699 18 -4 34.667 -4 50
c0 7.33301 0.333008 14.666 1 21.999v267c-0.666992 6.66699 -1 13.667 -1 21c0 14 1.33301 30 4 48c8.66699 54 29.334 99.333 62.001 136c56.667 64.667 145 97 265 97h108c112.667 -6 194.667 -38.333 246 -97c8.66699 -10 16.667 -21 24 -33v101
c0 11.333 6.66699 17 20 17c14 0 21 -5.66699 21 -17v-829c0 -5.33301 -2 -10 -6 -14s-9 -6 -15 -6c-5.33301 0 -10 2 -14 6s-6 8.66699 -6 14v108c-10 -17.333 -20.667 -32 -32 -44c-51.333 -53.333 -125 -80 -221 -80z" />
    <glyph glyph-name="b" unicode="b" horiz-adv-x="954" 
d="M144 245c6.66699 -56 26.333 -101.001 59 -135.001c43.333 -45.333 107.666 -68 192.999 -68l125 1c104.667 0 181.334 27.333 230.001 82c40 44.667 60 105 60 181l1 188v83c0 76.667 -20.667 138.334 -62 185.001c-44.667 50.667 -121 76 -229 76h-89
c-108 0 -186.667 -28 -236 -84c-28 -32 -45.333 -72 -52 -120v-389zM395.999 3.99902c-96 0 -169.333 26.6689 -220 80.002c-11.333 11.333 -22 25.666 -32 42.999v-107c0 -13.333 -7 -20 -21 -20c-13.333 0 -20 6.66699 -20 20v1393c0 11.333 6.66699 17 20 17
c14 0 21 -5.66699 21 -17v-667c7.33301 12.667 15.333 23.667 24 33c51.333 58 133 90.333 245 97h108c119.333 0 205 -29.667 257 -89c48 -54 72 -118 72 -192c0 -6.66699 -0.333008 -13.334 -1 -20.001l1 -64l-1 -203v-3c0 -84 -23.333 -152.333 -70 -205
c-55.333 -63.333 -141.333 -95 -258 -95z" />
    <glyph glyph-name="c" unicode="c" horiz-adv-x="946" 
d="M827 577c-6.66699 0.666992 -11.665 3.33105 -14.998 7.99805c-2 2.66699 -3 5.66699 -3 9v3c0.666992 4 1 8.66699 1 14c0 10 -1.33301 21.667 -4 35c-7.33301 38 -24.666 72.667 -51.999 104c-49.333 56 -128 84 -236 84h-89c-108 0 -186.667 -28 -236 -84
c-36.667 -41.333 -55 -100.333 -55 -177l-1 -83l1 -188c-0.666992 -9.33301 -1 -18.666 -1 -27.999c0 -59.333 18.667 -110 56 -152c49.333 -56 128 -84 236 -84h125c85.333 0 149.666 22.667 192.999 68c41.333 43.333 62 91.333 62 144v10c0 4 1.33301 7.66699 4 11
c3.33301 4 7.66602 6.33301 12.999 7c5.33301 0 10 -2 14 -6c4 -3.33301 6 -7.33301 6 -12c0.666992 -6 1 -12 1 -18c0 -58 -24 -112 -72 -162c-51.333 -53.333 -125 -80 -221 -80h-125c-119.333 0 -207.333 32.333 -264 97c-32.667 37.333 -53.334 82.333 -62.001 135
c-2.66699 16 -4 31 -4 45c0 9.33301 0.666992 18.333 2 27l-2 203l2 63c-1.33301 8 -2 16.667 -2 26c0 13.333 1.33301 28 4 44c8.66699 53.333 29.334 98.333 62.001 135c56.667 64.667 144.667 97 264 97h109c111.333 -6.66699 192.666 -39 243.999 -97
c43.333 -49.333 65 -102.666 65 -159.999v-8c0 -6.66699 -0.333008 -11.667 -1 -15c-0.666992 -5.33301 -3 -9.33301 -7 -12c-3.33301 -2 -7.33301 -3 -12 -3z" />
    <glyph glyph-name="d" unicode="d" horiz-adv-x="954" 
d="M809 634c-6.66699 48 -24.001 88.001 -52.001 120.001c-49.333 56 -128 84 -236 84h-89c-108 0 -184.333 -25.333 -229 -76c-41.333 -46.667 -62 -108.334 -62 -185.001v-83l1 -188c0 -76 20 -136.333 60 -181c48.667 -54.667 125.334 -82 230.001 -82l125 -1
c85.333 0 149.666 22.667 192.999 68c32.667 34 52.334 79 59.001 135v389zM431.999 5.00098c-116.667 0 -202.667 31.665 -258 94.998c-46.667 52.667 -70 121 -70 205v3l-1 203l1 64c-0.666992 6.66699 -1 13.334 -1 20.001c0 74 24 138 72 192
c52 59.333 137.667 89 257 89h109c111.333 -6.66699 192.666 -39 243.999 -97c8.66699 -9.33301 16.667 -20.333 24 -33v667c0 11.333 7 17 21 17c13.333 0 20 -5.66699 20 -17v-1393c0 -13.333 -6.66699 -20 -20 -20c-14 0 -21 6.66699 -21 20v107
c-10 -17.333 -20.333 -31.666 -31 -42.999c-51.333 -53.333 -124.666 -80 -219.999 -80z" />
    <glyph glyph-name="e" unicode="e" horiz-adv-x="957" 
d="M431 837c-108 0 -187.001 -27.999 -237.001 -83.999c-27.333 -32 -44.666 -78.667 -51.999 -140c-2.66699 -20.667 -4 -39.667 -4 -57c0 -9.33301 0.333008 -18 1 -26v-52h673c0 68 0.333008 103 1 105v13c0 61.333 -18.667 113.666 -56 156.999
c-49.333 56 -128.333 84 -237 84h-89zM819.999 227.001c12.667 0 19.334 -6 20.001 -18v-9c0 -32.667 -10.333 -65 -31 -97c-45.333 -68.667 -129.333 -103 -252 -103h-126c-120 0 -208.333 32.333 -265 97c-32.667 37.333 -53.334 83 -62.001 137
c-2.66699 16.667 -4 31.667 -4 45c0 9.33301 0.666992 18 2 26v222c-1.33301 10.667 -2 22 -2 34c0 18 1.33301 37.333 4 58c8.66699 68.667 29.334 121.667 62.001 159c57.333 64.667 145.666 97 264.999 97h109c112 -6.66699 194 -39 246 -97
c27.333 -31.333 46.333 -73 57 -125c5.33301 -26 8 -48.667 8 -68l-1 -130c-1.33301 -11.333 -7.66602 -17 -18.999 -17h-2l-1 -1h-689l1 -134c-0.666992 -9.33301 -1 -18.333 -1 -27c0 -60.667 18.333 -112 55 -154c50 -56 129 -84 237 -84h126c104 0 176 27.667 216 83
c19.333 26 29 52.667 29 80v7c0 4.66699 1.66699 8.66699 5 12c3.33301 4 7.66602 6.33301 12.999 7z" />
    <glyph glyph-name="f" unicode="f" horiz-adv-x="635" 
d="M100 1109c-0.666992 6.66699 -1 13.333 -1 20c0 24.667 3.66699 52 11 82c16.667 72 51 127 103 165c56 40.667 118 61 186 61h115c14 0 21 -7 21 -21c0 -13.333 -7 -20 -21 -20h-115c-59.333 0 -113.333 -18 -162 -54c-64 -46.667 -96 -123.667 -96 -231v-258h373
c14 0 21 -7 21 -21c0 -13.333 -7 -20 -21 -20h-373v-792c0 -14 -7 -21 -21 -21c-13.333 0 -20 7 -20 21v1089z" />
    <glyph glyph-name="g" unicode="g" horiz-adv-x="937" 
d="M552 38c85.333 0 149.666 22.6689 192.999 68.002c36 38 56.333 88 61 150v360c-5.33301 53.333 -23.666 97.666 -54.999 132.999c-48.667 55.333 -127 83 -235 83h-88c-108 0 -186.667 -28 -236 -84c-36 -40.667 -54 -99.334 -54 -176.001l-1 -83l1 -188
c-1.33301 -10 -2 -20 -2 -30c0 -58 18.667 -107.667 56 -149c49.333 -56 128 -84 236 -84h124zM846 -142.998c0.666992 -5.33301 1.00195 -10.998 1.00195 -16.998c0 -24.667 -3.66699 -52.334 -11 -83.001c-16.667 -70.667 -50.334 -124.334 -101.001 -161.001
c-54.667 -40 -115 -60 -181 -60h-284c-13.333 0 -20 6.66699 -20 20c0 14 6.66699 21 20 21h284c57.333 0 109.666 17.333 156.999 52c63.333 46 95 121.333 95 226v271c-11.333 -18.667 -22.666 -34 -33.999 -46c-50.667 -53.333 -123.667 -80 -219 -80l-125 1
c-119.333 0 -207.333 32 -264 96c-44 50 -66 107 -66 171c0 12 0.666992 24 2 36l-1 202l1 63c-1.33301 12 -2 23.667 -2 35c0 62.667 22 119 66 169c56.667 64.667 144.667 97 264 97h108c111.333 -6 192.666 -38.333 243.999 -97c9.33301 -10 18 -21.333 26 -34v119
c0 11.333 6.66699 17 20 17s20 -5.66699 20 -17v-1001z" />
    <glyph glyph-name="h" unicode="h" horiz-adv-x="945" 
d="M817 629c0 34 -14.333 69.667 -43 107c-52 66.667 -136.333 100 -253 100c-160 0 -270.333 -29.333 -331 -88c-29.333 -28 -44 -57.667 -44 -89v-644c0 -8 -4.66699 -12.667 -14 -14h-4c-6.66699 0 -12 2.33301 -16 7c-4.66699 4 -7 9 -7 15v1396
c0 11.333 6.66699 17 20 17c14 0 21 -5.66699 21 -17v-660c61.333 76 186.333 114 375 114c142 0 240 -40.333 294 -121c26 -38.667 39 -79.667 39 -123v-614c0 -10 -6 -15 -18 -15c-12.667 0 -19 5 -19 15v614z" />
    <glyph glyph-name="i" unicode="i" horiz-adv-x="222" 
d="M95 860c0 11.333 6.66699 17 20 17c14 0 21 -5.66699 21 -17v-840c0 -13.333 -7 -20 -21 -20c-13.333 0 -20 6.66699 -20 20v840zM96 1205c0 10.667 6.33301 16 19 16s19 -5.33301 19 -16v-111c0 -12.667 -6.33301 -19 -19 -19s-19 6.33301 -19 19v111z" />
    <glyph glyph-name="j" unicode="j" horiz-adv-x="230" 
d="M30 -404c-50.667 -37.333 -107.001 -55.999 -169.001 -55.999h-88c-12.667 0 -19 6.33301 -19 19s6.33301 19 19 19h88c54 0 103 16 147 48c58.667 43.333 88 113.666 88 210.999v1023c0 10 6.33301 15 19 15s19 -5 19 -15v-1021c0.666992 -4.66699 1 -9.66699 1 -15
c0 -23.333 -3.66699 -49.333 -11 -78c-15.333 -66 -46.666 -116 -93.999 -150zM95.999 1205c0 10.667 6.33301 16 19 16s19 -5.33301 19 -16v-111c0 -12.667 -6.33301 -19 -19 -19s-19 6.33301 -19 19v111z" />
    <glyph glyph-name="k" unicode="k" horiz-adv-x="901" 
d="M820 33l1.00098 -11.001c-0.666992 -5.33301 -3.33398 -9.66602 -8.00098 -12.999l-11 -3c-6 0 -11 2.66699 -15 8l-459 473l-194 1v-469c0 -12.667 -6.33301 -19 -19 -19s-19 6.33301 -19 19v1400c0 10 6.33301 15 19 15s19 -5 19 -15v-893h198l363 462
c4 6 9.66699 9 17 9c12.667 -4.66699 19 -11 19 -19c0 -2.66699 -1 -5.66699 -3 -9l-369 -465z" />
    <glyph glyph-name="l" unicode="l" horiz-adv-x="522" 
d="M238 93c48 -34.667 100.668 -52 158.001 -52c14 0 21 -7 21 -21c0 -13.333 -7 -20 -21 -20c-66 0 -126.667 20 -182 60c-50.667 37.333 -84.334 91.333 -101.001 162c-7.33301 30 -11 57.667 -11 83c0 6 0.333008 12 1 18v1097c0 11.333 6.66699 17 20 17
c14 0 21 -5.66699 21 -17v-1116c0 -94.667 31.333 -165 94 -211z" />
    <glyph glyph-name="m" unicode="m" horiz-adv-x="1535" 
d="M802 775c65.333 64.667 170.001 97.001 314.001 97.001c138.667 0 235.667 -39 291 -117c28 -39.333 42 -78.333 42 -117v-623c0 -10 -6.33301 -15 -19 -15s-19 5 -19 15v613c0 34.667 -13.667 70 -41 106c-50.667 66.667 -135.334 100 -254.001 100
c-132 0 -225 -29 -279 -87c-27.333 -30 -41 -59.667 -41 -89v-643c0 -9.33301 -5.33301 -14 -16 -14h-6c-4.66699 0 -8.66699 0.666992 -12 2c-5.33301 2.66699 -8 6.66699 -8 12v613c0 38.667 -11.333 74 -34 106c-48 66.667 -135 100 -261 100
c-139.333 0 -234.333 -29 -285 -87c-23.333 -26.667 -35 -56.334 -35 -89.001v-643c0 -8 -4.66699 -12.667 -14 -14h-4c-6.66699 0 -12 2.33301 -16 7c-4.66699 4 -7 9 -7 15v835c0 11.333 6.66699 17 20 17s20 -5.66699 20 -17v-83c55.333 64.667 162.333 97 321 97
c87.333 0 159.666 -16 216.999 -48c44 -24.667 76.333 -56.667 97 -96c6.66699 14.667 12.334 25 17.001 31z" />
    <glyph glyph-name="n" unicode="n" horiz-adv-x="854" 
d="M127 783c55.333 64.667 162.002 97.001 320.002 97.001c138.667 0 236 -39 292 -117c27.333 -38.667 41 -77.334 41 -116.001v-623c0 -9.33301 -6.33301 -14 -19 -14c-12 0 -18 4.66699 -18 14v613c0 34 -14 69.333 -42 106c-50.667 66 -135.334 99 -254.001 99
c-138.667 0 -233.334 -29 -284.001 -87c-23.333 -26.667 -35 -56 -35 -88v-641c0 -8.66699 -3.33301 -14 -10 -16c-2 -0.666992 -4.33301 -1 -7 -1h-6c-2.66699 0 -5 0.333008 -7 1c-7.33301 2.66699 -11 8.66699 -11 18v838c0 11.333 6.66699 17 20 17s20 -5.66699 20 -17
v-83z" />
    <glyph glyph-name="o" unicode="o" horiz-adv-x="926" 
d="M514 38c109.333 0 188.666 28.334 237.999 85.001c36.667 41.333 55 100.666 55 177.999l1 208l-1 65c1.33301 10 2 20 2 30c0 58.667 -19 109 -57 151c-49.333 56 -128.666 84 -237.999 84h-90c-108.667 0 -187.667 -28 -237 -84c-38 -42 -57 -92.333 -57 -151
c0 -10 0.666992 -20 2 -30l-1 -65l1 -208c0 -30 0.666992 -50.333 2 -61c7.33301 -46.667 25 -85.667 53 -117c49.333 -56.667 128.333 -85 237 -85h90zM845 303.001c1.33301 -8 2.00098 -16.333 2.00098 -25c0 -13.333 -1.33301 -28 -4 -44
c-8.66699 -54 -29.334 -99.667 -62.001 -137c-51.333 -58 -130.333 -89.667 -237 -95l-120 -2c-120 0 -208.667 32.333 -266 97c-32.667 37.333 -53.334 83 -62.001 137c-2.66699 16 -4 30.667 -4 44c0 8.66699 0.666992 17 2 25l-1 188l1 80
c-1.33301 8.66699 -2 17.667 -2 27c0 14 1.33301 29.333 4 46c8.66699 53.333 29.334 98.666 62.001 135.999c57.333 64.667 146 97 266 97h64l56 -2c106.667 -5.33301 185.667 -37 237 -95c32.667 -37.333 53 -82.666 61 -135.999c2.66699 -16.667 4 -33 4 -49
c0 -8 -0.333008 -16 -1 -24l1 -80z" />
    <glyph glyph-name="p" unicode="p" horiz-adv-x="931" 
d="M144 244c6.66699 -47.333 24.001 -87.332 52.001 -119.999c49.333 -55.333 128 -83 236 -83h89c108 0 184.333 25 229 75c41.333 47.333 62 109.333 62 186v83l-1 188c0 75.333 -20 135.666 -60 180.999c-48.667 54.667 -125.334 82 -230.001 82h-125
c-85.333 0 -149.666 -22.667 -192.999 -68c-32.667 -34 -52.334 -78.667 -59.001 -134v-390zM521.001 874.001c116.667 0 202.667 -31.666 258 -94.999c46.667 -52.667 70 -121 70 -205v-4l1 -203l-1 -63c0.666992 -6.66699 1 -13.334 1 -20.001
c0 -74 -24 -138.333 -72 -193c-52 -58.667 -137.667 -88 -257 -88h-108c-112 6 -193.667 38.333 -245 97c-8.66699 9.33301 -16.667 20 -24 32v-582c0 -11.333 -7 -17 -21 -17c-13.333 0 -20 5.66699 -20 17v1308c0 14 6.66699 21 20 21c14 0 21 -7 21 -21v-107
c10 18 20.667 32.333 32 43c50.667 53.333 124 80 220 80h125z" />
    <glyph glyph-name="q" unicode="q" horiz-adv-x="942" 
d="M809 634c-6.66699 55.333 -26.333 99.999 -59 133.999c-43.333 45.333 -107.666 68 -192.999 68h-125c-104.667 0 -181.334 -27.333 -230.001 -82c-40 -45.333 -60 -105.666 -60 -180.999l-1 -188v-83c0 -76.667 20.667 -138.667 62 -186c44.667 -50 121 -75 229 -75h89
c108 0 186.667 27.667 236 83c28 32.667 45.333 72.667 52 120v390zM558.001 873.999c95.333 0 168.666 -26.668 219.999 -80.001c10.667 -10.667 21 -25 31 -43v107c0 14 7 21 21 21c13.333 0 20 -7 20 -21v-1308c0 -11.333 -6.66699 -17 -20 -17c-14 0 -21 5.66699 -21 17
v582c-7.33301 -12 -15.333 -22.667 -24 -32c-51.333 -58.667 -132.666 -91 -243.999 -97h-109c-119.333 0 -205 29.333 -257 88c-48 54.667 -72 119 -72 193c0 6.66699 0.333008 13.334 1 20.001l-1 63l1 203v4c0 84 23.333 152.333 70 205c55.333 63.333 141.333 95 258 95
h126z" />
    <glyph glyph-name="r" unicode="r" horiz-adv-x="942" 
d="M544 870c114 -6.66699 196.998 -39.668 248.998 -99.001c33.333 -38 54.333 -84 63 -138c2.66699 -16 4 -31 4 -45c0 -10 -0.666992 -19.333 -2 -28c-1.33301 -11.333 -7.66602 -17 -18.999 -17c-6 0.666992 -11 3 -15 7c-2.66699 4 -4 8 -4 12v3
c1.33301 6 2 12.667 2 20c0 12 -1.33301 26 -4 42c-7.33301 47.333 -25.333 87 -54 119c-50 56.667 -130.333 85 -241 85h-90c-110 0 -190.333 -28.667 -241 -86c-31.333 -35.333 -49.666 -79.666 -54.999 -132.999v-591c0 -6 -2 -11 -6 -15s-8.66699 -6 -14 -6
c-6 0 -11 2 -15 6s-6 9 -6 15v834c0 11.333 7 17 21 17c13.333 0 20 -5.66699 20 -17v-120c8 12.667 16.667 24.667 26 36c58 66 148 99 270 99h111z" />
    <glyph glyph-name="s" unicode="s" horiz-adv-x="928" 
d="M340 452l269.999 -0.00390625c26.667 0 50.334 -2.66699 71.001 -8c42 -10 76.667 -28.333 104 -55c40 -39.333 60 -93 60 -161c0 -64 -21 -115.333 -63 -154c-53.333 -49.333 -131.333 -74 -234 -74c-9.33301 0 -18 0.333008 -26 1h-124c-142 0 -236.333 48 -283 144
c-1.33301 2.66699 -2 5.33398 -2 8.00098s0.333008 5 1 7c1.33301 4.66699 4.33301 8.33398 9 11.001c3.33301 1.33301 7 2 11 2c7.33301 -0.666992 12.333 -4.33398 15 -11.001c40 -82 123 -123 249 -123h126c7.33301 -0.666992 15 -1 23 -1c18.667 0 40 1.66699 64 5
c63.333 8.66699 111.666 28.667 144.999 60c33.333 30.667 50 72.334 50 125.001c0 57.333 -16 101.666 -48 132.999c-22 22 -51 37.333 -87 46c-17.333 4 -33.666 6 -48.999 6c-8 0.666992 -102 1 -282 1c-87.333 0 -153.333 25 -198 75c-34 38 -51 80.667 -51 128
c0 76.667 27.333 137.334 82 182.001c54 44.667 128 67 222 67h157c88 0 157.333 -24.333 208 -73c35.333 -34 60 -77.333 74 -130c0.666992 -2 1 -3.66699 1 -5c0 -3.33301 -1 -6.66602 -3 -9.99902c-2.66699 -4.66699 -6.66699 -7.66699 -12 -9
c-1.33301 -0.666992 -2.66602 -1 -3.99902 -1c-4 0 -7.66699 1.33301 -11 4c-4 2.66699 -6.66699 6.33398 -8 11.001c-30.667 116 -112.334 174 -245.001 174h-157c-83.333 0 -148.333 -18.333 -195 -55c-46.667 -37.333 -70 -89 -70 -155c0 -28.667 9 -57 27 -85
c34.667 -53.333 95.667 -80 183 -80z" />
    <glyph glyph-name="t" unicode="t" horiz-adv-x="646" 
d="M512 41c14 0 20.999 -6.66797 20.999 -20.001c0 -14 -7 -21 -21 -21h-115c-68 0 -129.667 20.333 -185 61c-52 38 -86.333 93 -103 165c-7.33301 29.333 -11 57.333 -11 84c0 6 0.333008 12 1 18v1089c0 11.333 6.66699 17 20 17c14 0 21 -5.66699 21 -17v-552h372
c14 0 21 -7 21 -21c0 -13.333 -7 -20 -21 -20h-372v-497c-0.666992 -5.33301 -1 -10.666 -1 -15.999c0 -22 3.33301 -46.333 10 -73c14.667 -64 43.667 -111.667 87 -143c48.667 -36 102.334 -54 161.001 -54h115z" />
    <glyph glyph-name="u" unicode="u" horiz-adv-x="887" 
d="M740 98c-55.333 -64.667 -162.003 -97.001 -320.003 -97.001c-138.667 0 -235.667 39 -291 117c-28 38.667 -42 77.667 -42 117v622c0 10 6.33301 15 19 15s19 -5 19 -15v-613c0 -34 13.667 -69.333 41 -106c50.667 -66 135.334 -99 254.001 -99
c138.667 0 233.334 29 284.001 87c23.333 26.667 35 56.334 35 89.001v640c0 8.66699 3.33301 14 10 16c2 0.666992 4.33301 1 7 1h6c2.66699 0 5.33398 -0.333008 8.00098 -1c6.66699 -2.66699 10 -8.66699 10 -18v-838c0 -11.333 -6.66699 -17 -20 -17s-20 5.66699 -20 17
v83z" />
    <glyph glyph-name="v" unicode="v" horiz-adv-x="859" 
d="M747 859c2 10 8.33301 15 19 15c6.66699 -1.33301 12 -4.33301 16 -9c2 -3.33301 3 -7 3 -11v-3l-293 -836c-2.66699 -10 -9 -15 -19 -15h-85c-10.667 0 -16.667 5 -18 15l-272 837v2c0 3.33301 1.33301 7 4 11c3.33301 4.66699 7 7.66699 11 9h2c12 0 19 -5 21 -15
l268 -821h59z" />
    <glyph glyph-name="w" unicode="w" horiz-adv-x="1433" 
d="M1313 854c2 10 8.33398 15 19.001 15c13.333 -2 20 -8 20 -18c0 -1.33301 -0.333008 -3 -1 -5l-256 -831c-2 -10 -8.33301 -15 -19 -15h-84c-10.667 0 -17 5 -19 15l-238 651h-42l-240 -651c-2 -10 -8 -15 -18 -15h-85c-10 0 -16 5 -18 15l-236 832v2
c0 3.33301 1.33301 7 4 11c3.33301 5.33301 7 8.33301 11 9h2c12 0 19 -5 21 -15l232 -816h56l236 653c1.33301 4.66699 4.33301 8.66699 9 12c3.33301 2 6.66602 3 9.99902 3h78c9.33301 0 15 -4.66699 17 -14l236 -654h55z" />
    <glyph glyph-name="x" unicode="x" horiz-adv-x="809" 
d="M720 23l2.00098 -7c0 -6 -3.66699 -10.667 -11 -14l-7 -2c-7.33301 -0 -12.666 3.33301 -15.999 10l-301 389l-1 1l-1 -1l-285 -389c-2.66699 -6.66699 -7.66699 -10 -15 -10l-8 2c-6.66699 3.33301 -10 8 -10 14l1 7l301 418l-267 409l-2 10l1 3
c2 4.66699 7.66699 8.33398 17 11.001c7.33301 0 12.333 -3.33301 15 -10l253 -385l260 385c3.33301 6.66699 8.66602 10 15.999 10c9.33301 -2.66699 14.666 -6.33398 15.999 -11.001l1 -3l-1 -10l-275 -409z" />
    <glyph glyph-name="y" unicode="y" horiz-adv-x="906" 
d="M808 -137c0.666992 -5.33301 1.00098 -10.668 1.00098 -16.001c0 -25.333 -4 -54 -12 -86c-16.667 -72 -50.667 -126.667 -102 -164c-56 -40.667 -117.667 -61 -185 -61h-289c-13.333 0 -20 7 -20 21c0 13.333 6.66699 20 20 20h289c58.667 0 112 17.667 160 53
c44 32 73.333 80 88 144c6 26 9 49.333 9 70c0 6 -0.333008 11.667 -1 17v244c-56.667 -63.333 -164.334 -95 -323.001 -95c-137.333 0 -235.333 41.333 -294 124c-30.667 43.333 -46 85 -46 125v592c0 15.333 6.33301 23 19 23s19 -7.66699 19 -23v-592
c0 -35.333 14.333 -71.666 43 -108.999c52 -67.333 138.333 -101 259 -101c142 0 239 29.667 291 89c23.333 26.667 35 56.667 35 90v625c0 14 6.33301 21 19 21c13.333 0 20 -7 20 -21v-990z" />
    <glyph glyph-name="z" unicode="z" horiz-adv-x="876" 
d="M766 874c4.66699 0 8.66699 -2.00098 12 -6.00098c3.33301 -3.33301 5 -7.66602 5 -12.999v-70c0 -14.667 -2.33301 -23 -7 -25l-652 -671v-50h640c4.66699 0 9 -2 13 -6c3.33301 -4 5 -8.66699 5 -14s-1.66699 -9.66602 -5 -12.999c-4 -4 -8.33301 -6 -13 -6l-665 1
c-9.33301 6 -14 12.333 -14 19l1 83l665 680l-2 52h-647c-5.33301 0 -9.66602 2 -12.999 6s-5 8.66699 -5 14s1.66699 9.66602 5 12.999c3.33301 4 7.66602 6 12.999 6h664z" />
    <glyph glyph-name="braceleft" unicode="{" horiz-adv-x="756" 
d="M620 -88c10.667 0 16 -5.33301 16 -16s-5.33301 -16 -16 -16h-276c-10.667 0 -16 5.33301 -16 16v647l-229 104c-6 2.66699 -9 7.66699 -9 15v23l5 8l233 112v722c0 11.333 5.33301 17 16 17h276c10.667 0 16 -5.33301 16 -16s-5.33301 -16 -16 -16h-259v-718l-9 -8
l-233 -115l3 -3l229 -101c5.33301 -5.33301 8.33301 -9.33301 9 -12l1 -643h259z" />
    <glyph glyph-name="bar" unicode="|" horiz-adv-x="224" 
d="M135 -155c0 -12 -6.33301 -18 -19 -18c-12 0 -18 6 -18 18v1727c0 9.33301 6 14 18 14c12.667 0 19 -4.66699 19 -14v-1727z" />
    <glyph glyph-name="braceright" unicode="}" horiz-adv-x="708" 
d="M90 -104c0 10.667 5.33301 16 16 16h259l1 643c0.666992 2.66699 3.66699 6.66699 9 12l229 101l3 3l-233 115l-9 8v718h-259c-10.667 0 -16 5.33301 -16 16s5.33301 16 16 16h276c10.667 0 16 -5.66699 16 -17v-722l233 -112l5 -8v-23c0 -7.33301 -3 -12.333 -9 -15
l-229 -104v-647c0 -10.667 -5.33301 -16 -16 -16h-276c-10.667 0 -16 5.33301 -16 16z" />
    <glyph glyph-name="asciitilde" unicode="~" horiz-adv-x="515" 
d="M389 993c14.667 -5.33301 26.9971 -12.3311 36.9971 -20.998c4 -3.33301 6.33301 -7.66602 7 -12.999v-2c0 -4 -1.33301 -8 -4 -12c-3.33301 -4 -7.66602 -6.33301 -12.999 -7c-5.33301 0 -10 1.66699 -14 5c-6.66699 5.33301 -15.334 10 -26.001 14
c-8.66699 3.33301 -17.667 5 -27 5c-11.333 0 -23.333 -2.66699 -36 -8c-16 -6 -25.667 -11 -29 -15c-30.667 -20.667 -61 -31 -91 -31c-9.33301 0 -18.333 1 -27 3c-5.33301 1.33301 -9.66602 2.66602 -12.999 3.99902c-22 7.33301 -39.667 21 -53 41
c-2 3.33301 -3 6.66602 -3 9.99902c0 1.33301 0.333008 3 1 5c0.666992 4.66699 3.33398 8.66699 8.00098 12l10 3c6.66699 0 12 -3 16 -9c8.66699 -12.667 20 -21.334 34 -26.001c8 -2.66699 16.333 -4 25 -4c10.667 0 21.667 1.66699 33 5
c14.667 4.66699 26.667 10.667 36 18c26.667 20 55 30 85 30c14.667 0 29.334 -2.33301 44.001 -7z" />
    <glyph glyph-name="exclamdown" unicode="&#xa1;" horiz-adv-x="235" 
d="M106 1418c0 12.667 6.33301 19 19 19s19 -6.33301 19 -19v-96c0 -10 -6.33301 -15 -19 -15s-19 5 -19 15v96zM144 15c0 -10 -6.33301 -15 -19 -15s-19 5 -19 15v945c0 13.333 6.33301 20 19 20s19 -6.66699 19 -20v-945z" />
    <glyph glyph-name="cent" unicode="&#xa2;" horiz-adv-x="944" 
d="M763 1139c3.33301 6.66699 9 10.334 17 11.001c12.667 -4 19 -10 19 -18c0 -2.66699 -0.666992 -5.33398 -2 -8.00098l-599 -1418c-2.66699 -7.33301 -8 -11 -16 -11l-8 1c-4 2 -7 5.66699 -9 11c-1.33301 3.33301 -2 6.33301 -2 9c0 2 0.333008 3.66699 1 5zM827 577
c-6.66699 0.666992 -11.665 3.33105 -14.998 7.99805c-2 2.66699 -3 5.66699 -3 9v3c0.666992 4 1 8.66699 1 14c0 10 -1.33301 21.667 -4 35c-7.33301 38 -24.666 72.667 -51.999 104c-49.333 56 -128 84 -236 84h-89c-108 0 -186.667 -28 -236 -84
c-36.667 -41.333 -55 -100.333 -55 -177l-1 -83l1 -188c-0.666992 -9.33301 -1 -18.666 -1 -27.999c0 -59.333 18.667 -110 56 -152c49.333 -56 128 -84 236 -84h125c85.333 0 149.666 22.667 192.999 68c41.333 43.333 62 91.333 62 144v10c0 4 1.33301 7.66699 4 11
c3.33301 4 7.66602 6.33301 12.999 7c5.33301 0 10 -2 14 -6c4 -3.33301 6 -7.33301 6 -12c0.666992 -6 1 -12 1 -18c0 -58 -24 -112 -72 -162c-51.333 -53.333 -125 -80 -221 -80h-125c-119.333 0 -207.333 32.333 -264 97c-32.667 37.333 -53.334 82.333 -62.001 135
c-2.66699 16 -4 31 -4 45c0 9.33301 0.666992 18.333 2 27l-2 203l2 63c-1.33301 8 -2 16.667 -2 26c0 13.333 1.33301 28 4 44c8.66699 53.333 29.334 98.333 62.001 135c56.667 64.667 144.667 97 264 97h109c111.333 -6.66699 192.666 -39 243.999 -97
c43.333 -49.333 65 -102.666 65 -159.999v-8c0 -6.66699 -0.333008 -11.667 -1 -15c-0.666992 -5.33301 -3 -9.33301 -7 -12c-3.33301 -2 -7.33301 -3 -12 -3z" />
    <glyph glyph-name="sterling" unicode="&#xa3;" horiz-adv-x="1001" 
d="M895 35c12 0 17.999 -5.66797 17.999 -17.001c0 -12 -6 -18 -18 -18h-786c-10 0 -15.667 4.66699 -17 14c-0.666992 2 -1 3.66699 -1 5c0 7.33301 3.66699 12.333 11 15c35.333 14 69.333 41.667 102 83c64 79.333 96.333 186 97 320v10
c0 73.333 -7.33301 157.333 -22 252h-170c-12 0 -18 6 -18 18s6 18 18 18h165c-36 214.667 -96.667 439.667 -182 675c-0.666992 2 -1 4 -1 6c0 3.33301 1 6.66602 3 9.99902c4 4.66699 9 7.33398 15 8.00098c54.667 0.666992 105.667 1 153 1
c213.333 0 353.333 -7.33301 420 -22c62 -13.333 111.333 -47 148 -101c19.333 -28.667 32 -56 38 -82c0.666992 -2 1 -4 1 -6c0 -8 -4.66699 -13 -14 -15c-2.66699 -0.666992 -5 -1 -7 -1c-7.33301 0 -12 4.33301 -14 13c-6 22.667 -17 46.334 -33 71.001
c-32 46 -74.333 75 -127 87c-60 12.667 -206.667 19 -440 19h-100c82.667 -232.667 141.334 -453.667 176.001 -663h410c11.333 0 17 -6 17 -18s-5.66699 -18 -17 -18h-405c14.667 -98 22 -185.333 22 -262c-2 -183.333 -57 -317.333 -165 -402h723z" />
    <glyph glyph-name="currency" unicode="&#xa4;" horiz-adv-x="1707" 
 />
    <glyph glyph-name="yen" unicode="&#xa5;" horiz-adv-x="973" 
d="M861 387c12.667 0 19.001 -6 19.001 -18c0 -12.667 -6.33301 -19 -19 -19h-349v-330c0 -13.333 -7 -20 -21 -20c-13.333 0 -20 6.66699 -20 20v330h-358c-12 0 -18 6.33301 -18 19c0 12 6 18 18 18h358l1 206l-1 4h-358c-12 0 -18 6 -18 18s6 18 18 18h341l-360 780l3 16
l10 7h5c11.333 0 18.666 -3.66699 21.999 -11l358 -775l324 775c2.66699 8.66699 9 13 19 13c9.33301 -2.66699 15.333 -6.66699 18 -12l2 -3l-1 -12l-324 -778h331c12.667 0 19 -6 19 -18s-6.33301 -18 -19 -18h-346l-3 -7v-203h349z" />
    <glyph glyph-name="brokenbar" unicode="&#xa6;" horiz-adv-x="1707" 
 />
    <glyph glyph-name="section" unicode="&#xa7;" horiz-adv-x="899" 
d="M187 851c-46 -34.667 -68.998 -84.002 -68.998 -148.002c0 -25.333 12.667 -54.333 38 -87c41.333 -54.667 104.666 -82 189.999 -82h191c84.667 2.66699 147.667 23.334 189 62.001c32.667 30.667 49 71.667 49 123c0 56.667 -15.667 100.334 -47 131.001
c-22 21.333 -50.333 36.333 -85 45c-18.667 4 -32.334 6 -41.001 6h-6c-6.66699 0.666992 -79 1 -217 1c-82.667 0 -146.667 -17 -192 -51zM675.002 521.998c35.333 -10.667 64.3369 -27.3301 87.0039 -49.9971c39.333 -38.667 59 -91.667 59 -159
c0 -62.667 -20.333 -113 -61 -151c-52.667 -48.667 -129.334 -73 -230.001 -73c-8 0 -16.667 0.333008 -26 1h-122c-140 0 -233 47.333 -279 142c-2 3.33301 -3 6.66602 -3 9.99902c0 6.66699 4 11.667 12 15c3.33301 2 6.66602 3 9.99902 3c6.66699 0 11.667 -4 15 -12
c39.333 -80 121 -120 245 -120h124c11.333 -0.666992 22.333 -1 33 -1c84.667 0 149.667 21 195 63c32.667 30.667 49 71.667 49 123c0 56.667 -15.667 100.334 -47 131.001c-22 21.333 -50.333 36.333 -85 45c-18.667 4 -32.334 6 -41.001 6h-18
c-11.333 0 -27.333 0.333008 -48 1c-8 -0.666992 -15.667 -1 -23 -1c-11.333 0 -19.666 0.333008 -24.999 1h-150c-86 0 -154.333 26 -205 78c-40.667 40.667 -61 83.667 -61 129c0 103.333 49.333 173.666 148 210.999c-54 14.667 -95 43 -123 85
c-22 32.667 -33 67 -33 103c0 75.333 26.667 135 80 179c54 44 127 66 219 66h154c86.667 0 155 -24 205 -72c35.333 -33.333 59.666 -76 72.999 -128c0.666992 -2.66699 1 -5 1 -7c0 -8.66699 -5 -14 -15 -16c-2.66699 -0.666992 -5 -1 -7 -1c-8 0 -13.333 4.66699 -16 14
c-30 114.667 -110.333 172 -241 172h-154c-82 0 -146 -18.333 -192 -55s-69 -87.334 -69 -152.001c0 -28.667 9 -56.334 27 -83.001c34 -52.667 93.667 -79 179 -79c154.667 0 248 -0.333008 280 -1c1.33301 0.666992 3.66602 1 6.99902 1c10 0 26.333 -2.66699 49 -8
c41.333 -10 75.333 -28 102 -54c39.333 -38.667 59 -91.667 59 -159c0 -62.667 -20.667 -113 -62 -151c-20 -18.667 -45.333 -34 -76 -46z" />
    <glyph glyph-name="dieresis" unicode="&#xa8;" horiz-adv-x="498" 
d="M385 1610c4.66699 0 8.66602 -2 11.999 -6c2.66699 -3.33301 4 -8 4 -14c0 -4.66699 -1 -9 -3 -13c-3.33301 -4.66699 -7.66602 -7 -12.999 -7h-58c-5.33301 0 -9.66602 2 -12.999 6c-4 4 -6 8.66699 -6 14s2 10 6 14c3.33301 4 7.66602 6 12.999 6h58zM175.999 1610
c4.66699 0 8.66602 -2 11.999 -6c2.66699 -3.33301 4 -8 4 -14c0 -4.66699 -1 -9 -3 -13c-3.33301 -4.66699 -7.66602 -7 -12.999 -7h-58c-5.33301 0 -9.66602 2 -12.999 6c-4 4 -6 8.66699 -6 14s2 10 6 14c3.33301 4 7.66602 6 12.999 6h58z" />
    <glyph glyph-name="copyright" unicode="&#xa9;" horiz-adv-x="1083" 
d="M823 721c-78 78.667 -172.333 118 -283 118c-111.333 0 -206 -39.333 -284 -118c-78.667 -78 -118 -172.333 -118 -283c0 -111.333 39.333 -206 118 -284c78 -78.667 172.667 -118 284 -118c110.667 0 205 39.333 283 118c78.667 78 118 172.667 118 284
c0 110.667 -39.333 205 -118 283zM849 128c-86 -85.333 -189 -128 -309 -128c-120.667 0 -224 42.667 -310 128c-85.333 86 -128 189.333 -128 310c0 120 42.667 223 128 309c86 85.333 189.333 128 310 128c120 0 223 -42.667 309 -128c85.333 -86 128 -189 128 -309
c0 -120.667 -42.667 -224 -128 -310zM664 635c-17.333 20 -46.332 29.998 -86.999 29.998h-75c-40.667 0 -70 -10 -88 -30c-12.667 -14.667 -19 -35.667 -19 -63v-276c0 -22.667 6.66699 -41.334 20 -56.001c17.333 -20 46.333 -30 87 -30h90c31.333 0 54.666 8 69.999 24
c14.667 14.667 22 33.667 22 57v8l3 9c4.66699 6 9.66699 9.33301 15 10c13.333 -1.33301 20.666 -7.66602 21.999 -18.999v-10c0 -32 -11 -59.667 -33 -83c-23.333 -24 -56.333 -36 -99 -36h-90c-52.667 0 -91.667 14.667 -117 44c-20.667 22.667 -31 49 -31 79
c0 4.66699 0.333008 9.66699 1 15v262c-0.666992 4.66699 -1 9.33398 -1 14.001c0 28.667 10.333 54.334 31 77.001c25.333 29.333 64.333 44 117 44c58.667 0 89.334 -1 92.001 -3h8c37.333 0 68.333 -13.667 93 -41c20 -22.667 30 -48.667 30 -78
c0 -5.33301 -0.333008 -10.666 -1 -15.999c-2 -11.333 -8.66699 -17 -20 -17c-6.66699 0.666992 -11.667 3 -15 7c-3.33301 3.33301 -5 7.66602 -5 12.999v8c0 22.667 -6.66699 41.667 -20 57z" />
    <glyph glyph-name="ordfeminine" unicode="&#xaa;" horiz-adv-x="648" 
d="M126 1056c-0.666992 -4.66699 -0.999023 -9.33203 -0.999023 -13.999c0 -35.333 11 -65.333 33 -90c28 -32 73.667 -48 137 -48h74c50 0 87.333 13 112 39c18.667 19.333 30 45 34 77v232c-4 27.333 -14 50.333 -30 69c-28.667 32 -74.334 48 -137.001 48h-53
c-63.333 0 -109 -16.333 -137 -49c-22 -24 -33 -53 -33 -87c0 -4.66699 0.333008 -9.33398 1 -14.001v-163zM515.001 1379c0 4.66699 1.99805 8.33594 5.99805 11.0029c2.66699 2 6.33398 3 11.001 3s8.33398 -1 11.001 -3c4 -2.66699 6 -6.33398 6 -11.001v-493
c0 -4.66699 -1.66699 -8.66699 -5 -12s-7.33301 -5 -12 -5s-8.66699 1.66699 -12 5s-5 7.33301 -5 12v55c-0.666992 -6.66699 -4.33398 -13.334 -11.001 -20.001c-31.333 -32.667 -76 -49 -134 -49h-75c-72.667 0 -126.334 19.667 -161.001 59
c-19.333 22 -31.666 48.667 -36.999 80c-2 10.667 -3 21 -3 31c0 5.33301 0.333008 10.666 1 15.999l-1 121l1 38c-0.666992 4.66699 -1 10 -1 16c0 8 0.666992 17 2 27c5.33301 32 18 59 38 81c34.667 40 88.334 60 161.001 60h65c68 -4 117.667 -24 149 -60
c2.66699 -2.66699 5 -7 7 -13z" />
    <glyph glyph-name="guillemotleft" unicode="&#xab;" horiz-adv-x="944" 
d="M425 196c4 -2 7 -5.99902 9 -11.999c1.33301 -2.66699 2 -5.33398 2 -8.00098s-0.666992 -5 -2 -7c-3.33301 -8 -9.33301 -12 -18 -12l-9 2l-290 136c-8 4 -12 10.333 -12 19v124c0 8.66699 4 14.667 12 18l290 137l9 2c8.66699 0 14.667 -4 18 -12
c1.33301 -2 2 -4.33301 2 -7c0 -2 -0.666992 -4.66699 -2 -8c-2 -6 -5 -10 -9 -12l-279 -128v-104zM811 196.001c4 -2 7 -5.99902 9 -11.999c1.33301 -2.66699 2 -5.33398 2 -8.00098s-0.666992 -5 -2 -7c-3.33301 -8 -9.33301 -12 -18 -12l-9 2l-290 136
c-8 4 -12 10.333 -12 19v124c0 8.66699 4 14.667 12 18l290 137l9 2c8.66699 0 14.667 -4 18 -12c1.33301 -2 2 -4.33301 2 -7c0 -2 -0.666992 -4.66699 -2 -8c-2 -6 -5 -10 -9 -12l-279 -128v-104z" />
    <glyph glyph-name="logicalnot" unicode="&#xac;" horiz-adv-x="1707" 
 />
    <glyph glyph-name="registered" unicode="&#xae;" horiz-adv-x="1089" 
d="M631 431c14 6 20.668 8.99902 20.001 8.99902c13.333 12 20 29.667 20 53v105c0 18.667 -5.66699 34.334 -17 47.001c-14.667 17.333 -39.334 26 -74.001 26h-154v-240h205zM706.001 492.999c0 -33.333 -10.3311 -59.667 -30.998 -79
c-12.667 -11.333 -26 -17.333 -40 -18h-39l96 -212v-3c0 -6 -4.66699 -10 -14 -12c-2 -0.666992 -4 -1 -6 -1c-6.66699 0 -11.334 2.66699 -14.001 8l-101 219h-131v-211c0 -10 -6.33301 -15 -19 -15c-10.667 0 -16 5.33301 -16 16v506c0 8 3 13 9 15
c1.33301 0.666992 2.66602 1 3.99902 1c2 0 3.66699 -0.333008 5 -1h171c45.333 0 79 -12.667 101 -38c12.667 -14.667 20.667 -32.667 24 -54c1.33301 -7.33301 2 -13.333 2 -18c0 -3.33301 -0.333008 -6.33301 -1 -9v-94zM254.003 153.998
c78 -78.667 172.667 -118 284 -118c110.667 0 205 39.333 283 118c78.667 78 118 172.667 118 284c0 110.667 -39.333 205 -118 283c-78 78.667 -172.333 118 -283 118c-111.333 0 -206 -39.333 -284 -118c-78.667 -78 -118 -172.333 -118 -283
c0 -111.333 39.333 -206 118 -284zM228.003 746.998c86 85.333 189.333 128 310 128c120 0 223 -42.667 309 -128c85.333 -86 128 -189 128 -309c0 -120.667 -42.667 -224 -128 -310c-86 -85.333 -189 -128 -309 -128c-120.667 0 -224 42.667 -310 128
c-85.333 86 -128 189.333 -128 310c0 120 42.667 223 128 309z" />
    <glyph glyph-name="macron" unicode="&#xaf;" horiz-adv-x="857" 
d="M119 1355c-13.333 0 -20 7 -20 21c0 13.333 6.66699 20 20 20h605c11.333 0 17 -6.66699 17 -20c0 -14 -5.66699 -21 -17 -21h-605z" />
    <glyph glyph-name="degree" unicode="&#xb0;" horiz-adv-x="461" 
d="M238 1393c-28.667 0 -53.332 -10.167 -73.999 -30.5s-31 -44.833 -31 -73.5c0 -29.333 10.167 -54 30.5 -74s45.166 -30 74.499 -30c28.667 0 53 10 73 30s30 44.667 30 74c0 28.667 -10 53.167 -30 73.5s-44.333 30.5 -73 30.5zM238.002 1428
c38 0 70.5 -13.5 97.5 -40.5s40.5 -59.833 40.5 -98.5c0 -38 -13.667 -70.667 -41 -98s-60 -41 -98 -41c-39.333 0 -72.333 13.5 -99 40.5s-40 59.833 -40 98.5s13.667 71.5 41 98.5s60.333 40.5 99 40.5z" />
    <glyph glyph-name="plusminus" unicode="&#xb1;" horiz-adv-x="896" 
d="M793 857c4 0 8 -2 12 -6c2.66699 -2.66699 4 -6.33398 4 -11.001s-1.33301 -8.66699 -4 -12c-4 -3.33301 -8 -5 -12 -5h-318v-324c0 -4.66699 -1.33301 -8.33398 -4 -11.001c-4 -4 -8 -6 -12 -6c-4.66699 0 -8.66699 2 -12 6c-3.33301 2.66699 -5 6.33398 -5 11.001v324
h-335c-4 0 -7.66699 1.66699 -11 5s-5 7.33301 -5 12s1.66699 8.33398 5 11.001c3.33301 4 7 6 11 6h335v341c0 8.66699 5.66699 13 17 13c10.667 0 16 -4.33301 16 -13v-341h318zM793 305c4 0 8 -2 12 -6c2.66699 -2.66699 4 -6.33398 4 -11.001s-1.33301 -8.66699 -4 -12
c-4 -3.33301 -8 -5 -12 -5h-686c-4 0 -7.66699 1.66699 -11 5s-5 7.33301 -5 12s1.66699 8.33398 5 11.001c3.33301 4 7 6 11 6h686z" />
    <glyph glyph-name="uni00B2" unicode="&#xb2;" horiz-adv-x="506" 
d="M404 911c12 0 18.0029 -5.99902 18.0029 -17.999s-6 -18 -18 -18h-269c-12 0 -18 6 -18 18v37l158 197l105 130v28c0 23.333 -6 41 -18 53c-14.667 15.333 -38.334 23 -71.001 23h-63c-34 0 -58.333 -8.33301 -73 -25c-10.667 -12.667 -16 -26.334 -16 -41.001v-5l-4 -13
c-2.66699 -4.66699 -6.33398 -7 -11.001 -7c-12.667 1.33301 -19.334 6.33301 -20.001 15c-0.666992 4.66699 -1 9 -1 13c0 22 8.33301 42.667 25 62c20 22.667 50.333 34.667 91 36l72 1c42.667 0 75 -11.333 97 -34c18.667 -19.333 28 -45 28 -77v-3
c0 -24.667 -2.33301 -40 -7 -46c-10 -14.667 -96.333 -120.667 -259 -318l1 -8h253z" />
    <glyph glyph-name="uni00B3" unicode="&#xb3;" horiz-adv-x="489" 
d="M398 1190c0 -26 -9.66895 -45.999 -29.002 -59.999c2.66699 -2 4.66699 -3.66699 6 -5c15.333 -14 23 -34 23 -60v-40c0 -20.667 -0.666992 -33 -2 -37c-2.66699 -20 -10.667 -37.333 -24 -52c-21.333 -22 -52.666 -33 -93.999 -33h-159
c-9.33301 0 -15.666 2.66699 -18.999 8c-2 3.33301 -3 6.33301 -3 9c0 4.66699 1.66699 8.66699 5 12s7.33301 5 12 5h164c31.333 0 54.333 7.66699 69 23c10.667 11.333 16 25 16 41v64c0 16 -3.66699 27.333 -11 34c-6.66699 6 -15.667 9.33301 -27 10h-154
c-4.66699 0 -8.66699 1.66699 -12 5s-5 7.33301 -5 12s1.66699 8.66699 5 12s7.33301 5 12 5h154c6 1.33301 13 5 21 11c11.333 8.66699 17 19 17 31v122c0 17.333 -5 31.666 -15 42.999c-14 16 -37.333 24 -70 24h-146c-0.666992 -20 -1 -36 -1 -48
c0 -4 -1.66699 -7.33301 -5 -10s-7.33301 -4 -12 -4h-3c-3.33301 0 -6.33301 1 -9 3c-3.33301 2.66699 -5 6.66699 -5 12v68l5 8c3.33301 3.33301 7.33301 5 12 5h164c42.667 0 74.667 -11.667 96 -35c16 -18 24 -39.333 24 -64c0 -4 -0.333008 -8.33301 -1 -13z" />
    <glyph glyph-name="acute" unicode="&#xb4;" horiz-adv-x="351" 
d="M101 1566c0 8 3.66797 14 11.001 18l140 67l9 2c8 0 13.667 -3.66699 17 -11l2 -9c0 -8 -3.66699 -13.667 -11 -17l-140 -67l-8 -2c-8.66699 0 -15.334 6.33301 -20.001 19z" />
    <glyph glyph-name="mu" unicode="&#xb5;" horiz-adv-x="910" 
d="M780 858c0 14 7 21.333 21 22h2c12.667 0 19 -6.66699 19 -20v-840c0 -13.333 -7 -20 -21 -20c-13.333 0 -20 6.66699 -20 20v86c-57.333 -66 -167.666 -99 -330.999 -99c-146.667 0 -248.334 45.667 -305.001 137v-589c0 -12.667 -6.66699 -19 -20 -19
c-12.667 0 -19 6.33301 -19 19v1303c0 10.667 6.33301 16 19 16c13.333 0 20 -5.33301 20 -16v-600c0 -36 14.333 -72.667 43 -110c52 -68.667 139.333 -103 262 -103c143.333 0 241.333 30.333 294 91c24 26.667 36 57 36 91v631z" />
    <glyph glyph-name="paragraph" unicode="&#xb6;" horiz-adv-x="1066" 
d="M682 655v738h-177c-101.333 0 -188.333 -36 -261 -108c-72 -72.667 -108 -159.667 -108 -261c0 -102 36 -189 108 -261c72.667 -72 159.667 -108 261 -108h177zM925 1429c12 0 18.001 -5.99902 18.001 -17.999v-1393c0 -12 -6 -18 -18 -18s-18 6 -18 18v1375h-189v-1375
c0 -12 -6 -18 -18 -18s-18 6 -18 18v601h-196l-7 2c-106 6.66699 -195.333 48.667 -268 126c-74 78 -111 170.333 -111 277c0 111.333 39.667 206.666 119 285.999s174.666 119 285.999 119h420z" />
    <glyph glyph-name="periodcentered" unicode="&#xb7;" horiz-adv-x="206" 
d="M127 523c0 -15.333 -8.33301 -23 -25 -23c-15.333 0 -23 7.66699 -23 23v58c0 13.333 7.66699 20 23 20c16.667 0 25 -6.66699 25 -20v-58z" />
    <glyph glyph-name="periodcentered" unicode="&#x2219;" horiz-adv-x="206" 
d="M127 523c0 -15.333 -8.33301 -23 -25 -23c-15.333 0 -23 7.66699 -23 23v58c0 13.333 7.66699 20 23 20c16.667 0 25 -6.66699 25 -20v-58z" />
    <glyph glyph-name="cedilla" unicode="&#xb8;" horiz-adv-x="574" 
d="M310 -63c33.333 -4.66699 61 -19.332 83 -43.999c22.667 -25.333 34 -55 34 -89c0 -37.333 -13 -69.333 -39 -96c-26.667 -26 -58.667 -39 -96 -39c-33.333 0 -63 11 -89 33c-3.33301 3.33301 -5.33301 7.33301 -6 12c0 4.66699 1.66699 9 5 13
c3.33301 3.33301 7.33301 5.33301 12 6c4.66699 0 8.66699 -1.66699 12 -5c19.333 -16 41.333 -24 66 -24c28 0 51.667 9.66699 71 29s29 43 29 71c0 27.333 -9.66699 50.666 -29 69.999c-19.333 20 -43 30 -71 30c-4.66699 0 -8.66699 1.66699 -12 5s-5 7.33301 -5 12v91
c0 4.66699 1.66699 8.33398 5 11.001s7.33301 4 12 4s8.66699 -1.33301 12 -4c4 -2.66699 6 -6.33398 6 -11.001v-75z" />
    <glyph glyph-name="uni00B9" unicode="&#xb9;" horiz-adv-x="342" 
d="M241 921c0 -12 -5.99902 -18 -17.999 -18s-18 6 -18 18v472h-23l-62 -59c-4.66699 -6.66699 -9.33398 -10 -14.001 -10c-3.33301 0 -6.33301 1.33301 -9 4c-4 4.66699 -6 9 -6 13c0 4.66699 2 9 6 13l76 74l50 1c12 0 18 -6 18 -18v-490z" />
    <glyph glyph-name="ordmasculine" unicode="&#xba;" horiz-adv-x="926" 
d="M514 38c109.333 0 188.666 28.334 237.999 85.001c36.667 41.333 55 100.666 55 177.999l1 208l-1 65c1.33301 10 2 20 2 30c0 58.667 -19 109 -57 151c-49.333 56 -128.666 84 -237.999 84h-90c-108.667 0 -187.667 -28 -237 -84c-38 -42 -57 -92.333 -57 -151
c0 -10 0.666992 -20 2 -30l-1 -65l1 -208c0 -30 0.666992 -50.333 2 -61c7.33301 -46.667 25 -85.667 53 -117c49.333 -56.667 128.333 -85 237 -85h90zM845 303.001c1.33301 -8 2.00098 -16.333 2.00098 -25c0 -13.333 -1.33301 -28 -4 -44
c-8.66699 -54 -29.334 -99.667 -62.001 -137c-51.333 -58 -130.333 -89.667 -237 -95l-120 -2c-120 0 -208.667 32.333 -266 97c-32.667 37.333 -53.334 83 -62.001 137c-2.66699 16 -4 30.667 -4 44c0 8.66699 0.666992 17 2 25l-1 188l1 80
c-1.33301 8.66699 -2 17.667 -2 27c0 14 1.33301 29.333 4 46c8.66699 53.333 29.334 98.666 62.001 135.999c57.333 64.667 146 97 266 97h64l56 -2c106.667 -5.33301 185.667 -37 237 -95c32.667 -37.333 53 -82.666 61 -135.999c2.66699 -16.667 4 -33 4 -49
c0 -8 -0.333008 -16 -1 -24l1 -80z" />
    <glyph glyph-name="guillemotright" unicode="&#xbb;" horiz-adv-x="944" 
d="M781 324v103.999l-279 128c-4 2 -7 6 -9 12c-1.33301 3.33301 -2 6 -2 8c0 2.66699 0.666992 5 2 7c3.33301 8 9.33301 12 18 12l9 -2l290 -137c8 -3.33301 12 -9.33301 12 -18v-124c0 -8.66699 -4 -15 -12 -19l-290 -136l-9 -2c-8.66699 0 -14.667 4 -18 12
c-1.33301 2 -2 4.33301 -2 7s0.666992 5.33398 2 8.00098c2 6 5 10 9 12zM395 323.999v103.999l-279 128c-4 2 -7 6 -9 12c-1.33301 3.33301 -2 6 -2 8c0 2.66699 0.666992 5 2 7c3.33301 8 9.33301 12 18 12l9 -2l290 -137c8 -3.33301 12 -9.33301 12 -18v-124
c0 -8.66699 -4 -15 -12 -19l-290 -136l-9 -2c-8.66699 0 -14.667 4 -18 12c-1.33301 2 -2 4.33301 -2 7s0.666992 5.33398 2 8.00098c2 6 5 10 9 12z" />
    <glyph glyph-name="onequarter" unicode="&#xbc;" horiz-adv-x="1122" 
d="M1013 1428c3.33301 5.33301 8.66602 7.99902 15.999 7.99902h2c10.667 -5.33301 16 -11.666 16 -18.999c0 -2.66699 -1 -5.66699 -3 -9l-894 -1399c-4 -6 -9.33301 -9 -16 -9h-2l-8 3c-3.33301 2 -5.66602 6 -6.99902 12c-0.666992 2 -1 3.66699 -1 5c0 3.33301 1 6 3 8z
M380 920.999c0 -12 -5.99902 -18 -17.999 -18s-18 6 -18 18v472h-22l-63 -59c-4.66699 -6.66699 -9.33398 -10 -14.001 -10c-2.66699 0 -5.66699 1.33301 -9 4c-4 4.66699 -6 9 -6 13c0 4.66699 2 9 6 13l76 74l50 1c12 0 18 -6 18 -18v-490zM973.001 299.999
c0 6 1.66699 10.667 5 14c3.33301 2.66699 7.33301 4 12 4h3c3.33301 0 6.66602 -1 9.99902 -3c3.33301 -2.66699 5 -6.33398 5 -11.001v-270c0 -5.33301 -1.66699 -9.66602 -5 -12.999s-7.66602 -5 -12.999 -5c-4.66699 0 -8.66699 1.66699 -12 5s-5 7.66602 -5 12.999v134
h-249c-6 0 -11 2 -15 6c-3.33301 3.33301 -5 7.33301 -5 12v34c0 6.66699 1.33301 13.334 4 20.001c0.666992 1.33301 17 27 49 77l133 211l4 5l11 3l10 -3c4 -2 6.33301 -5.66699 7 -11c0.666992 -2 1 -4 1 -6s-0.666992 -4.33301 -2 -7l-148 -233
c-20.667 -32.667 -31.667 -49.667 -33 -51v-21h233v96z" />
    <glyph glyph-name="onehalf" unicode="&#xbd;" horiz-adv-x="1196" 
d="M1013 1428c3.33301 5.33301 8.66602 7.99902 15.999 7.99902h2c10.667 -5.33301 16 -11.666 16 -18.999c0 -2.66699 -1 -5.66699 -3 -9l-894 -1399c-4 -6 -9.33301 -9 -16 -9h-2l-8 3c-3.33301 2 -5.66602 6 -6.99902 12c-0.666992 2 -1 3.66699 -1 5c0 3.33301 1 6 3 8z
M1047 79.999c12 0 18.002 -5.99902 18.002 -17.999s-6 -18 -18 -18h-269c-12 0 -18 6 -18 18l-1 37l159 197c65.333 80.667 100 124 104 130v28c0 23.333 -5.66699 41 -17 53c-14.667 15.333 -38.334 23 -71.001 23h-63c-34 0 -58.333 -8.33301 -73 -25
c-10.667 -12.667 -16 -26.334 -16 -41.001v-5l-4 -13c-3.33301 -4.66699 -7.33301 -7 -12 -7c-12 1.33301 -18.667 6.33301 -20 15c-0.666992 4 -1 7.66699 -1 11c0 22.667 8.66699 44 26 64c20 22.667 50.333 34.667 91 36l71 1c43.333 0 75.666 -11.333 96.999 -34
c18.667 -18.667 28 -43.334 28 -74.001v-15c0 -19.333 -2 -31.666 -6 -36.999c-10 -14.667 -96.333 -120.667 -259 -318l1 -8h253zM380.002 921c0 -12 -5.99902 -18 -17.999 -18s-18 6 -18 18v472h-22l-63 -59c-4.66699 -6.66699 -9.33398 -10 -14.001 -10
c-2.66699 0 -5.66699 1.33301 -9 4c-4 4.66699 -6 9 -6 13c0 4.66699 2 9 6 13l76 74l50 1c12 0 18 -6 18 -18v-490z" />
    <glyph glyph-name="threequarters" unicode="&#xbe;" horiz-adv-x="1114" 
d="M1013 1428c3.33301 5.33301 8.66602 7.99902 15.999 7.99902h2c10.667 -5.33301 16 -11.666 16 -18.999c0 -2.66699 -1 -5.66699 -3 -9l-894 -1399c-4 -6 -9.33301 -9 -16 -9h-2l-8 3c-3.33301 2 -5.66602 6 -6.99902 12c-0.666992 2 -1 3.66699 -1 5c0 3.33301 1 6 3 8z
M973 299.999c0 6 1.66699 10.667 5 14c3.33301 2.66699 7.33301 4 12 4h3c3.33301 0 6.66602 -1 9.99902 -3c3.33301 -2.66699 5 -6.33398 5 -11.001v-270c0 -5.33301 -1.66699 -9.66602 -5 -12.999s-7.66602 -5 -12.999 -5c-4.66699 0 -8.66699 1.66699 -12 5
s-5 7.66602 -5 12.999v134h-249c-6 0 -11 2 -15 6c-3.33301 3.33301 -5 7.33301 -5 12v34c0 6.66699 1.33301 13.334 4 20.001c0.666992 1.33301 17 27 49 77l133 211l4 5l11 3l10 -3c4 -2 6.33301 -5.66699 7 -11c0.666992 -2 1 -4 1 -6s-0.666992 -4.33301 -2 -7
l-148 -233c-20.667 -32.667 -31.667 -49.667 -33 -51v-21h233v96zM461 1190c0 -26 -9.66992 -45.999 -29.0029 -59.999c2.66699 -2 4.66699 -3.66699 6 -5c15.333 -14 23 -34 23 -60v-40c0 -20.667 -0.333008 -33 -1 -37c-3.33301 -20 -11.666 -37.333 -24.999 -52
c-21.333 -22 -52.666 -33 -93.999 -33h-159c-9.33301 0 -15.666 2.66699 -18.999 8c-2 3.33301 -3 6.33301 -3 9c0 4.66699 1.66699 8.66699 5 12s7.33301 5 12 5h164c32 0 55 7.66699 69 23c10.667 11.333 16 25 16 41v64c0 16 -3.66699 27.333 -11 34
c-6.66699 6 -15.667 9.33301 -27 10h-153c-5.33301 0 -9.66602 1.66699 -12.999 5s-5 7.33301 -5 12s1.66699 8.66699 5 12s7.66602 5 12.999 5h153c6 1.33301 13 5 21 11c11.333 8.66699 17 19 17 31v122c0 17.333 -5 31.666 -15 42.999c-14 16 -37.333 24 -70 24h-146
c-0.666992 -20 -1 -36 -1 -48c0 -4 -1.66699 -7.33301 -5 -10s-7.33301 -4 -12 -4h-3c-3.33301 0 -6.33301 1 -9 3c-3.33301 2.66699 -5 6.66699 -5 12c0 14 0.333008 36.667 1 68l4 8c3.33301 3.33301 7.33301 5 12 5h164c42.667 0 74.667 -11.667 96 -35
c16 -18 24 -39.333 24 -64c0 -4 -0.333008 -8.33301 -1 -13z" />
    <glyph glyph-name="questiondown" unicode="&#xbf;" horiz-adv-x="1024" 
d="M520 1316c0 -10 -6.33301 -15 -19 -15s-19 5 -19 15v96c0 12.667 6.33301 19 19 19s19 -6.33301 19 -19v-96zM107 419c26.667 38 156.001 160.335 388.001 367.002l-1 237c0 12.667 6.33301 19 19 19h3l13 -8l3 -11l-1 -248c0 -6 -2.33301 -10.667 -7 -14
c-232 -206.667 -360.333 -328 -385 -364c-3.33301 -8 -5 -31.333 -5 -70v-34c0 -76.667 20.333 -136 61 -178c50 -51.333 128 -77 234 -77h186c110 0 190 28.667 240 86c36.667 42 55 102 55 180v3c0 10.667 5.66699 16.667 17 18c13.333 0 20.666 -5.66699 21.999 -17
c1.33301 -12 2 -23.667 2 -35c0 -66 -22.333 -124.333 -67 -175c-52.667 -59.333 -134 -91.333 -244 -96l-211 -2c-116.667 0 -203.667 29.667 -261 89c-48 49.333 -72 115.666 -72 198.999v28c0 57.333 3.66699 91.666 11 102.999z" />
    <glyph glyph-name="Agrave" unicode="&#xc0;" horiz-adv-x="1008" 
d="M505 1393c-150 0 -255.667 -31.666 -317 -94.999c-32 -32.667 -48.333 -66.334 -49 -101.001v-554h723v553c-1.33301 34 -17.333 67 -48 99c-60.667 65.333 -163.667 98 -309 98zM505 1434c164.667 0 280 -38.333 346 -115c34.667 -40 52 -81 52 -123v-1176
c0 -13.333 -7 -20 -21 -20c-13.333 0 -20 6.66699 -20 20v583h-723v-583c0 -10.667 -7 -16 -21 -16c-13.333 0 -20 5.33301 -20 16v1177c0 39.333 17.667 79.333 53 120c68 78 186 117 354 117zM569 1547l-8 2l-140 67c-7.33301 3.33301 -11 9 -11 17l2 9
c3.33301 7.33301 9.33301 11 18 11l8 -2l140 -67c7.33301 -4 11 -10 11 -18c-4 -12.667 -10.667 -19 -20 -19z" />
    <glyph glyph-name="Aacute" unicode="&#xc1;" horiz-adv-x="1004" 
d="M510 1393c-150 0 -255.667 -31.666 -317 -94.999c-32 -32.667 -48.333 -66.334 -49 -101.001v-554h723v553c-1.33301 34 -17.333 67 -48 99c-60.667 65.333 -163.667 98 -309 98zM510 1434c164.667 0 280 -38.333 346 -115c34.667 -40 52 -81 52 -123v-1176
c0 -13.333 -7 -20 -21 -20c-13.333 0 -20 6.66699 -20 20v583h-723v-583c0 -10.667 -7 -16 -21 -16c-13.333 0 -20 5.33301 -20 16v1177c0 39.333 17.667 79.333 53 120c68 78 186 117 354 117zM421 1566c0 8 3.66797 14 11.001 18l140 67l9 2c8 0 13.667 -3.66699 17 -11
l2 -9c0 -8 -3.66699 -13.667 -11 -17l-140 -67l-8 -2c-8.66699 0 -15.334 6.33301 -20.001 19z" />
    <glyph glyph-name="Acircumflex" unicode="&#xc2;" horiz-adv-x="1004" 
d="M819 1295c-60.667 65.333 -163.667 98.001 -309 98.001c-150 0 -255.667 -31.667 -317 -95c-32 -32.667 -48.333 -66.334 -49 -101.001v-554h723v553c-1.33301 34 -17.333 67 -48 99zM156 1317c68 78 186 117 354 117c164.667 0 280 -38.333 346 -115
c34.667 -40 52 -81 52 -123v-1176c0 -13.333 -7 -20 -21 -20c-13.333 0 -20 6.66699 -20 20v583h-723v-583c0 -10.667 -7 -16 -21 -16c-13.333 0 -20 5.33301 -20 16v1177c0 39.333 17.667 79.333 53 120zM569 1680c4 0 8 -1.33105 12 -3.99805
c3.33301 -2.66699 5.66602 -6 6.99902 -10l40 -87c0.666992 -2.66699 1 -5.33398 1 -8.00098s-0.666992 -5.66699 -2 -9c-2 -5.33301 -5.66699 -9 -11 -11l-8 -1c-4 0 -7.66699 1.33301 -11 4c-4 2 -6.66699 5 -8 9l-31 75h-95l-35 -75c-1.33301 -4 -3.66602 -7 -6.99902 -9
c-4 -2.66699 -8 -4 -12 -4c-8.66699 2.66699 -14.667 6.66699 -18 12c-2 3.33301 -3 6.66602 -3 9.99902c0 2 0.333008 4 1 6l44 89c1.33301 3.33301 4 6.33301 8 9c3.33301 2.66699 7 4 11 4h117z" />
    <glyph glyph-name="Atilde" unicode="&#xc3;" horiz-adv-x="1004" 
d="M819 1295c-60.667 65.333 -163.667 98.001 -309 98.001c-150 0 -255.667 -31.667 -317 -95c-32 -32.667 -48.333 -66.334 -49 -101.001v-554h723v553c-1.33301 34 -17.333 67 -48 99zM156 1317c68 78 186 117 354 117c164.667 0 280 -38.333 346 -115
c34.667 -40 52 -81 52 -123v-1176c0 -13.333 -7 -20 -21 -20c-13.333 0 -20 6.66699 -20 20v583h-723v-583c0 -10.667 -7 -16 -21 -16c-13.333 0 -20 5.33301 -20 16v1177c0 39.333 17.667 79.333 53 120zM640 1649c14.667 -5.33301 26.9971 -12.3311 36.9971 -20.998
c4 -3.33301 6.33301 -7.66602 7 -12.999v-2c0 -4 -1.33301 -8 -4 -12c-3.33301 -4 -7.66602 -6.33301 -12.999 -7c-5.33301 0 -10 1.66699 -14 5c-6.66699 5.33301 -15.334 10 -26.001 14c-8.66699 3.33301 -17.667 5 -27 5c-11.333 0 -23.333 -2.66699 -36 -8
c-16 -6 -25.667 -11 -29 -15c-30.667 -20.667 -61 -31 -91 -31c-9.33301 0 -18.333 1 -27 3c-5.33301 1.33301 -9.66602 2.66602 -12.999 3.99902c-22 7.33301 -39.667 21 -53 41c-2 3.33301 -3 6.66602 -3 9.99902c0 1.33301 0.333008 3 1 5
c0.666992 4.66699 3.33398 8.66699 8.00098 12l10 3c6.66699 0 12 -3 16 -9c8.66699 -12.667 20 -21.334 34 -26.001c8 -2.66699 16.333 -4 25 -4c10.667 0 21.667 1.66699 33 5c14.667 4.66699 26.667 10.667 36 18c26.667 20 55 30 85 30
c14.667 0 29.334 -2.33301 44.001 -7z" />
    <glyph glyph-name="Adieresis" unicode="&#xc4;" horiz-adv-x="1004" 
d="M819 1295c-60.667 65.333 -163.667 98.001 -309 98.001c-150 0 -255.667 -31.667 -317 -95c-32 -32.667 -48.333 -66.334 -49 -101.001v-554h723v553c-1.33301 34 -17.333 67 -48 99zM156 1317c68 78 186 117 354 117c164.667 0 280 -38.333 346 -115
c34.667 -40 52 -81 52 -123v-1176c0 -13.333 -7 -20 -21 -20c-13.333 0 -20 6.66699 -20 20v583h-723v-583c0 -10.667 -7 -16 -21 -16c-13.333 0 -20 5.33301 -20 16v1177c0 39.333 17.667 79.333 53 120zM669 1610c5.33301 0 10 -2.33301 14 -7
c2.66699 -3.33301 4 -8.33301 4 -15c0 -5.33301 -1 -10 -3 -14c-4 -5.33301 -9 -8 -15 -8h-63c-6 0 -10.667 2.33301 -14 7c-4.66699 4 -7 9 -7 15s2.33301 11 7 15c3.33301 4.66699 8 7 14 7h63zM440 1610c5.33301 0 10 -2.33301 14 -7c2.66699 -3.33301 4 -8.33301 4 -15
c0 -5.33301 -1 -10 -3 -14c-4 -5.33301 -9 -8 -15 -8h-63c-6 0 -10.667 2.33301 -14 7c-4.66699 4 -7 9 -7 15s2.33301 11 7 15c3.33301 4.66699 8 7 14 7h63z" />
    <glyph glyph-name="Aring" unicode="&#xc5;" horiz-adv-x="1004" 
d="M510 1393c-150 0 -255.667 -31.666 -317 -94.999c-32 -32.667 -48.333 -66.334 -49 -101.001v-554h723v553c-1.33301 34 -17.333 67 -48 99c-60.667 65.333 -163.667 98 -309 98zM510 1434c164.667 0 280 -38.333 346 -115c34.667 -40 52 -81 52 -123v-1176
c0 -13.333 -7 -20 -21 -20c-13.333 0 -20 6.66699 -20 20v583h-723v-583c0 -10.667 -7 -16 -21 -16c-13.333 0 -20 5.33301 -20 16v1177c0 39.333 17.667 79.333 53 120c68 78 186 117 354 117zM558 1660c-12 12 -26 18 -42 18c-16.667 0 -31 -6 -43 -18
c-11.333 -11.333 -17 -25.333 -17 -42s5.66699 -31 17 -43c12 -11.333 26.333 -17 43 -17c16 0 30 5.66699 42 17c11.333 12 17 26.333 17 43s-5.66699 30.667 -17 42zM584 1550c-19.333 -18.667 -42 -28 -68 -28c-26.667 0 -49.334 9.33301 -68.001 28
c-19.333 18.667 -29 41.334 -29 68.001s9.66699 49.334 29 68.001c18.667 18.667 41.334 28 68.001 28c26 0 48.667 -9.33301 68 -28c18.667 -18.667 28 -41.334 28 -68.001s-9.33301 -49.334 -28 -68.001z" />
    <glyph glyph-name="AE" unicode="&#xc6;" horiz-adv-x="1788" 
d="M876 1398c-6 -3.33301 -127 -5 -363 -5c-156 0 -264.667 -34.667 -326 -104c-30 -34.667 -45.667 -71.667 -47 -111v-524h736v744zM1683 41c14 0 20.999 -6.66699 20.999 -20c0 -14 -7 -21 -21 -21h-786c-14 0 -21 7 -21 21v592h-736v-592
c0 -11.333 -6.66699 -17 -20 -17c-14 0 -21 5.66699 -21 17v1157c0 46.667 15.333 89.667 46 129c66.667 85.333 189.334 128 368.001 128h1170c14 0 21 -7 21 -21s-7 -21 -21 -21h-765v-739h661c14 0 21 -7 21 -21c0 -13.333 -7 -20 -21 -20h-661v-572h765z" />
    <glyph glyph-name="Ccedilla" unicode="&#xc7;" horiz-adv-x="1007" 
d="M546 -62c35.333 -4.66699 65 -20.333 89 -47c24.667 -27.333 37 -59.333 37 -96c0 -39.333 -14.333 -73.333 -43 -102c-28 -28 -62 -42 -102 -42c-36 0 -67.667 12 -95 36c-4 3.33301 -6.33301 7.33301 -7 12c0 5.33301 1.66699 10 5 14s7.66602 6 12.999 6h3
c4 0 7.33301 -1.33301 10 -4c20.667 -18 44.334 -27 71.001 -27c29.333 0 54.666 10.667 75.999 32c20.667 20.667 31 45.667 31 75c0 30 -10.333 55.333 -31 76c-21.333 21.333 -46.666 32 -75.999 32c-5.33301 0 -9.66602 1.66699 -12.999 5c-4 4 -6 8.33301 -6 13v98
c0 5.33301 2 9.33301 6 12s8.33301 4 13 4c5.33301 0 9.66602 -1.33301 12.999 -4c4 -2.66699 6 -6.66699 6 -12v-81zM932 1136c-2 -12 -8.99805 -17.999 -20.998 -17.999c-14 1.33301 -21 8 -21 20v3c1.33301 5.33301 2 11.666 2 18.999
c0 11.333 -1.33301 24.666 -4 39.999c-7.33301 44.667 -24 82 -50 112c-48 54 -124.333 81 -229 81h-178c-104.667 0 -180.667 -27 -228 -81c-36 -40.667 -54 -88.667 -54 -144c0 -8.66699 0.333008 -17.667 1 -27v-845c-0.666992 -8 -1 -16 -1 -24
c0 -58.667 18 -108.334 54 -149.001c47.333 -54 123.333 -81 228 -81h214c82 0 144 21.667 186 65c40 40.667 60 91.334 60 152.001c0 5.33301 -0.333008 11 -1 17v4l5 11c4 4.66699 8.66699 7.33398 14 8.00098h1c13.333 0 20.666 -6.33301 21.999 -19
c0.666992 -7.33301 1 -14.666 1 -21.999c0 -70 -24 -129.667 -72 -179c-50 -52.667 -122 -79 -216 -79h-214c-117.333 0 -204 31.667 -260 95c-42.667 48.667 -64 105.334 -64 170.001c0 11.333 0.666992 22.666 2 33.999v839c-1.33301 12 -2 23.667 -2 35
c0 62 21.333 117.333 64 166c56 63.333 142.667 95 260 95c135.333 -0.666992 204 -1.66699 206 -3c103.333 -3.33301 180.666 -34 231.999 -92c43.333 -48.667 65 -105.667 65 -171c0 -10.667 -0.666992 -21.334 -2 -32.001z" />
    <glyph glyph-name="Egrave" unicode="&#xc8;" horiz-adv-x="1023" 
d="M144 1393v-747h662c13.333 0 20 -7 20 -21s-6.66699 -21 -20 -21h-662v-563h766c13.333 0 20 -6.66699 20 -20c0 -14 -6.66699 -21 -20 -21h-786c-14 0 -21 7 -21 21v1392c0 14 7 21 21 21h786c13.333 0 20 -7 20 -21c0 -13.333 -6.66699 -20 -20 -20h-766zM599 1547
l-8 2l-140 67c-7.33301 3.33301 -11 9 -11 17l2 9c3.33301 7.33301 9.33301 11 18 11l8 -2l140 -67c7.33301 -4 11 -10 11 -18c-4 -12.667 -10.667 -19 -20 -19z" />
    <glyph glyph-name="Eacute" unicode="&#xc9;" horiz-adv-x="1017" 
d="M144 1393v-747h662c13.333 0 20 -7 20 -21s-6.66699 -21 -20 -21h-662v-563h766c13.333 0 20 -6.66699 20 -20c0 -14 -6.66699 -21 -20 -21h-786c-14 0 -21 7 -21 21v1392c0 14 7 21 21 21h786c13.333 0 20 -7 20 -21c0 -13.333 -6.66699 -20 -20 -20h-766zM440 1566
c0 8 3.66699 14 11 18l140 67l8 2c8.66699 0 14.667 -3.66699 18 -11l2 -9c0 -8 -3.66699 -13.667 -11 -17l-140 -67l-8 -2c-9.33301 0 -16 6.33301 -20 19z" />
    <glyph glyph-name="Ecircumflex" unicode="&#xca;" horiz-adv-x="1028" 
d="M144 1393v-747h662c13.333 0 20 -7 20 -21s-6.66699 -21 -20 -21h-662v-563h766c13.333 0 20 -6.66699 20 -20c0 -14 -6.66699 -21 -20 -21h-786c-14 0 -21 7 -21 21v1392c0 14 7 21 21 21h786c13.333 0 20 -7 20 -21c0 -13.333 -6.66699 -20 -20 -20h-766zM589 1670
c4 0 8 -1.33105 12 -3.99805c3.33301 -2.66699 5.66602 -6 6.99902 -10l40 -87c0.666992 -2.66699 1 -5.33398 1 -8.00098s-0.666992 -5.66699 -2 -9c-2 -5.33301 -5.66699 -9 -11 -11l-8 -1c-4 0 -7.66699 1.33301 -11 4c-4 2 -6.66699 5 -8 9l-31 75h-95l-35 -75
c-1.33301 -4 -3.66602 -7 -6.99902 -9c-4 -2.66699 -8 -4 -12 -4c-8.66699 2.66699 -14.667 6.66699 -18 12c-2 3.33301 -3 6.66602 -3 9.99902c0 2 0.333008 4 1 6l44 89c1.33301 3.33301 4 6.33301 8 9c3.33301 2.66699 7 4 11 4h117z" />
    <glyph glyph-name="Edieresis" unicode="&#xcb;" horiz-adv-x="1017" 
d="M144 1393v-747h662c13.333 0 20 -7 20 -21s-6.66699 -21 -20 -21h-662v-563h766c13.333 0 20 -6.66699 20 -20c0 -14 -6.66699 -21 -20 -21h-786c-14 0 -21 7 -21 21v1392c0 14 7 21 21 21h786c13.333 0 20 -7 20 -21c0 -13.333 -6.66699 -20 -20 -20h-766zM669 1610
c5.33301 0 10 -2.33301 14 -7c2.66699 -3.33301 4 -8.33301 4 -15c0 -5.33301 -1 -10 -3 -14c-4 -5.33301 -9 -8 -15 -8h-63c-6 0 -10.667 2.33301 -14 7c-4.66699 4 -7 9 -7 15s2.33301 11 7 15c3.33301 4.66699 8 7 14 7h63zM440 1610c5.33301 0 10 -2.33301 14 -7
c2.66699 -3.33301 4 -8.33301 4 -15c0 -5.33301 -1 -10 -3 -14c-4 -5.33301 -9 -8 -15 -8h-63c-6 0 -10.667 2.33301 -14 7c-4.66699 4 -7 9 -7 15s2.33301 11 7 15c3.33301 4.66699 8 7 14 7h63z" />
    <glyph glyph-name="Igrave" unicode="&#xcc;" horiz-adv-x="257" 
d="M126 0c-14 0 -21 7 -21 21v1396c0 11.333 7 17 21 17s21 -5.66699 21 -17v-1396c0 -14 -7 -21 -21 -21zM203 1547l-8 2l-140 67c-7.33301 3.33301 -11 9 -11 17l2 9c3.33301 7.33301 9.33301 11 18 11l8 -2l140 -67c7.33301 -4 11 -10 11 -18
c-4 -12.667 -10.667 -19 -20 -19z" />
    <glyph glyph-name="Iacute" unicode="&#xcd;" horiz-adv-x="257" 
d="M126 0c-14 0 -21 7 -21 21v1396c0 11.333 7 17 21 17s21 -5.66699 21 -17v-1396c0 -14 -7 -21 -21 -21zM44 1566c0 8 3.66699 14 11 18l140 67l8 2c8.66699 0 14.667 -3.66699 18 -11l2 -9c0 -8 -3.66699 -13.667 -11 -17l-140 -67l-8 -2c-9.33301 0 -16 6.33301 -20 19z
" />
    <glyph glyph-name="Icircumflex" unicode="&#xce;" horiz-adv-x="286" 
d="M169 21c0 -14 -7 -21 -21 -21s-21 7 -21 21v1396c0 11.333 7 17 21 17s21 -5.66699 21 -17v-1396zM202 1670c4 0 8 -1.33105 12 -3.99805c3.33301 -2.66699 5.66602 -6 6.99902 -10l40 -87c0.666992 -2.66699 1 -5.33398 1 -8.00098s-0.666992 -5.66699 -2 -9
c-2 -5.33301 -5.66699 -9 -11 -11l-8 -1c-4 0 -7.66699 1.33301 -11 4c-4 2 -6.66699 5 -8 9l-31 75h-95l-35 -75c-1.33301 -4 -3.66602 -7 -6.99902 -9c-4 -2.66699 -8 -4 -12 -4c-8.66699 2.66699 -14.667 6.66699 -18 12c-2 3.33301 -3 6.66602 -3 9.99902
c0 2 0.333008 4 1 6l44 89c1.33301 3.33301 4 6.33301 8 9c3.33301 2.66699 7 4 11 4h117z" />
    <glyph glyph-name="Idieresis" unicode="&#xcf;" horiz-adv-x="373" 
d="M214 21c0 -14 -7 -21 -21 -21s-21 7 -21 21v1396c0 11.333 7 17 21 17s21 -5.66699 21 -17v-1396zM338 1610c5.33301 0 10 -2.33301 14 -7c2.66699 -3.33301 4 -8.33301 4 -15c0 -5.33301 -1 -10 -3 -14c-4 -5.33301 -9 -8 -15 -8h-63c-6 0 -10.667 2.33301 -14 7
c-4.66699 4 -7 9 -7 15s2.33301 11 7 15c3.33301 4.66699 8 7 14 7h63zM109 1610c5.33301 0 10 -2.33301 14 -7c2.66699 -3.33301 4 -8.33301 4 -15c0 -5.33301 -1 -10 -3 -14c-4 -5.33301 -9 -8 -15 -8h-63c-6 0 -10.667 2.33301 -14 7c-4.66699 4 -7 9 -7 15
s2.33301 11 7 15c3.33301 4.66699 8 7 14 7h63z" />
    <glyph glyph-name="Eth" unicode="&#xd0;" horiz-adv-x="1224" 
d="M113 700c-13.333 0 -20 7 -20 21c0 13.333 6.66699 20 20 20h320c11.333 0 17 -6.66699 17 -20c0 -14 -5.66699 -21 -17 -21h-320zM809 41c104.667 0 180.667 27 228 81c36 40 54 88 54 144c0 8.66699 -0.333008 17.667 -1 27v845c0.666992 8 1 16 1 24
c0 59.333 -18 109.333 -54 150c-47.333 54 -123.333 81 -228 81h-477v-1352h477zM809 1434c117.333 0 203.999 -31.667 259.999 -95c42.667 -48.667 64 -104.667 64 -168c0 -11.333 -0.666992 -23 -2 -35v-840c0.666992 0 1.33398 -6.33301 2.00098 -19
c0 -16 -1.33301 -32.333 -4 -49c-8 -52.667 -28 -97 -60 -133c-56 -63.333 -142.667 -95 -260 -95h-497c-14 0 -21 7 -21 21v1392c0 14 7 21 21 21h497z" />
    <glyph glyph-name="Ntilde" unicode="&#xd1;" horiz-adv-x="1018" 
d="M886 1423c0 11.333 7 17 21 17c13.333 0 20 -5.66699 20 -17v-1399c0 -14 -6.66699 -21 -20 -21h-63c-8.66699 0 -15 3.66699 -19 11l-660 1378h-16v-1371c0 -14 -7 -21 -21 -21s-21 7 -21 21v1392c0 14 7 21 21 21h51c8.66699 0 15 -4 19 -12l659 -1377h29v1378z
M715 1586c-9.33301 7.33301 -20.334 13.335 -33.001 18.002c-15.333 6 -29.666 9 -42.999 9c-26.667 0 -51 -10.667 -73 -32h-2c-32 -22.667 -63.667 -34 -95 -34c-10.667 0 -21.334 1.33301 -32.001 4c-6 1.33301 -10.667 2.66602 -14 3.99902
c-24 8.66699 -43 23.667 -57 45c-2 3.33301 -3 6.33301 -3 9c0 3.33301 2 6.66602 6 9.99902c3.33301 2 6.33301 3 9 3c4 0 7.33301 -2.33301 10 -7c11.333 -16 26 -27.333 44 -34c11.333 -4 23 -6 35 -6c14.667 0 30 3 46 9c9.33301 3.33301 18.333 7.66602 27 12.999l10 7
h1c28 22.667 57.667 34 89 34c16.667 0 33.667 -3 51 -9c16 -5.33301 29.667 -12.666 41 -21.999c4 -2.66699 6 -6 6 -10c0 -2.66699 -1.33301 -5.66699 -4 -9c-3.33301 -4 -6.66602 -6 -9.99902 -6s-6.33301 1.33301 -9 4z" />
    <glyph glyph-name="Ograve" unicode="&#xd2;" horiz-adv-x="1012" 
d="M515 1390c-151.333 0 -258.333 -32.333 -321 -97c-32.667 -32.667 -49.334 -66.667 -50.001 -102v-951c0.666992 -35.333 17.334 -69.333 50.001 -102c62.667 -64.667 169.667 -97 321 -97c147.333 0 252 33 314 99c30.667 33.333 47 67 49 101v947
c-2 34.667 -18.333 68.667 -49 102c-62 66.667 -166.667 100 -314 100zM515 1431c167.333 0 284.666 -39.333 351.999 -118c34.667 -40 52 -81.667 52 -125v-948c0 -42 -17.333 -83 -52 -123c-67.333 -78 -184.666 -117 -351.999 -117c-170 0 -289.667 39.667 -359 119
c-35.333 40.667 -53 81 -53 121v951c0 40 17.667 80.333 53 121c69.333 79.333 189 119 359 119zM569 1547l-8 2l-140 67c-7.33301 3.33301 -11 9 -11 17l2 9c3.33301 7.33301 9.33301 11 18 11l8 -2l140 -67c7.33301 -4 11 -10 11 -18c-4 -12.667 -10.667 -19 -20 -19z" />
    <glyph glyph-name="Oacute" unicode="&#xd3;" horiz-adv-x="1012" 
d="M515 1390c-151.333 0 -258.333 -32.333 -321 -97c-32.667 -32.667 -49.334 -66.667 -50.001 -102v-951c0.666992 -35.333 17.334 -69.333 50.001 -102c62.667 -64.667 169.667 -97 321 -97c147.333 0 252 33 314 99c30.667 33.333 47 67 49 101v947
c-2 34.667 -18.333 68.667 -49 102c-62 66.667 -166.667 100 -314 100zM515 1431c167.333 0 284.666 -39.333 351.999 -118c34.667 -40 52 -81.667 52 -125v-948c0 -42 -17.333 -83 -52 -123c-67.333 -78 -184.666 -117 -351.999 -117c-170 0 -289.667 39.667 -359 119
c-35.333 40.667 -53 81 -53 121v951c0 40 17.667 80.333 53 121c69.333 79.333 189 119 359 119zM421 1566c0 8 3.66797 14 11.001 18l140 67l9 2c8 0 13.667 -3.66699 17 -11l2 -9c0 -8 -3.66699 -13.667 -11 -17l-140 -67l-8 -2c-8.66699 0 -15.334 6.33301 -20.001 19z
" />
    <glyph glyph-name="Ocircumflex" unicode="&#xd4;" horiz-adv-x="1012" 
d="M829 1290c-62 66.667 -166.667 100 -314 100c-151.333 0 -258.333 -32.333 -321 -97c-32.667 -32.667 -49.334 -66.667 -50.001 -102v-951c0.666992 -35.333 17.334 -69.333 50.001 -102c62.667 -64.667 169.667 -97 321 -97c147.333 0 252 33 314 99
c30.667 33.333 47 67 49 101v947c-2 34.667 -18.333 68.667 -49 102zM156 1312c69.333 79.333 189 119 359 119c167.333 0 284.666 -39.333 351.999 -118c34.667 -40 52 -81.667 52 -125v-948c0 -42 -17.333 -83 -52 -123c-67.333 -78 -184.666 -117 -351.999 -117
c-170 0 -289.667 39.667 -359 119c-35.333 40.667 -53 81 -53 121v951c0 40 17.667 80.333 53 121zM579 1670c4 0 8 -1.33105 12 -3.99805c3.33301 -2.66699 5.66602 -6 6.99902 -10l40 -87c0.666992 -2.66699 1 -5.33398 1 -8.00098s-0.666992 -5.66699 -2 -9
c-2 -5.33301 -5.66699 -9 -11 -11l-8 -1c-4 0 -7.66699 1.33301 -11 4c-4 2 -6.66699 5 -8 9l-31 75h-95l-35 -75c-1.33301 -4 -3.66602 -7 -6.99902 -9c-4 -2.66699 -8 -4 -12 -4c-8.66699 2.66699 -14.667 6.66699 -18 12c-2 3.33301 -3 6.66602 -3 9.99902
c0 2 0.333008 4 1 6l44 89c1.33301 3.33301 4 6.33301 8 9c3.33301 2.66699 7 4 11 4h117z" />
    <glyph glyph-name="Otilde" unicode="&#xd5;" horiz-adv-x="1012" 
d="M829 1290c-62 66.667 -166.667 100 -314 100c-151.333 0 -258.333 -32.333 -321 -97c-32.667 -32.667 -49.334 -66.667 -50.001 -102v-951c0.666992 -35.333 17.334 -69.333 50.001 -102c62.667 -64.667 169.667 -97 321 -97c147.333 0 252 33 314 99
c30.667 33.333 47 67 49 101v947c-2 34.667 -18.333 68.667 -49 102zM156 1312c69.333 79.333 189 119 359 119c167.333 0 284.666 -39.333 351.999 -118c34.667 -40 52 -81.667 52 -125v-948c0 -42 -17.333 -83 -52 -123c-67.333 -78 -184.666 -117 -351.999 -117
c-170 0 -289.667 39.667 -359 119c-35.333 40.667 -53 81 -53 121v951c0 40 17.667 80.333 53 121zM640 1649c14.667 -5.33301 26.9971 -12.3311 36.9971 -20.998c4 -3.33301 6.33301 -7.66602 7 -12.999v-2c0 -4 -1.33301 -8 -4 -12
c-3.33301 -4 -7.66602 -6.33301 -12.999 -7c-5.33301 0 -10 1.66699 -14 5c-6.66699 5.33301 -15.334 10 -26.001 14c-8.66699 3.33301 -17.667 5 -27 5c-11.333 0 -23.333 -2.66699 -36 -8c-16 -6 -25.667 -11 -29 -15c-30.667 -20.667 -61 -31 -91 -31
c-9.33301 0 -18.333 1 -27 3c-5.33301 1.33301 -9.66602 2.66602 -12.999 3.99902c-22 7.33301 -39.667 21 -53 41c-2 3.33301 -3 6.66602 -3 9.99902c0 1.33301 0.333008 3 1 5c0.666992 4.66699 3.33398 8.66699 8.00098 12l10 3c6.66699 0 12 -3 16 -9
c8.66699 -12.667 20 -21.334 34 -26.001c8 -2.66699 16.333 -4 25 -4c10.667 0 21.667 1.66699 33 5c14.667 4.66699 26.667 10.667 36 18c26.667 20 55 30 85 30c14.667 0 29.334 -2.33301 44.001 -7z" />
    <glyph glyph-name="Odieresis" unicode="&#xd6;" horiz-adv-x="1012" 
d="M829 1290c-62 66.667 -166.667 100 -314 100c-151.333 0 -258.333 -32.333 -321 -97c-32.667 -32.667 -49.334 -66.667 -50.001 -102v-951c0.666992 -35.333 17.334 -69.333 50.001 -102c62.667 -64.667 169.667 -97 321 -97c147.333 0 252 33 314 99
c30.667 33.333 47 67 49 101v947c-2 34.667 -18.333 68.667 -49 102zM156 1312c69.333 79.333 189 119 359 119c167.333 0 284.666 -39.333 351.999 -118c34.667 -40 52 -81.667 52 -125v-948c0 -42 -17.333 -83 -52 -123c-67.333 -78 -184.666 -117 -351.999 -117
c-170 0 -289.667 39.667 -359 119c-35.333 40.667 -53 81 -53 121v951c0 40 17.667 80.333 53 121zM669 1610c5.33301 0 10 -2.33301 14 -7c2.66699 -3.33301 4 -8.33301 4 -15c0 -5.33301 -1 -10 -3 -14c-4 -5.33301 -9 -8 -15 -8h-63c-6 0 -10.667 2.33301 -14 7
c-4.66699 4 -7 9 -7 15s2.33301 11 7 15c3.33301 4.66699 8 7 14 7h63zM440 1610c5.33301 0 10 -2.33301 14 -7c2.66699 -3.33301 4 -8.33301 4 -15c0 -5.33301 -1 -10 -3 -14c-4 -5.33301 -9 -8 -15 -8h-63c-6 0 -10.667 2.33301 -14 7c-4.66699 4 -7 9 -7 15
s2.33301 11 7 15c3.33301 4.66699 8 7 14 7h63z" />
    <glyph glyph-name="multiply" unicode="&#xd7;" horiz-adv-x="718" 
d="M618 500c3.33301 -3.33301 4.99902 -7.33105 4.99902 -11.998s-1.66699 -8.33398 -5 -11.001c-4 -4 -8 -6 -12 -6c-5.33301 0 -9.33301 1.66699 -12 5l-225 224l-229 -229c-3.33301 -3.33301 -7 -5 -11 -5c-5.33301 0 -9.33301 1.33301 -12 4
c-3.33301 3.33301 -5 7.66602 -5 12.999c0 4 1.66699 7.66699 5 11l229 229l-237 237c-2.66699 2 -4 5 -4 9v4c0 4 1.66699 7.66699 5 11c2.66699 2.66699 6.33398 4 11.001 4h2c4 0 7.33301 -1.33301 10 -4l237 -237l241 241c2.66699 3.33301 5.66699 5 9 5
s7.33301 -2.33301 12 -7c4 -4 6 -8 6 -12c0 -3.33301 -1.33301 -6.33301 -4 -9l-241 -241z" />
    <glyph glyph-name="Oslash" unicode="&#xd8;" horiz-adv-x="1614" 
d="M829 1290c-62 66.667 -166.667 100 -314 100c-151.333 0 -258.333 -32.333 -321 -97c-32.667 -32.667 -49.334 -66.667 -50.001 -102v-951c0.666992 -35.333 17.334 -69.333 50.001 -102c62.667 -64.667 169.667 -97 321 -97c147.333 0 252 33 314 99
c30.667 33.333 47 67 49 101v947c-2 34.667 -18.333 68.667 -49 102zM156 1312c69.333 79.333 189 119 359 119c167.333 0 284.666 -39.333 351.999 -118c34.667 -40 52 -81.667 52 -125v-948c0 -42 -17.333 -83 -52 -123c-67.333 -78 -184.666 -117 -351.999 -117
c-170 0 -289.667 39.667 -359 119c-35.333 40.667 -53 81 -53 121v951c0 40 17.667 80.333 53 121zM948 1428c3.33301 5.33301 8.66602 7.99902 15.999 7.99902h2c10.667 -5.33301 16 -11.666 16 -18.999c0 -2.66699 -1 -5.66699 -3 -9l-894 -1399c-4 -6 -9.33301 -9 -16 -9
h-2l-8 3c-3.33301 2 -5.66602 6 -6.99902 12c-0.666992 2 -1 3.66699 -1 5c0 3.33301 1 6 3 8z" />
    <glyph glyph-name="Ugrave" unicode="&#xd9;" horiz-adv-x="1001" 
d="M875 1417c0 11.333 7 17.001 21 17.001c13.333 0 20 -5.66699 20 -17v-1175c0 -42.667 -17.333 -84.334 -52 -125.001c-66.667 -78 -183 -117 -349 -117c-169.333 -0 -288.666 39.333 -357.999 118c-35.333 40.667 -53 81 -53 121v1178c0 11.333 7 17 21 17
c13.333 0 20 -5.66699 20 -17v-1178c0 -35.333 16 -69.333 48 -102c61.333 -64 168.666 -96 321.999 -96c146.667 0 250.667 33.333 312 100c30.667 33.333 46.667 67 48 101v1175zM579 1547l-8 2l-140 67c-7.33301 3.33301 -11 9 -11 17l2 9
c3.33301 7.33301 9.33301 11 18 11l8 -2l140 -67c7.33301 -4 11 -10 11 -18c-4 -12.667 -10.667 -19 -20 -19z" />
    <glyph glyph-name="Uacute" unicode="&#xda;" horiz-adv-x="1001" 
d="M875 1417c0 11.333 7 17.001 21 17.001c13.333 0 20 -5.66699 20 -17v-1175c0 -42.667 -17.333 -84.334 -52 -125.001c-66.667 -78 -183 -117 -349 -117c-169.333 -0 -288.666 39.333 -357.999 118c-35.333 40.667 -53 81 -53 121v1178c0 11.333 7 17 21 17
c13.333 0 20 -5.66699 20 -17v-1178c0 -35.333 16 -69.333 48 -102c61.333 -64 168.666 -96 321.999 -96c146.667 0 250.667 33.333 312 100c30.667 33.333 46.667 67 48 101v1175zM421 1566c0 8 3.66797 14 11.001 18l140 67l9 2c8 0 13.667 -3.66699 17 -11l2 -9
c0 -8 -3.66699 -13.667 -11 -17l-140 -67l-8 -2c-8.66699 0 -15.334 6.33301 -20.001 19z" />
    <glyph glyph-name="Ucircumflex" unicode="&#xdb;" horiz-adv-x="1001" 
d="M875 1417c0 11.333 7 17.001 21 17.001c13.333 0 20 -5.66699 20 -17v-1175c0 -42.667 -17.333 -84.334 -52 -125.001c-66.667 -78 -183 -117 -349 -117c-169.333 -0 -288.666 39.333 -357.999 118c-35.333 40.667 -53 81 -53 121v1178c0 11.333 7 17 21 17
c13.333 0 20 -5.66699 20 -17v-1178c0 -35.333 16 -69.333 48 -102c61.333 -64 168.666 -96 321.999 -96c146.667 0 250.667 33.333 312 100c30.667 33.333 46.667 67 48 101v1175zM579 1680c4 0 8 -1.33105 12 -3.99805c3.33301 -2.66699 5.66602 -6 6.99902 -10l40 -87
c0.666992 -2.66699 1 -5.33398 1 -8.00098s-0.666992 -5.66699 -2 -9c-2 -5.33301 -5.66699 -9 -11 -11l-8 -1c-4 0 -7.66699 1.33301 -11 4c-4 2 -6.66699 5 -8 9l-31 75h-95l-35 -75c-1.33301 -4 -3.66602 -7 -6.99902 -9c-4 -2.66699 -8 -4 -12 -4
c-8.66699 2.66699 -14.667 6.66699 -18 12c-2 3.33301 -3 6.66602 -3 9.99902c0 2 0.333008 4 1 6l44 89c1.33301 3.33301 4 6.33301 8 9c3.33301 2.66699 7 4 11 4h117z" />
    <glyph glyph-name="Udieresis" unicode="&#xdc;" horiz-adv-x="1001" 
d="M875 1417c0 11.333 7 17.001 21 17.001c13.333 0 20 -5.66699 20 -17v-1175c0 -42.667 -17.333 -84.334 -52 -125.001c-66.667 -78 -183 -117 -349 -117c-169.333 -0 -288.666 39.333 -357.999 118c-35.333 40.667 -53 81 -53 121v1178c0 11.333 7 17 21 17
c13.333 0 20 -5.66699 20 -17v-1178c0 -35.333 16 -69.333 48 -102c61.333 -64 168.666 -96 321.999 -96c146.667 0 250.667 33.333 312 100c30.667 33.333 46.667 67 48 101v1175zM669 1610c5.33301 0 10 -2.33301 14 -7c2.66699 -3.33301 4 -8.33301 4 -15
c0 -5.33301 -1 -10 -3 -14c-4 -5.33301 -9 -8 -15 -8h-63c-6 0 -10.667 2.33301 -14 7c-4.66699 4 -7 9 -7 15s2.33301 11 7 15c3.33301 4.66699 8 7 14 7h63zM440 1610c5.33301 0 10 -2.33301 14 -7c2.66699 -3.33301 4 -8.33301 4 -15c0 -5.33301 -1 -10 -3 -14
c-4 -5.33301 -9 -8 -15 -8h-63c-6 0 -10.667 2.33301 -14 7c-4.66699 4 -7 9 -7 15s2.33301 11 7 15c3.33301 4.66699 8 7 14 7h63z" />
    <glyph glyph-name="Yacute" unicode="&#xdd;" horiz-adv-x="931" 
d="M831 1434c9.33301 -2.66699 15.333 -6.66699 18 -12l2 -3l-1 -12l-341 -819l-1 -568c0 -13.333 -6.66699 -20 -20 -20s-20 6.66699 -20 20l1 572l-377 817l3 16l10 8h3c12 0 20 -4 24 -12l356 -772l324 772c2.66699 8.66699 9 13 19 13zM391 1566
c0 8 3.66797 14 11.001 18l140 67l9 2c8 0 13.667 -3.66699 17 -11l2 -9c0 -8 -3.66699 -13.667 -11 -17l-140 -67l-8 -2c-8.66699 0 -15.334 6.33301 -20.001 19z" />
    <glyph glyph-name="Thorn" unicode="&#xde;" horiz-adv-x="902" 
d="M459 387c91.333 0 169.333 32.332 234 96.999s97 142.334 97 233.001c0 91.333 -32.333 169.333 -97 234c-64.667 64 -142.667 96 -234 96h-322v-660h322zM462 1083l0.999023 -1c100 -0.666992 185.333 -36.667 256 -108s106 -157 106 -257
c0 -100.667 -35.667 -186.667 -107 -258s-157.666 -107 -258.999 -107h-322v-334c0 -12 -5.66699 -18 -17 -18c-12 0 -18 6 -18 18v1399c0 10 6 15 18 15c11.333 0 17 -5 17 -15v-334h325z" />
    <glyph glyph-name="germandbls" unicode="&#xdf;" horiz-adv-x="1007" 
d="M644 936c102.667 -39.333 173.666 -110.332 212.999 -212.999c32 -84 48 -223.667 48 -419c0 -125.333 -27.333 -211 -82 -257c-37.333 -31.333 -95.666 -47 -174.999 -47c-122 0 -195 6.33301 -219 19c-16.667 9.33301 -28 24.666 -34 45.999
c-5.33301 18 -8 47.667 -8 89c0 10 6.66699 15 20 15c12.667 0 19 -5 19 -15c0 -34 1 -56.333 3 -67c4 -16 12.333 -27.333 25 -34c18 -9.33301 82.667 -14 194 -14c72.667 0 124 13.333 154 40c42.667 38.667 64 113.667 64 225c0 190.667 -15 325.667 -45 405
c-34 88.667 -93.333 151 -178 187c-44 18.667 -85.333 28 -124 28h-112c-13.333 0 -20 6.33301 -20 19c0 13.333 6.66699 20 20 20h166c59.333 0 110 21 152 63s63 92.667 63 152s-21 110 -63 152s-92.667 63 -152 63h-387l-1 1l-1 -1c-29.333 0 -44 -12 -44 -36v-1338
c0 -12.667 -6.66699 -19 -20 -19c-12.667 -0 -19 6.33301 -19 19v1338c0 24.667 9.66699 44 29 58c15.333 11.333 33.333 17 54 17l1 -1l1 1h387c69.333 0 129 -25 179 -75c49.333 -49.333 74 -109 74 -179c0 -56.667 -17 -107.667 -51 -153
c-34 -44 -77.667 -73.667 -131 -89z" />
    <glyph glyph-name="agrave" unicode="&#xe0;" horiz-adv-x="934" 
d="M123 302c-0.666992 -9.33301 -0.999023 -18.668 -0.999023 -28.001c0 -59.333 18.667 -110 56 -152c49.333 -56 128.333 -84 237 -84l125 -1c85.333 0 150 23 194 69c32.667 34 52.334 78.667 59.001 134v391c-6.66699 48 -24.334 88 -53.001 120
c-49.333 56 -128.333 84 -237 84h-88c-108.667 0 -187.667 -28 -237 -84c-36.667 -41.333 -55.334 -100.666 -56.001 -177.999zM415.001 -0.00195312c-120 0 -208.333 32.334 -265 97.001c-32.667 36.667 -53.334 81.667 -62.001 135c-2.66699 18 -4 34.667 -4 50
c0 7.33301 0.333008 14.666 1 21.999v267c-0.666992 6.66699 -1 13.667 -1 21c0 14 1.33301 30 4 48c8.66699 54 29.334 99.333 62.001 136c56.667 64.667 145 97 265 97h108c112.667 -6 194.667 -38.333 246 -97c8.66699 -10 16.667 -21 24 -33v101
c0 11.333 6.66699 17 20 17c14 0 21 -5.66699 21 -17v-829c0 -5.33301 -2 -10 -6 -14s-9 -6 -15 -6c-5.33301 0 -10 2 -14 6s-6 8.66699 -6 14v108c-10 -17.333 -20.667 -32 -32 -44c-51.333 -53.333 -125 -80 -221 -80zM527.001 997.999l-8 2l-140 67
c-7.33301 3.33301 -11 9 -11 17l2 9c3.33301 7.33301 9.33301 11 18 11l8 -2l140 -67c7.33301 -4 11 -10 11 -18c-4 -12.667 -10.667 -19 -20 -19z" />
    <glyph glyph-name="aacute" unicode="&#xe1;" horiz-adv-x="934" 
d="M123 302c-0.666992 -9.33301 -0.999023 -18.668 -0.999023 -28.001c0 -59.333 18.667 -110 56 -152c49.333 -56 128.333 -84 237 -84l125 -1c85.333 0 150 23 194 69c32.667 34 52.334 78.667 59.001 134v391c-6.66699 48 -24.334 88 -53.001 120
c-49.333 56 -128.333 84 -237 84h-88c-108.667 0 -187.667 -28 -237 -84c-36.667 -41.333 -55.334 -100.666 -56.001 -177.999zM415.001 -0.00195312c-120 0 -208.333 32.334 -265 97.001c-32.667 36.667 -53.334 81.667 -62.001 135c-2.66699 18 -4 34.667 -4 50
c0 7.33301 0.333008 14.666 1 21.999v267c-0.666992 6.66699 -1 13.667 -1 21c0 14 1.33301 30 4 48c8.66699 54 29.334 99.333 62.001 136c56.667 64.667 145 97 265 97h108c112.667 -6 194.667 -38.333 246 -97c8.66699 -10 16.667 -21 24 -33v101
c0 11.333 6.66699 17 20 17c14 0 21 -5.66699 21 -17v-829c0 -5.33301 -2 -10 -6 -14s-9 -6 -15 -6c-5.33301 0 -10 2 -14 6s-6 8.66699 -6 14v108c-10 -17.333 -20.667 -32 -32 -44c-51.333 -53.333 -125 -80 -221 -80zM368.001 1017c0 8 3.66797 14 11.001 18l140 67l9 2
c8 0 13.667 -3.66699 17 -11l2 -9c0 -8 -3.66699 -13.667 -11 -17l-140 -67l-8 -2c-8.66699 0 -15.334 6.33301 -20.001 19z" />
    <glyph glyph-name="acircumflex" unicode="&#xe2;" horiz-adv-x="934" 
d="M123 302c-0.666992 -9.33301 -0.999023 -18.668 -0.999023 -28.001c0 -59.333 18.667 -110 56 -152c49.333 -56 128.333 -84 237 -84l125 -1c85.333 0 150 23 194 69c32.667 34 52.334 78.667 59.001 134v391c-6.66699 48 -24.334 88 -53.001 120
c-49.333 56 -128.333 84 -237 84h-88c-108.667 0 -187.667 -28 -237 -84c-36.667 -41.333 -55.334 -100.666 -56.001 -177.999zM415.001 -0.00195312c-120 0 -208.333 32.334 -265 97.001c-32.667 36.667 -53.334 81.667 -62.001 135c-2.66699 18 -4 34.667 -4 50
c0 7.33301 0.333008 14.666 1 21.999v267c-0.666992 6.66699 -1 13.667 -1 21c0 14 1.33301 30 4 48c8.66699 54 29.334 99.333 62.001 136c56.667 64.667 145 97 265 97h108c112.667 -6 194.667 -38.333 246 -97c8.66699 -10 16.667 -21 24 -33v101
c0 11.333 6.66699 17 20 17c14 0 21 -5.66699 21 -17v-829c0 -5.33301 -2 -10 -6 -14s-9 -6 -15 -6c-5.33301 0 -10 2 -14 6s-6 8.66699 -6 14v108c-10 -17.333 -20.667 -32 -32 -44c-51.333 -53.333 -125 -80 -221 -80zM512.001 1127c4 0 8 -1.33105 12 -3.99805
c3.33301 -2.66699 5.66602 -6 6.99902 -10l40 -87c0.666992 -2.66699 1 -5.33398 1 -8.00098s-0.666992 -5.66699 -2 -9c-2 -5.33301 -5.66699 -9 -11 -11l-8 -1c-4 0 -7.66699 1.33301 -11 4c-4 2 -6.66699 5 -8 9l-31 75h-95l-35 -75c-1.33301 -4 -3.66602 -7 -6.99902 -9
c-4 -2.66699 -8 -4 -12 -4c-8.66699 2.66699 -14.667 6.66699 -18 12c-2 3.33301 -3 6.66602 -3 9.99902c0 2 0.333008 4 1 6l44 89c1.33301 3.33301 4 6.33301 8 9c3.33301 2.66699 7 4 11 4h117z" />
    <glyph glyph-name="atilde" unicode="&#xe3;" horiz-adv-x="934" 
d="M123 302c-0.666992 -9.33301 -0.999023 -18.668 -0.999023 -28.001c0 -59.333 18.667 -110 56 -152c49.333 -56 128.333 -84 237 -84l125 -1c85.333 0 150 23 194 69c32.667 34 52.334 78.667 59.001 134v391c-6.66699 48 -24.334 88 -53.001 120
c-49.333 56 -128.333 84 -237 84h-88c-108.667 0 -187.667 -28 -237 -84c-36.667 -41.333 -55.334 -100.666 -56.001 -177.999zM415.001 -0.00195312c-120 0 -208.333 32.334 -265 97.001c-32.667 36.667 -53.334 81.667 -62.001 135c-2.66699 18 -4 34.667 -4 50
c0 7.33301 0.333008 14.666 1 21.999v267c-0.666992 6.66699 -1 13.667 -1 21c0 14 1.33301 30 4 48c8.66699 54 29.334 99.333 62.001 136c56.667 64.667 145 97 265 97h108c112.667 -6 194.667 -38.333 246 -97c8.66699 -10 16.667 -21 24 -33v101
c0 11.333 6.66699 17 20 17c14 0 21 -5.66699 21 -17v-829c0 -5.33301 -2 -10 -6 -14s-9 -6 -15 -6c-5.33301 0 -10 2 -14 6s-6 8.66699 -6 14v108c-10 -17.333 -20.667 -32 -32 -44c-51.333 -53.333 -125 -80 -221 -80zM590.001 1120
c14.667 -5.33301 26.9971 -12.3311 36.9971 -20.998c4 -3.33301 6.33301 -7.66602 7 -12.999v-2c0 -4 -1.33301 -8 -4 -12c-3.33301 -4 -7.66602 -6.33301 -12.999 -7c-5.33301 0 -10 1.66699 -14 5c-6.66699 5.33301 -15.334 10 -26.001 14
c-8.66699 3.33301 -17.667 5 -27 5c-11.333 0 -23.333 -2.66699 -36 -8c-16 -6 -25.667 -11 -29 -15c-30.667 -20.667 -61 -31 -91 -31c-9.33301 0 -18.333 1 -27 3c-5.33301 1.33301 -9.66602 2.66602 -12.999 3.99902c-22 7.33301 -39.667 21 -53 41
c-2 3.33301 -3 6.66602 -3 9.99902c0 1.33301 0.333008 3 1 5c0.666992 4.66699 3.33398 8.66699 8.00098 12l10 3c6.66699 0 12 -3 16 -9c8.66699 -12.667 20 -21.334 34 -26.001c8 -2.66699 16.333 -4 25 -4c10.667 0 21.667 1.66699 33 5
c14.667 4.66699 26.667 10.667 36 18c26.667 20 55 30 85 30c14.667 0 29.334 -2.33301 44.001 -7z" />
    <glyph glyph-name="adieresis" unicode="&#xe4;" horiz-adv-x="934" 
d="M123 302c-0.666992 -9.33301 -0.999023 -18.668 -0.999023 -28.001c0 -59.333 18.667 -110 56 -152c49.333 -56 128.333 -84 237 -84l125 -1c85.333 0 150 23 194 69c32.667 34 52.334 78.667 59.001 134v391c-6.66699 48 -24.334 88 -53.001 120
c-49.333 56 -128.333 84 -237 84h-88c-108.667 0 -187.667 -28 -237 -84c-36.667 -41.333 -55.334 -100.666 -56.001 -177.999zM415.001 -0.00195312c-120 0 -208.333 32.334 -265 97.001c-32.667 36.667 -53.334 81.667 -62.001 135c-2.66699 18 -4 34.667 -4 50
c0 7.33301 0.333008 14.666 1 21.999v267c-0.666992 6.66699 -1 13.667 -1 21c0 14 1.33301 30 4 48c8.66699 54 29.334 99.333 62.001 136c56.667 64.667 145 97 265 97h108c112.667 -6 194.667 -38.333 246 -97c8.66699 -10 16.667 -21 24 -33v101
c0 11.333 6.66699 17 20 17c14 0 21 -5.66699 21 -17v-829c0 -5.33301 -2 -10 -6 -14s-9 -6 -15 -6c-5.33301 0 -10 2 -14 6s-6 8.66699 -6 14v108c-10 -17.333 -20.667 -32 -32 -44c-51.333 -53.333 -125 -80 -221 -80zM588.001 1050c4.66699 0 8.66602 -2 11.999 -6
c2.66699 -3.33301 4 -8 4 -14c0 -4.66699 -1 -9 -3 -13c-3.33301 -4.66699 -7.66602 -7 -12.999 -7h-58c-5.33301 0 -9.66602 2 -12.999 6c-4 4 -6 8.66699 -6 14s2 10 6 14c3.33301 4 7.66602 6 12.999 6h58zM379 1050c4.66699 0 8.66602 -2 11.999 -6
c2.66699 -3.33301 4 -8 4 -14c0 -4.66699 -1 -9 -3 -13c-3.33301 -4.66699 -7.66602 -7 -12.999 -7h-58c-5.33301 0 -9.66602 2 -12.999 6c-4 4 -6 8.66699 -6 14s2 10 6 14c3.33301 4 7.66602 6 12.999 6h58z" />
    <glyph glyph-name="aring" unicode="&#xe5;" horiz-adv-x="934" 
d="M123 302c-0.666992 -9.33301 -0.999023 -18.668 -0.999023 -28.001c0 -59.333 18.667 -110 56 -152c49.333 -56 128.333 -84 237 -84l125 -1c85.333 0 150 23 194 69c32.667 34 52.334 78.667 59.001 134v391c-6.66699 48 -24.334 88 -53.001 120
c-49.333 56 -128.333 84 -237 84h-88c-108.667 0 -187.667 -28 -237 -84c-36.667 -41.333 -55.334 -100.666 -56.001 -177.999zM415.001 -0.00195312c-120 0 -208.333 32.334 -265 97.001c-32.667 36.667 -53.334 81.667 -62.001 135c-2.66699 18 -4 34.667 -4 50
c0 7.33301 0.333008 14.666 1 21.999v267c-0.666992 6.66699 -1 13.667 -1 21c0 14 1.33301 30 4 48c8.66699 54 29.334 99.333 62.001 136c56.667 64.667 145 97 265 97h108c112.667 -6 194.667 -38.333 246 -97c8.66699 -10 16.667 -21 24 -33v101
c0 11.333 6.66699 17 20 17c14 0 21 -5.66699 21 -17v-829c0 -5.33301 -2 -10 -6 -14s-9 -6 -15 -6c-5.33301 0 -10 2 -14 6s-6 8.66699 -6 14v108c-10 -17.333 -20.667 -32 -32 -44c-51.333 -53.333 -125 -80 -221 -80zM508.001 1129c-12 12 -26 18 -42 18
c-16.667 0 -31 -6 -43 -18c-11.333 -11.333 -17 -25.333 -17 -42s5.66699 -31 17 -43c12 -11.333 26.333 -17 43 -17c16 0 30 5.66699 42 17c11.333 12 17 26.333 17 43s-5.66699 30.667 -17 42zM534.001 1019c-19.333 -18.667 -42 -28 -68 -28
c-26.667 0 -49.334 9.33301 -68.001 28c-19.333 18.667 -29 41.334 -29 68.001s9.66699 49.334 29 68.001c18.667 18.667 41.334 28 68.001 28c26 0 48.667 -9.33301 68 -28c18.667 -18.667 28 -41.334 28 -68.001s-9.33301 -49.334 -28 -68.001z" />
    <glyph glyph-name="ae" unicode="&#xe6;" horiz-adv-x="1648" 
d="M1515 475v120c0 60.667 -18.333 111.667 -55 153c-49.333 56 -128 84 -236 84h-88c-108 0 -186.667 -28 -236 -84c-34 -38 -52.333 -97.667 -55 -179v-36c0.666992 -2.66699 1 -4.66699 1 -6l-1 -28v-24h670zM805 634c-6.66699 48 -24.333 88.002 -53 120.002
c-48.667 55.333 -127 83 -235 83h-88c-108 0 -186.667 -28 -236 -84c-36.667 -40.667 -55 -99.334 -55 -176.001l-1 -83l1 -188c-0.666992 -8.66699 -1 -17.334 -1 -26.001c0 -60 18.667 -111 56 -153c49.333 -56 128 -84 236 -84h124c85.333 0 149.666 22.667 192.999 68
c32.667 34 52.334 78.667 59.001 134v389zM1244 870.002c112 -6.66699 193.669 -39.001 245.002 -97.001c27.333 -31.333 46.333 -72.666 57 -123.999c4.66699 -22.667 7 -43 7 -61v-6c-0.666992 -86 -1 -129.333 -1 -130c-1.33301 -10.667 -7.33301 -16 -18 -16h-1
c-0.666992 0 -1 -0.333008 -1 -1h-687v-58l1 -76c-0.666992 -8.66699 -1 -17.334 -1 -26.001c0 -60.667 18.333 -111.667 55 -153c49.333 -56 128 -84 236 -84h125c103.333 0 175 27.333 215 82c19.333 26 29 52.667 29 80v8c0 4 1.33301 7.66699 4 11
c3.33301 4 7.66602 6.33301 12.999 7c12.667 0 19.334 -6 20.001 -18v-11c0 -31.333 -10.333 -63 -31 -95c-44.667 -68 -128 -102 -250 -102h-125c-119.333 0 -207.333 32.333 -264 97c-9.33301 10.667 -18.333 23 -27 37v-113c0 -5.33301 -1.66699 -10 -5 -14
c-4 -4 -9 -6 -15 -6c-5.33301 0 -10 2 -14 6s-6 8.66699 -6 14v107c-10.667 -17.333 -21.334 -31.666 -32.001 -42.999c-50.667 -53.333 -123.667 -80 -219 -80l-125 1c-120 0 -208 32 -264 96c-32.667 36.667 -53.334 81.667 -62.001 135c-2.66699 16 -4 31 -4 45
c0 9.33301 0.666992 18.333 2 27l-2 202l2 63c-1.33301 8 -2 16.333 -2 25c0 13.333 1.33301 28 4 44c8.66699 53.333 29.334 98.333 62.001 135c56.667 64.667 144.667 97 264 97h108c111.333 -6 192.666 -38.333 243.999 -97c8.66699 -9.33301 16.667 -20 24 -32v100
c0 11.333 6.66699 17 20 17s20 -5.66699 20 -17v-112c8.66699 15.333 17.667 28.333 27 39c56.667 64.667 144.667 97 264 97h108z" />
    <glyph glyph-name="ccedilla" unicode="&#xe7;" horiz-adv-x="961" 
d="M827 577c-6.66699 0.666992 -11.665 3.33105 -14.998 7.99805c-2 2.66699 -3 5.66699 -3 9v3c0.666992 4 1 8.66699 1 14c0 10 -1.33301 21.667 -4 35c-7.33301 38 -24.666 72.667 -51.999 104c-49.333 56 -128 84 -236 84h-89c-108 0 -186.667 -28 -236 -84
c-36.667 -41.333 -55 -100.333 -55 -177l-1 -83l1 -188c-0.666992 -9.33301 -1 -18.666 -1 -27.999c0 -59.333 18.667 -110 56 -152c49.333 -56 128 -84 236 -84h125c85.333 0 149.666 22.667 192.999 68c41.333 43.333 62 91.333 62 144v10c0 4 1.33301 7.66699 4 11
c3.33301 4 7.66602 6.33301 12.999 7c5.33301 0 10 -2 14 -6c4 -3.33301 6 -7.33301 6 -12c0.666992 -6 1 -12 1 -18c0 -58 -24 -112 -72 -162c-51.333 -53.333 -125 -80 -221 -80h-125c-119.333 0 -207.333 32.333 -264 97c-32.667 37.333 -53.334 82.333 -62.001 135
c-2.66699 16 -4 31 -4 45c0 9.33301 0.666992 18.333 2 27l-2 203l2 63c-1.33301 8 -2 16.667 -2 26c0 13.333 1.33301 28 4 44c8.66699 53.333 29.334 98.333 62.001 135c56.667 64.667 144.667 97 264 97h109c111.333 -6.66699 192.666 -39 243.999 -97
c43.333 -49.333 65 -102.666 65 -159.999v-8c0 -6.66699 -0.333008 -11.667 -1 -15c-0.666992 -5.33301 -3 -9.33301 -7 -12c-3.33301 -2 -7.33301 -3 -12 -3zM492.002 -53.0029c32.667 -4.66699 59.999 -18.999 81.999 -42.999c22 -25.333 33 -54.333 33 -87
c0 -36.667 -13 -68 -39 -94c-25.333 -25.333 -56.333 -38 -93 -38c-32.667 0 -61.667 10.667 -87 32c-3.33301 3.33301 -5.33301 7.33301 -6 12c0 4.66699 1.66699 8.66699 5 12c2.66699 4 6.33398 6 11.001 6h2c4 0 7.66699 -1.33301 11 -4c18 -16 39.333 -24 64 -24
c27.333 0 50.333 9.33301 69 28c19.333 19.333 29 42.666 29 69.999c0 26.667 -9.66699 49.667 -29 69c-18.667 18.667 -41.667 28 -69 28c-4.66699 0 -8.66699 1.66699 -12 5s-5 7.33301 -5 12v90c0 4 1.66699 7.33301 5 10s7.33301 4 12 4s8.66699 -1.33301 12 -4
s5 -6 5 -10v-74z" />
    <glyph glyph-name="egrave" unicode="&#xe8;" horiz-adv-x="957" 
d="M194 753c-27.333 -32 -44.667 -78.666 -52 -139.999c-2.66699 -20.667 -4 -39.667 -4 -57c0 -9.33301 0.333008 -18 1 -26v-52h673c0 68 0.333008 103 1 105v13c0 61.333 -18.667 113.666 -56 156.999c-49.333 56 -128.333 84 -237 84h-89c-108 0 -187 -28 -237 -84z
M839.999 209.001v-9c0 -32.667 -10.333 -65 -31 -97c-45.333 -68.667 -129.333 -103 -252 -103h-126c-120 0 -208.333 32.333 -265 97c-32.667 37.333 -53.334 83 -62.001 137c-2.66699 16.667 -4 31.667 -4 45c0 9.33301 0.666992 18 2 26v222c-1.33301 10.667 -2 22 -2 34
c0 18 1.33301 37.333 4 58c8.66699 68.667 29.334 121.667 62.001 159c57.333 64.667 145.666 97 264.999 97h109c112 -6.66699 194 -39 246 -97c27.333 -31.333 46.333 -73 57 -125c5.33301 -26 8 -48.667 8 -68l-1 -130c-1.33301 -11.333 -7.66602 -17 -18.999 -17h-2
l-1 -1h-689l1 -134c-0.666992 -9.33301 -1 -18.333 -1 -27c0 -60.667 18.333 -112 55 -154c50 -56 129 -84 237 -84h126c104 0 176 27.667 216 83c19.333 26 29 52.667 29 80v7c0 4.66699 1.66699 8.66699 5 12c3.33301 4 7.66602 6.33301 12.999 7
c12.667 0 19.334 -6 20.001 -18zM566.999 998.001l-8 2l-140 67c-7.33301 3.33301 -11 9 -11 17l2 9c3.33301 7.33301 9.33301 11 18 11l8 -2l140 -67c7.33301 -4 11 -10 11 -18c-4 -12.667 -10.667 -19 -20 -19z" />
    <glyph glyph-name="eacute" unicode="&#xe9;" horiz-adv-x="957" 
d="M194 753c-27.333 -32 -44.667 -78.666 -52 -139.999c-2.66699 -20.667 -4 -39.667 -4 -57c0 -9.33301 0.333008 -18 1 -26v-52h673c0 68 0.333008 103 1 105v13c0 61.333 -18.667 113.666 -56 156.999c-49.333 56 -128.333 84 -237 84h-89c-108 0 -187 -28 -237 -84z
M839.999 209.001v-9c0 -32.667 -10.333 -65 -31 -97c-45.333 -68.667 -129.333 -103 -252 -103h-126c-120 0 -208.333 32.333 -265 97c-32.667 37.333 -53.334 83 -62.001 137c-2.66699 16.667 -4 31.667 -4 45c0 9.33301 0.666992 18 2 26v222c-1.33301 10.667 -2 22 -2 34
c0 18 1.33301 37.333 4 58c8.66699 68.667 29.334 121.667 62.001 159c57.333 64.667 145.666 97 264.999 97h109c112 -6.66699 194 -39 246 -97c27.333 -31.333 46.333 -73 57 -125c5.33301 -26 8 -48.667 8 -68l-1 -130c-1.33301 -11.333 -7.66602 -17 -18.999 -17h-2
l-1 -1h-689l1 -134c-0.666992 -9.33301 -1 -18.333 -1 -27c0 -60.667 18.333 -112 55 -154c50 -56 129 -84 237 -84h126c104 0 176 27.667 216 83c19.333 26 29 52.667 29 80v7c0 4.66699 1.66699 8.66699 5 12c3.33301 4 7.66602 6.33301 12.999 7
c12.667 0 19.334 -6 20.001 -18zM407.999 1017c0 8 3.66699 14 11 18l140 67l8 2c8.66699 0 14.667 -3.66699 18 -11l2 -9c0 -8 -3.66699 -13.667 -11 -17l-140 -67l-8 -2c-9.33301 0 -16 6.33301 -20 19z" />
    <glyph glyph-name="ecircumflex" unicode="&#xea;" horiz-adv-x="957" 
d="M431 837c-108 0 -187.001 -27.999 -237.001 -83.999c-27.333 -32 -44.666 -78.667 -51.999 -140c-2.66699 -20.667 -4 -39.667 -4 -57c0 -9.33301 0.333008 -18 1 -26v-52h673c0 68 0.333008 103 1 105v13c0 61.333 -18.667 113.666 -56 156.999
c-49.333 56 -128.333 84 -237 84h-89zM819.999 227.001c12.667 0 19.334 -6 20.001 -18v-9c0 -32.667 -10.333 -65 -31 -97c-45.333 -68.667 -129.333 -103 -252 -103h-126c-120 0 -208.333 32.333 -265 97c-32.667 37.333 -53.334 83 -62.001 137
c-2.66699 16.667 -4 31.667 -4 45c0 9.33301 0.666992 18 2 26v222c-1.33301 10.667 -2 22 -2 34c0 18 1.33301 37.333 4 58c8.66699 68.667 29.334 121.667 62.001 159c57.333 64.667 145.666 97 264.999 97h109c112 -6.66699 194 -39 246 -97
c27.333 -31.333 46.333 -73 57 -125c5.33301 -26 8 -48.667 8 -68l-1 -130c-1.33301 -11.333 -7.66602 -17 -18.999 -17h-2l-1 -1h-689l1 -134c-0.666992 -9.33301 -1 -18.333 -1 -27c0 -60.667 18.333 -112 55 -154c50 -56 129 -84 237 -84h126c104 0 176 27.667 216 83
c19.333 26 29 52.667 29 80v7c0 4.66699 1.66699 8.66699 5 12c3.33301 4 7.66602 6.33301 12.999 7zM551.999 1127c4 0 8 -1.33105 12 -3.99805c3.33301 -2.66699 5.66602 -6 6.99902 -10l40 -87c0.666992 -2.66699 1 -5.33398 1 -8.00098s-0.666992 -5.66699 -2 -9
c-2 -5.33301 -5.66699 -9 -11 -11l-8 -1c-4 0 -7.66699 1.33301 -11 4c-4 2 -6.66699 5 -8 9l-31 75h-95l-35 -75c-1.33301 -4 -3.66602 -7 -6.99902 -9c-4 -2.66699 -8 -4 -12 -4c-8.66699 2.66699 -14.667 6.66699 -18 12c-2 3.33301 -3 6.66602 -3 9.99902
c0 2 0.333008 4 1 6l44 89c1.33301 3.33301 4 6.33301 8 9c3.33301 2.66699 7 4 11 4h117z" />
    <glyph glyph-name="edieresis" unicode="&#xeb;" horiz-adv-x="957" 
d="M431 837c-108 0 -187.001 -27.999 -237.001 -83.999c-27.333 -32 -44.666 -78.667 -51.999 -140c-2.66699 -20.667 -4 -39.667 -4 -57c0 -9.33301 0.333008 -18 1 -26v-52h673c0 68 0.333008 103 1 105v13c0 61.333 -18.667 113.666 -56 156.999
c-49.333 56 -128.333 84 -237 84h-89zM819.999 227.001c12.667 0 19.334 -6 20.001 -18v-9c0 -32.667 -10.333 -65 -31 -97c-45.333 -68.667 -129.333 -103 -252 -103h-126c-120 0 -208.333 32.333 -265 97c-32.667 37.333 -53.334 83 -62.001 137
c-2.66699 16.667 -4 31.667 -4 45c0 9.33301 0.666992 18 2 26v222c-1.33301 10.667 -2 22 -2 34c0 18 1.33301 37.333 4 58c8.66699 68.667 29.334 121.667 62.001 159c57.333 64.667 145.666 97 264.999 97h109c112 -6.66699 194 -39 246 -97
c27.333 -31.333 46.333 -73 57 -125c5.33301 -26 8 -48.667 8 -68l-1 -130c-1.33301 -11.333 -7.66602 -17 -18.999 -17h-2l-1 -1h-689l1 -134c-0.666992 -9.33301 -1 -18.333 -1 -27c0 -60.667 18.333 -112 55 -154c50 -56 129 -84 237 -84h126c104 0 176 27.667 216 83
c19.333 26 29 52.667 29 80v7c0 4.66699 1.66699 8.66699 5 12c3.33301 4 7.66602 6.33301 12.999 7zM627.999 1050c4.66699 0 8.66602 -2 11.999 -6c2.66699 -3.33301 4 -8 4 -14c0 -4.66699 -1 -9 -3 -13c-3.33301 -4.66699 -7.66602 -7 -12.999 -7h-58
c-5.33301 0 -9.66602 2 -12.999 6c-4 4 -6 8.66699 -6 14s2 10 6 14c3.33301 4 7.66602 6 12.999 6h58zM418.998 1050c4.66699 0 8.66602 -2 11.999 -6c2.66699 -3.33301 4 -8 4 -14c0 -4.66699 -1 -9 -3 -13c-3.33301 -4.66699 -7.66602 -7 -12.999 -7h-58
c-5.33301 0 -9.66602 2 -12.999 6c-4 4 -6 8.66699 -6 14s2 10 6 14c3.33301 4 7.66602 6 12.999 6h58z" />
    <glyph glyph-name="igrave" unicode="&#xec;" horiz-adv-x="269" 
d="M115 860c0 11.333 6.66699 17 20 17c14 0 21 -5.66699 21 -17v-840c0 -13.333 -7 -20 -21 -20c-13.333 0 -20 6.66699 -20 20v840zM205 1026l-8 2l-140 67c-7.33301 3.33301 -11 9 -11 17l2 9c3.33301 7.33301 9.33301 11 18 11l8 -2l140 -67c7.33301 -4 11 -10 11 -18
c-4 -12.667 -10.667 -19 -20 -19z" />
    <glyph glyph-name="iacute" unicode="&#xed;" horiz-adv-x="274" 
d="M115 860c0 11.333 6.66699 17 20 17c14 0 21 -5.66699 21 -17v-840c0 -13.333 -7 -20 -21 -20c-13.333 0 -20 6.66699 -20 20v840zM46 1045c0 8 3.66699 14 11 18l140 67l8 2c8.66699 0 14.667 -3.66699 18 -11l2 -9c0 -8 -3.66699 -13.667 -11 -17l-140 -67l-8 -2
c-9.33301 0 -16 6.33301 -20 19z" />
    <glyph glyph-name="icircumflex" unicode="&#xee;" horiz-adv-x="303" 
d="M125 860c0 11.333 6.66699 17 20 17c14 0 21 -5.66699 21 -17v-840c0 -13.333 -7 -20 -21 -20c-13.333 0 -20 6.66699 -20 20v840zM208 1127c4 0 8 -1.33105 12 -3.99805c3.33301 -2.66699 5.66602 -6 6.99902 -10l40 -87c0.666992 -2.66699 1 -5.33398 1 -8.00098
s-0.666992 -5.66699 -2 -9c-2 -5.33301 -5.66699 -9 -11 -11l-8 -1c-4 0 -7.66699 1.33301 -11 4c-4 2 -6.66699 5 -8 9l-31 75h-95l-35 -75c-1.33301 -4 -3.66602 -7 -6.99902 -9c-4 -2.66699 -8 -4 -12 -4c-8.66699 2.66699 -14.667 6.66699 -18 12
c-2 3.33301 -3 6.66602 -3 9.99902c0 2 0.333008 4 1 6l44 89c1.33301 3.33301 4 6.33301 8 9c3.33301 2.66699 7 4 11 4h117z" />
    <glyph glyph-name="idieresis" unicode="&#xef;" horiz-adv-x="379" 
d="M176 860c0 11.333 6.66699 17 20 17c14 0 21 -5.66699 21 -17v-840c0 -13.333 -7 -20 -21 -20c-13.333 0 -20 6.66699 -20 20v840zM326 1050c4.66699 0 8.66602 -2 11.999 -6c2.66699 -3.33301 4 -8 4 -14c0 -4.66699 -1 -9 -3 -13
c-3.33301 -4.66699 -7.66602 -7 -12.999 -7h-58c-5.33301 0 -9.66602 2 -12.999 6c-4 4 -6 8.66699 -6 14s2 10 6 14c3.33301 4 7.66602 6 12.999 6h58zM116.999 1050c4.66699 0 8.66602 -2 11.999 -6c2.66699 -3.33301 4 -8 4 -14c0 -4.66699 -1 -9 -3 -13
c-3.33301 -4.66699 -7.66602 -7 -12.999 -7h-58c-5.33301 0 -9.66602 2 -12.999 6c-4 4 -6 8.66699 -6 14s2 10 6 14c3.33301 4 7.66602 6 12.999 6h58z" />
    <glyph glyph-name="eth" unicode="&#xf0;" horiz-adv-x="947" 
d="M516 38c107.333 0 185.667 27.667 235 83c36.667 41.333 55 100.333 55 177v205l-1 64c0.666992 6.66699 1 13.667 1 21s-0.333008 15 -1 23c-0.666992 6 -3 19.333 -7 40c-8.66699 38 -24.334 69.667 -47.001 95c-49.333 56 -127.666 84 -234.999 84h-124
c-85.333 0 -149.666 -22.667 -192.999 -68c-34 -35.333 -53.667 -82 -59 -140v-350c0 0.666992 -0.666992 -1.33301 -2 -6c2.66699 -58 21 -106.333 55 -145c49.333 -55.333 127.666 -83 234.999 -83h88zM843.001 300c1.33301 -12 1.99512 -23.666 1.99512 -34.999
c0 -62.667 -22 -119 -66 -169c-56.667 -64 -144.334 -96 -263.001 -96h-108c-111.333 6 -192.666 38 -243.999 96c-41.333 47.333 -62.666 106 -63.999 176v348c0.666992 0 1.33398 1.66699 2.00098 5c6 66 29.333 120.333 70 163c50.667 53.333 123.667 80 219 80l125 -1
c112 0 197 -29.667 255 -89c-33.333 130 -77.666 248.333 -132.999 355l-106 -48c-2.66699 -0.666992 -5 -1 -7 -1c-4 0 -8 1.33301 -12 4l-6 7c-1.33301 3.33301 -2 6.33301 -2 9c0 6 4 11 12 15l104 47c-51.333 91.333 -108.333 168 -171 230c-4 4.66699 -6 9 -6 13
c0 4.66699 2 9 6 13c4.66699 4.66699 9 7 13 7c4.66699 0 9.33398 -2.33301 14.001 -7c66.667 -66 126.334 -146.333 179.001 -241l99 45c2.66699 0.666992 5 1 7 1c4 0 8 -1.33301 12 -4c4 -6.66699 6 -12.334 6 -17.001c0 -6 -3.33301 -10.667 -10 -14l-97 -44
c76 -146.667 129.667 -306.667 161 -480c7.33301 -26.667 11 -51.667 11 -75c0 -10 -0.666992 -19.333 -2 -28l1 -79z" />
    <glyph glyph-name="ntilde" unicode="&#xf1;" horiz-adv-x="854" 
d="M127 783c55.333 64.667 162.002 97.001 320.002 97.001c138.667 0 236 -39 292 -117c27.333 -38.667 41 -77.334 41 -116.001v-623c0 -9.33301 -6.33301 -14 -19 -14c-12 0 -18 4.66699 -18 14v613c0 34 -14 69.333 -42 106c-50.667 66 -135.334 99 -254.001 99
c-138.667 0 -233.334 -29 -284.001 -87c-23.333 -26.667 -35 -56 -35 -88v-641c0 -8.66699 -3.33301 -14 -10 -16c-2 -0.666992 -4.33301 -1 -7 -1h-6c-2.66699 0 -5 0.333008 -7 1c-7.33301 2.66699 -11 8.66699 -11 18v838c0 11.333 6.66699 17 20 17s20 -5.66699 20 -17
v-83zM550.002 1122c14.667 -5.33301 26.9971 -12.3311 36.9971 -20.998c4 -3.33301 6.33301 -7.66602 7 -12.999v-2c0 -4 -1.33301 -8 -4 -12c-3.33301 -4 -7.66602 -6.33301 -12.999 -7c-5.33301 0 -10 1.66699 -14 5c-6.66699 5.33301 -15.334 10 -26.001 14
c-8.66699 3.33301 -17.667 5 -27 5c-11.333 0 -23.333 -2.66699 -36 -8c-16 -6 -25.667 -11 -29 -15c-30.667 -20.667 -61 -31 -91 -31c-9.33301 0 -18.333 1 -27 3c-5.33301 1.33301 -9.66602 2.66602 -12.999 3.99902c-22 7.33301 -39.667 21 -53 41
c-2 3.33301 -3 6.66602 -3 9.99902c0 1.33301 0.333008 3 1 5c0.666992 4.66699 3.33398 8.66699 8.00098 12l10 3c6.66699 0 12 -3 16 -9c8.66699 -12.667 20 -21.334 34 -26.001c8 -2.66699 16.333 -4 25 -4c10.667 0 21.667 1.66699 33 5
c14.667 4.66699 26.667 10.667 36 18c26.667 20 55 30 85 30c14.667 0 29.334 -2.33301 44.001 -7z" />
    <glyph glyph-name="ograve" unicode="&#xf2;" horiz-adv-x="926" 
d="M752 123c36.667 41.333 55 100.667 55 178l1 208l-1 65c1.33301 10 2 20 2 30c0 58.667 -19 109 -57 151c-49.333 56 -128.666 84 -237.999 84h-90c-108.667 0 -187.667 -28 -237 -84c-38 -42 -57 -92.333 -57 -151c0 -10 0.666992 -20 2 -30l-1 -65l1 -208
c0 -30 0.666992 -50.333 2 -61c7.33301 -46.667 25 -85.667 53 -117c49.333 -56.667 128.333 -85 237 -85h90c109.333 0 188.666 28.333 237.999 85zM845 303.001c1.33301 -8 2.00098 -16.333 2.00098 -25c0 -13.333 -1.33301 -28 -4 -44
c-8.66699 -54 -29.334 -99.667 -62.001 -137c-51.333 -58 -130.333 -89.667 -237 -95l-120 -2c-120 0 -208.667 32.333 -266 97c-32.667 37.333 -53.334 83 -62.001 137c-2.66699 16 -4 30.667 -4 44c0 8.66699 0.666992 17 2 25l-1 188l1 80
c-1.33301 8.66699 -2 17.667 -2 27c0 14 1.33301 29.333 4 46c8.66699 53.333 29.334 98.666 62.001 135.999c57.333 64.667 146 97 266 97h64l56 -2c106.667 -5.33301 185.667 -37 237 -95c32.667 -37.333 53 -82.666 61 -135.999c2.66699 -16.667 4 -33 4 -49
c0 -8 -0.333008 -16 -1 -24l1 -80zM527.001 998.001l-8 2l-140 67c-7.33301 3.33301 -11 9 -11 17l2 9c3.33301 7.33301 9.33301 11 18 11l8 -2l140 -67c7.33301 -4 11 -10 11 -18c-4 -12.667 -10.667 -19 -20 -19z" />
    <glyph glyph-name="oacute" unicode="&#xf3;" horiz-adv-x="926" 
d="M752 123c36.667 41.333 55 100.667 55 178l1 208l-1 65c1.33301 10 2 20 2 30c0 58.667 -19 109 -57 151c-49.333 56 -128.666 84 -237.999 84h-90c-108.667 0 -187.667 -28 -237 -84c-38 -42 -57 -92.333 -57 -151c0 -10 0.666992 -20 2 -30l-1 -65l1 -208
c0 -30 0.666992 -50.333 2 -61c7.33301 -46.667 25 -85.667 53 -117c49.333 -56.667 128.333 -85 237 -85h90c109.333 0 188.666 28.333 237.999 85zM845 303.001c1.33301 -8 2.00098 -16.333 2.00098 -25c0 -13.333 -1.33301 -28 -4 -44
c-8.66699 -54 -29.334 -99.667 -62.001 -137c-51.333 -58 -130.333 -89.667 -237 -95l-120 -2c-120 0 -208.667 32.333 -266 97c-32.667 37.333 -53.334 83 -62.001 137c-2.66699 16 -4 30.667 -4 44c0 8.66699 0.666992 17 2 25l-1 188l1 80
c-1.33301 8.66699 -2 17.667 -2 27c0 14 1.33301 29.333 4 46c8.66699 53.333 29.334 98.666 62.001 135.999c57.333 64.667 146 97 266 97h64l56 -2c106.667 -5.33301 185.667 -37 237 -95c32.667 -37.333 53 -82.666 61 -135.999c2.66699 -16.667 4 -33 4 -49
c0 -8 -0.333008 -16 -1 -24l1 -80zM368.001 1017c0 8 3.66797 14 11.001 18l140 67l9 2c8 0 13.667 -3.66699 17 -11l2 -9c0 -8 -3.66699 -13.667 -11 -17l-140 -67l-8 -2c-8.66699 0 -15.334 6.33301 -20.001 19z" />
    <glyph glyph-name="ocircumflex" unicode="&#xf4;" horiz-adv-x="926" 
d="M514 38c109.333 0 188.666 28.334 237.999 85.001c36.667 41.333 55 100.666 55 177.999l1 208l-1 65c1.33301 10 2 20 2 30c0 58.667 -19 109 -57 151c-49.333 56 -128.666 84 -237.999 84h-90c-108.667 0 -187.667 -28 -237 -84c-38 -42 -57 -92.333 -57 -151
c0 -10 0.666992 -20 2 -30l-1 -65l1 -208c0 -30 0.666992 -50.333 2 -61c7.33301 -46.667 25 -85.667 53 -117c49.333 -56.667 128.333 -85 237 -85h90zM845 303.001c1.33301 -8 2.00098 -16.333 2.00098 -25c0 -13.333 -1.33301 -28 -4 -44
c-8.66699 -54 -29.334 -99.667 -62.001 -137c-51.333 -58 -130.333 -89.667 -237 -95l-120 -2c-120 0 -208.667 32.333 -266 97c-32.667 37.333 -53.334 83 -62.001 137c-2.66699 16 -4 30.667 -4 44c0 8.66699 0.666992 17 2 25l-1 188l1 80
c-1.33301 8.66699 -2 17.667 -2 27c0 14 1.33301 29.333 4 46c8.66699 53.333 29.334 98.666 62.001 135.999c57.333 64.667 146 97 266 97h64l56 -2c106.667 -5.33301 185.667 -37 237 -95c32.667 -37.333 53 -82.666 61 -135.999c2.66699 -16.667 4 -33 4 -49
c0 -8 -0.333008 -16 -1 -24l1 -80zM522.001 1127c4 0 8 -1.33105 12 -3.99805c3.33301 -2.66699 5.66602 -6 6.99902 -10l40 -87c0.666992 -2.66699 1 -5.33398 1 -8.00098s-0.666992 -5.66699 -2 -9c-2 -5.33301 -5.66699 -9 -11 -11l-8 -1c-4 0 -7.66699 1.33301 -11 4
c-4 2 -6.66699 5 -8 9l-31 75h-95l-35 -75c-1.33301 -4 -3.66602 -7 -6.99902 -9c-4 -2.66699 -8 -4 -12 -4c-8.66699 2.66699 -14.667 6.66699 -18 12c-2 3.33301 -3 6.66602 -3 9.99902c0 2 0.333008 4 1 6l44 89c1.33301 3.33301 4 6.33301 8 9c3.33301 2.66699 7 4 11 4
h117z" />
    <glyph glyph-name="otilde" unicode="&#xf5;" horiz-adv-x="926" 
d="M514 38c109.333 0 188.666 28.334 237.999 85.001c36.667 41.333 55 100.666 55 177.999l1 208l-1 65c1.33301 10 2 20 2 30c0 58.667 -19 109 -57 151c-49.333 56 -128.666 84 -237.999 84h-90c-108.667 0 -187.667 -28 -237 -84c-38 -42 -57 -92.333 -57 -151
c0 -10 0.666992 -20 2 -30l-1 -65l1 -208c0 -30 0.666992 -50.333 2 -61c7.33301 -46.667 25 -85.667 53 -117c49.333 -56.667 128.333 -85 237 -85h90zM845 303.001c1.33301 -8 2.00098 -16.333 2.00098 -25c0 -13.333 -1.33301 -28 -4 -44
c-8.66699 -54 -29.334 -99.667 -62.001 -137c-51.333 -58 -130.333 -89.667 -237 -95l-120 -2c-120 0 -208.667 32.333 -266 97c-32.667 37.333 -53.334 83 -62.001 137c-2.66699 16 -4 30.667 -4 44c0 8.66699 0.666992 17 2 25l-1 188l1 80
c-1.33301 8.66699 -2 17.667 -2 27c0 14 1.33301 29.333 4 46c8.66699 53.333 29.334 98.666 62.001 135.999c57.333 64.667 146 97 266 97h64l56 -2c106.667 -5.33301 185.667 -37 237 -95c32.667 -37.333 53 -82.666 61 -135.999c2.66699 -16.667 4 -33 4 -49
c0 -8 -0.333008 -16 -1 -24l1 -80zM590.001 1117c14.667 -5.33301 26.9971 -12.3311 36.9971 -20.998c4 -3.33301 6.33301 -7.66602 7 -12.999v-2c0 -4 -1.33301 -8 -4 -12c-3.33301 -4 -7.66602 -6.33301 -12.999 -7c-5.33301 0 -10 1.66699 -14 5
c-6.66699 5.33301 -15.334 10 -26.001 14c-8.66699 3.33301 -17.667 5 -27 5c-11.333 0 -23.333 -2.66699 -36 -8c-16 -6 -25.667 -11 -29 -15c-30.667 -20.667 -61 -31 -91 -31c-9.33301 0 -18.333 1 -27 3c-5.33301 1.33301 -9.66602 2.66602 -12.999 3.99902
c-22 7.33301 -39.667 21 -53 41c-2 3.33301 -3 6.66602 -3 9.99902c0 1.33301 0.333008 3 1 5c0.666992 4.66699 3.33398 8.66699 8.00098 12l10 3c6.66699 0 12 -3 16 -9c8.66699 -12.667 20 -21.334 34 -26.001c8 -2.66699 16.333 -4 25 -4c10.667 0 21.667 1.66699 33 5
c14.667 4.66699 26.667 10.667 36 18c26.667 20 55 30 85 30c14.667 0 29.334 -2.33301 44.001 -7z" />
    <glyph glyph-name="odieresis" unicode="&#xf6;" horiz-adv-x="926" 
d="M514 38c109.333 0 188.666 28.334 237.999 85.001c36.667 41.333 55 100.666 55 177.999l1 208l-1 65c1.33301 10 2 20 2 30c0 58.667 -19 109 -57 151c-49.333 56 -128.666 84 -237.999 84h-90c-108.667 0 -187.667 -28 -237 -84c-38 -42 -57 -92.333 -57 -151
c0 -10 0.666992 -20 2 -30l-1 -65l1 -208c0 -30 0.666992 -50.333 2 -61c7.33301 -46.667 25 -85.667 53 -117c49.333 -56.667 128.333 -85 237 -85h90zM845 303.001c1.33301 -8 2.00098 -16.333 2.00098 -25c0 -13.333 -1.33301 -28 -4 -44
c-8.66699 -54 -29.334 -99.667 -62.001 -137c-51.333 -58 -130.333 -89.667 -237 -95l-120 -2c-120 0 -208.667 32.333 -266 97c-32.667 37.333 -53.334 83 -62.001 137c-2.66699 16 -4 30.667 -4 44c0 8.66699 0.666992 17 2 25l-1 188l1 80
c-1.33301 8.66699 -2 17.667 -2 27c0 14 1.33301 29.333 4 46c8.66699 53.333 29.334 98.666 62.001 135.999c57.333 64.667 146 97 266 97h64l56 -2c106.667 -5.33301 185.667 -37 237 -95c32.667 -37.333 53 -82.666 61 -135.999c2.66699 -16.667 4 -33 4 -49
c0 -8 -0.333008 -16 -1 -24l1 -80zM588.001 1050c4.66699 0 8.66602 -2 11.999 -6c2.66699 -3.33301 4 -8 4 -14c0 -4.66699 -1 -9 -3 -13c-3.33301 -4.66699 -7.66602 -7 -12.999 -7h-58c-5.33301 0 -9.66602 2 -12.999 6c-4 4 -6 8.66699 -6 14s2 10 6 14
c3.33301 4 7.66602 6 12.999 6h58zM379 1050c4.66699 0 8.66602 -2 11.999 -6c2.66699 -3.33301 4 -8 4 -14c0 -4.66699 -1 -9 -3 -13c-3.33301 -4.66699 -7.66602 -7 -12.999 -7h-58c-5.33301 0 -9.66602 2 -12.999 6c-4 4 -6 8.66699 -6 14s2 10 6 14
c3.33301 4 7.66602 6 12.999 6h58z" />
    <glyph glyph-name="divide" unicode="&#xf7;" horiz-adv-x="696" 
d="M579 750c4 0 8 -2 12 -6c2.66699 -2.66699 4 -6.33398 4 -11.001s-1.33301 -8.66699 -4 -12c-4 -3.33301 -8 -5 -12 -5h-492c-4 0 -7.66699 1.66699 -11 5s-5 7.33301 -5 12s1.66699 8.33398 5 11.001c3.33301 4 7 6 11 6h492zM353 874c0 -13.333 -7 -20 -21 -20
c-13.333 0 -20 6.66699 -20 20v80c0 11.333 6.66699 17 20 17c14 0 21 -5.66699 21 -17v-80zM353 495c0 -13.333 -7 -20 -21 -20c-13.333 0 -20 6.66699 -20 20v90c0 11.333 6.66699 17 20 17c14 0 21 -5.66699 21 -17v-90z" />
    <glyph glyph-name="oslash" unicode="&#xf8;" horiz-adv-x="942" 
d="M514 38c109.333 0 188.666 28.334 237.999 85.001c36.667 41.333 55 100.666 55 177.999l1 208l-1 65c1.33301 10 2 20 2 30c0 58.667 -19 109 -57 151c-49.333 56 -128.666 84 -237.999 84h-90c-108.667 0 -187.667 -28 -237 -84c-38 -42 -57 -92.333 -57 -151
c0 -10 0.666992 -20 2 -30l-1 -65l1 -208c0 -30 0.666992 -50.333 2 -61c7.33301 -46.667 25 -85.667 53 -117c49.333 -56.667 128.333 -85 237 -85h90zM845 303.001c1.33301 -8 2.00098 -16.333 2.00098 -25c0 -13.333 -1.33301 -28 -4 -44
c-8.66699 -54 -29.334 -99.667 -62.001 -137c-51.333 -58 -130.333 -89.667 -237 -95l-120 -2c-120 0 -208.667 32.333 -266 97c-32.667 37.333 -53.334 83 -62.001 137c-2.66699 16 -4 30.667 -4 44c0 8.66699 0.666992 17 2 25l-1 188l1 80
c-1.33301 8.66699 -2 17.667 -2 27c0 14 1.33301 29.333 4 46c8.66699 53.333 29.334 98.666 62.001 135.999c57.333 64.667 146 97 266 97h64l56 -2c106.667 -5.33301 185.667 -37 237 -95c32.667 -37.333 53 -82.666 61 -135.999c2.66699 -16.667 4 -33 4 -49
c0 -8 -0.333008 -16 -1 -24l1 -80zM809.001 881.001c3.33301 4.66699 7.66797 7 13.001 7c2 0 4 -0.333008 6 -1c9.33301 -6.66699 14 -13 14 -19c0 -4 -1.33301 -7.66699 -4 -11l-704 -855c-4.66699 -4.66699 -10 -7 -16 -7h-4l-8 4
c-2.66699 2.66699 -4.33398 7 -5.00098 13v3c0 4.66699 1 8 3 10z" />
    <glyph glyph-name="ugrave" unicode="&#xf9;" horiz-adv-x="887" 
d="M420 1c-138.667 0 -235.67 38.999 -291.003 116.999c-28 38.667 -42 77.667 -42 117v622c0 10 6.33301 15 19 15s19 -5 19 -15v-613c0 -34 13.667 -69.333 41 -106c50.667 -66 135.334 -99 254.001 -99c138.667 0 233.334 29 284.001 87
c23.333 26.667 35 56.334 35 89.001v640c0 8.66699 3.33301 14 10 16c2 0.666992 4.33301 1 7 1h6c2.66699 0 5.33398 -0.333008 8.00098 -1c6.66699 -2.66699 10 -8.66699 10 -18v-838c0 -11.333 -6.66699 -17 -20 -17s-20 5.66699 -20 17v83
c-55.333 -64.667 -162 -97 -320 -97zM526.997 997.999l-8 2l-140 67c-7.33301 3.33301 -11 9 -11 17l2 9c3.33301 7.33301 9.33301 11 18 11l8 -2l140 -67c7.33301 -4 11 -10 11 -18c-4 -12.667 -10.667 -19 -20 -19z" />
    <glyph glyph-name="uacute" unicode="&#xfa;" horiz-adv-x="887" 
d="M420 1c-138.667 0 -235.67 38.999 -291.003 116.999c-28 38.667 -42 77.667 -42 117v622c0 10 6.33301 15 19 15s19 -5 19 -15v-613c0 -34 13.667 -69.333 41 -106c50.667 -66 135.334 -99 254.001 -99c138.667 0 233.334 29 284.001 87
c23.333 26.667 35 56.334 35 89.001v640c0 8.66699 3.33301 14 10 16c2 0.666992 4.33301 1 7 1h6c2.66699 0 5.33398 -0.333008 8.00098 -1c6.66699 -2.66699 10 -8.66699 10 -18v-838c0 -11.333 -6.66699 -17 -20 -17s-20 5.66699 -20 17v83
c-55.333 -64.667 -162 -97 -320 -97zM367.997 1017c0 8 3.66797 14 11.001 18l140 67l9 2c8 0 13.667 -3.66699 17 -11l2 -9c0 -8 -3.66699 -13.667 -11 -17l-140 -67l-8 -2c-8.66699 0 -15.334 6.33301 -20.001 19z" />
    <glyph glyph-name="ucircumflex" unicode="&#xfb;" horiz-adv-x="887" 
d="M740 98c-55.333 -64.667 -162.003 -97.001 -320.003 -97.001c-138.667 0 -235.667 39 -291 117c-28 38.667 -42 77.667 -42 117v622c0 10 6.33301 15 19 15s19 -5 19 -15v-613c0 -34 13.667 -69.333 41 -106c50.667 -66 135.334 -99 254.001 -99
c138.667 0 233.334 29 284.001 87c23.333 26.667 35 56.334 35 89.001v640c0 8.66699 3.33301 14 10 16c2 0.666992 4.33301 1 7 1h6c2.66699 0 5.33398 -0.333008 8.00098 -1c6.66699 -2.66699 10 -8.66699 10 -18v-838c0 -11.333 -6.66699 -17 -20 -17s-20 5.66699 -20 17
v83zM481.997 1127c4 0 8 -1.33105 12 -3.99805c3.33301 -2.66699 5.66602 -6 6.99902 -10l40 -87c0.666992 -2.66699 1 -5.33398 1 -8.00098s-0.666992 -5.66699 -2 -9c-2 -5.33301 -5.66699 -9 -11 -11l-8 -1c-4 0 -7.66699 1.33301 -11 4c-4 2 -6.66699 5 -8 9l-31 75h-95
l-35 -75c-1.33301 -4 -3.66602 -7 -6.99902 -9c-4 -2.66699 -8 -4 -12 -4c-8.66699 2.66699 -14.667 6.66699 -18 12c-2 3.33301 -3 6.66602 -3 9.99902c0 2 0.333008 4 1 6l44 89c1.33301 3.33301 4 6.33301 8 9c3.33301 2.66699 7 4 11 4h117z" />
    <glyph glyph-name="udieresis" unicode="&#xfc;" horiz-adv-x="887" 
d="M740 98c-55.333 -64.667 -162.003 -97.001 -320.003 -97.001c-138.667 0 -235.667 39 -291 117c-28 38.667 -42 77.667 -42 117v622c0 10 6.33301 15 19 15s19 -5 19 -15v-613c0 -34 13.667 -69.333 41 -106c50.667 -66 135.334 -99 254.001 -99
c138.667 0 233.334 29 284.001 87c23.333 26.667 35 56.334 35 89.001v640c0 8.66699 3.33301 14 10 16c2 0.666992 4.33301 1 7 1h6c2.66699 0 5.33398 -0.333008 8.00098 -1c6.66699 -2.66699 10 -8.66699 10 -18v-838c0 -11.333 -6.66699 -17 -20 -17s-20 5.66699 -20 17
v83zM567.997 1050c4.66699 0 8.66602 -2 11.999 -6c2.66699 -3.33301 4 -8 4 -14c0 -4.66699 -1 -9 -3 -13c-3.33301 -4.66699 -7.66602 -7 -12.999 -7h-58c-5.33301 0 -9.66602 2 -12.999 6c-4 4 -6 8.66699 -6 14s2 10 6 14c3.33301 4 7.66602 6 12.999 6h58z
M358.996 1050c4.66699 0 8.66602 -2 11.999 -6c2.66699 -3.33301 4 -8 4 -14c0 -4.66699 -1 -9 -3 -13c-3.33301 -4.66699 -7.66602 -7 -12.999 -7h-58c-5.33301 0 -9.66602 2 -12.999 6c-4 4 -6 8.66699 -6 14s2 10 6 14c3.33301 4 7.66602 6 12.999 6h58z" />
    <glyph glyph-name="yacute" unicode="&#xfd;" horiz-adv-x="906" 
d="M808 -137c0.666992 -5.33301 1.00098 -10.668 1.00098 -16.001c0 -25.333 -4 -54 -12 -86c-16.667 -72 -50.667 -126.667 -102 -164c-56 -40.667 -117.667 -61 -185 -61h-289c-13.333 0 -20 7 -20 21c0 13.333 6.66699 20 20 20h289c58.667 0 112 17.667 160 53
c44 32 73.333 80 88 144c6 26 9 49.333 9 70c0 6 -0.333008 11.667 -1 17v244c-56.667 -63.333 -164.334 -95 -323.001 -95c-137.333 0 -235.333 41.333 -294 124c-30.667 43.333 -46 85 -46 125v592c0 15.333 6.33301 23 19 23s19 -7.66699 19 -23v-592
c0 -35.333 14.333 -71.666 43 -108.999c52 -67.333 138.333 -101 259 -101c142 0 239 29.667 291 89c23.333 26.667 35 56.667 35 90v625c0 14 6.33301 21 19 21c13.333 0 20 -7 20 -21v-990zM368.001 1017c0 8 3.66797 14 11.001 18l140 67l9 2c8 0 13.667 -3.66699 17 -11
l2 -9c0 -8 -3.66699 -13.667 -11 -17l-140 -67l-8 -2c-8.66699 0 -15.334 6.33301 -20.001 19z" />
    <glyph glyph-name="thorn" unicode="&#xfe;" horiz-adv-x="922" 
d="M512 327c106 0 183.333 27.335 232 82.002c35.333 40.667 53 98.667 53 174l1 203l-1 63c0.666992 9.33301 1 18.666 1 27.999c0 57.333 -18 106.666 -54 147.999c-48.667 54.667 -126 82 -232 82l-123 1c-83.333 0 -146.333 -22.333 -189 -67
c-33.333 -34.667 -53 -80.667 -59 -138l1 -2v-343c0 0.666992 -0.666992 -1.33301 -2 -6c2.66699 -57.333 20.667 -105 54 -143c48 -54.667 125 -82 231 -82h87zM834 585.002c1.33301 -11.333 2 -22.667 2 -34c0 -61.333 -21.667 -116.666 -65 -165.999
c-55.333 -63.333 -141.666 -95 -258.999 -95h-106c-110 6 -190 37.667 -240 95c-8.66699 9.33301 -17.667 22 -27 38v-404c0 -12.667 -6 -19 -18 -19c-12.667 0 -19 6.33301 -19 19v1399c0 9.33301 6.33301 14 19 14c12 0 18 -4.66699 18 -14v-398
c10.667 18 22 33.333 34 46c50 52.667 122 79 216 79l123 -1c117.333 0 203.666 -31.333 258.999 -94c43.333 -48.667 65 -105.667 65 -171c0 -10.667 -0.666992 -21.334 -2 -32.001l1 -79z" />
    <glyph glyph-name="ydieresis" unicode="&#xff;" horiz-adv-x="906" 
d="M808 -137c0.666992 -5.33301 1.00098 -10.668 1.00098 -16.001c0 -25.333 -4 -54 -12 -86c-16.667 -72 -50.667 -126.667 -102 -164c-56 -40.667 -117.667 -61 -185 -61h-289c-13.333 0 -20 7 -20 21c0 13.333 6.66699 20 20 20h289c58.667 0 112 17.667 160 53
c44 32 73.333 80 88 144c6 26 9 49.333 9 70c0 6 -0.333008 11.667 -1 17v244c-56.667 -63.333 -164.334 -95 -323.001 -95c-137.333 0 -235.333 41.333 -294 124c-30.667 43.333 -46 85 -46 125v592c0 15.333 6.33301 23 19 23s19 -7.66699 19 -23v-592
c0 -35.333 14.333 -71.666 43 -108.999c52 -67.333 138.333 -101 259 -101c142 0 239 29.667 291 89c23.333 26.667 35 56.667 35 90v625c0 14 6.33301 21 19 21c13.333 0 20 -7 20 -21v-990zM608.001 1050c4.66699 0 8.66602 -2 11.999 -6c2.66699 -3.33301 4 -8 4 -14
c0 -4.66699 -1 -9 -3 -13c-3.33301 -4.66699 -7.66602 -7 -12.999 -7h-58c-5.33301 0 -9.66602 2 -12.999 6c-4 4 -6 8.66699 -6 14s2 10 6 14c3.33301 4 7.66602 6 12.999 6h58zM399 1050c4.66699 0 8.66602 -2 11.999 -6c2.66699 -3.33301 4 -8 4 -14
c0 -4.66699 -1 -9 -3 -13c-3.33301 -4.66699 -7.66602 -7 -12.999 -7h-58c-5.33301 0 -9.66602 2 -12.999 6c-4 4 -6 8.66699 -6 14s2 10 6 14c3.33301 4 7.66602 6 12.999 6h58z" />
    <glyph glyph-name="dotlessi" unicode="&#x131;" horiz-adv-x="222" 
d="M95 860c0 11.333 6.66699 17 20 17c14 0 21 -5.66699 21 -17v-840c0 -13.333 -7 -20 -21 -20c-13.333 0 -20 6.66699 -20 20v840z" />
    <glyph glyph-name="OE" unicode="&#x152;" horiz-adv-x="1825" 
d="M829 1290c-62 66.667 -166.667 100 -314 100c-151.333 0 -258.333 -32.333 -321 -97c-32.667 -32.667 -49.334 -66.667 -50.001 -102v-951c0.666992 -35.333 17.334 -69.333 50.001 -102c62.667 -64.667 169.667 -97 321 -97c147.333 0 252 33 314 99
c30.667 33.333 47 67 49 101v947c-2 34.667 -18.333 68.667 -49 102zM156 1312c69.333 79.333 189 119 359 119c167.333 0 284.666 -39.333 351.999 -118c34.667 -40 52 -81.667 52 -125v-948c0 -42 -17.333 -83 -52 -123c-67.333 -78 -184.666 -117 -351.999 -117
c-170 0 -289.667 39.667 -359 119c-35.333 40.667 -53 81 -53 121v951c0 40 17.667 80.333 53 121zM920 1393v-747h662c13.333 0 20 -7 20 -21s-6.66699 -21 -20 -21h-662v-563h766c13.333 0 20 -6.66699 20 -20c0 -14 -6.66699 -21 -20 -21h-786c-14 0 -21 7 -21 21v1392
c0 14 7 21 21 21h786c13.333 0 20 -7 20 -21c0 -13.333 -6.66699 -20 -20 -20h-766z" />
    <glyph glyph-name="oe" unicode="&#x153;" horiz-adv-x="1883" 
d="M514 38c109.333 0 188.666 28.334 237.999 85.001c36.667 41.333 55 100.666 55 177.999l1 208l-1 65c1.33301 10 2 20 2 30c0 58.667 -19 109 -57 151c-49.333 56 -128.666 84 -237.999 84h-90c-108.667 0 -187.667 -28 -237 -84c-38 -42 -57 -92.333 -57 -151
c0 -10 0.666992 -20 2 -30l-1 -65l1 -208c0 -30 0.666992 -50.333 2 -61c7.33301 -46.667 25 -85.667 53 -117c49.333 -56.667 128.333 -85 237 -85h90zM845 303.001c1.33301 -8 2.00098 -16.333 2.00098 -25c0 -13.333 -1.33301 -28 -4 -44
c-8.66699 -54 -29.334 -99.667 -62.001 -137c-51.333 -58 -130.333 -89.667 -237 -95l-120 -2c-120 0 -208.667 32.333 -266 97c-32.667 37.333 -53.334 83 -62.001 137c-2.66699 16 -4 30.667 -4 44c0 8.66699 0.666992 17 2 25l-1 188l1 80
c-1.33301 8.66699 -2 17.667 -2 27c0 14 1.33301 29.333 4 46c8.66699 53.333 29.334 98.666 62.001 135.999c57.333 64.667 146 97 266 97h64l56 -2c106.667 -5.33301 185.667 -37 237 -95c32.667 -37.333 53 -82.666 61 -135.999c2.66699 -16.667 4 -33 4 -49
c0 -8 -0.333008 -16 -1 -24l1 -80zM1139 837.001c-108 0 -187.001 -27.999 -237.001 -83.999c-27.333 -32 -44.666 -78.667 -51.999 -140c-2.66699 -20.667 -4 -39.667 -4 -57c0 -9.33301 0.333008 -18 1 -26v-52h673c0 68 0.333008 103 1 105v13
c0 61.333 -18.667 113.666 -56 156.999c-49.333 56 -128.333 84 -237 84h-89zM1528 227.002c12.667 0 19.334 -6 20.001 -18v-9c0 -32.667 -10.333 -65 -31 -97c-45.333 -68.667 -129.333 -103 -252 -103h-126c-120 0 -208.333 32.333 -265 97
c-32.667 37.333 -53.334 83 -62.001 137c-2.66699 16.667 -4 31.667 -4 45c0 9.33301 0.666992 18 2 26v222c-1.33301 10.667 -2 22 -2 34c0 18 1.33301 37.333 4 58c8.66699 68.667 29.334 121.667 62.001 159c57.333 64.667 145.666 97 264.999 97h109
c112 -6.66699 194 -39 246 -97c27.333 -31.333 46.333 -73 57 -125c5.33301 -26 8 -48.667 8 -68l-1 -130c-1.33301 -11.333 -7.66602 -17 -18.999 -17h-2l-1 -1h-689l1 -134c-0.666992 -9.33301 -1 -18.333 -1 -27c0 -60.667 18.333 -112 55 -154c50 -56 129 -84 237 -84
h126c104 0 176 27.667 216 83c19.333 26 29 52.667 29 80v7c0 4.66699 1.66699 8.66699 5 12c3.33301 4 7.66602 6.33301 12.999 7z" />
    <glyph glyph-name="Scaron" unicode="&#x160;" horiz-adv-x="998" 
d="M418 1432c132.667 -0.666992 200.001 -1.66504 202.001 -2.99805c98 -3.33301 172 -31 222 -83c46.667 -48.667 70 -109.334 70 -182.001v-12c0 -13.333 -6.66699 -20 -20 -20c-14 0.666992 -21 7.66699 -21 21v12c0 62 -19.333 112.667 -58 152
c-47.333 49.333 -120.333 74 -219 74h-176c-92.667 0 -163 -25 -211 -75c-44 -46 -66 -102.333 -66 -169v-119c0 -21.333 0.333008 -36.333 1 -45c6.66699 -62 28.667 -112.333 66 -151c48 -50 118 -75 210 -75c125.333 0 189.666 -0.666992 192.999 -2
c92 -4 163.333 -32.333 214 -85c51.333 -54.667 77 -119.667 77 -195v-183c0 -82.667 -25.333 -150.667 -76 -204c-55.333 -58.667 -136 -88 -242 -88h-195l-6 2c-108.667 3.33301 -186.667 37 -234 101c-32.667 44 -49.334 99.667 -50.001 167c0 11.333 7 17 21 17
c13.333 0 20 -5.66699 20 -17c0.666992 -152.667 90 -229 268 -229h176c94 0 164.667 25 212 75c29.333 30.667 49 68.667 59 114c4 20 6 37 6 51v200c0 61.333 -22 114.666 -66 159.999c-47.333 50 -117.666 75 -210.999 75c-124.667 0 -189 1 -193 3
c-91.333 4 -162.333 32.333 -213 85c-52 54 -78 119.333 -78 196v140c-0.666992 6 -1 12 -1 18c0 70 26.333 132 79 186c56 58.667 136 88 240 88zM495.001 1593c-4 0 -7.66699 1.33496 -11 4.00195c-4 2.66699 -6.66699 5.66699 -8 9l-44 89c-0.666992 2 -1 4 -1 6
c0 3.33301 1 6.66602 3 9.99902c3.33301 5.33301 9.33301 9.33301 18 12c4 0 8 -1.33301 12 -4c3.33301 -2 5.66602 -5 6.99902 -9l35 -75h95l31 75c1.33301 4 4 7 8 9c3.33301 2.66699 7 4 11 4l8 -1c5.33301 -2 9 -5.66699 11 -11c1.33301 -3.33301 2 -6.33301 2 -9
s-0.333008 -5.33398 -1 -8.00098l-40 -87c-1.33301 -4 -3.66602 -7.33301 -6.99902 -10c-4 -2.66699 -8 -4 -12 -4h-117z" />
    <glyph glyph-name="scaron" unicode="&#x161;" horiz-adv-x="928" 
d="M340 452l269.999 -0.00390625c26.667 0 50.334 -2.66699 71.001 -8c42 -10 76.667 -28.333 104 -55c40 -39.333 60 -93 60 -161c0 -64 -21 -115.333 -63 -154c-53.333 -49.333 -131.333 -74 -234 -74c-9.33301 0 -18 0.333008 -26 1h-124c-142 0 -236.333 48 -283 144
c-1.33301 2.66699 -2 5.33398 -2 8.00098s0.333008 5 1 7c1.33301 4.66699 4.33301 8.33398 9 11.001c3.33301 1.33301 7 2 11 2c7.33301 -0.666992 12.333 -4.33398 15 -11.001c40 -82 123 -123 249 -123h126c7.33301 -0.666992 15 -1 23 -1c18.667 0 40 1.66699 64 5
c63.333 8.66699 111.666 28.667 144.999 60c33.333 30.667 50 72.334 50 125.001c0 57.333 -16 101.666 -48 132.999c-22 22 -51 37.333 -87 46c-17.333 4 -33.666 6 -48.999 6c-8 0.666992 -102 1 -282 1c-87.333 0 -153.333 25 -198 75c-34 38 -51 80.667 -51 128
c0 76.667 27.333 137.334 82 182.001c54 44.667 128 67 222 67h157c88 0 157.333 -24.333 208 -73c35.333 -34 60 -77.333 74 -130c0.666992 -2 1 -3.66699 1 -5c0 -3.33301 -1 -6.66602 -3 -9.99902c-2.66699 -4.66699 -6.66699 -7.66699 -12 -9
c-1.33301 -0.666992 -2.66602 -1 -3.99902 -1c-4 0 -7.66699 1.33301 -11 4c-4 2.66699 -6.66699 6.33398 -8 11.001c-30.667 116 -112.334 174 -245.001 174h-157c-83.333 0 -148.333 -18.333 -195 -55c-46.667 -37.333 -70 -89 -70 -155c0 -28.667 9 -57 27 -85
c34.667 -53.333 95.667 -80 183 -80zM449.999 1073c-4 0 -7.66699 1.33496 -11 4.00195c-4 2.66699 -6.66699 5.66699 -8 9l-44 89c-0.666992 2 -1 4 -1 6c0 3.33301 1 6.66602 3 9.99902c3.33301 5.33301 9.33301 9.33301 18 12c4 0 8 -1.33301 12 -4
c3.33301 -2 5.66602 -5 6.99902 -9l35 -75h95l31 75c1.33301 4 4 7 8 9c3.33301 2.66699 7 4 11 4l8 -1c5.33301 -2 9 -5.66699 11 -11c1.33301 -3.33301 2 -6.33301 2 -9s-0.333008 -5.33398 -1 -8.00098l-40 -87c-1.33301 -4 -3.66602 -7.33301 -6.99902 -10
c-4 -2.66699 -8 -4 -12 -4h-117z" />
    <glyph glyph-name="Ydieresis" unicode="&#x178;" horiz-adv-x="931" 
d="M812 1421c2.66699 8.66699 9 13 19 13c9.33301 -2.66699 15.333 -6.66699 18 -12l2 -3l-1 -12l-341 -819l-1 -568c0 -13.333 -6.66699 -20 -20 -20s-20 6.66699 -20 20l1 572l-377 817l3 16l10 8h3c12 0 20 -4 24 -12l356 -772zM618 1695c4.66699 0 8.66602 -2 11.999 -6
c2.66699 -3.33301 4 -8 4 -14c0 -4.66699 -1 -9 -3 -13c-3.33301 -4.66699 -7.66602 -7 -12.999 -7h-58c-5.33301 0 -9.66602 2 -12.999 6c-4 4 -6 8.66699 -6 14s2 10 6 14c3.33301 4 7.66602 6 12.999 6h58zM408.999 1695c4.66699 0 8.66602 -2 11.999 -6
c2.66699 -3.33301 4 -8 4 -14c0 -4.66699 -1 -9 -3 -13c-3.33301 -4.66699 -7.66602 -7 -12.999 -7h-58c-5.33301 0 -9.66602 2 -12.999 6c-4 4 -6 8.66699 -6 14s2 10 6 14c3.33301 4 7.66602 6 12.999 6h58z" />
    <glyph glyph-name="Zcaron" unicode="&#x17d;" horiz-adv-x="1017" 
d="M915 41c14 0 21 -6.66699 21 -20c0 -14 -7 -21 -21 -21h-803c-13.333 0 -20 7 -20 21v60l789 1258l-1 49h-780c-14 0 -21 7 -21 21c0 13.333 7 20 21 20h801c13.333 0 20 -6.66699 20 -20l-2 -88l-786 -1253v-27h782zM464 1646c-4 0 -7.66699 1.33496 -11 4.00195
c-4 2.66699 -6.66699 5.66699 -8 9l-44 89c-0.666992 2 -1 4 -1 6c0 3.33301 1 6.66602 3 9.99902c3.33301 5.33301 9.33301 9.33301 18 12c4 0 8 -1.33301 12 -4c3.33301 -2 5.66602 -5 6.99902 -9l35 -75h95l31 75c1.33301 4 4 7 8 9c3.33301 2.66699 7 4 11 4l8 -1
c5.33301 -2 9 -5.66699 11 -11c1.33301 -3.33301 2 -6.33301 2 -9s-0.333008 -5.33398 -1 -8.00098l-40 -87c-1.33301 -4 -3.66602 -7.33301 -6.99902 -10c-4 -2.66699 -8 -4 -12 -4h-117z" />
    <glyph glyph-name="zcaron" unicode="&#x17e;" horiz-adv-x="876" 
d="M766 874c4.66699 0 8.66699 -2.00098 12 -6.00098c3.33301 -3.33301 5 -7.66602 5 -12.999v-70c0 -14.667 -2.33301 -23 -7 -25l-652 -671v-50h640c4.66699 0 9 -2 13 -6c3.33301 -4 5 -8.66699 5 -14s-1.66699 -9.66602 -5 -12.999c-4 -4 -8.33301 -6 -13 -6l-665 1
c-9.33301 6 -14 12.333 -14 19l1 83l665 680l-2 52h-647c-5.33301 0 -9.66602 2 -12.999 6s-5 8.66699 -5 14s1.66699 9.66602 5 12.999c3.33301 4 7.66602 6 12.999 6h664zM407 1093c-4 0 -7.66699 1.33496 -11 4.00195c-4 2.66699 -6.66699 5.66699 -8 9l-44 89
c-0.666992 2 -1 4 -1 6c0 3.33301 1 6.66602 3 9.99902c3.33301 5.33301 9.33301 9.33301 18 12c4 0 8 -1.33301 12 -4c3.33301 -2 5.66602 -5 6.99902 -9l35 -75h95l31 75c1.33301 4 4 7 8 9c3.33301 2.66699 7 4 11 4l8 -1c5.33301 -2 9 -5.66699 11 -11
c1.33301 -3.33301 2 -6.33301 2 -9s-0.333008 -5.33398 -1 -8.00098l-40 -87c-1.33301 -4 -3.66602 -7.33301 -6.99902 -10c-4 -2.66699 -8 -4 -12 -4h-117z" />
    <glyph glyph-name="florin" unicode="&#x192;" horiz-adv-x="635" 
d="M100 1109c-0.666992 6.66699 -1 13.333 -1 20c0 24.667 3.66699 52 11 82c16.667 72 51 127 103 165c56 40.667 118 61 186 61h115c14 0 21 -7 21 -21c0 -13.333 -7 -20 -21 -20h-115c-59.333 0 -113.333 -18 -162 -54c-64 -46.667 -96 -123.667 -96 -231v-258h373
c14 0 21 -7 21 -21c0 -13.333 -7 -20 -21 -20h-373v-792c0 -14 -7 -21 -21 -21c-13.333 0 -20 7 -20 21v1089z" />
    <glyph glyph-name="circumflex" unicode="&#x2c6;" horiz-adv-x="478" 
d="M290 1426c4 0 8 -1.33105 12 -3.99805c3.33301 -2.66699 5.66602 -6 6.99902 -10l40 -87c0.666992 -2.66699 1 -5.33398 1 -8.00098s-0.666992 -5.66699 -2 -9c-2 -5.33301 -5.66699 -9 -11 -11l-8 -1c-4 0 -7.66699 1.33301 -11 4c-4 2 -6.66699 5 -8 9l-31 75h-95
l-35 -75c-1.33301 -4 -3.66602 -7 -6.99902 -9c-4 -2.66699 -8 -4 -12 -4c-8.66699 2.66699 -14.667 6.66699 -18 12c-2 3.33301 -3 6.66602 -3 9.99902c0 2 0.333008 4 1 6l44 89c1.33301 3.33301 4 6.33301 8 9c3.33301 2.66699 7 4 11 4h117z" />
    <glyph glyph-name="caron" unicode="&#x2c7;" horiz-adv-x="455" 
d="M173 1296c-4 0 -7.66699 1.33496 -11 4.00195c-4 2.66699 -6.66699 5.66699 -8 9l-44 89c-0.666992 2 -1 4 -1 6c0 3.33301 1 6.66602 3 9.99902c3.33301 5.33301 9.33301 9.33301 18 12c4 0 8 -1.33301 12 -4c3.33301 -2 5.66602 -5 6.99902 -9l35 -75h95l31 75
c1.33301 4 4 7 8 9c3.33301 2.66699 7 4 11 4l8 -1c5.33301 -2 9 -5.66699 11 -11c1.33301 -3.33301 2 -6.33301 2 -9s-0.333008 -5.33398 -1 -8.00098l-40 -87c-1.33301 -4 -3.66602 -7.33301 -6.99902 -10c-4 -2.66699 -8 -4 -12 -4h-117z" />
    <glyph glyph-name="uni02C9" unicode="&#x2c9;" horiz-adv-x="1024" 
d="M254 1195v125h516v-125h-516z" />
    <glyph glyph-name="breve" unicode="&#x2d8;" horiz-adv-x="469" 
d="M138 1208c-30 18 -45.001 43.001 -45.001 75.001c0 4.66699 2 8.33398 6 11.001c3.33301 2.66699 7.33301 4 12 4s8.66699 -1.33301 12 -4c4 -2.66699 6 -6.33398 6 -11.001c0 -18.667 9 -33.667 27 -45c13.333 -7.33301 30 -12.333 50 -15
c6.66699 -0.666992 13.334 -1 20.001 -1c13.333 0 26.333 1.33301 39 4c20 4 36 10.667 48 20c13.333 10.667 20 23.667 20 39c0 4.66699 2 8.33398 6 11.001c3.33301 2.66699 7.33301 4 12 4s8.66699 -1.33301 12 -4c4 -2.66699 6 -6.33398 6 -11.001
c0 -30.667 -14.667 -55.334 -44 -74.001c-26.667 -16.667 -59 -25 -97 -25c-35.333 0 -65.333 7.33301 -90 22z" />
    <glyph glyph-name="dotaccent" unicode="&#x2d9;" horiz-adv-x="300" 
d="M100 1252c0 14 5 25.833 15 35.5s22 14.5 36 14.5c13.333 0 25 -5 35 -15s15 -21.667 15 -35c0 -14 -5 -26 -15 -36s-22 -15 -36 -15s-25.833 5 -35.5 15s-14.5 22 -14.5 36z" />
    <glyph glyph-name="ring" unicode="&#x2da;" horiz-adv-x="404" 
d="M244 1660c-12 12 -26 18 -42 18c-16.667 0 -31 -6 -43 -18c-11.333 -11.333 -17 -25.333 -17 -42s5.66699 -31 17 -43c12 -11.333 26.333 -17 43 -17c16 0 30 5.66699 42 17c11.333 12 17 26.333 17 43s-5.66699 30.667 -17 42zM270 1550
c-19.333 -18.667 -42 -28 -68 -28c-26.667 0 -49.334 9.33301 -68.001 28c-19.333 18.667 -29 41.334 -29 68.001s9.66699 49.334 29 68.001c18.667 18.667 41.334 28 68.001 28c26 0 48.667 -9.33301 68 -28c18.667 -18.667 28 -41.334 28 -68.001
s-9.33301 -49.334 -28 -68.001z" />
    <glyph glyph-name="ogonek" unicode="&#x2db;" horiz-adv-x="464" 
d="M226 12c0 4.66699 1.99902 8.33203 5.99902 10.999c3.33301 2.66699 7.33301 4 12 4s8.66699 -1.33301 12 -4s5 -6.33398 5 -11.001v-91c0 -4.66699 -1.66699 -8.66699 -5 -12s-7.33301 -5 -12 -5c-27.333 0 -51 -10 -71 -30c-19.333 -19.333 -29 -42.666 -29 -69.999
c0 -28 9.66699 -51.667 29 -71c20 -19.333 43.667 -29 71 -29c25.333 0 47.333 8 66 24c3.33301 3.33301 7.33301 5 12 5c5.33301 -0.666992 9.33301 -2.66699 12 -6c3.33301 -4 5 -8.33301 5 -13c-0.666992 -4.66699 -2.66699 -8.66699 -6 -12c-25.333 -22 -55 -33 -89 -33
c-37.333 0 -69 13 -95 39c-26.667 26.667 -40 58.667 -40 96c0 34 11.333 63.667 34 89c22.667 24.667 50.334 39.334 83.001 44.001v75z" />
    <glyph glyph-name="tilde" unicode="&#x2dc;" horiz-adv-x="537" 
d="M388 1392c14.667 -5.33301 26.9971 -12.3311 36.9971 -20.998c4 -3.33301 6.33301 -7.66602 7 -12.999v-2c0 -4 -1.33301 -8 -4 -12c-3.33301 -4 -7.66602 -6.33301 -12.999 -7c-5.33301 0 -10 1.66699 -14 5c-6.66699 5.33301 -15.334 10 -26.001 14
c-8.66699 3.33301 -17.667 5 -27 5c-11.333 0 -23.333 -2.66699 -36 -8c-16 -6 -25.667 -11 -29 -15c-30.667 -20.667 -61 -31 -91 -31c-9.33301 0 -18.333 1 -27 3c-5.33301 1.33301 -9.66602 2.66602 -12.999 3.99902c-22 7.33301 -39.667 21 -53 41
c-2 3.33301 -3 6.66602 -3 9.99902c0 1.33301 0.333008 3 1 5c0.666992 4.66699 3.33398 8.66699 8.00098 12l10 3c6.66699 0 12 -3 16 -9c8.66699 -12.667 20 -21.334 34 -26.001c8 -2.66699 16.333 -4 25 -4c10.667 0 21.667 1.66699 33 5
c14.667 4.66699 26.667 10.667 36 18c26.667 20 55 30 85 30c14.667 0 29.334 -2.33301 44.001 -7z" />
    <glyph glyph-name="hungarumlaut" unicode="&#x2dd;" horiz-adv-x="498" 
d="M142 1323c-4 -7.33301 -9.33301 -11 -16 -11c-4 0 -8.33301 1.33301 -13 4c-7.33301 4 -11 9 -11 15c0 3.33301 1.33301 7.33301 4 12l73 131c3.33301 6 8 9 14 9c3.33301 0 7.33301 -1.33301 12 -4c8 -5.33301 12 -11 12 -17c0 -2.66699 -0.666992 -5.66699 -2 -9z
M306 1323c-4 -7.33301 -9.33301 -11 -16 -11c-4 0 -8.33301 1.33301 -13 4c-7.33301 4 -11 9 -11 15c0 3.33301 1.33301 7.33301 4 12l73 131c3.33301 6 8 9 14 9c3.33301 0 7.33301 -1.33301 12 -4c8 -5.33301 12 -11 12 -17c0 -2.66699 -0.666992 -5.66699 -2 -9z" />
    <glyph glyph-name="endash" unicode="&#x2013;" horiz-adv-x="848" 
d="M119 351c-13.333 0 -20 7 -20 21c0 13.333 6.66699 20 20 20h605c11.333 0 17 -6.66699 17 -20c0 -14 -5.66699 -21 -17 -21h-605z" />
    <glyph glyph-name="emdash" unicode="&#x2014;" horiz-adv-x="1626" 
d="M119 351c-13.333 0 -20 7 -20 21c0 13.333 6.66699 20 20 20h1368c11.333 0 17 -6.66699 17 -20c0 -14 -5.66699 -21 -17 -21h-1368z" />
    <glyph glyph-name="quoteleft" unicode="&#x2018;" horiz-adv-x="206" 
d="M136 1341c0 -13.333 -7 -20 -21 -20c-13.333 0 -20 6.66699 -20 20v120c0 11.333 6.66699 17 20 17c14 0 21 -5.66699 21 -17v-120z" />
    <glyph glyph-name="quoteright" unicode="&#x2019;" horiz-adv-x="206" 
d="M136 1341c0 -13.333 -7 -20 -21 -20c-13.333 0 -20 6.66699 -20 20v120c0 11.333 6.66699 17 20 17c14 0 21 -5.66699 21 -17v-120z" />
    <glyph glyph-name="quotesinglbase" unicode="&#x201a;" horiz-adv-x="271" 
d="M136 -95c0 -13.333 -7 -20 -21 -20c-13.333 0 -20 6.66699 -20 20v120c0 11.333 6.66699 17 20 17c14 0 21 -5.66699 21 -17v-120z" />
    <glyph glyph-name="quotedblleft" unicode="&#x201c;" horiz-adv-x="407" 
d="M136 1341c0 -13.333 -7 -20 -21 -20c-13.333 0 -20 6.66699 -20 20v120c0 11.333 6.66699 17 20 17c14 0 21 -5.66699 21 -17v-120zM294 1341c0 -13.333 -7 -20 -21 -20c-13.333 0 -20 6.66699 -20 20v120c0 11.333 6.66699 17 20 17c14 0 21 -5.66699 21 -17v-120z" />
    <glyph glyph-name="quotedblright" unicode="&#x201d;" horiz-adv-x="410" 
d="M136 1341c0 -13.333 -7 -20 -21 -20c-13.333 0 -20 6.66699 -20 20v120c0 11.333 6.66699 17 20 17c14 0 21 -5.66699 21 -17v-120zM294 1341c0 -13.333 -7 -20 -21 -20c-13.333 0 -20 6.66699 -20 20v120c0 11.333 6.66699 17 20 17c14 0 21 -5.66699 21 -17v-120z" />
    <glyph glyph-name="quotedblbase" unicode="&#x201e;" horiz-adv-x="399" 
d="M136 -95c0 -13.333 -7 -20 -21 -20c-13.333 0 -20 6.66699 -20 20v120c0 11.333 6.66699 17 20 17c14 0 21 -5.66699 21 -17v-120zM294 -95c0 -13.333 -7 -20 -21 -20c-13.333 0 -20 6.66699 -20 20v120c0 11.333 6.66699 17 20 17c14 0 21 -5.66699 21 -17v-120z" />
    <glyph glyph-name="dagger" unicode="&#x2020;" horiz-adv-x="508" 
d="M272 -155c0 -12 -6.33301 -18 -19 -18c-12 0 -18 6 -18 18v1727c0 9.33301 6 14 18 14c12.667 0 19 -4.66699 19 -14v-1727zM480 750c4 0 8 -2 12 -6c2.66699 -2.66699 4 -6.33398 4 -11.001s-1.33301 -8.66699 -4 -12c-4 -3.33301 -8 -5 -12 -5h-452
c-4 0 -7.66699 1.66699 -11 5s-5 7.33301 -5 12s1.66699 8.33398 5 11.001c3.33301 4 7 6 11 6h452z" />
    <glyph glyph-name="daggerdbl" unicode="&#x2021;" horiz-adv-x="508" 
d="M272 -155c0 -12 -6.33301 -18 -19 -18c-12 0 -18 6 -18 18v1727c0 9.33301 6 14 18 14c12.667 0 19 -4.66699 19 -14v-1727zM71 408c-13.333 0 -20 7 -20 21c0 13.333 6.66699 20 20 20h370c11.333 0 17 -6.66699 17 -20c0 -14 -5.66699 -21 -17 -21h-370zM71 743
c-13.333 0 -20 7 -20 21c0 13.333 6.66699 20 20 20l370 -1c11.333 0 17 -6.66699 17 -20c0 -14 -5.66699 -21 -17 -21z" />
    <glyph glyph-name="bullet" unicode="&#x2022;" horiz-adv-x="379" 
d="M100 583c0 23.333 8.16699 43 24.5 59s35.833 24 58.5 24s42.167 -8.16699 58.5 -24.5s24.5 -35.833 24.5 -58.5s-8.16699 -42.167 -24.5 -58.5s-35.833 -24.5 -58.5 -24.5c-23.333 0 -43 8.16699 -59 24.5s-24 35.833 -24 58.5z" />
    <glyph glyph-name="ellipsis" unicode="&#x2026;" horiz-adv-x="704" 
d="M120 22c0 -13.333 -7 -20 -21 -20c-13.333 0 -20 6.66699 -20 20v50c0 11.333 6.66699 17 20 17c14 0 21 -5.66699 21 -17v-50zM343 22c0 -13.333 -7 -20 -21 -20c-13.333 0 -20 6.66699 -20 20v50c0 11.333 6.66699 17 20 17c14 0 21 -5.66699 21 -17v-50zM581 22
c0 -13.333 -7 -20 -21 -20c-13.333 0 -20 6.66699 -20 20v50c0 11.333 6.66699 17 20 17c14 0 21 -5.66699 21 -17v-50z" />
    <glyph glyph-name="perthousand" unicode="&#x2030;" horiz-adv-x="342" 
d="M612 1428c3.33301 5.33301 8.66602 7.99902 15.999 7.99902h2c10.667 -5.33301 16 -11.666 16 -18.999c0 -2.66699 -1 -5.66699 -3 -9l-894 -1399c-4 -6 -9.33301 -9 -16 -9h-2l-8 3c-3.33301 2 -5.66602 6 -6.99902 12c-0.666992 2 -1 3.66699 -1 5c0 3.33301 1 6 3 8z
" />
    <glyph glyph-name="guilsinglleft" unicode="&#x2039;" horiz-adv-x="515" 
d="M421 529c4 -2 7 -5.99902 9 -11.999c1.33301 -2.66699 2 -5.33398 2 -8.00098s-0.666992 -5 -2 -7c-3.33301 -8 -9.33301 -12 -18 -12l-9 2l-290 136c-8 4 -12 10.333 -12 19v124c0 8.66699 4 14.667 12 18l290 137l9 2c8.66699 0 14.667 -4 18 -12
c1.33301 -2 2 -4.33301 2 -7c0 -2 -0.666992 -4.66699 -2 -8c-2 -6 -5 -10 -9 -12l-279 -128v-104z" />
    <glyph glyph-name="guilsinglright" unicode="&#x203a;" horiz-adv-x="532" 
d="M390 657v103.999l-278 128c-4.66699 2 -8 6 -10 12c-0.666992 3.33301 -1 6 -1 8c0 2.66699 0.333008 5 1 7c4 8 10.333 12 19 12l9 -2l290 -137c8 -3.33301 12 -9.33301 12 -18v-124c0 -8.66699 -4 -15 -12 -19l-290 -136l-9 -2c-8.66699 0 -15 4 -19 12
c-0.666992 2 -1 4.33301 -1 7s0.333008 5.33398 1 8.00098c2 6 5.33301 10 10 12z" />
    <glyph glyph-name="fraction" unicode="&#x2044;" horiz-adv-x="342" 
d="M612 1428c3.33301 5.33301 8.66602 7.99902 15.999 7.99902h2c10.667 -5.33301 16 -11.666 16 -18.999c0 -2.66699 -1 -5.66699 -3 -9l-894 -1399c-4 -6 -9.33301 -9 -16 -9h-2l-8 3c-3.33301 2 -5.66602 6 -6.99902 12c-0.666992 2 -1 3.66699 -1 5c0 3.33301 1 6 3 8z
" />
    <glyph glyph-name="fraction" unicode="&#x2215;" horiz-adv-x="342" 
d="M612 1428c3.33301 5.33301 8.66602 7.99902 15.999 7.99902h2c10.667 -5.33301 16 -11.666 16 -18.999c0 -2.66699 -1 -5.66699 -3 -9l-894 -1399c-4 -6 -9.33301 -9 -16 -9h-2l-8 3c-3.33301 2 -5.66602 6 -6.99902 12c-0.666992 2 -1 3.66699 -1 5c0 3.33301 1 6 3 8z
" />
    <glyph glyph-name="franc" unicode="&#x20a3;" horiz-adv-x="1020" 
d="M317 21c0 -14 -6.66699 -21 -20 -21c-14 0 -21 7 -21 21v1390c0 14 7 21 21 21h588c13.333 0 20 -7 20 -21s-6.66699 -21 -20 -21h-568v-745h472c14 0 21 -7 21 -21s-7 -21 -21 -21h-472v-582zM539 306c4 0 8 -2 12 -6c2.66699 -2.66699 4 -6.33398 4 -11.001
s-1.33301 -8.66699 -4 -12c-4 -3.33301 -8 -5 -12 -5h-412c-4 0 -7.66699 1.66699 -11 5s-5 7.33301 -5 12s1.66699 8.33398 5 11.001c3.33301 4 7 6 11 6h412z" />
    <glyph glyph-name="Euro" unicode="&#x20ac;" horiz-adv-x="1213" 
d="M1041 58c16 15.333 24.001 42.002 24.001 80.002c0 10 6 15 18 15c12.667 0 19 -5 19 -15c0 -48 -11.667 -83 -35 -105s-65 -33 -125 -33h-30l-33 1c-137.333 0 -258.333 57 -363 171c-103.333 112 -166.333 253 -189 423h-239c-12.667 0 -19 6 -19 18s6.33301 18 19 18
h234c-2.66699 31.333 -4 59.666 -4 84.999c0 44.667 3.33301 90 10 136h-205c-12.667 0 -19 6 -19 18s6.33301 18 19 18h212c30.667 158 96 287.667 196 389c102 103.333 218 155 348 155h24c87.333 0 142.666 -11 165.999 -33c21.333 -20.667 32 -53.334 32 -98.001
c0 -10 -6.33301 -15 -19 -15c-12 0 -18 5 -18 15c0 34.667 -7 58.667 -21 72c-16 15.333 -59.667 23 -131 23h-33c-120 0 -227.333 -48.333 -322 -145c-93.333 -94.667 -154.666 -215.667 -183.999 -363h326c12.667 0 19 -6 19 -18s-6.33301 -18 -19 -18h-333
c-7.33301 -44.667 -11 -90 -11 -136c0 -24.667 1.66699 -53 5 -85h304c12.667 0 19 -6 19 -18s-6.33301 -18 -19 -18h-300c22 -160 81.333 -292.667 178 -398c97.333 -106.667 209.666 -160 336.999 -160l33 -1h16c60 0 97.667 7.33301 113 22z" />
    <glyph glyph-name="trademark" unicode="&#x2122;" horiz-adv-x="1026" 
d="M430 1101c5.33301 0 9.66602 -1.66699 12.999 -5c4 -4 6 -8.66699 6 -14s-2 -10 -6 -14c-3.33301 -3.33301 -7.66602 -5 -12.999 -5h-141v-410c0 -5.33301 -1.66699 -10 -5 -14c-4 -3.33301 -8.66699 -5 -14 -5s-10 1.66699 -14 5c-3.33301 4 -5 8.66699 -5 14v410h-141
c-5.33301 0 -9.66602 1.66699 -12.999 5c-4 4 -6 8.66699 -6 14s2 10 6 14c3.33301 3.33301 7.66602 5 12.999 5h320zM936 653c0 -5.33301 -2.00195 -9.33301 -6.00195 -12c-3.33301 -2.66699 -7.66602 -4 -12.999 -4s-9.66602 1.33301 -12.999 4
c-4 2.66699 -6 6.66699 -6 12v409l-124 -222c-3.33301 -6.66699 -9 -10 -17 -10c-7.33301 0 -13 3.33301 -17 10l-126 223v-410c0 -5.33301 -2 -10 -6 -14c-3.33301 -3.33301 -7.66602 -5 -12.999 -5s-10 1.66699 -14 5c-3.33301 4 -5 8.66699 -5 14v429
c0 5.33301 1.66699 10 5 14c4 4 7.33301 6 10 6c1.33301 0 2.66602 -0.333008 3.99902 -1h34c7.33301 0 13 -3.33301 17 -10l111 -202l113 202c4 6.66699 9.66699 10 17 10h30c1.33301 0.666992 2.33301 1 3 1c2.66699 0 6 -2 10 -6s6 -8.66699 6 -14v-429z" />
    <glyph glyph-name="uniF001" unicode="&#xf001;" horiz-adv-x="761" 
d="M100 1109c-0.666992 6.66699 -1 13.333 -1 20c0 24.667 3.66699 52 11 82c16.667 72 51 127 103 165c56 40.667 118 61 186 61h115c14 0 21 -7 21 -21c0 -13.333 -7 -20 -21 -20h-115c-59.333 0 -113.333 -18 -162 -54c-64 -46.667 -96 -123.667 -96 -231v-258h373
c14 0 21 -7 21 -21c0 -13.333 -7 -20 -21 -20h-373v-792c0 -14 -7 -21 -21 -21c-13.333 0 -20 7 -20 21v1089zM621 859.999c0 11.333 6.66699 17 20 17c14 0 21 -5.66699 21 -17v-840c0 -13.333 -7 -20 -21 -20c-13.333 0 -20 6.66699 -20 20v840zM622 1205
c0 10.667 6.33301 16 19 16s19 -5.33301 19 -16v-111c0 -12.667 -6.33301 -19 -19 -19s-19 6.33301 -19 19v111z" />
    <glyph glyph-name="uniF001" unicode="&#xfb01;" horiz-adv-x="761" 
d="M100 1109c-0.666992 6.66699 -1 13.333 -1 20c0 24.667 3.66699 52 11 82c16.667 72 51 127 103 165c56 40.667 118 61 186 61h115c14 0 21 -7 21 -21c0 -13.333 -7 -20 -21 -20h-115c-59.333 0 -113.333 -18 -162 -54c-64 -46.667 -96 -123.667 -96 -231v-258h373
c14 0 21 -7 21 -21c0 -13.333 -7 -20 -21 -20h-373v-792c0 -14 -7 -21 -21 -21c-13.333 0 -20 7 -20 21v1089zM621 859.999c0 11.333 6.66699 17 20 17c14 0 21 -5.66699 21 -17v-840c0 -13.333 -7 -20 -21 -20c-13.333 0 -20 6.66699 -20 20v840zM622 1205
c0 10.667 6.33301 16 19 16s19 -5.33301 19 -16v-111c0 -12.667 -6.33301 -19 -19 -19s-19 6.33301 -19 19v111z" />
    <glyph glyph-name="uniF002" unicode="&#xf002;" horiz-adv-x="1081" 
d="M100 1109c-0.666992 6.66699 -1 13.333 -1 20c0 24.667 3.66699 52 11 82c16.667 72 51 127 103 165c56 40.667 118 61 186 61h115c14 0 21 -7 21 -21c0 -13.333 -7 -20 -21 -20h-115c-59.333 0 -113.333 -18 -162 -54c-64 -46.667 -96 -123.667 -96 -231v-258h373
c14 0 21 -7 21 -21c0 -13.333 -7 -20 -21 -20h-373v-792c0 -14 -7 -21 -21 -21c-13.333 0 -20 7 -20 21v1089zM761 92.999c48 -34.667 100.668 -52 158.001 -52c14 0 21 -7 21 -21c0 -13.333 -7 -20 -21 -20c-66 0 -126.667 20 -182 60
c-50.667 37.333 -84.334 91.333 -101.001 162c-7.33301 30 -11 57.667 -11 83c0 6 0.333008 12 1 18v1097c0 11.333 6.66699 17 20 17c14 0 21 -5.66699 21 -17v-1116c0 -94.667 31.333 -165 94 -211z" />
    <glyph glyph-name="uniF002" unicode="&#xfb02;" horiz-adv-x="1081" 
d="M100 1109c-0.666992 6.66699 -1 13.333 -1 20c0 24.667 3.66699 52 11 82c16.667 72 51 127 103 165c56 40.667 118 61 186 61h115c14 0 21 -7 21 -21c0 -13.333 -7 -20 -21 -20h-115c-59.333 0 -113.333 -18 -162 -54c-64 -46.667 -96 -123.667 -96 -231v-258h373
c14 0 21 -7 21 -21c0 -13.333 -7 -20 -21 -20h-373v-792c0 -14 -7 -21 -21 -21c-13.333 0 -20 7 -20 21v1089zM761 92.999c48 -34.667 100.668 -52 158.001 -52c14 0 21 -7 21 -21c0 -13.333 -7 -20 -21 -20c-66 0 -126.667 20 -182 60
c-50.667 37.333 -84.334 91.333 -101.001 162c-7.33301 30 -11 57.667 -11 83c0 6 0.333008 12 1 18v1097c0 11.333 6.66699 17 20 17c14 0 21 -5.66699 21 -17v-1116c0 -94.667 31.333 -165 94 -211z" />
    <glyph glyph-name="NULL" horiz-adv-x="0" 
 />
    <glyph glyph-name="nonmarkingreturn" horiz-adv-x="508" 
 />
    <glyph glyph-name=".notdef.001" horiz-adv-x="2601" 
d="M1840 1160v1l3 35c0 0.666992 0.333008 1 1 1l2 1c0 0.666992 0.333008 1 1 1l11 -1c0.666992 0 1 -0.333008 1 -1l2 -1v-1l-4 -35v-1l-2 -1l-13 1zM924 1189c0.666992 -0.666992 1 -1.33301 1 -2h2l22 1c0.666992 0 1.33398 0.333008 2.00098 1
c0.666992 0 1 0.333008 1 1l-2 21c0 0.666992 -0.333008 1 -1 1c0 0.666992 -0.333008 1 -1 1l-23 -1c-0.666992 0 -1.33398 -0.333008 -2.00098 -1v-2zM1001 1171l0.000976562 -0.999023l1 -1l7 -6c0.666992 0 1.33398 -0.333008 2.00098 -1h1l31 1
c1.33301 0 2 0.333008 2 1l7 5l1 1v12c0 0.666992 -0.333008 1 -1 1c0 0.666992 -0.333008 1 -1 1l-14 -1h-1v-4l-2 -2h-14l-1 1l-1 1v36l2 2h13l2 -2v-3c0 -0.666992 0.333008 -1 1 -1h16v13l-1 1l-7 6c-0.666992 0.666992 -1.33398 1 -2.00098 1h-1l-30 -1h-1
c-0.666992 0 -1.33398 -0.333008 -2.00098 -1l-7 -5c-0.666992 -0.666992 -1 -1.33398 -1 -2.00098v-1zM1069 1164l-0.000976562 -1h15c0.666992 0 1.33398 0.333008 2.00098 1v25h5l12 -24l1 -1l1 -1l16 1h1c0.666992 0 1 0.333008 1 1l-13 25h1l6 6h1v29
c-0.666992 0 -1 0.333008 -1 1l-7 6h-2l-1 1l-37 -1h-2v-1zM1136 1165c0 -0.666992 0.333008 -1 1 -1h43l1 1v13l-1 1l-27 -1l-1 13h21c1.33301 0 2 0.666992 2 2v11c0 1.33301 -0.666992 2 -2 2h-21v12l27 1h1l1 1v12l-1 1h-44c-0.666992 0 -1 -0.666992 -1 -2zM1215 1232
l-23 -66v-1c0.666992 -0.666992 1.33398 -1 2.00098 -1h13c0.666992 0 1 0.333008 1 1c0.666992 0 1 0.333008 1 1l3 8h24l2 -8l1 -1c0.666992 -0.666992 1.33398 -1 2.00098 -1l13 1h1c0.666992 0 1 0.333008 1 1c-1.33301 2.66699 -5.33301 13.667 -12 33l-12 33
c-0.666992 0.666992 -1.33398 1 -2.00098 1h-13c-0.666992 0 -1.33398 -0.333008 -2.00098 -1zM1256 1219h16l1 -53c0 -0.666992 0.333008 -1 1 -1h14c1.33301 0 2 0.333008 2 1v53h16v14h-50v-14zM1320 1166c0 -0.666992 0.666992 -1 2 -1h14c1.33301 0 2 0.333008 2 1v66
c0 0.666992 -0.666992 1 -2 1h-14c-0.666992 0 -1 -0.333008 -1 -1zM1370 1166c0 -0.666992 0.333008 -1 1 -1l1 -1h16l1 1c0.666992 0 1 0.333008 1 1l21 66h1c0 0.666992 -0.333008 1 -1 1h-16c-0.666992 0 -1 -0.333008 -1 -1l-13 -38l-2 -6v6l-11 38
c0 1.33301 -0.333008 2 -1 2h-15l-1 -1v-1zM1424 1165c0 -0.666992 0.666992 -1 2 -1l43 -1h1l1 1v12c0 0.666992 -0.333008 1 -1 1c0 0.666992 -0.333008 1 -1 1h-27v13l21 -1c1.33301 0 2 0.666992 2 2v12c0 0.666992 -0.333008 1 -1 1h-21v13h28
c0.666992 0 1 0.333008 1 1v13h-1l-43 1c-1.33301 0 -2 -0.333008 -2 -1zM1528 1171l0.00195312 -1l1 -2l7 -6l1 -1h2l30 -1h3l7 6c0.666992 0 1 0.333008 1 1v1l2 24v1l-1 1l-7 6c-0.666992 0.666992 -1.33398 1 -2.00098 1h-1l-22 1l-1 2h-1l1 8v1l2 2h1l15 -1v-5
c0 -0.666992 0.333008 -1 1 -1l14 -1c0.666992 0 1 0.333008 1 1c0.666992 0 1 0.333008 1 1v11c0 0.666992 -0.333008 1.33398 -1 2.00098l-6 5c-0.666992 0.666992 -1.33398 1 -2.00098 1l-1 1l-30 1h-2c-0.666992 0 -1.33398 -0.333008 -2.00098 -1l-6 -5l-2 -2v-1
l-1 -23v-1c0 -0.666992 0.333008 -1.33398 1 -2.00098l6 -6c0.666992 -0.666992 1.33398 -1 2.00098 -1h1l21 -1h1l2 -2v-8c-0.666992 0 -1 -0.333008 -1 -1l-2 -1h-15v5c0 0.666992 -0.666992 1 -2 1h-15v-1zM1599 1214v-1h2l15 -1l-4 -53c0 -0.666992 0.333008 -1 1 -1
l14 -1c1.33301 0 2 0.333008 2 1l4 53l15 -1l1 1l1 1v12l-1 1l-47 2h-2v-1zM1661 1164c0 -0.666992 0.331055 -1.33398 0.998047 -2.00098l6 -6c0.666992 -0.666992 1.33398 -1 2.00098 -1h1l30 -2h1c0.666992 0 1.33398 0.333008 2.00098 1l7 5l1 1v1
c0.666992 0 1 0.333008 1 1l4 58c0 0.666992 -0.333008 1.33398 -1 2.00098h-14c-1.33301 0 -2 -0.333008 -2 -1l-4 -51l-1 -1l-1 -1l-14 1l-1 1l-1 1l4 51c0 0.666992 -0.333008 1 -1 1l-14 1h-1c-0.666992 0 -1 -0.333008 -1 -1l-4 -58v-1zM1726 1153
c0 -0.666992 0.333008 -1.00195 1 -1.00195l38 -3h1c0.666992 0 1.33398 0.333008 2.00098 1l7 5c0.666992 0.666992 1 1.33398 1 2.00098v1l5 50v1c0 0.666992 -0.333008 1.33398 -1 2.00098l-6 6c-0.666992 0.666992 -1.33398 1 -2.00098 1h-1l-38 3
c-0.666992 0 -1 -0.666992 -1 -2zM1790 1149c0 -0.666992 0.333008 -1 1 -1l14 -1h1c0.666992 0 1 0.333008 1 1l6 66c0 0.666992 -0.333008 1 -1 1l-14 1c-1.33301 0 -2 -0.333008 -2 -1zM1822 1155l0.000976562 -0.998047c0 -0.666992 0.333008 -1.33398 1 -2.00098l6 -6
c0.666992 -0.666992 1.33398 -1 2.00098 -1h1l30 -2h3l7 6h1c0 0.666992 0.333008 1 1 1v1l5 51v1c0 0.666992 -0.333008 1 -1 1l-6 6c-0.666992 0.666992 -1.33398 1 -2.00098 1v1h-1l-30 2h-1c-0.666992 0 -1.33398 -0.333008 -2.00098 -1l-7 -5
c-1.33301 -0.666992 -2 -1.33398 -2 -2.00098v-1zM1925 1168c0 -0.666992 0.333008 -1.33301 1 -2h2l22 -3c0.666992 0 1.33398 0.333008 2.00098 1c0 0.666992 0.333008 1 1 1l2 21v2h-2l-22 3c-0.666992 0 -1.33398 -0.333008 -2.00098 -1l-1 -1zM869.001 1196l-34.999 79
c143.333 9.33301 289.666 14 438.999 14c54.667 0 110 -0.666992 166 -2c211.333 -4.66699 414.666 -18 609.999 -40l-41 -76l17 -91c-189.333 21.333 -385.666 34.333 -588.999 39c-54.667 1.33301 -108.667 2 -162 2c-144.667 0 -286 -4.66699 -424 -14zM1086 1203l-1 15
h14l1 -2c0.666992 0 1 -0.333008 1 -1v-10l-2 -2h-13zM1231 1187h-14l7 20zM1758 1164l-14 1l4 40l12 -1h1l2 -2v-1l-3 -35h-1zM2155 768.003h27v-6h-10v-26h-8v26h-9v6zM2213 768.003h8v-32h-7v22l-9 -14h-1l-8 14v-22h-7v32h7l9 -13zM2476 819.003v-7.00098
c0 -16.667 -8.33301 -29.667 -25 -39c-5.33301 -3.33301 -10.666 -5 -16 -5c-18 0 -27.667 9.66699 -29 29v6c0 18 8 31.333 24 40c6 2.66699 11.333 4 16 4s9.33398 -1 14 -3c9.33301 -5.33301 14.666 -13.666 16 -24.999zM1931 429.002v-1.00098
c4.66699 -5.33301 7 -10.333 7 -15c0 -4 -1.33301 -8 -4 -12c-12.667 -13.333 -25.334 -20 -38.001 -20h-3c-2 0 -4 0.333008 -6 1c-13.333 5.33301 -22 11 -26 17c-2.66699 4 -4 8 -4 12c0 2.66699 0.666992 5 2 7c2.66699 4.66699 9.33398 11.334 20.001 20.001
c7.33301 4.66699 15 7 23 7c1.33301 0 3 -0.333008 5 -1c8 -2.66699 16 -7.66699 24 -15zM1777 444.001c14.667 0 26.001 -2.99902 34.001 -8.99902c5.33301 -4.66699 8 -10.334 8 -17.001v-4c-1.33301 -8 -6.33301 -15 -15 -21c-9.33301 -6.66699 -21.333 -10 -36 -10
c-361.333 -4.66699 -721.333 -28 -1080 -70c-5.33301 -0.666992 -10.333 -1 -15 -1c-22.667 0 -36.334 7.33301 -41.001 22c-0.666992 1.33301 -1 3 -1 5c0 6 3 12 9 18c8 8 18.333 13 31 15c371.333 42.667 740 66.667 1106 72zM2429 938.002l-0.000976562 -2.99805
c0 -4.66699 -2.66699 -8 -8 -10l-30 -8c-0.666992 -2.66699 -1.33398 -6.66699 -2 -12c-1.33301 -6 -2.33301 -10.667 -3 -14c-2.66699 -24.667 -5.33398 -43.334 -8 -56.001l-1 -3c-3.33301 -4.66699 -7.66602 -7 -13 -7c0 -0.666992 -0.333008 -1 -1 -1
c-4 0.666992 -10 2.66699 -18 6c-10.667 4.66699 -16.334 9.66699 -17 15v3l8 56c0 0.666992 -0.333008 1 -1 1v-1l-38 -8c-1.33301 -0.666992 -2.33301 -1 -3 -1c-2.66699 0 -5 1.33301 -7 4l-24 23c-1.33301 1.33301 -2.33301 3.66602 -3 6.99902v2
c0 8.66699 4 29.667 12 63c8.66699 36 15.667 59.667 21 71c2 5.33301 5.66699 8 11 8s12 -2.33301 20 -7c10 -5.33301 15.333 -11 16 -17c0.666992 -0.666992 1 -1.66699 1 -3c0 -0.666992 -0.333008 -1.33398 -1 -2.00098c-11.333 -38.667 -19.666 -70.667 -25 -96
c3.33301 0.666992 8.66602 2 16 4c6.66699 2 11.334 3.33301 14 4c9.33301 62.667 14.333 98.334 15 107.001c1.33301 5.33301 4 8.33301 8 9h8c6 0 12.333 -1.66699 19 -5c8.66699 -4.66699 13.667 -10.334 15 -17.001c0 -4 -3 -30.333 -9 -79h1
c0.666992 0 1.33398 -0.333008 2.00098 -1c3.33301 -1.33301 8 -5.66602 14 -12.999c6 -8 9.66699 -14.333 11 -19zM2190 928.004c-27.333 -24 -41 -41.999 -41 -53.999v-2c0 -1.33301 1.33301 -2 4 -2h1c10.667 0 23.334 3 38 9c14 6 21.667 11 23 15
c-0.666992 7.33301 -9 18.666 -25 33.999zM2183 990.005c18.667 18.667 29.334 31.667 32 39h-6c-11.333 0 -22 -2.33301 -32 -7c-9.33301 -4 -14 -7.66699 -14 -11c0.666992 -2 7.33398 -9 20 -21zM2229 840.005c-20.667 -9.33301 -40.667 -14 -60 -14h-4
c-17.333 0 -33 6 -47 18c-13.333 12.667 -20.333 26.667 -21 42c0 19.333 18.333 45 55 77c-27.333 24 -41 44.333 -41 61v1c0 14.667 11.333 27.334 34 38.001c19.333 9.33301 40.666 14.333 64 15h3l2 -1c6 0 9.66699 -3 11 -9c10.667 -0.666992 20 -7.33398 28 -20.001
c6.66699 -10 10.334 -19.667 11 -29c0 -16 -14.333 -37.333 -43 -64c31.333 -28 47.333 -52 48 -72c0 -16.667 -13.333 -31 -40 -43zM1917 790.005c9.33301 0.666992 19 14.665 29 41.998c10 30 15.333 63.333 16 100c0.666992 1.33301 1 3.33301 1 6
s-0.333008 5.66699 -1 9v11c0 2.66699 -0.333008 5.33398 -1 8.00098c-28 -57.333 -46 -113.666 -54 -168.999c2 -4.66699 5 -7 9 -7h1zM2128 680.003c-6.66699 -46 -23.999 -85.998 -51.999 -119.998c-32 -38 -71 -58 -117 -60h-5c-55.333 0 -99 22.667 -131 68
c-16 -20 -33.333 -33.667 -52 -41c-8 -2.66699 -17 -4.33398 -27 -5.00098h-3c-28.667 0 -51 8.33301 -67 25c-12.667 12.667 -22 29.667 -28 51c-16 -46 -34.333 -75.667 -55 -89c-4 -2 -12.667 -4.33301 -26 -7c-18.667 0 -38.667 6.66699 -60 20
s-38.666 30.333 -51.999 51c-26.667 -48 -67.334 -79.667 -122.001 -95c-10 -2.66699 -20 -4 -30 -4h-5c-38 0 -70 14.667 -96 44c-27.333 30.667 -42 70 -44 118v9c0 52.667 10.667 128 32 226l-23 -5c-0.666992 0 -3 -0.333008 -7 -1h-2c-11.333 0 -22.333 4.66699 -33 14
c-10 8.66699 -17 18.334 -21 29.001c-2 5.33301 -3 10 -3 14c0 8 3 14 9 18c12.667 9.33301 46.667 20 102 32c18 66 33.333 103.667 46 113c5.33301 2.66699 10.666 4.33398 15.999 5.00098c11.333 0 24.333 -3.66699 39 -11c13.333 -7.33301 23 -14.666 29 -21.999
c3.33301 -4.66699 5 -9.33398 5 -14.001v-4l-12 -44c14.667 2 23 3 25 3c7.33301 0.666992 14.333 1 21 1c26 0 46.667 -6.33301 62 -19l2 -2c14.667 -10.667 22 -21.667 22 -33c0 -8 -4 -15.667 -12 -23c-9.33301 -6.66699 -20.666 -10.334 -33.999 -11.001
c-16 -0.666992 -44.333 -4.66699 -85 -12c-2.66699 -0.666992 -7 -1.33398 -13 -2.00098c-6 -1.33301 -10.667 -2.33301 -14 -3c-33.333 -134 -50 -232.667 -50 -296v-10c0.666992 -14.667 7 -22 19 -22c24 0.666992 49.667 11.334 77 32.001c26 20.667 41.667 40.667 47 60
v4c0 7.33301 3 12.666 9 15.999l3 1l8 1h3c2.66699 0 6 -0.666992 10 -2c5.33301 53.333 14.666 106 27.999 158c22.667 90 46.334 135.667 71.001 137h4c24.667 0 42.334 -6.33301 53.001 -19c4.66699 -4 7 -9.33301 7 -16v-3c-0.666992 -6 -2 -10.667 -4 -14
c-31.333 -112 -47 -211.667 -47 -299v-6c63.333 109.333 101 227.333 113 354c1.33301 15.333 11 23.333 29 24h4c16.667 0 32.667 -4 48 -12c19.333 -9.33301 29.333 -20.333 30 -33c-0.666992 -12.667 -5.33398 -47.334 -14.001 -104.001
c-15.333 -90.667 -23 -150.667 -23 -180v-6c0.666992 -10.667 2.66699 -21 6 -31c5.33301 -14.667 13 -22 23 -22c13.333 0.666992 24.333 12.334 33 35.001c-1.33301 9.33301 -2.33301 19.666 -3 30.999v21c0 69.333 14.667 141.666 44 216.999
c36.667 90 78.667 136 126 138h3c24 0 44.667 -8 62 -24c21.333 -20 33 -49.667 35 -89v-19c0 -49.333 -7 -91 -21 -125c-16 -38.667 -39.333 -63 -70 -73c-10 -3.33301 -19.333 -5 -28 -5h-6c-18 0 -33.667 5.66699 -47 17c-4.66699 -23.333 -7 -47.333 -7 -72v-10
c2 -35.333 19.333 -53 52 -53h4c28 0.666992 54.333 16.667 79 48c21.333 27.333 34.333 56 38.999 86v2c1.33301 24.667 10.666 37.334 28 38.001h2c12 0 21.667 -5 29 -15c8.66699 -10 13.334 -22.667 14 -38v-14c0 -8.66699 -0.333008 -16 -1 -22zM686.003 420.005
c-4.66699 -0.666992 -7.99902 -1.00098 -9.99902 -1.00098c-28.667 0.666992 -51.334 9.33398 -68.001 26.001c-19.333 20 -29 50.333 -29 91v4c2 97.333 26.667 215.666 74 354.999c3.33301 9.33301 9.66602 15.666 18.999 18.999c2 0.666992 5.33301 1 10 1
s10.334 -0.333008 17.001 -1c36.667 -4 59 -13 67 -27c3.33301 -4 5 -8.33301 5 -13c0 -3.33301 -0.666992 -6.66602 -2 -9.99902c-52.667 -162.667 -79 -273 -79 -331c0 -14.667 2.66699 -25 8 -31c2 -2 4 -3 6 -3h3c19.333 0.666992 35.666 15.334 48.999 44.001
c10 21.333 16.333 45.666 19 72.999l1 10l10 2c3.33301 0.666992 6.66602 1 9.99902 1h4c4.66699 0 9.66699 -0.666992 15 -2c1.33301 33.333 2.33301 78.333 3 135c0 64 2 107.333 6 130c6 36.667 19.667 55.334 41 56.001h5c16.667 0 35.334 -6 56.001 -18
c6.66699 -2.66699 10.334 -8.33398 11.001 -17.001c-0.666992 -9.33301 -3 -34.333 -7 -75v-2c4.66699 16 10 35.667 16 59c6.66699 25.333 10 38.333 10 39c4 13.333 13 23.333 27 30c10 4 21 6 33 6c5.33301 0 11 -0.333008 17 -1
c28.667 -5.33301 43.334 -19.666 44.001 -42.999c0 -11.333 -5 -30 -15 -56c-14.667 -38.667 -22 -69 -22 -91v-3c1.33301 -8 7 -12 17 -12c12 0 24 11.667 36 35c6 12.667 12.333 19 19 19c7.33301 0 14 -2.33301 20 -7c7.33301 -4.66699 11 -10.667 11 -18
c-0.666992 -22 -9.33398 -43 -26.001 -63c-18.667 -22 -42 -33.667 -70 -35h-5c-35.333 0 -60.333 13.333 -75 40c-28.667 -82 -43 -162 -43 -240v-10l1 -8l-8 -5c-4.66699 -3.33301 -12 -5 -22 -5c-17.333 0 -34.666 3.33301 -51.999 10
c-12.667 5.33301 -22.334 12 -29.001 20c-29.333 -50 -72 -75.667 -128 -77zM690.004 970.004c-12 13.333 -18 30.332 -18 50.999v3c0 24 5.66699 46.667 17 68c14 28 33 42.333 57 43h8c18 0 30.667 -4.66699 38 -14c4 -5.33301 6 -12 6 -20v-6c18 -10.667 27 -27 27 -49
c-0.666992 -20.667 -8 -40 -22 -58c-17.333 -21.333 -41 -32.666 -71 -33.999h-6c-14 0 -26 5.33301 -36 16zM532.004 316.003l-4.00098 -5.00098c-14 -16.667 -30.667 -26.334 -50 -29.001c-3.33301 -0.666992 -10 -1.33398 -20 -2.00098h-10
c-29.333 0 -58.333 5.66699 -87 17c-36 14.667 -57 34.667 -63 60c-4.66699 20 -25 90 -61 210c-94 316 -141 501 -141 555v6c4 20.667 18.333 33.334 43 38.001c6 0.666992 12.333 1 19 1c6.66699 0.666992 13.334 1 20.001 1c13.333 0 25.666 -1 36.999 -3
c27.333 -4.66699 42.333 -14 45 -28c14.667 -165.333 60.667 -366.666 138 -603.999c32.667 212.667 77.334 406.667 134.001 582c-12.667 4.66699 -20.334 10.334 -23.001 17.001c-0.666992 2 -1 4 -1 6c0 2.66699 0.666992 5.33398 2 8.00098
c8.66699 20.667 24.667 43.667 48 69c24 24.667 42.333 38 55 40c1.33301 0.666992 6 1.66699 14 3c42.667 -0.666992 65.667 -9.66699 69 -27l1 -5l-1 -3c-45.333 -120.667 -87.666 -274 -126.999 -460c-32 -152.667 -48 -270.334 -48 -353.001c0 -36 3 -65.333 9 -88z" />
    <glyph glyph-name="glyph231" horiz-adv-x="1024" 
 />
    <glyph glyph-name="glyph232" horiz-adv-x="1024" 
 />
  </font>
</defs>
</svg>
